G04*
G04 #@! TF.GenerationSoftware,Altium Limited,Altium Designer,23.0.1 (38)*
G04*
G04 Layer_Physical_Order=2*
G04 Layer_Color=16711680*
%FSLAX26Y26*%
%MOIN*%
G70*
G04*
G04 #@! TF.SameCoordinates,B86BD9B1-E4BC-44FB-91C3-8862E556E9DD*
G04*
G04*
G04 #@! TF.FilePolarity,Positive*
G04*
G01*
G75*
%ADD39C,0.030000*%
%ADD40C,0.160000*%
%ADD41C,0.021654*%
%ADD42C,0.090354*%
%ADD43R,0.090354X0.090354*%
%ADD44R,0.046063X0.046063*%
%ADD45C,0.046063*%
%ADD46C,0.100787*%
%ADD47C,0.059055*%
%ADD48C,0.167716*%
%ADD49R,0.044606X0.044606*%
%ADD50C,0.044606*%
%ADD51R,0.050197X0.050197*%
%ADD52C,0.050197*%
%ADD53C,0.076772*%
%ADD54C,0.050000*%
G36*
X8540000Y10000D02*
X10000D01*
Y1615000D01*
X8540000D01*
Y10000D01*
D02*
G37*
%LPC*%
G36*
X8438864Y1600000D02*
X8421136D01*
X8403748Y1596541D01*
X8387369Y1589757D01*
X8372628Y1579908D01*
X8360092Y1567372D01*
X8350243Y1552631D01*
X8343459Y1536252D01*
X8340000Y1518864D01*
Y1501136D01*
X8343459Y1483748D01*
X8350243Y1467369D01*
X8360092Y1452628D01*
X8372628Y1440092D01*
X8387369Y1430243D01*
X8403748Y1423459D01*
X8421136Y1420000D01*
X8438864D01*
X8456252Y1423459D01*
X8472631Y1430243D01*
X8487372Y1440092D01*
X8499908Y1452628D01*
X8509757Y1467369D01*
X8516541Y1483748D01*
X8520000Y1501136D01*
Y1518864D01*
X8516541Y1536252D01*
X8509757Y1552631D01*
X8499908Y1567372D01*
X8487372Y1579908D01*
X8472631Y1589757D01*
X8456252Y1596541D01*
X8438864Y1600000D01*
D02*
G37*
G36*
X133864D02*
X116136D01*
X98748Y1596541D01*
X82369Y1589757D01*
X67628Y1579908D01*
X55092Y1567372D01*
X45243Y1552631D01*
X38459Y1536252D01*
X35000Y1518864D01*
Y1501136D01*
X38459Y1483748D01*
X45243Y1467369D01*
X55092Y1452628D01*
X67628Y1440092D01*
X82369Y1430243D01*
X98748Y1423459D01*
X116136Y1420000D01*
X133864D01*
X151252Y1423459D01*
X167631Y1430243D01*
X182372Y1440092D01*
X194908Y1452628D01*
X204757Y1467369D01*
X211541Y1483748D01*
X215000Y1501136D01*
Y1518864D01*
X211541Y1536252D01*
X204757Y1552631D01*
X194908Y1567372D01*
X182372Y1579908D01*
X167631Y1589757D01*
X151252Y1596541D01*
X133864Y1600000D01*
D02*
G37*
G36*
X7878221Y1458386D02*
X7865480D01*
X7853174Y1455088D01*
X7842141Y1448718D01*
X7833132Y1439710D01*
X7826762Y1428676D01*
X7823465Y1416370D01*
Y1403630D01*
X7826762Y1391324D01*
X7833132Y1380290D01*
X7842141Y1371282D01*
X7853174Y1364912D01*
X7865480Y1361614D01*
X7878221D01*
X7890527Y1364912D01*
X7901560Y1371282D01*
X7910569Y1380290D01*
X7916939Y1391324D01*
X7920236Y1403630D01*
Y1416370D01*
X7916939Y1428676D01*
X7910569Y1439710D01*
X7901560Y1448718D01*
X7890527Y1455088D01*
X7878221Y1458386D01*
D02*
G37*
G36*
X7383221D02*
X7370480D01*
X7358174Y1455088D01*
X7347141Y1448718D01*
X7338132Y1439710D01*
X7331762Y1428676D01*
X7328465Y1416370D01*
Y1403630D01*
X7331762Y1391324D01*
X7338132Y1380290D01*
X7347141Y1371282D01*
X7358174Y1364912D01*
X7370480Y1361614D01*
X7383221D01*
X7395527Y1364912D01*
X7406560Y1371282D01*
X7415569Y1380290D01*
X7421939Y1391324D01*
X7425236Y1403630D01*
Y1416370D01*
X7421939Y1428676D01*
X7415569Y1439710D01*
X7406560Y1448718D01*
X7395527Y1455088D01*
X7383221Y1458386D01*
D02*
G37*
G36*
X5823221D02*
X5810480D01*
X5798174Y1455088D01*
X5787141Y1448718D01*
X5778132Y1439710D01*
X5771762Y1428676D01*
X5768465Y1416370D01*
Y1403630D01*
X5771762Y1391324D01*
X5778132Y1380290D01*
X5787141Y1371282D01*
X5798174Y1364912D01*
X5810480Y1361614D01*
X5823221D01*
X5835527Y1364912D01*
X5846560Y1371282D01*
X5855569Y1380290D01*
X5861939Y1391324D01*
X5865236Y1403630D01*
Y1416370D01*
X5861939Y1428676D01*
X5855569Y1439710D01*
X5846560Y1448718D01*
X5835527Y1455088D01*
X5823221Y1458386D01*
D02*
G37*
G36*
X5328221D02*
X5315480D01*
X5303174Y1455088D01*
X5292141Y1448718D01*
X5283132Y1439710D01*
X5276762Y1428676D01*
X5273465Y1416370D01*
Y1403630D01*
X5276762Y1391324D01*
X5283132Y1380290D01*
X5292141Y1371282D01*
X5303174Y1364912D01*
X5315480Y1361614D01*
X5328221D01*
X5340527Y1364912D01*
X5351560Y1371282D01*
X5360569Y1380290D01*
X5366939Y1391324D01*
X5370236Y1403630D01*
Y1416370D01*
X5366939Y1428676D01*
X5360569Y1439710D01*
X5351560Y1448718D01*
X5340527Y1455088D01*
X5328221Y1458386D01*
D02*
G37*
G36*
X3768220D02*
X3755480D01*
X3743174Y1455088D01*
X3732141Y1448718D01*
X3723132Y1439710D01*
X3716762Y1428676D01*
X3713465Y1416370D01*
Y1403630D01*
X3716762Y1391324D01*
X3723132Y1380290D01*
X3732141Y1371282D01*
X3743174Y1364912D01*
X3755480Y1361614D01*
X3768220D01*
X3780527Y1364912D01*
X3791560Y1371282D01*
X3800569Y1380290D01*
X3806939Y1391324D01*
X3810236Y1403630D01*
Y1416370D01*
X3806939Y1428676D01*
X3800569Y1439710D01*
X3791560Y1448718D01*
X3780527Y1455088D01*
X3768220Y1458386D01*
D02*
G37*
G36*
X3273220D02*
X3260480D01*
X3248174Y1455088D01*
X3237141Y1448718D01*
X3228132Y1439710D01*
X3221762Y1428676D01*
X3218465Y1416370D01*
Y1403630D01*
X3221762Y1391324D01*
X3228132Y1380290D01*
X3237141Y1371282D01*
X3248174Y1364912D01*
X3260480Y1361614D01*
X3273220D01*
X3285527Y1364912D01*
X3296560Y1371282D01*
X3305569Y1380290D01*
X3311939Y1391324D01*
X3315236Y1403630D01*
Y1416370D01*
X3311939Y1428676D01*
X3305569Y1439710D01*
X3296560Y1448718D01*
X3285527Y1455088D01*
X3273220Y1458386D01*
D02*
G37*
G36*
X1713220D02*
X1700480D01*
X1688174Y1455088D01*
X1677141Y1448718D01*
X1668132Y1439710D01*
X1661762Y1428676D01*
X1658465Y1416370D01*
Y1403630D01*
X1661762Y1391324D01*
X1668132Y1380290D01*
X1677141Y1371282D01*
X1688174Y1364912D01*
X1700480Y1361614D01*
X1713220D01*
X1725527Y1364912D01*
X1736560Y1371282D01*
X1745569Y1380290D01*
X1751939Y1391324D01*
X1755236Y1403630D01*
Y1416370D01*
X1751939Y1428676D01*
X1745569Y1439710D01*
X1736560Y1448718D01*
X1725527Y1455088D01*
X1713220Y1458386D01*
D02*
G37*
G36*
X1218220D02*
X1205480D01*
X1193174Y1455088D01*
X1182141Y1448718D01*
X1173132Y1439710D01*
X1166762Y1428676D01*
X1163465Y1416370D01*
Y1403630D01*
X1166762Y1391324D01*
X1173132Y1380290D01*
X1182141Y1371282D01*
X1193174Y1364912D01*
X1205480Y1361614D01*
X1218220D01*
X1230527Y1364912D01*
X1241560Y1371282D01*
X1250569Y1380290D01*
X1256939Y1391324D01*
X1260236Y1403630D01*
Y1416370D01*
X1256939Y1428676D01*
X1250569Y1439710D01*
X1241560Y1448718D01*
X1230527Y1455088D01*
X1218220Y1458386D01*
D02*
G37*
G36*
X8274621Y1243209D02*
X8265379D01*
X8256452Y1240817D01*
X8248449Y1236196D01*
X8241914Y1229661D01*
X8237293Y1221658D01*
X8234902Y1212731D01*
Y1203489D01*
X8237293Y1194563D01*
X8241914Y1186559D01*
X8248449Y1180025D01*
X8256452Y1175404D01*
X8265379Y1173012D01*
X8274621D01*
X8283548Y1175404D01*
X8291551Y1180025D01*
X8298086Y1186559D01*
X8302707Y1194563D01*
X8305098Y1203489D01*
Y1212731D01*
X8302707Y1221658D01*
X8298086Y1229661D01*
X8291551Y1236196D01*
X8283548Y1240817D01*
X8274621Y1243209D01*
D02*
G37*
G36*
X6779621D02*
X6770379D01*
X6761453Y1240817D01*
X6753449Y1236196D01*
X6746914Y1229661D01*
X6742293Y1221658D01*
X6739902Y1212731D01*
Y1203489D01*
X6742293Y1194563D01*
X6746914Y1186559D01*
X6753449Y1180025D01*
X6761453Y1175404D01*
X6770379Y1173012D01*
X6779621D01*
X6788547Y1175404D01*
X6796551Y1180025D01*
X6803086Y1186559D01*
X6807707Y1194563D01*
X6810098Y1203489D01*
Y1212731D01*
X6807707Y1221658D01*
X6803086Y1229661D01*
X6796551Y1236196D01*
X6788547Y1240817D01*
X6779621Y1243209D01*
D02*
G37*
G36*
X6219621D02*
X6210379D01*
X6201453Y1240817D01*
X6193449Y1236196D01*
X6186914Y1229661D01*
X6182293Y1221658D01*
X6179902Y1212731D01*
Y1203489D01*
X6182293Y1194563D01*
X6186914Y1186559D01*
X6193449Y1180025D01*
X6201453Y1175404D01*
X6210379Y1173012D01*
X6219621D01*
X6228547Y1175404D01*
X6236551Y1180025D01*
X6243086Y1186559D01*
X6247707Y1194563D01*
X6250098Y1203489D01*
Y1212731D01*
X6247707Y1221658D01*
X6243086Y1229661D01*
X6236551Y1236196D01*
X6228547Y1240817D01*
X6219621Y1243209D01*
D02*
G37*
G36*
X4724621D02*
X4715379D01*
X4706453Y1240817D01*
X4698449Y1236196D01*
X4691914Y1229661D01*
X4687293Y1221658D01*
X4684902Y1212731D01*
Y1203489D01*
X4687293Y1194563D01*
X4691914Y1186559D01*
X4698449Y1180025D01*
X4706453Y1175404D01*
X4715379Y1173012D01*
X4724621D01*
X4733547Y1175404D01*
X4741551Y1180025D01*
X4748086Y1186559D01*
X4752707Y1194563D01*
X4755098Y1203489D01*
Y1212731D01*
X4752707Y1221658D01*
X4748086Y1229661D01*
X4741551Y1236196D01*
X4733547Y1240817D01*
X4724621Y1243209D01*
D02*
G37*
G36*
X4164621D02*
X4155379D01*
X4146453Y1240817D01*
X4138449Y1236196D01*
X4131914Y1229661D01*
X4127293Y1221658D01*
X4124902Y1212731D01*
Y1203489D01*
X4127293Y1194563D01*
X4131914Y1186559D01*
X4138449Y1180025D01*
X4146453Y1175404D01*
X4155379Y1173012D01*
X4164621D01*
X4173547Y1175404D01*
X4181551Y1180025D01*
X4188086Y1186559D01*
X4192707Y1194563D01*
X4195098Y1203489D01*
Y1212731D01*
X4192707Y1221658D01*
X4188086Y1229661D01*
X4181551Y1236196D01*
X4173547Y1240817D01*
X4164621Y1243209D01*
D02*
G37*
G36*
X2669621D02*
X2660379D01*
X2651452Y1240817D01*
X2643449Y1236196D01*
X2636914Y1229661D01*
X2632294Y1221658D01*
X2629902Y1212731D01*
Y1203489D01*
X2632294Y1194563D01*
X2636914Y1186559D01*
X2643449Y1180025D01*
X2651452Y1175404D01*
X2660379Y1173012D01*
X2669621D01*
X2678548Y1175404D01*
X2686551Y1180025D01*
X2693086Y1186559D01*
X2697706Y1194563D01*
X2700098Y1203489D01*
Y1212731D01*
X2697706Y1221658D01*
X2693086Y1229661D01*
X2686551Y1236196D01*
X2678548Y1240817D01*
X2669621Y1243209D01*
D02*
G37*
G36*
X2109621D02*
X2100379D01*
X2091452Y1240817D01*
X2083449Y1236196D01*
X2076914Y1229661D01*
X2072294Y1221658D01*
X2069902Y1212731D01*
Y1203489D01*
X2072294Y1194563D01*
X2076914Y1186559D01*
X2083449Y1180025D01*
X2091452Y1175404D01*
X2100379Y1173012D01*
X2109621D01*
X2118548Y1175404D01*
X2126551Y1180025D01*
X2133086Y1186559D01*
X2137706Y1194563D01*
X2140098Y1203489D01*
Y1212731D01*
X2137706Y1221658D01*
X2133086Y1229661D01*
X2126551Y1236196D01*
X2118548Y1240817D01*
X2109621Y1243209D01*
D02*
G37*
G36*
X614621D02*
X605379D01*
X596452Y1240817D01*
X588449Y1236196D01*
X581914Y1229661D01*
X577293Y1221658D01*
X574902Y1212731D01*
Y1203489D01*
X577293Y1194563D01*
X581914Y1186559D01*
X588449Y1180025D01*
X596452Y1175404D01*
X605379Y1173012D01*
X614621D01*
X623548Y1175404D01*
X631551Y1180025D01*
X638086Y1186559D01*
X642707Y1194563D01*
X645098Y1203489D01*
Y1212731D01*
X642707Y1221658D01*
X638086Y1229661D01*
X631551Y1236196D01*
X623548Y1240817D01*
X614621Y1243209D01*
D02*
G37*
G36*
X8305098Y1046358D02*
X8234902D01*
Y1036750D01*
X7701260D01*
X7691505Y1034809D01*
X7683236Y1029284D01*
X7576255Y922303D01*
X7575747D01*
X7567532Y920102D01*
X7560166Y915849D01*
X7554151Y909835D01*
X7549898Y902468D01*
X7547697Y894253D01*
Y885747D01*
X7549898Y877532D01*
X7554151Y870165D01*
X7560166Y864151D01*
X7567532Y859898D01*
X7575747Y857697D01*
X7584253D01*
X7592468Y859898D01*
X7599834Y864151D01*
X7605849Y870165D01*
X7610102Y877532D01*
X7612303Y885747D01*
Y886255D01*
X7711818Y985770D01*
X8234902D01*
Y976162D01*
X8305098D01*
Y1046358D01*
D02*
G37*
G36*
X6250098D02*
X6179902D01*
Y1036750D01*
X5646260D01*
X5636505Y1034809D01*
X5628236Y1029284D01*
X5521255Y922303D01*
X5520747D01*
X5512532Y920102D01*
X5505166Y915849D01*
X5499151Y909835D01*
X5494898Y902468D01*
X5492697Y894253D01*
Y885747D01*
X5494898Y877532D01*
X5499151Y870165D01*
X5505166Y864151D01*
X5512532Y859898D01*
X5520747Y857697D01*
X5529253D01*
X5537468Y859898D01*
X5544834Y864151D01*
X5550849Y870165D01*
X5555102Y877532D01*
X5557303Y885747D01*
Y886255D01*
X5656818Y985770D01*
X6179902D01*
Y976162D01*
X6250098D01*
Y1046358D01*
D02*
G37*
G36*
X4195098D02*
X4124902D01*
Y1036750D01*
X3591260D01*
X3581505Y1034809D01*
X3573236Y1029284D01*
X3466255Y922303D01*
X3465747D01*
X3457532Y920102D01*
X3450166Y915849D01*
X3444151Y909835D01*
X3439898Y902468D01*
X3437697Y894253D01*
Y885747D01*
X3439898Y877532D01*
X3444151Y870165D01*
X3450166Y864151D01*
X3457532Y859898D01*
X3465747Y857697D01*
X3474253D01*
X3482468Y859898D01*
X3489834Y864151D01*
X3495849Y870165D01*
X3500102Y877532D01*
X3502303Y885747D01*
Y886255D01*
X3601818Y985770D01*
X4124902D01*
Y976162D01*
X4195098D01*
Y1046358D01*
D02*
G37*
G36*
X2140098D02*
X2069902D01*
Y1036750D01*
X1536260D01*
X1526505Y1034809D01*
X1518236Y1029284D01*
X1411255Y922303D01*
X1410747D01*
X1402532Y920102D01*
X1395166Y915849D01*
X1389151Y909835D01*
X1384898Y902468D01*
X1382697Y894253D01*
Y885747D01*
X1384898Y877532D01*
X1389151Y870165D01*
X1395166Y864151D01*
X1402532Y859898D01*
X1410747Y857697D01*
X1419253D01*
X1427468Y859898D01*
X1434834Y864151D01*
X1440849Y870165D01*
X1445102Y877532D01*
X1447303Y885747D01*
Y886255D01*
X1546818Y985770D01*
X2069902D01*
Y976162D01*
X2140098D01*
Y1046358D01*
D02*
G37*
G36*
X190948Y1075394D02*
X179052D01*
X167384Y1073073D01*
X156393Y1068520D01*
X146501Y1061911D01*
X138089Y1053499D01*
X131480Y1043607D01*
X126927Y1032616D01*
X124606Y1020948D01*
Y1009052D01*
X126927Y997384D01*
X131480Y986393D01*
X138089Y976501D01*
X146501Y968089D01*
X148609Y966681D01*
X151968Y963386D01*
X151968D01*
X151969Y963386D01*
Y897323D01*
X218031D01*
Y963386D01*
X218032Y963386D01*
X218032D01*
X221439Y966713D01*
X223499Y968089D01*
X231911Y976501D01*
X238520Y986393D01*
X243073Y997384D01*
X245394Y1009052D01*
Y1020948D01*
X243073Y1032616D01*
X238520Y1043607D01*
X231911Y1053499D01*
X223499Y1061911D01*
X213607Y1068520D01*
X202616Y1073073D01*
X190948Y1075394D01*
D02*
G37*
G36*
X7884253Y922303D02*
X7875747D01*
X7867532Y920102D01*
X7860166Y915849D01*
X7854151Y909835D01*
X7849898Y902468D01*
X7847697Y894253D01*
Y885747D01*
X7849898Y877532D01*
X7854151Y870165D01*
X7860166Y864151D01*
X7867532Y859898D01*
X7875747Y857697D01*
X7884253D01*
X7892468Y859898D01*
X7899834Y864151D01*
X7905849Y870165D01*
X7910102Y877532D01*
X7912303Y885747D01*
Y894253D01*
X7910102Y902468D01*
X7905849Y909835D01*
X7899834Y915849D01*
X7892468Y920102D01*
X7884253Y922303D01*
D02*
G37*
G36*
X7784253D02*
X7775747D01*
X7767532Y920102D01*
X7760166Y915849D01*
X7754151Y909835D01*
X7749898Y902468D01*
X7747697Y894253D01*
Y885747D01*
X7749898Y877532D01*
X7754151Y870165D01*
X7760166Y864151D01*
X7767532Y859898D01*
X7775747Y857697D01*
X7784253D01*
X7792468Y859898D01*
X7799834Y864151D01*
X7805849Y870165D01*
X7810102Y877532D01*
X7812303Y885747D01*
Y894253D01*
X7810102Y902468D01*
X7805849Y909835D01*
X7799834Y915849D01*
X7792468Y920102D01*
X7784253Y922303D01*
D02*
G37*
G36*
X7684253D02*
X7675747D01*
X7667532Y920102D01*
X7660166Y915849D01*
X7654151Y909835D01*
X7649898Y902468D01*
X7647697Y894253D01*
Y885747D01*
X7649898Y877532D01*
X7654151Y870165D01*
X7660166Y864151D01*
X7667532Y859898D01*
X7675747Y857697D01*
X7684253D01*
X7692468Y859898D01*
X7699834Y864151D01*
X7705849Y870165D01*
X7710102Y877532D01*
X7712303Y885747D01*
Y894253D01*
X7710102Y902468D01*
X7705849Y909835D01*
X7699834Y915849D01*
X7692468Y920102D01*
X7684253Y922303D01*
D02*
G37*
G36*
X6810098Y1046358D02*
X6739902D01*
Y976162D01*
X6810098D01*
Y985770D01*
X7248182D01*
X7347697Y886255D01*
Y885747D01*
X7349898Y877532D01*
X7354151Y870165D01*
X7360166Y864151D01*
X7367532Y859898D01*
X7375747Y857697D01*
X7384253D01*
X7392468Y859898D01*
X7399834Y864151D01*
X7405849Y870165D01*
X7410102Y877532D01*
X7412303Y885747D01*
Y894253D01*
X7410102Y902468D01*
X7405849Y909835D01*
X7399834Y915849D01*
X7392468Y920102D01*
X7384253Y922303D01*
X7383745D01*
X7276764Y1029284D01*
X7268495Y1034809D01*
X7258740Y1036750D01*
X6810098D01*
Y1046358D01*
D02*
G37*
G36*
X7284253Y922303D02*
X7275747D01*
X7267532Y920102D01*
X7260166Y915849D01*
X7254151Y909835D01*
X7249898Y902468D01*
X7247697Y894253D01*
Y885747D01*
X7249898Y877532D01*
X7254151Y870165D01*
X7260166Y864151D01*
X7267532Y859898D01*
X7275747Y857697D01*
X7284253D01*
X7292468Y859898D01*
X7299834Y864151D01*
X7305849Y870165D01*
X7310102Y877532D01*
X7312303Y885747D01*
Y894253D01*
X7310102Y902468D01*
X7305849Y909835D01*
X7299834Y915849D01*
X7292468Y920102D01*
X7284253Y922303D01*
D02*
G37*
G36*
X7112303D02*
X7047697D01*
Y857697D01*
X7112303D01*
Y922303D01*
D02*
G37*
G36*
X5829253D02*
X5820747D01*
X5812532Y920102D01*
X5805166Y915849D01*
X5799151Y909835D01*
X5794898Y902468D01*
X5792697Y894253D01*
Y885747D01*
X5794898Y877532D01*
X5799151Y870165D01*
X5805166Y864151D01*
X5812532Y859898D01*
X5820747Y857697D01*
X5829253D01*
X5837468Y859898D01*
X5844834Y864151D01*
X5850849Y870165D01*
X5855102Y877532D01*
X5857303Y885747D01*
Y894253D01*
X5855102Y902468D01*
X5850849Y909835D01*
X5844834Y915849D01*
X5837468Y920102D01*
X5829253Y922303D01*
D02*
G37*
G36*
X5729253D02*
X5720747D01*
X5712532Y920102D01*
X5705166Y915849D01*
X5699151Y909835D01*
X5694898Y902468D01*
X5692697Y894253D01*
Y885747D01*
X5694898Y877532D01*
X5699151Y870165D01*
X5705166Y864151D01*
X5712532Y859898D01*
X5720747Y857697D01*
X5729253D01*
X5737468Y859898D01*
X5744834Y864151D01*
X5750849Y870165D01*
X5755102Y877532D01*
X5757303Y885747D01*
Y894253D01*
X5755102Y902468D01*
X5750849Y909835D01*
X5744834Y915849D01*
X5737468Y920102D01*
X5729253Y922303D01*
D02*
G37*
G36*
X5629253D02*
X5620747D01*
X5612532Y920102D01*
X5605166Y915849D01*
X5599151Y909835D01*
X5594898Y902468D01*
X5592697Y894253D01*
Y885747D01*
X5594898Y877532D01*
X5599151Y870165D01*
X5605166Y864151D01*
X5612532Y859898D01*
X5620747Y857697D01*
X5629253D01*
X5637468Y859898D01*
X5644834Y864151D01*
X5650849Y870165D01*
X5655102Y877532D01*
X5657303Y885747D01*
Y894253D01*
X5655102Y902468D01*
X5650849Y909835D01*
X5644834Y915849D01*
X5637468Y920102D01*
X5629253Y922303D01*
D02*
G37*
G36*
X4755098Y1046358D02*
X4684902D01*
Y976162D01*
X4755098D01*
Y985770D01*
X5193182D01*
X5292697Y886255D01*
Y885747D01*
X5294898Y877532D01*
X5299151Y870165D01*
X5305166Y864151D01*
X5312532Y859898D01*
X5320747Y857697D01*
X5329253D01*
X5337468Y859898D01*
X5344834Y864151D01*
X5350849Y870165D01*
X5355102Y877532D01*
X5357303Y885747D01*
Y894253D01*
X5355102Y902468D01*
X5350849Y909835D01*
X5344834Y915849D01*
X5337468Y920102D01*
X5329253Y922303D01*
X5328745D01*
X5221764Y1029284D01*
X5213495Y1034809D01*
X5203740Y1036750D01*
X4755098D01*
Y1046358D01*
D02*
G37*
G36*
X5229253Y922303D02*
X5220747D01*
X5212532Y920102D01*
X5205166Y915849D01*
X5199151Y909835D01*
X5194898Y902468D01*
X5192697Y894253D01*
Y885747D01*
X5194898Y877532D01*
X5199151Y870165D01*
X5205166Y864151D01*
X5212532Y859898D01*
X5220747Y857697D01*
X5229253D01*
X5237468Y859898D01*
X5244834Y864151D01*
X5250849Y870165D01*
X5255102Y877532D01*
X5257303Y885747D01*
Y894253D01*
X5255102Y902468D01*
X5250849Y909835D01*
X5244834Y915849D01*
X5237468Y920102D01*
X5229253Y922303D01*
D02*
G37*
G36*
X5057303D02*
X4992697D01*
Y857697D01*
X5057303D01*
Y922303D01*
D02*
G37*
G36*
X3774253D02*
X3765747D01*
X3757532Y920102D01*
X3750166Y915849D01*
X3744151Y909835D01*
X3739898Y902468D01*
X3737697Y894253D01*
Y885747D01*
X3739898Y877532D01*
X3744151Y870165D01*
X3750166Y864151D01*
X3757532Y859898D01*
X3765747Y857697D01*
X3774253D01*
X3782468Y859898D01*
X3789834Y864151D01*
X3795849Y870165D01*
X3800102Y877532D01*
X3802303Y885747D01*
Y894253D01*
X3800102Y902468D01*
X3795849Y909835D01*
X3789834Y915849D01*
X3782468Y920102D01*
X3774253Y922303D01*
D02*
G37*
G36*
X3674253D02*
X3665747D01*
X3657532Y920102D01*
X3650166Y915849D01*
X3644151Y909835D01*
X3639898Y902468D01*
X3637697Y894253D01*
Y885747D01*
X3639898Y877532D01*
X3644151Y870165D01*
X3650166Y864151D01*
X3657532Y859898D01*
X3665747Y857697D01*
X3674253D01*
X3682468Y859898D01*
X3689834Y864151D01*
X3695849Y870165D01*
X3700102Y877532D01*
X3702303Y885747D01*
Y894253D01*
X3700102Y902468D01*
X3695849Y909835D01*
X3689834Y915849D01*
X3682468Y920102D01*
X3674253Y922303D01*
D02*
G37*
G36*
X3574253D02*
X3565747D01*
X3557532Y920102D01*
X3550166Y915849D01*
X3544151Y909835D01*
X3539898Y902468D01*
X3537697Y894253D01*
Y885747D01*
X3539898Y877532D01*
X3544151Y870165D01*
X3550166Y864151D01*
X3557532Y859898D01*
X3565747Y857697D01*
X3574253D01*
X3582468Y859898D01*
X3589834Y864151D01*
X3595849Y870165D01*
X3600102Y877532D01*
X3602303Y885747D01*
Y894253D01*
X3600102Y902468D01*
X3595849Y909835D01*
X3589834Y915849D01*
X3582468Y920102D01*
X3574253Y922303D01*
D02*
G37*
G36*
X2700098Y1046358D02*
X2629902D01*
Y976162D01*
X2700098D01*
Y985770D01*
X3138182D01*
X3237697Y886255D01*
Y885747D01*
X3239898Y877532D01*
X3244151Y870165D01*
X3250166Y864151D01*
X3257532Y859898D01*
X3265747Y857697D01*
X3274253D01*
X3282468Y859898D01*
X3289834Y864151D01*
X3295849Y870165D01*
X3300102Y877532D01*
X3302303Y885747D01*
Y894253D01*
X3300102Y902468D01*
X3295849Y909835D01*
X3289834Y915849D01*
X3282468Y920102D01*
X3274253Y922303D01*
X3273745D01*
X3166764Y1029284D01*
X3158495Y1034809D01*
X3148740Y1036750D01*
X2700098D01*
Y1046358D01*
D02*
G37*
G36*
X3174253Y922303D02*
X3165747D01*
X3157532Y920102D01*
X3150166Y915849D01*
X3144151Y909835D01*
X3139898Y902468D01*
X3137697Y894253D01*
Y885747D01*
X3139898Y877532D01*
X3144151Y870165D01*
X3150166Y864151D01*
X3157532Y859898D01*
X3165747Y857697D01*
X3174253D01*
X3182468Y859898D01*
X3189834Y864151D01*
X3195849Y870165D01*
X3200102Y877532D01*
X3202303Y885747D01*
Y894253D01*
X3200102Y902468D01*
X3195849Y909835D01*
X3189834Y915849D01*
X3182468Y920102D01*
X3174253Y922303D01*
D02*
G37*
G36*
X3002303D02*
X2937697D01*
Y857697D01*
X3002303D01*
Y922303D01*
D02*
G37*
G36*
X1719253D02*
X1710747D01*
X1702532Y920102D01*
X1695166Y915849D01*
X1689151Y909835D01*
X1684898Y902468D01*
X1682697Y894253D01*
Y885747D01*
X1684898Y877532D01*
X1689151Y870165D01*
X1695166Y864151D01*
X1702532Y859898D01*
X1710747Y857697D01*
X1719253D01*
X1727468Y859898D01*
X1734834Y864151D01*
X1740849Y870165D01*
X1745102Y877532D01*
X1747303Y885747D01*
Y894253D01*
X1745102Y902468D01*
X1740849Y909835D01*
X1734834Y915849D01*
X1727468Y920102D01*
X1719253Y922303D01*
D02*
G37*
G36*
X1619253D02*
X1610747D01*
X1602532Y920102D01*
X1595166Y915849D01*
X1589151Y909835D01*
X1584898Y902468D01*
X1582697Y894253D01*
Y885747D01*
X1584898Y877532D01*
X1589151Y870165D01*
X1595166Y864151D01*
X1602532Y859898D01*
X1610747Y857697D01*
X1619253D01*
X1627468Y859898D01*
X1634834Y864151D01*
X1640849Y870165D01*
X1645102Y877532D01*
X1647303Y885747D01*
Y894253D01*
X1645102Y902468D01*
X1640849Y909835D01*
X1634834Y915849D01*
X1627468Y920102D01*
X1619253Y922303D01*
D02*
G37*
G36*
X1519253D02*
X1510747D01*
X1502532Y920102D01*
X1495166Y915849D01*
X1489151Y909835D01*
X1484898Y902468D01*
X1482697Y894253D01*
Y885747D01*
X1484898Y877532D01*
X1489151Y870165D01*
X1495166Y864151D01*
X1502532Y859898D01*
X1510747Y857697D01*
X1519253D01*
X1527468Y859898D01*
X1534834Y864151D01*
X1540849Y870165D01*
X1545102Y877532D01*
X1547303Y885747D01*
Y894253D01*
X1545102Y902468D01*
X1540849Y909835D01*
X1534834Y915849D01*
X1527468Y920102D01*
X1519253Y922303D01*
D02*
G37*
G36*
X645098Y1046358D02*
X574902D01*
Y976162D01*
X645098D01*
Y985770D01*
X1083182D01*
X1182697Y886255D01*
Y885747D01*
X1184898Y877532D01*
X1189151Y870165D01*
X1195166Y864151D01*
X1202532Y859898D01*
X1210747Y857697D01*
X1219253D01*
X1227468Y859898D01*
X1234834Y864151D01*
X1240849Y870165D01*
X1245102Y877532D01*
X1247303Y885747D01*
Y894253D01*
X1245102Y902468D01*
X1240849Y909835D01*
X1234834Y915849D01*
X1227468Y920102D01*
X1219253Y922303D01*
X1218745D01*
X1111764Y1029284D01*
X1103495Y1034809D01*
X1093740Y1036750D01*
X645098D01*
Y1046358D01*
D02*
G37*
G36*
X1119253Y922303D02*
X1110747D01*
X1102532Y920102D01*
X1095166Y915849D01*
X1089151Y909835D01*
X1084898Y902468D01*
X1082697Y894253D01*
Y885747D01*
X1084898Y877532D01*
X1089151Y870165D01*
X1095166Y864151D01*
X1102532Y859898D01*
X1110747Y857697D01*
X1119253D01*
X1127468Y859898D01*
X1134834Y864151D01*
X1140849Y870165D01*
X1145102Y877532D01*
X1147303Y885747D01*
Y894253D01*
X1145102Y902468D01*
X1140849Y909835D01*
X1134834Y915849D01*
X1127468Y920102D01*
X1119253Y922303D01*
D02*
G37*
G36*
X947303D02*
X882697D01*
Y857697D01*
X947303D01*
Y922303D01*
D02*
G37*
G36*
X190948Y787992D02*
X179052D01*
X167384Y785671D01*
X156393Y781119D01*
X146501Y774509D01*
X138089Y766097D01*
X131480Y756206D01*
X126927Y745215D01*
X124606Y733547D01*
Y721650D01*
X126927Y709982D01*
X131480Y698991D01*
X138089Y689100D01*
X146501Y680688D01*
X156393Y674078D01*
X167384Y669526D01*
X179052Y667205D01*
X190948D01*
X202616Y669526D01*
X213607Y674078D01*
X223499Y680688D01*
X231911Y689100D01*
X238520Y698991D01*
X243073Y709982D01*
X245394Y721650D01*
Y733547D01*
X243073Y745215D01*
X238520Y756206D01*
X231911Y766097D01*
X223499Y774509D01*
X213607Y781119D01*
X202616Y785671D01*
X190948Y787992D01*
D02*
G37*
G36*
X8196976Y566378D02*
X8186568D01*
X8176515Y563684D01*
X8167501Y558480D01*
X8160142Y551121D01*
X8154938Y542108D01*
X8152244Y532054D01*
Y521647D01*
X8154938Y511593D01*
X8160142Y502580D01*
X8167501Y495221D01*
X8176515Y490017D01*
X8186568Y487323D01*
X8196976D01*
X8207029Y490017D01*
X8216042Y495221D01*
X8223402Y502580D01*
X8228605Y511593D01*
X8231299Y521647D01*
Y532054D01*
X8228605Y542108D01*
X8223402Y551121D01*
X8216042Y558480D01*
X8207029Y563684D01*
X8196976Y566378D01*
D02*
G37*
G36*
X8098550D02*
X8088143D01*
X8078089Y563684D01*
X8069076Y558480D01*
X8061717Y551121D01*
X8056513Y542108D01*
X8053819Y532054D01*
Y521647D01*
X8056513Y511593D01*
X8061717Y502580D01*
X8069076Y495221D01*
X8078089Y490017D01*
X8088143Y487323D01*
X8098550D01*
X8108604Y490017D01*
X8117617Y495221D01*
X8124976Y502580D01*
X8130180Y511593D01*
X8132874Y521647D01*
Y532054D01*
X8130180Y542108D01*
X8124976Y551121D01*
X8117617Y558480D01*
X8108604Y563684D01*
X8098550Y566378D01*
D02*
G37*
G36*
X6901976D02*
X6891568D01*
X6881515Y563684D01*
X6872501Y558480D01*
X6865142Y551121D01*
X6859938Y542108D01*
X6857244Y532054D01*
Y521647D01*
X6859938Y511593D01*
X6865142Y502580D01*
X6872501Y495221D01*
X6881515Y490017D01*
X6891568Y487323D01*
X6901976D01*
X6912029Y490017D01*
X6921042Y495221D01*
X6928402Y502580D01*
X6933605Y511593D01*
X6936299Y521647D01*
Y532054D01*
X6933605Y542108D01*
X6928402Y551121D01*
X6921042Y558480D01*
X6912029Y563684D01*
X6901976Y566378D01*
D02*
G37*
G36*
X6803550D02*
X6793143D01*
X6783089Y563684D01*
X6774076Y558480D01*
X6766717Y551121D01*
X6761513Y542108D01*
X6758819Y532054D01*
Y521647D01*
X6761513Y511593D01*
X6766717Y502580D01*
X6774076Y495221D01*
X6783089Y490017D01*
X6793143Y487323D01*
X6803550D01*
X6813604Y490017D01*
X6822617Y495221D01*
X6829976Y502580D01*
X6835180Y511593D01*
X6837874Y521647D01*
Y532054D01*
X6835180Y542108D01*
X6829976Y551121D01*
X6822617Y558480D01*
X6813604Y563684D01*
X6803550Y566378D01*
D02*
G37*
G36*
X6141976D02*
X6131568D01*
X6121515Y563684D01*
X6112501Y558480D01*
X6105142Y551121D01*
X6099938Y542108D01*
X6097244Y532054D01*
Y521647D01*
X6099938Y511593D01*
X6105142Y502580D01*
X6112501Y495221D01*
X6121515Y490017D01*
X6131568Y487323D01*
X6141976D01*
X6152029Y490017D01*
X6161042Y495221D01*
X6168402Y502580D01*
X6173605Y511593D01*
X6176299Y521647D01*
Y532054D01*
X6173605Y542108D01*
X6168402Y551121D01*
X6161042Y558480D01*
X6152029Y563684D01*
X6141976Y566378D01*
D02*
G37*
G36*
X6043550D02*
X6033143D01*
X6023089Y563684D01*
X6014076Y558480D01*
X6006717Y551121D01*
X6001513Y542108D01*
X5998819Y532054D01*
Y521647D01*
X6001513Y511593D01*
X6006717Y502580D01*
X6014076Y495221D01*
X6023089Y490017D01*
X6033143Y487323D01*
X6043550D01*
X6053604Y490017D01*
X6062617Y495221D01*
X6069976Y502580D01*
X6075180Y511593D01*
X6077874Y521647D01*
Y532054D01*
X6075180Y542108D01*
X6069976Y551121D01*
X6062617Y558480D01*
X6053604Y563684D01*
X6043550Y566378D01*
D02*
G37*
G36*
X4846976D02*
X4836568D01*
X4826515Y563684D01*
X4817501Y558480D01*
X4810142Y551121D01*
X4804938Y542108D01*
X4802244Y532054D01*
Y521647D01*
X4804938Y511593D01*
X4810142Y502580D01*
X4817501Y495221D01*
X4826515Y490017D01*
X4836568Y487323D01*
X4846976D01*
X4857029Y490017D01*
X4866042Y495221D01*
X4873402Y502580D01*
X4878605Y511593D01*
X4881299Y521647D01*
Y532054D01*
X4878605Y542108D01*
X4873402Y551121D01*
X4866042Y558480D01*
X4857029Y563684D01*
X4846976Y566378D01*
D02*
G37*
G36*
X4748550D02*
X4738143D01*
X4728089Y563684D01*
X4719076Y558480D01*
X4711717Y551121D01*
X4706513Y542108D01*
X4703819Y532054D01*
Y521647D01*
X4706513Y511593D01*
X4711717Y502580D01*
X4719076Y495221D01*
X4728089Y490017D01*
X4738143Y487323D01*
X4748550D01*
X4758604Y490017D01*
X4767617Y495221D01*
X4774976Y502580D01*
X4780180Y511593D01*
X4782874Y521647D01*
Y532054D01*
X4780180Y542108D01*
X4774976Y551121D01*
X4767617Y558480D01*
X4758604Y563684D01*
X4748550Y566378D01*
D02*
G37*
G36*
X4086976D02*
X4076568D01*
X4066515Y563684D01*
X4057501Y558480D01*
X4050142Y551121D01*
X4044938Y542108D01*
X4042244Y532054D01*
Y521647D01*
X4044938Y511593D01*
X4050142Y502580D01*
X4057501Y495221D01*
X4066515Y490017D01*
X4076568Y487323D01*
X4086976D01*
X4097029Y490017D01*
X4106042Y495221D01*
X4113402Y502580D01*
X4118605Y511593D01*
X4121299Y521647D01*
Y532054D01*
X4118605Y542108D01*
X4113402Y551121D01*
X4106042Y558480D01*
X4097029Y563684D01*
X4086976Y566378D01*
D02*
G37*
G36*
X3988550D02*
X3978143D01*
X3968089Y563684D01*
X3959076Y558480D01*
X3951717Y551121D01*
X3946513Y542108D01*
X3943819Y532054D01*
Y521647D01*
X3946513Y511593D01*
X3951717Y502580D01*
X3959076Y495221D01*
X3968089Y490017D01*
X3978143Y487323D01*
X3988550D01*
X3998604Y490017D01*
X4007617Y495221D01*
X4014976Y502580D01*
X4020180Y511593D01*
X4022874Y521647D01*
Y532054D01*
X4020180Y542108D01*
X4014976Y551121D01*
X4007617Y558480D01*
X3998604Y563684D01*
X3988550Y566378D01*
D02*
G37*
G36*
X2791976D02*
X2781568D01*
X2771515Y563684D01*
X2762501Y558480D01*
X2755142Y551121D01*
X2749938Y542108D01*
X2747244Y532054D01*
Y521647D01*
X2749938Y511593D01*
X2755142Y502580D01*
X2762501Y495221D01*
X2771515Y490017D01*
X2781568Y487323D01*
X2791976D01*
X2802029Y490017D01*
X2811042Y495221D01*
X2818402Y502580D01*
X2823606Y511593D01*
X2826299Y521647D01*
Y532054D01*
X2823606Y542108D01*
X2818402Y551121D01*
X2811042Y558480D01*
X2802029Y563684D01*
X2791976Y566378D01*
D02*
G37*
G36*
X2693550D02*
X2683143D01*
X2673089Y563684D01*
X2664076Y558480D01*
X2656717Y551121D01*
X2651513Y542108D01*
X2648819Y532054D01*
Y521647D01*
X2651513Y511593D01*
X2656717Y502580D01*
X2664076Y495221D01*
X2673089Y490017D01*
X2683143Y487323D01*
X2693550D01*
X2703604Y490017D01*
X2712617Y495221D01*
X2719976Y502580D01*
X2725180Y511593D01*
X2727874Y521647D01*
Y532054D01*
X2725180Y542108D01*
X2719976Y551121D01*
X2712617Y558480D01*
X2703604Y563684D01*
X2693550Y566378D01*
D02*
G37*
G36*
X2031976D02*
X2021568D01*
X2011515Y563684D01*
X2002501Y558480D01*
X1995142Y551121D01*
X1989938Y542108D01*
X1987244Y532054D01*
Y521647D01*
X1989938Y511593D01*
X1995142Y502580D01*
X2002501Y495221D01*
X2011515Y490017D01*
X2021568Y487323D01*
X2031976D01*
X2042029Y490017D01*
X2051042Y495221D01*
X2058402Y502580D01*
X2063606Y511593D01*
X2066299Y521647D01*
Y532054D01*
X2063606Y542108D01*
X2058402Y551121D01*
X2051042Y558480D01*
X2042029Y563684D01*
X2031976Y566378D01*
D02*
G37*
G36*
X1933550D02*
X1923143D01*
X1913089Y563684D01*
X1904076Y558480D01*
X1896717Y551121D01*
X1891513Y542108D01*
X1888819Y532054D01*
Y521647D01*
X1891513Y511593D01*
X1896717Y502580D01*
X1904076Y495221D01*
X1913089Y490017D01*
X1923143Y487323D01*
X1933550D01*
X1943604Y490017D01*
X1952617Y495221D01*
X1959976Y502580D01*
X1965180Y511593D01*
X1967874Y521647D01*
Y532054D01*
X1965180Y542108D01*
X1959976Y551121D01*
X1952617Y558480D01*
X1943604Y563684D01*
X1933550Y566378D01*
D02*
G37*
G36*
X736976D02*
X726568D01*
X716515Y563684D01*
X707501Y558480D01*
X700142Y551121D01*
X694938Y542108D01*
X692244Y532054D01*
Y521647D01*
X694938Y511593D01*
X700142Y502580D01*
X707501Y495221D01*
X716515Y490017D01*
X726568Y487323D01*
X736976D01*
X747029Y490017D01*
X756042Y495221D01*
X763402Y502580D01*
X768606Y511593D01*
X771299Y521647D01*
Y532054D01*
X768606Y542108D01*
X763402Y551121D01*
X756042Y558480D01*
X747029Y563684D01*
X736976Y566378D01*
D02*
G37*
G36*
X638550D02*
X628143D01*
X618089Y563684D01*
X609076Y558480D01*
X601717Y551121D01*
X596513Y542108D01*
X593819Y532054D01*
Y521647D01*
X596513Y511593D01*
X601717Y502580D01*
X609076Y495221D01*
X618089Y490017D01*
X628143Y487323D01*
X638550D01*
X648604Y490017D01*
X657617Y495221D01*
X664976Y502580D01*
X670180Y511593D01*
X672874Y521647D01*
Y532054D01*
X670180Y542108D01*
X664976Y551121D01*
X657617Y558480D01*
X648604Y563684D01*
X638550Y566378D01*
D02*
G37*
G36*
X7485331Y586000D02*
X7470803D01*
X7456770Y582240D01*
X7444188Y574976D01*
X7433914Y564702D01*
X7426650Y552121D01*
X7422890Y538087D01*
Y523559D01*
X7426650Y509525D01*
X7433914Y496943D01*
X7444188Y486670D01*
X7456770Y479406D01*
X7470803Y475646D01*
X7485331D01*
X7499365Y479406D01*
X7511947Y486670D01*
X7522220Y496943D01*
X7529484Y509525D01*
X7533244Y523559D01*
Y538087D01*
X7529484Y552121D01*
X7522220Y564702D01*
X7511947Y574976D01*
X7499365Y582240D01*
X7485331Y586000D01*
D02*
G37*
G36*
X5430331D02*
X5415803D01*
X5401770Y582240D01*
X5389188Y574976D01*
X5378914Y564702D01*
X5371650Y552121D01*
X5367890Y538087D01*
Y523559D01*
X5371650Y509525D01*
X5378914Y496943D01*
X5389188Y486670D01*
X5401770Y479406D01*
X5415803Y475646D01*
X5430331D01*
X5444365Y479406D01*
X5456947Y486670D01*
X5467220Y496943D01*
X5474484Y509525D01*
X5478244Y523559D01*
Y538087D01*
X5474484Y552121D01*
X5467220Y564702D01*
X5456947Y574976D01*
X5444365Y582240D01*
X5430331Y586000D01*
D02*
G37*
G36*
X3375331D02*
X3360803D01*
X3346769Y582240D01*
X3334188Y574976D01*
X3323914Y564702D01*
X3316650Y552121D01*
X3312890Y538087D01*
Y523559D01*
X3316650Y509525D01*
X3323914Y496943D01*
X3334188Y486670D01*
X3346769Y479406D01*
X3360803Y475646D01*
X3375331D01*
X3389365Y479406D01*
X3401947Y486670D01*
X3412220Y496943D01*
X3419484Y509525D01*
X3423244Y523559D01*
Y538087D01*
X3419484Y552121D01*
X3412220Y564702D01*
X3401947Y574976D01*
X3389365Y582240D01*
X3375331Y586000D01*
D02*
G37*
G36*
X1320331D02*
X1305803D01*
X1291770Y582240D01*
X1279188Y574976D01*
X1268914Y564702D01*
X1261650Y552121D01*
X1257890Y538087D01*
Y523559D01*
X1261650Y509525D01*
X1268914Y496943D01*
X1279188Y486670D01*
X1291770Y479406D01*
X1305803Y475646D01*
X1320331D01*
X1334365Y479406D01*
X1346947Y486670D01*
X1357220Y496943D01*
X1364484Y509525D01*
X1368244Y523559D01*
Y538087D01*
X1364484Y552121D01*
X1357220Y564702D01*
X1346947Y574976D01*
X1334365Y582240D01*
X1320331Y586000D01*
D02*
G37*
G36*
X7545226Y440429D02*
X7536892D01*
X7528841Y438272D01*
X7521623Y434105D01*
X7515730Y428212D01*
X7511563Y420994D01*
X7509406Y412943D01*
Y404608D01*
X7511563Y396558D01*
X7515730Y389340D01*
X7521623Y383447D01*
X7528841Y379279D01*
X7536892Y377122D01*
X7545226D01*
X7553277Y379279D01*
X7560495Y383447D01*
X7566388Y389340D01*
X7570556Y396558D01*
X7572713Y404608D01*
Y412943D01*
X7570556Y420994D01*
X7566388Y428212D01*
X7560495Y434105D01*
X7553277Y438272D01*
X7545226Y440429D01*
D02*
G37*
G36*
X5490226D02*
X5481892D01*
X5473841Y438272D01*
X5466623Y434105D01*
X5460730Y428212D01*
X5456563Y420994D01*
X5454406Y412943D01*
Y404608D01*
X5456563Y396558D01*
X5460730Y389340D01*
X5466623Y383447D01*
X5473841Y379279D01*
X5481892Y377122D01*
X5490226D01*
X5498277Y379279D01*
X5505495Y383447D01*
X5511388Y389340D01*
X5515556Y396558D01*
X5517713Y404608D01*
Y412943D01*
X5515556Y420994D01*
X5511388Y428212D01*
X5505495Y434105D01*
X5498277Y438272D01*
X5490226Y440429D01*
D02*
G37*
G36*
X3435227D02*
X3426892D01*
X3418841Y438272D01*
X3411624Y434105D01*
X3405730Y428212D01*
X3401563Y420994D01*
X3399406Y412943D01*
Y404608D01*
X3401563Y396558D01*
X3405730Y389340D01*
X3411624Y383447D01*
X3418841Y379279D01*
X3426892Y377122D01*
X3435227D01*
X3443277Y379279D01*
X3450495Y383447D01*
X3456388Y389340D01*
X3460555Y396558D01*
X3462713Y404608D01*
Y412943D01*
X3460555Y420994D01*
X3456388Y428212D01*
X3450495Y434105D01*
X3443277Y438272D01*
X3435227Y440429D01*
D02*
G37*
G36*
X1380226D02*
X1371892D01*
X1363841Y438272D01*
X1356623Y434105D01*
X1350730Y428212D01*
X1346563Y420994D01*
X1344406Y412943D01*
Y404608D01*
X1346563Y396558D01*
X1350730Y389340D01*
X1356623Y383447D01*
X1363841Y379279D01*
X1371892Y377122D01*
X1380226D01*
X1388277Y379279D01*
X1395495Y383447D01*
X1401388Y389340D01*
X1405555Y396558D01*
X1407713Y404608D01*
Y412943D01*
X1405555Y420994D01*
X1401388Y428212D01*
X1395495Y434105D01*
X1388277Y438272D01*
X1380226Y440429D01*
D02*
G37*
G36*
X7690056Y463953D02*
X7675527D01*
X7661494Y460193D01*
X7648912Y452928D01*
X7638639Y442655D01*
X7631375Y430073D01*
X7627614Y416040D01*
Y401512D01*
X7631375Y387478D01*
X7638639Y374896D01*
X7648912Y364623D01*
X7661494Y357359D01*
X7675527Y353599D01*
X7690056D01*
X7704089Y357359D01*
X7716671Y364623D01*
X7726944Y374896D01*
X7734208Y387478D01*
X7737969Y401512D01*
Y416040D01*
X7734208Y430073D01*
X7726944Y442655D01*
X7716671Y452928D01*
X7704089Y460193D01*
X7690056Y463953D01*
D02*
G37*
G36*
X5635056D02*
X5620527D01*
X5606494Y460193D01*
X5593912Y452928D01*
X5583639Y442655D01*
X5576375Y430073D01*
X5572614Y416040D01*
Y401512D01*
X5576375Y387478D01*
X5583639Y374896D01*
X5593912Y364623D01*
X5606494Y357359D01*
X5620527Y353599D01*
X5635056D01*
X5649089Y357359D01*
X5661671Y364623D01*
X5671944Y374896D01*
X5679208Y387478D01*
X5682969Y401512D01*
Y416040D01*
X5679208Y430073D01*
X5671944Y442655D01*
X5661671Y452928D01*
X5649089Y460193D01*
X5635056Y463953D01*
D02*
G37*
G36*
X3580056D02*
X3565527D01*
X3551494Y460193D01*
X3538912Y452928D01*
X3528639Y442655D01*
X3521375Y430073D01*
X3517614Y416040D01*
Y401512D01*
X3521375Y387478D01*
X3528639Y374896D01*
X3538912Y364623D01*
X3551494Y357359D01*
X3565527Y353599D01*
X3580056D01*
X3594089Y357359D01*
X3606671Y364623D01*
X3616944Y374896D01*
X3624208Y387478D01*
X3627969Y401512D01*
Y416040D01*
X3624208Y430073D01*
X3616944Y442655D01*
X3606671Y452928D01*
X3594089Y460193D01*
X3580056Y463953D01*
D02*
G37*
G36*
X1525056D02*
X1510527D01*
X1496494Y460193D01*
X1483912Y452928D01*
X1473639Y442655D01*
X1466375Y430073D01*
X1462614Y416040D01*
Y401512D01*
X1466375Y387478D01*
X1473639Y374896D01*
X1483912Y364623D01*
X1496494Y357359D01*
X1510527Y353599D01*
X1525056D01*
X1539089Y357359D01*
X1551671Y364623D01*
X1561944Y374896D01*
X1569208Y387478D01*
X1572969Y401512D01*
Y416040D01*
X1569208Y430073D01*
X1561944Y442655D01*
X1551671Y452928D01*
X1539089Y460193D01*
X1525056Y463953D01*
D02*
G37*
G36*
X7545226Y243579D02*
X7536892D01*
X7528841Y241422D01*
X7521623Y237255D01*
X7515730Y231361D01*
X7511563Y224143D01*
X7509406Y216093D01*
Y207758D01*
X7511563Y199708D01*
X7515730Y192490D01*
X7521623Y186596D01*
X7528841Y182429D01*
X7536892Y180272D01*
X7545226D01*
X7553277Y182429D01*
X7560495Y186596D01*
X7566388Y192490D01*
X7570556Y199708D01*
X7572713Y207758D01*
Y216093D01*
X7570556Y224143D01*
X7566388Y231361D01*
X7560495Y237255D01*
X7553277Y241422D01*
X7545226Y243579D01*
D02*
G37*
G36*
X5490226D02*
X5481892D01*
X5473841Y241422D01*
X5466623Y237255D01*
X5460730Y231361D01*
X5456563Y224143D01*
X5454406Y216093D01*
Y207758D01*
X5456563Y199708D01*
X5460730Y192490D01*
X5466623Y186596D01*
X5473841Y182429D01*
X5481892Y180272D01*
X5490226D01*
X5498277Y182429D01*
X5505495Y186596D01*
X5511388Y192490D01*
X5515556Y199708D01*
X5517713Y207758D01*
Y216093D01*
X5515556Y224143D01*
X5511388Y231361D01*
X5505495Y237255D01*
X5498277Y241422D01*
X5490226Y243579D01*
D02*
G37*
G36*
X3435227D02*
X3426892D01*
X3418841Y241422D01*
X3411624Y237255D01*
X3405730Y231361D01*
X3401563Y224143D01*
X3399406Y216093D01*
Y207758D01*
X3401563Y199708D01*
X3405730Y192490D01*
X3411624Y186596D01*
X3418841Y182429D01*
X3426892Y180272D01*
X3435227D01*
X3443277Y182429D01*
X3450495Y186596D01*
X3456388Y192490D01*
X3460555Y199708D01*
X3462713Y207758D01*
Y216093D01*
X3460555Y224143D01*
X3456388Y231361D01*
X3450495Y237255D01*
X3443277Y241422D01*
X3435227Y243579D01*
D02*
G37*
G36*
X1380226D02*
X1371892D01*
X1363841Y241422D01*
X1356623Y237255D01*
X1350730Y231361D01*
X1346563Y224143D01*
X1344406Y216093D01*
Y207758D01*
X1346563Y199708D01*
X1350730Y192490D01*
X1356623Y186596D01*
X1363841Y182429D01*
X1371892Y180272D01*
X1380226D01*
X1388277Y182429D01*
X1395495Y186596D01*
X1401388Y192490D01*
X1405555Y199708D01*
X1407713Y207758D01*
Y216093D01*
X1405555Y224143D01*
X1401388Y231361D01*
X1395495Y237255D01*
X1388277Y241422D01*
X1380226Y243579D01*
D02*
G37*
G36*
X133864Y215000D02*
X116136D01*
X98748Y211541D01*
X82369Y204757D01*
X67628Y194908D01*
X55092Y182372D01*
X45243Y167631D01*
X38459Y151252D01*
X35000Y133864D01*
Y116136D01*
X38459Y98748D01*
X45243Y82369D01*
X55092Y67628D01*
X67628Y55092D01*
X82369Y45243D01*
X98748Y38459D01*
X116136Y35000D01*
X133864D01*
X151252Y38459D01*
X167631Y45243D01*
X182372Y55092D01*
X194908Y67628D01*
X204757Y82369D01*
X211541Y98748D01*
X215000Y116136D01*
Y133864D01*
X211541Y151252D01*
X204757Y167631D01*
X194908Y182372D01*
X182372Y194908D01*
X167631Y204757D01*
X151252Y211541D01*
X133864Y215000D01*
D02*
G37*
%LPD*%
D39*
X7258740Y1011260D02*
X7380000Y890000D01*
X6775000Y1011260D02*
X7258740D01*
X7701260D02*
X8270000D01*
X7580000Y890000D02*
X7701260Y1011260D01*
X5203740D02*
X5325000Y890000D01*
X4720000Y1011260D02*
X5203740D01*
X5646260D02*
X6215000D01*
X5525000Y890000D02*
X5646260Y1011260D01*
X3148740D02*
X3270000Y890000D01*
X2665000Y1011260D02*
X3148740D01*
X3591260D02*
X4160000D01*
X3470000Y890000D02*
X3591260Y1011260D01*
X1093740D02*
X1215000Y890000D01*
X610000Y1011260D02*
X1093740D01*
X1415000Y890000D02*
X1536260Y1011260D01*
X2105000D01*
D40*
X8430000Y1510000D02*
D03*
X125000D02*
D03*
Y125000D02*
D03*
D41*
X7541059Y408776D02*
D03*
Y211925D02*
D03*
X5486059Y408776D02*
D03*
Y211925D02*
D03*
X3431059Y408776D02*
D03*
Y211925D02*
D03*
X1376059Y408776D02*
D03*
Y211925D02*
D03*
D42*
X7718225D02*
D03*
X7478067Y530823D02*
D03*
X7682792Y408776D02*
D03*
X5663225Y211925D02*
D03*
X5423067Y530823D02*
D03*
X5627792Y408776D02*
D03*
X3608224Y211925D02*
D03*
X3368067Y530823D02*
D03*
X3572791Y408776D02*
D03*
X1553225Y211925D02*
D03*
X1313067Y530823D02*
D03*
X1517792Y408776D02*
D03*
D43*
X7352083Y211925D02*
D03*
X5297083D02*
D03*
X3242083D02*
D03*
X1187083D02*
D03*
D44*
X185000Y930354D02*
D03*
D45*
Y812244D02*
D03*
D46*
Y1015000D02*
D03*
Y727598D02*
D03*
D47*
X6995197Y526851D02*
D03*
X6896772D02*
D03*
X6798346D02*
D03*
X8290197D02*
D03*
X8191772D02*
D03*
X8093346D02*
D03*
X4940197D02*
D03*
X4841772D02*
D03*
X4743346D02*
D03*
X6235197D02*
D03*
X6136772D02*
D03*
X6038346D02*
D03*
X2885197D02*
D03*
X2786772D02*
D03*
X2688347D02*
D03*
X4180197D02*
D03*
X4081772D02*
D03*
X3983347D02*
D03*
X830197D02*
D03*
X731772D02*
D03*
X633346D02*
D03*
X2125197D02*
D03*
X2026772D02*
D03*
X1928347D02*
D03*
D48*
X7070000Y251260D02*
D03*
X6723543D02*
D03*
X8365000D02*
D03*
X8018543D02*
D03*
X5015000D02*
D03*
X4668543D02*
D03*
X6310000D02*
D03*
X5963543D02*
D03*
X2960000D02*
D03*
X2613543D02*
D03*
X4255000D02*
D03*
X3908543D02*
D03*
X905000D02*
D03*
X558543D02*
D03*
X2200000D02*
D03*
X1853543D02*
D03*
D49*
X7080000Y890000D02*
D03*
X5025000D02*
D03*
X2970000D02*
D03*
X915000D02*
D03*
D50*
X7180000D02*
D03*
X7280000D02*
D03*
X7380000D02*
D03*
X7480000D02*
D03*
X7580000D02*
D03*
X7680000D02*
D03*
X7780000D02*
D03*
X7880000D02*
D03*
X7980000D02*
D03*
Y1190000D02*
D03*
X7880000D02*
D03*
X7780000D02*
D03*
X7680000D02*
D03*
X7580000D02*
D03*
X7480000D02*
D03*
X7380000D02*
D03*
X7280000D02*
D03*
X7180000D02*
D03*
X7080000D02*
D03*
X5125000Y890000D02*
D03*
X5225000D02*
D03*
X5325000D02*
D03*
X5425000D02*
D03*
X5525000D02*
D03*
X5625000D02*
D03*
X5725000D02*
D03*
X5825000D02*
D03*
X5925000D02*
D03*
Y1190000D02*
D03*
X5825000D02*
D03*
X5725000D02*
D03*
X5625000D02*
D03*
X5525000D02*
D03*
X5425000D02*
D03*
X5325000D02*
D03*
X5225000D02*
D03*
X5125000D02*
D03*
X5025000D02*
D03*
X3070000Y890000D02*
D03*
X3170000D02*
D03*
X3270000D02*
D03*
X3370000D02*
D03*
X3470000D02*
D03*
X3570000D02*
D03*
X3670000D02*
D03*
X3770000D02*
D03*
X3870000D02*
D03*
Y1190000D02*
D03*
X3770000D02*
D03*
X3670000D02*
D03*
X3570000D02*
D03*
X3470000D02*
D03*
X3370000D02*
D03*
X3270000D02*
D03*
X3170000D02*
D03*
X3070000D02*
D03*
X2970000D02*
D03*
X1015000Y890000D02*
D03*
X1115000D02*
D03*
X1215000D02*
D03*
X1315000D02*
D03*
X1415000D02*
D03*
X1515000D02*
D03*
X1615000D02*
D03*
X1715000D02*
D03*
X1815000D02*
D03*
Y1190000D02*
D03*
X1715000D02*
D03*
X1615000D02*
D03*
X1515000D02*
D03*
X1415000D02*
D03*
X1315000D02*
D03*
X1215000D02*
D03*
X1115000D02*
D03*
X1015000D02*
D03*
X915000D02*
D03*
D51*
X6775000Y1011260D02*
D03*
X8270000D02*
D03*
X4720000D02*
D03*
X6215000D02*
D03*
X2665000D02*
D03*
X4160000D02*
D03*
X610000D02*
D03*
X2105000D02*
D03*
D52*
X6775000Y1208110D02*
D03*
X8270000D02*
D03*
X4720000D02*
D03*
X6215000D02*
D03*
X2665000D02*
D03*
X4160000D02*
D03*
X610000D02*
D03*
X2105000D02*
D03*
D53*
X7180000Y1410000D02*
D03*
X7376850D02*
D03*
X7675000D02*
D03*
X7871850D02*
D03*
X5125000D02*
D03*
X5321850D02*
D03*
X5620000D02*
D03*
X5816850D02*
D03*
X3070000D02*
D03*
X3266850D02*
D03*
X3565000D02*
D03*
X3761850D02*
D03*
X1015000D02*
D03*
X1211850D02*
D03*
X1510000D02*
D03*
X1706850D02*
D03*
D54*
X1040000Y605000D02*
D03*
M02*
