G04*
G04 #@! TF.GenerationSoftware,Altium Limited,Altium Designer,23.0.1 (38)*
G04*
G04 Layer_Color=16711935*
%FSLAX26Y26*%
%MOIN*%
G70*
G04*
G04 #@! TF.SameCoordinates,B86BD9B1-E4BC-44FB-91C3-8862E556E9DD*
G04*
G04*
G04 #@! TF.FilePolarity,Negative*
G04*
G01*
G75*
%ADD24C,0.168000*%
%ADD25C,0.029654*%
%ADD26C,0.098354*%
%ADD27R,0.098354X0.098354*%
%ADD28R,0.054063X0.054063*%
%ADD29C,0.054063*%
%ADD30C,0.108787*%
%ADD31C,0.067055*%
%ADD32C,0.175716*%
%ADD33R,0.052606X0.052606*%
%ADD34C,0.052606*%
%ADD35R,0.058197X0.058197*%
%ADD36C,0.058197*%
%ADD37C,0.084772*%
%ADD38C,0.058000*%
D24*
X8430000Y1510000D02*
D03*
X125000D02*
D03*
Y125000D02*
D03*
D25*
X7541059Y408776D02*
D03*
Y211925D02*
D03*
X5486059Y408776D02*
D03*
Y211925D02*
D03*
X3431059Y408776D02*
D03*
Y211925D02*
D03*
X1376059Y408776D02*
D03*
Y211925D02*
D03*
D26*
X7718225D02*
D03*
X7478067Y530823D02*
D03*
X7682792Y408776D02*
D03*
X5663225Y211925D02*
D03*
X5423067Y530823D02*
D03*
X5627792Y408776D02*
D03*
X3608224Y211925D02*
D03*
X3368067Y530823D02*
D03*
X3572791Y408776D02*
D03*
X1553225Y211925D02*
D03*
X1313067Y530823D02*
D03*
X1517792Y408776D02*
D03*
D27*
X7352083Y211925D02*
D03*
X5297083D02*
D03*
X3242083D02*
D03*
X1187083D02*
D03*
D28*
X185000Y930354D02*
D03*
D29*
Y812244D02*
D03*
D30*
Y1015000D02*
D03*
Y727598D02*
D03*
D31*
X6995197Y526851D02*
D03*
X6896772D02*
D03*
X6798346D02*
D03*
X8290197D02*
D03*
X8191772D02*
D03*
X8093346D02*
D03*
X4940197D02*
D03*
X4841772D02*
D03*
X4743346D02*
D03*
X6235197D02*
D03*
X6136772D02*
D03*
X6038346D02*
D03*
X2885197D02*
D03*
X2786772D02*
D03*
X2688347D02*
D03*
X4180197D02*
D03*
X4081772D02*
D03*
X3983347D02*
D03*
X830197D02*
D03*
X731772D02*
D03*
X633346D02*
D03*
X2125197D02*
D03*
X2026772D02*
D03*
X1928347D02*
D03*
D32*
X7070000Y251260D02*
D03*
X6723543D02*
D03*
X8365000D02*
D03*
X8018543D02*
D03*
X5015000D02*
D03*
X4668543D02*
D03*
X6310000D02*
D03*
X5963543D02*
D03*
X2960000D02*
D03*
X2613543D02*
D03*
X4255000D02*
D03*
X3908543D02*
D03*
X905000D02*
D03*
X558543D02*
D03*
X2200000D02*
D03*
X1853543D02*
D03*
D33*
X7080000Y890000D02*
D03*
X5025000D02*
D03*
X2970000D02*
D03*
X915000D02*
D03*
D34*
X7180000D02*
D03*
X7280000D02*
D03*
X7380000D02*
D03*
X7480000D02*
D03*
X7580000D02*
D03*
X7680000D02*
D03*
X7780000D02*
D03*
X7880000D02*
D03*
X7980000D02*
D03*
Y1190000D02*
D03*
X7880000D02*
D03*
X7780000D02*
D03*
X7680000D02*
D03*
X7580000D02*
D03*
X7480000D02*
D03*
X7380000D02*
D03*
X7280000D02*
D03*
X7180000D02*
D03*
X7080000D02*
D03*
X5125000Y890000D02*
D03*
X5225000D02*
D03*
X5325000D02*
D03*
X5425000D02*
D03*
X5525000D02*
D03*
X5625000D02*
D03*
X5725000D02*
D03*
X5825000D02*
D03*
X5925000D02*
D03*
Y1190000D02*
D03*
X5825000D02*
D03*
X5725000D02*
D03*
X5625000D02*
D03*
X5525000D02*
D03*
X5425000D02*
D03*
X5325000D02*
D03*
X5225000D02*
D03*
X5125000D02*
D03*
X5025000D02*
D03*
X3070000Y890000D02*
D03*
X3170000D02*
D03*
X3270000D02*
D03*
X3370000D02*
D03*
X3470000D02*
D03*
X3570000D02*
D03*
X3670000D02*
D03*
X3770000D02*
D03*
X3870000D02*
D03*
Y1190000D02*
D03*
X3770000D02*
D03*
X3670000D02*
D03*
X3570000D02*
D03*
X3470000D02*
D03*
X3370000D02*
D03*
X3270000D02*
D03*
X3170000D02*
D03*
X3070000D02*
D03*
X2970000D02*
D03*
X1015000Y890000D02*
D03*
X1115000D02*
D03*
X1215000D02*
D03*
X1315000D02*
D03*
X1415000D02*
D03*
X1515000D02*
D03*
X1615000D02*
D03*
X1715000D02*
D03*
X1815000D02*
D03*
Y1190000D02*
D03*
X1715000D02*
D03*
X1615000D02*
D03*
X1515000D02*
D03*
X1415000D02*
D03*
X1315000D02*
D03*
X1215000D02*
D03*
X1115000D02*
D03*
X1015000D02*
D03*
X915000D02*
D03*
D35*
X6775000Y1011260D02*
D03*
X8270000D02*
D03*
X4720000D02*
D03*
X6215000D02*
D03*
X2665000D02*
D03*
X4160000D02*
D03*
X610000D02*
D03*
X2105000D02*
D03*
D36*
X6775000Y1208110D02*
D03*
X8270000D02*
D03*
X4720000D02*
D03*
X6215000D02*
D03*
X2665000D02*
D03*
X4160000D02*
D03*
X610000D02*
D03*
X2105000D02*
D03*
D37*
X7180000Y1410000D02*
D03*
X7376850D02*
D03*
X7675000D02*
D03*
X7871850D02*
D03*
X5125000D02*
D03*
X5321850D02*
D03*
X5620000D02*
D03*
X5816850D02*
D03*
X3070000D02*
D03*
X3266850D02*
D03*
X3565000D02*
D03*
X3761850D02*
D03*
X1015000D02*
D03*
X1211850D02*
D03*
X1510000D02*
D03*
X1706850D02*
D03*
D38*
X1040000Y605000D02*
D03*
M02*
