G04*
G04 #@! TF.GenerationSoftware,Altium Limited,Altium Designer,23.0.1 (38)*
G04*
G04 Layer_Color=65535*
%FSLAX26Y26*%
%MOIN*%
G70*
G04*
G04 #@! TF.SameCoordinates,B86BD9B1-E4BC-44FB-91C3-8862E556E9DD*
G04*
G04*
G04 #@! TF.FilePolarity,Positive*
G04*
G01*
G75*
%ADD10C,0.003937*%
%ADD11C,0.007874*%
%ADD12C,0.005000*%
%ADD13C,0.010000*%
D10*
X7285154Y211925D02*
G03*
X7289091Y211925I1968J0D01*
G01*
D02*
G03*
X7285154Y211925I-1968J0D01*
G01*
X5230154D02*
G03*
X5234091Y211925I1968J0D01*
G01*
D02*
G03*
X5230154Y211925I-1968J0D01*
G01*
X3175154D02*
G03*
X3179091Y211925I1968J0D01*
G01*
D02*
G03*
X3175154Y211925I-1968J0D01*
G01*
X1120154D02*
G03*
X1124091Y211925I1968J0D01*
G01*
D02*
G03*
X1120154Y211925I-1968J0D01*
G01*
X6995197Y574095D02*
G03*
X6995197Y578032I0J1968D01*
G01*
D02*
G03*
X6995197Y574095I0J-1968D01*
G01*
X8290197D02*
G03*
X8290197Y578032I0J1968D01*
G01*
D02*
G03*
X8290197Y574095I0J-1968D01*
G01*
X4940197D02*
G03*
X4940197Y578032I0J1968D01*
G01*
D02*
G03*
X4940197Y574095I0J-1968D01*
G01*
X6235197D02*
G03*
X6235197Y578032I0J1968D01*
G01*
D02*
G03*
X6235197Y574095I0J-1968D01*
G01*
X2885197D02*
G03*
X2885197Y578032I0J1968D01*
G01*
D02*
G03*
X2885197Y574095I0J-1968D01*
G01*
X4180197D02*
G03*
X4180197Y578032I0J1968D01*
G01*
D02*
G03*
X4180197Y574095I0J-1968D01*
G01*
X830197D02*
G03*
X830197Y578032I0J1968D01*
G01*
D02*
G03*
X830197Y574095I0J-1968D01*
G01*
X2125197D02*
G03*
X2125197Y578032I0J1968D01*
G01*
D02*
G03*
X2125197Y574095I0J-1968D01*
G01*
X7071732Y1571417D02*
X7485118D01*
Y1272205D02*
Y1571417D01*
X7071732Y1272205D02*
X7485118D01*
X7071732D02*
Y1571417D01*
X7566732D02*
X7980118D01*
Y1272205D02*
Y1571417D01*
X7566732Y1272205D02*
X7980118D01*
X7566732D02*
Y1571417D01*
X5016732D02*
X5430118D01*
Y1272205D02*
Y1571417D01*
X5016732Y1272205D02*
X5430118D01*
X5016732D02*
Y1571417D01*
X5511732D02*
X5925118D01*
Y1272205D02*
Y1571417D01*
X5511732Y1272205D02*
X5925118D01*
X5511732D02*
Y1571417D01*
X2961732D02*
X3375118D01*
Y1272205D02*
Y1571417D01*
X2961732Y1272205D02*
X3375118D01*
X2961732D02*
Y1571417D01*
X3456732D02*
X3870118D01*
Y1272205D02*
Y1571417D01*
X3456732Y1272205D02*
X3870118D01*
X3456732D02*
Y1571417D01*
X906732D02*
X1320118D01*
Y1272205D02*
Y1571417D01*
X906732Y1272205D02*
X1320118D01*
X906732D02*
Y1571417D01*
X1401732D02*
X1815118D01*
Y1272205D02*
Y1571417D01*
X1401732Y1272205D02*
X1815118D01*
X1401732D02*
Y1571417D01*
D11*
X6926575Y791260D02*
G03*
X6926575Y791260I-1968J0D01*
G01*
X7021063Y1109685D02*
G03*
X7021063Y1109685I-246063J0D01*
G01*
X8516063D02*
G03*
X8516063Y1109685I-246063J0D01*
G01*
X7841575Y791260D02*
G03*
X7841575Y791260I-1968J0D01*
G01*
X7768346Y726260D02*
G03*
X7764409Y726260I-1968J0D01*
G01*
D02*
G03*
X7768346Y726260I1968J0D01*
G01*
D02*
G03*
X7764409Y726260I-1968J0D01*
G01*
X4871575Y791260D02*
G03*
X4871575Y791260I-1968J0D01*
G01*
X4966063Y1109685D02*
G03*
X4966063Y1109685I-246063J0D01*
G01*
X6461063D02*
G03*
X6461063Y1109685I-246063J0D01*
G01*
X5786575Y791260D02*
G03*
X5786575Y791260I-1968J0D01*
G01*
X5713346Y726260D02*
G03*
X5709409Y726260I-1968J0D01*
G01*
D02*
G03*
X5713346Y726260I1968J0D01*
G01*
D02*
G03*
X5709409Y726260I-1968J0D01*
G01*
X2816575Y791260D02*
G03*
X2816575Y791260I-1968J0D01*
G01*
X2911063Y1109685D02*
G03*
X2911063Y1109685I-246063J0D01*
G01*
X4406063D02*
G03*
X4406063Y1109685I-246063J0D01*
G01*
X3731575Y791260D02*
G03*
X3731575Y791260I-1968J0D01*
G01*
X3658347Y726260D02*
G03*
X3654410Y726260I-1968J0D01*
G01*
D02*
G03*
X3658347Y726260I1968J0D01*
G01*
D02*
G03*
X3654410Y726260I-1968J0D01*
G01*
X761575Y791260D02*
G03*
X761575Y791260I-1968J0D01*
G01*
X856063Y1109685D02*
G03*
X856063Y1109685I-246063J0D01*
G01*
X2351063D02*
G03*
X2351063Y1109685I-246063J0D01*
G01*
X1676575Y791260D02*
G03*
X1676575Y791260I-1968J0D01*
G01*
X1603347Y726260D02*
G03*
X1599409Y726260I-1968J0D01*
G01*
D02*
G03*
X1603347Y726260I1968J0D01*
G01*
D02*
G03*
X1599409Y726260I-1968J0D01*
G01*
X7348146Y267043D02*
Y550508D01*
X7422949D01*
X7533185D02*
X7749721D01*
Y267043D02*
Y550508D01*
Y97752D02*
Y156807D01*
X7348146Y97752D02*
X7749721D01*
X7348146D02*
Y156807D01*
X7422949Y-673D02*
X7659169D01*
Y97752D01*
X7422949D02*
X7659169D01*
X7422949Y-673D02*
Y97752D01*
X5293146Y267043D02*
Y550508D01*
X5367949D01*
X5478185D02*
X5694721D01*
Y267043D02*
Y550508D01*
Y97752D02*
Y156807D01*
X5293146Y97752D02*
X5694721D01*
X5293146D02*
Y156807D01*
X5367949Y-673D02*
X5604169D01*
Y97752D01*
X5367949D02*
X5604169D01*
X5367949Y-673D02*
Y97752D01*
X3238146Y267043D02*
Y550508D01*
X3312949D01*
X3423185D02*
X3639721D01*
Y267043D02*
Y550508D01*
Y97752D02*
Y156807D01*
X3238146Y97752D02*
X3639721D01*
X3238146D02*
Y156807D01*
X3312949Y-673D02*
X3549169D01*
Y97752D01*
X3312949D02*
X3549169D01*
X3312949Y-673D02*
Y97752D01*
X1183146Y267043D02*
Y550508D01*
X1257949D01*
X1368185D02*
X1584721D01*
Y267043D02*
Y550508D01*
Y97752D02*
Y156807D01*
X1183146Y97752D02*
X1584721D01*
X1183146D02*
Y156807D01*
X1257949Y-673D02*
X1494169D01*
Y97752D01*
X1257949D02*
X1494169D01*
X1257949Y-673D02*
Y97752D01*
X7093622Y34724D02*
Y156772D01*
X6699921Y34724D02*
X7093622D01*
X6699921D02*
Y156772D01*
X7093622Y345748D02*
Y507166D01*
X7038504D02*
X7093622D01*
X6699921D02*
X6762913D01*
X6699921Y345748D02*
Y507166D01*
X7042402Y867716D02*
Y1179961D01*
X8017598Y900039D02*
Y1179961D01*
X7225000Y778701D02*
Y833819D01*
X8388622Y34724D02*
Y156772D01*
X7994921Y34724D02*
X8388622D01*
X7994921D02*
Y156772D01*
X8388622Y345748D02*
Y507166D01*
X8333504D02*
X8388622D01*
X7994921D02*
X8057913D01*
X7994921Y345748D02*
Y507166D01*
X7417953Y656575D02*
Y795945D01*
X7662047D01*
Y656575D02*
Y795945D01*
X7417953Y656575D02*
X7662047D01*
X7252441Y666260D02*
X7307559D01*
X5038622Y34724D02*
Y156772D01*
X4644921Y34724D02*
X5038622D01*
X4644921D02*
Y156772D01*
X5038622Y345748D02*
Y507166D01*
X4983504D02*
X5038622D01*
X4644921D02*
X4707913D01*
X4644921Y345748D02*
Y507166D01*
X4987402Y867716D02*
Y1179961D01*
X5962598Y900039D02*
Y1179961D01*
X5170000Y778701D02*
Y833819D01*
X6333622Y34724D02*
Y156772D01*
X5939921Y34724D02*
X6333622D01*
X5939921D02*
Y156772D01*
X6333622Y345748D02*
Y507166D01*
X6278504D02*
X6333622D01*
X5939921D02*
X6002913D01*
X5939921Y345748D02*
Y507166D01*
X5362953Y656575D02*
Y795945D01*
X5607047D01*
Y656575D02*
Y795945D01*
X5362953Y656575D02*
X5607047D01*
X5197441Y666260D02*
X5252559D01*
X2983622Y34724D02*
Y156772D01*
X2589921Y34724D02*
X2983622D01*
X2589921D02*
Y156772D01*
X2983622Y345748D02*
Y507166D01*
X2928504D02*
X2983622D01*
X2589921D02*
X2652913D01*
X2589921Y345748D02*
Y507166D01*
X2932402Y867716D02*
Y1179961D01*
X3907598Y900039D02*
Y1179961D01*
X3115000Y778701D02*
Y833819D01*
X4278622Y34724D02*
Y156772D01*
X3884921Y34724D02*
X4278622D01*
X3884921D02*
Y156772D01*
X4278622Y345748D02*
Y507166D01*
X4223504D02*
X4278622D01*
X3884921D02*
X3947913D01*
X3884921Y345748D02*
Y507166D01*
X3307953Y656575D02*
Y795945D01*
X3552047D01*
Y656575D02*
Y795945D01*
X3307953Y656575D02*
X3552047D01*
X3142441Y666260D02*
X3197559D01*
X928622Y34724D02*
Y156772D01*
X534921Y34724D02*
X928622D01*
X534921D02*
Y156772D01*
X928622Y345748D02*
Y507166D01*
X873504D02*
X928622D01*
X534921D02*
X597913D01*
X534921Y345748D02*
Y507166D01*
X877402Y867716D02*
Y1179961D01*
X1852598Y900039D02*
Y1179961D01*
X1060000Y778701D02*
Y833819D01*
X2223622Y34724D02*
Y156772D01*
X1829921Y34724D02*
X2223622D01*
X1829921D02*
Y156772D01*
X2223622Y345748D02*
Y507166D01*
X2168504D02*
X2223622D01*
X1829921D02*
X1892913D01*
X1829921Y345748D02*
Y507166D01*
X1252953Y656575D02*
Y795945D01*
X1497047D01*
Y656575D02*
Y795945D01*
X1252953Y656575D02*
X1497047D01*
X1087441Y666260D02*
X1142559D01*
D12*
X62953Y681339D02*
Y1061260D01*
X282244Y681339D02*
Y1061260D01*
X165315Y1127205D02*
X204685D01*
X185000Y1087835D02*
X204685Y1127205D01*
X165315D02*
X185000Y1087835D01*
D13*
X4264990Y1524986D02*
X4235000D01*
Y1480000D01*
X4264990D01*
X4235000Y1502493D02*
X4249995D01*
X4279985Y1480000D02*
Y1524986D01*
X4309976Y1480000D01*
Y1524986D01*
X4354961D02*
X4324971D01*
Y1480000D01*
X4354961D01*
X4324971Y1502493D02*
X4339966D01*
X4399947Y1524986D02*
X4369957D01*
Y1480000D01*
X4399947D01*
X4369957Y1502493D02*
X4384952D01*
X4482420Y1480000D02*
Y1524986D01*
X4459927Y1502493D01*
X4489918D01*
X4504913Y1517488D02*
X4512411Y1524986D01*
X4527406D01*
X4534903Y1517488D01*
Y1487498D01*
X4527406Y1480000D01*
X4512411D01*
X4504913Y1487498D01*
Y1517488D01*
X4549899D02*
X4557396Y1524986D01*
X4572391D01*
X4579889Y1517488D01*
Y1509990D01*
X4572391Y1502493D01*
X4579889Y1494995D01*
Y1487498D01*
X4572391Y1480000D01*
X4557396D01*
X4549899Y1487498D01*
Y1494995D01*
X4557396Y1502493D01*
X4549899Y1509990D01*
Y1517488D01*
X4557396Y1502493D02*
X4572391D01*
X4624874Y1524986D02*
X4609879D01*
X4617377D01*
Y1487498D01*
X4609879Y1480000D01*
X4602382D01*
X4594884Y1487498D01*
X2010000Y1517483D02*
X2017498Y1524981D01*
X2032493D01*
X2039990Y1517483D01*
Y1509986D01*
X2032493Y1502488D01*
X2039990Y1494990D01*
Y1487493D01*
X2032493Y1479995D01*
X2017498D01*
X2010000Y1487493D01*
Y1494990D01*
X2017498Y1502488D01*
X2010000Y1509986D01*
Y1517483D01*
X2017498Y1502488D02*
X2032493D01*
X2129961Y1517483D02*
X2122464Y1524981D01*
X2107469D01*
X2099971Y1517483D01*
Y1487493D01*
X2107469Y1479995D01*
X2122464D01*
X2129961Y1487493D01*
X2144956Y1524981D02*
Y1479995D01*
Y1502488D01*
X2152454Y1509986D01*
X2167449D01*
X2174947Y1502488D01*
Y1479995D01*
X2197440Y1509986D02*
X2212435D01*
X2219932Y1502488D01*
Y1479995D01*
X2197440D01*
X2189942Y1487493D01*
X2197440Y1494990D01*
X2219932D01*
X2234927Y1479995D02*
Y1509986D01*
X2257420D01*
X2264918Y1502488D01*
Y1479995D01*
X2279913D02*
Y1509986D01*
X2302406D01*
X2309903Y1502488D01*
Y1479995D01*
X2347391D02*
X2332396D01*
X2324898Y1487493D01*
Y1502488D01*
X2332396Y1509986D01*
X2347391D01*
X2354889Y1502488D01*
Y1494990D01*
X2324898D01*
X2369884Y1479995D02*
X2384879D01*
X2377382D01*
Y1524981D01*
X2369884D01*
X2452357Y1479995D02*
Y1509986D01*
X2467353Y1524981D01*
X2482348Y1509986D01*
Y1479995D01*
Y1502488D01*
X2452357D01*
X2497343Y1479995D02*
Y1509986D01*
X2504840D01*
X2512338Y1502488D01*
Y1479995D01*
Y1502488D01*
X2519836Y1509986D01*
X2527333Y1502488D01*
Y1479995D01*
X2542328Y1465000D02*
Y1509986D01*
X2564821D01*
X2572319Y1502488D01*
Y1487493D01*
X2564821Y1479995D01*
X2542328D01*
X2587314D02*
X2602309D01*
X2594811D01*
Y1524981D01*
X2587314D01*
X2624802Y1479995D02*
X2639797D01*
X2632299D01*
Y1509986D01*
X2624802D01*
X2669787Y1479995D02*
Y1517483D01*
Y1502488D01*
X2662290D01*
X2677285D01*
X2669787D01*
Y1517483D01*
X2677285Y1524981D01*
X2699778Y1479995D02*
X2714773D01*
X2707275D01*
Y1509986D01*
X2699778D01*
X2759758Y1479995D02*
X2744763D01*
X2737265Y1487493D01*
Y1502488D01*
X2744763Y1509986D01*
X2759758D01*
X2767256Y1502488D01*
Y1494990D01*
X2737265D01*
X2782251Y1509986D02*
Y1479995D01*
Y1494990D01*
X2789749Y1502488D01*
X2797246Y1509986D01*
X2804744D01*
X170000Y575000D02*
X199990D01*
X170000Y1169995D02*
X199990D01*
X184995Y1184990D02*
Y1155000D01*
X30000Y480000D02*
X44995D01*
X37498D01*
Y524986D01*
X30000Y517488D01*
X97478Y480000D02*
X67488D01*
X97478Y509990D01*
Y517488D01*
X89981Y524986D01*
X74986D01*
X67488Y517488D01*
X112473Y502493D02*
X142464D01*
X157459Y480000D02*
X172454D01*
X164957D01*
Y524986D01*
X157459Y517488D01*
X194947D02*
X202444Y524986D01*
X217440D01*
X224937Y517488D01*
Y509990D01*
X217440Y502493D01*
X224937Y494995D01*
Y487498D01*
X217440Y480000D01*
X202444D01*
X194947Y487498D01*
Y494995D01*
X202444Y502493D01*
X194947Y509990D01*
Y517488D01*
X202444Y502493D02*
X217440D01*
X239932Y524986D02*
Y494995D01*
X254928Y480000D01*
X269923Y494995D01*
Y524986D01*
X329903D02*
Y480000D01*
X352396D01*
X359894Y487498D01*
Y517488D01*
X352396Y524986D01*
X329903D01*
X404879Y517488D02*
X397382Y524986D01*
X382386D01*
X374889Y517488D01*
Y487498D01*
X382386Y480000D01*
X397382D01*
X404879Y487498D01*
M02*
