G04*
G04 #@! TF.GenerationSoftware,Altium Limited,Altium Designer,23.0.1 (38)*
G04*
G04 Layer_Color=8421504*
%FSLAX26Y26*%
%MOIN*%
G70*
G04*
G04 #@! TF.SameCoordinates,B86BD9B1-E4BC-44FB-91C3-8862E556E9DD*
G04*
G04*
G04 #@! TF.FilePolarity,Positive*
G04*
G01*
G75*
%ADD14R,0.045276X0.106299*%
%ADD15R,0.039764X0.071653*%
%ADD16R,0.059055X0.043307*%
%ADD17R,0.035433X0.037402*%
%ADD18R,0.070866X0.041339*%
D14*
X6965945Y791260D02*
D03*
X7084055D02*
D03*
X7880945D02*
D03*
X7999055D02*
D03*
X4910945D02*
D03*
X5029055D02*
D03*
X5825945D02*
D03*
X5944055D02*
D03*
X2855945D02*
D03*
X2974055D02*
D03*
X3770945D02*
D03*
X3889055D02*
D03*
X800945D02*
D03*
X919055D02*
D03*
X1715945D02*
D03*
X1834055D02*
D03*
D15*
X7173032Y806260D02*
D03*
X7276968D02*
D03*
X5118032D02*
D03*
X5221968D02*
D03*
X3063032D02*
D03*
X3166968D02*
D03*
X1008032D02*
D03*
X1111968D02*
D03*
D16*
X7715197Y726260D02*
D03*
X7364803D02*
D03*
X5660197D02*
D03*
X5309803D02*
D03*
X3605197D02*
D03*
X3254803D02*
D03*
X1550197D02*
D03*
X1199803D02*
D03*
D17*
X7680472Y831260D02*
D03*
X7739528D02*
D03*
X5625472D02*
D03*
X5684528D02*
D03*
X3570472D02*
D03*
X3629528D02*
D03*
X1515472D02*
D03*
X1574528D02*
D03*
D18*
X7280000Y725315D02*
D03*
Y607205D02*
D03*
X5225000Y725315D02*
D03*
Y607205D02*
D03*
X3170000Y725315D02*
D03*
Y607205D02*
D03*
X1115000Y725315D02*
D03*
Y607205D02*
D03*
M02*
