G04*
G04 #@! TF.GenerationSoftware,Altium Limited,Altium Designer,23.0.1 (38)*
G04*
G04 Layer_Physical_Order=1*
G04 Layer_Color=255*
%FSLAX26Y26*%
%MOIN*%
G70*
G04*
G04 #@! TF.SameCoordinates,B86BD9B1-E4BC-44FB-91C3-8862E556E9DD*
G04*
G04*
G04 #@! TF.FilePolarity,Positive*
G04*
G01*
G75*
%ADD13C,0.010000*%
%ADD14R,0.045276X0.106299*%
%ADD15R,0.039764X0.071653*%
%ADD16R,0.059055X0.043307*%
%ADD17R,0.035433X0.037402*%
%ADD18R,0.070866X0.041339*%
%ADD39C,0.030000*%
%ADD40C,0.160000*%
%ADD41C,0.021654*%
%ADD42C,0.090354*%
%ADD43R,0.090354X0.090354*%
%ADD44R,0.046063X0.046063*%
%ADD45C,0.046063*%
%ADD46C,0.100787*%
%ADD47C,0.059055*%
%ADD48C,0.167716*%
%ADD49R,0.044606X0.044606*%
%ADD50C,0.044606*%
%ADD51R,0.050197X0.050197*%
%ADD52C,0.050197*%
%ADD53C,0.076772*%
%ADD54C,0.050000*%
G36*
X8540000Y10000D02*
X10000D01*
Y854804D01*
X763471D01*
X768307Y854409D01*
X768307Y849804D01*
Y749739D01*
X720957Y702389D01*
X717642Y697428D01*
X716478Y691575D01*
Y563663D01*
X707501Y558480D01*
X700142Y551121D01*
X694938Y542108D01*
X692244Y532054D01*
Y521647D01*
X694938Y511593D01*
X700142Y502580D01*
X707501Y495221D01*
X716515Y490017D01*
X726568Y487323D01*
X736976D01*
X747029Y490017D01*
X756042Y495221D01*
X763402Y502580D01*
X768606Y511593D01*
X771299Y521647D01*
Y532054D01*
X768606Y542108D01*
X763402Y551121D01*
X756042Y558480D01*
X747066Y563663D01*
Y685240D01*
X789936Y728110D01*
X833583D01*
Y849804D01*
X833583Y854409D01*
X838419Y854804D01*
X881581D01*
X882780Y854706D01*
X886417Y850446D01*
Y728110D01*
X951693D01*
Y853059D01*
X951693Y853059D01*
X951693Y853059D01*
X956348Y854789D01*
X956529Y854804D01*
X987784D01*
X991686Y855580D01*
X994993Y857790D01*
X997203Y861098D01*
X997204Y861098D01*
X999117Y865717D01*
X999117Y865718D01*
X999893Y869619D01*
X999117Y873521D01*
X998010Y875178D01*
X997981Y875264D01*
X994399Y881467D01*
X992893Y887090D01*
Y892910D01*
X994399Y898533D01*
X997310Y903574D01*
X1001426Y907690D01*
X1006467Y910601D01*
X1012090Y912107D01*
X1017910D01*
X1023533Y910601D01*
X1028574Y907690D01*
X1032690Y903574D01*
X1035601Y898533D01*
X1037107Y892910D01*
Y887090D01*
X1035601Y881467D01*
X1032019Y875264D01*
X1031990Y875178D01*
X1030883Y873521D01*
X1030107Y869619D01*
X1030883Y865718D01*
X1032796Y861098D01*
X1032796Y861098D01*
X1035007Y857790D01*
X1038315Y855580D01*
X1042216Y854804D01*
X1078212D01*
X1082087Y852087D01*
Y760984D01*
X1082086Y760433D01*
X1080756Y755984D01*
X1069567D01*
Y694646D01*
X1160276D01*
Y694606D01*
X1239331D01*
Y757913D01*
X1160276D01*
Y755984D01*
X1143181D01*
X1141851Y760433D01*
X1141850Y760984D01*
Y850021D01*
X1142017Y852204D01*
X1145725Y854804D01*
X1187784D01*
X1191686Y855580D01*
X1194993Y857790D01*
X1197204Y861098D01*
X1202103Y860146D01*
X1202532Y859898D01*
X1210747Y857697D01*
X1219253D01*
X1227468Y859898D01*
X1227897Y860146D01*
X1232796Y861098D01*
X1235007Y857790D01*
X1238315Y855580D01*
X1242216Y854804D01*
X1287784D01*
X1291686Y855580D01*
X1294993Y857790D01*
X1297204Y861098D01*
X1297204Y861098D01*
X1299117Y865717D01*
X1299117Y865718D01*
X1299893Y869619D01*
X1299117Y873521D01*
X1298010Y875178D01*
X1297981Y875264D01*
X1294399Y881467D01*
X1292893Y887090D01*
Y892910D01*
X1294399Y898533D01*
X1297310Y903574D01*
X1301426Y907690D01*
X1306467Y910601D01*
X1312090Y912107D01*
X1317910D01*
X1323533Y910601D01*
X1328574Y907690D01*
X1332690Y903574D01*
X1335601Y898533D01*
X1337107Y892910D01*
Y887090D01*
X1335601Y881467D01*
X1332019Y875264D01*
X1331990Y875178D01*
X1330883Y873521D01*
X1330107Y869619D01*
X1330883Y865718D01*
X1332796Y861098D01*
X1332796Y861098D01*
X1335007Y857790D01*
X1338315Y855580D01*
X1342216Y854804D01*
X1387784D01*
X1391686Y855580D01*
X1394993Y857790D01*
X1397204Y861098D01*
X1402103Y860146D01*
X1402532Y859898D01*
X1410747Y857697D01*
X1419253D01*
X1427468Y859898D01*
X1427897Y860146D01*
X1432796Y861098D01*
X1435007Y857790D01*
X1438315Y855580D01*
X1442216Y854804D01*
X1487756D01*
Y802559D01*
X1534903D01*
Y757913D01*
X1510669D01*
Y694606D01*
X1589724D01*
Y757913D01*
X1565491D01*
Y799610D01*
X1568440Y802559D01*
X1602244D01*
Y838332D01*
X1619193Y855280D01*
X1621146Y858204D01*
X1627468Y859898D01*
X1627897Y860146D01*
X1632796Y861098D01*
X1635007Y857790D01*
X1638315Y855580D01*
X1642216Y854804D01*
X1678470D01*
X1678593Y854794D01*
X1683307Y853189D01*
X1683307D01*
Y728110D01*
X1748583D01*
Y854409D01*
X1753419Y854804D01*
X1787784D01*
X1791686Y855580D01*
X1794993Y857790D01*
X1797204Y861098D01*
X1797204Y861098D01*
X1799117Y865717D01*
X1799117Y865718D01*
X1799893Y869619D01*
X1799117Y873521D01*
X1798010Y875178D01*
X1797981Y875264D01*
X1794399Y881467D01*
X1792893Y887090D01*
Y892910D01*
X1794399Y898533D01*
X1797310Y903574D01*
X1801426Y907690D01*
X1806467Y910601D01*
X1812090Y912107D01*
X1817910D01*
X1823533Y910601D01*
X1828574Y907690D01*
X1832690Y903574D01*
X1835601Y898533D01*
X1837107Y892910D01*
Y887090D01*
X1835601Y881467D01*
X1832019Y875264D01*
X1831990Y875178D01*
X1830883Y873521D01*
X1830107Y869619D01*
X1830883Y865718D01*
X1832796Y861098D01*
X1832796Y861098D01*
X1833925Y859409D01*
X1831785Y854487D01*
X1831710Y854409D01*
X1801417D01*
Y728110D01*
X1845064D01*
X2006941Y566234D01*
X2006429Y560748D01*
X2002501Y558480D01*
X1995142Y551121D01*
X1989938Y542108D01*
X1987244Y532054D01*
Y521647D01*
X1989938Y511593D01*
X1995142Y502580D01*
X2002501Y495221D01*
X2011515Y490017D01*
X2021568Y487323D01*
X2031976D01*
X2042029Y490017D01*
X2051042Y495221D01*
X2058402Y502580D01*
X2063606Y511593D01*
X2066299Y521647D01*
Y532054D01*
X2063606Y542108D01*
X2058402Y551121D01*
X2051042Y558480D01*
X2042029Y563684D01*
X2038719Y564571D01*
Y571378D01*
X2037555Y577231D01*
X2034239Y582192D01*
X1866693Y749739D01*
Y849804D01*
X1866693Y854409D01*
X1871530Y854804D01*
X2818470D01*
X2823307Y854409D01*
X2823307Y849804D01*
Y749739D01*
X2775957Y702389D01*
X2772642Y697428D01*
X2771478Y691575D01*
Y563663D01*
X2762501Y558480D01*
X2755142Y551121D01*
X2749938Y542108D01*
X2747244Y532054D01*
Y521647D01*
X2749938Y511593D01*
X2755142Y502580D01*
X2762501Y495221D01*
X2771515Y490017D01*
X2781568Y487323D01*
X2791976D01*
X2802029Y490017D01*
X2811042Y495221D01*
X2818402Y502580D01*
X2823606Y511593D01*
X2826299Y521647D01*
Y532054D01*
X2823606Y542108D01*
X2818402Y551121D01*
X2811042Y558480D01*
X2802066Y563663D01*
Y685240D01*
X2844936Y728110D01*
X2888583D01*
Y849804D01*
X2888583Y854409D01*
X2893419Y854804D01*
X2936581D01*
X2937780Y854706D01*
X2941417Y850446D01*
Y728110D01*
X3006693D01*
Y853059D01*
X3006693Y853059D01*
X3006693Y853059D01*
X3011349Y854789D01*
X3011530Y854804D01*
X3042784D01*
X3046686Y855580D01*
X3049993Y857790D01*
X3052204Y861098D01*
X3052204Y861098D01*
X3054117Y865717D01*
X3054117Y865718D01*
X3054893Y869619D01*
X3054117Y873521D01*
X3053010Y875178D01*
X3052981Y875264D01*
X3049399Y881467D01*
X3047893Y887090D01*
Y892910D01*
X3049399Y898533D01*
X3052310Y903574D01*
X3056426Y907690D01*
X3061467Y910601D01*
X3067090Y912107D01*
X3072910D01*
X3078533Y910601D01*
X3083574Y907690D01*
X3087690Y903574D01*
X3090601Y898533D01*
X3092107Y892910D01*
Y887090D01*
X3090601Y881467D01*
X3087019Y875264D01*
X3086990Y875178D01*
X3085883Y873521D01*
X3085107Y869619D01*
X3085883Y865718D01*
X3087796Y861098D01*
X3087796Y861098D01*
X3090007Y857790D01*
X3093315Y855580D01*
X3097216Y854804D01*
X3133212D01*
X3137087Y852087D01*
Y760984D01*
X3137086Y760433D01*
X3135756Y755984D01*
X3124567D01*
Y694646D01*
X3215276D01*
Y694606D01*
X3294331D01*
Y757913D01*
X3215276D01*
Y755984D01*
X3198181D01*
X3196851Y760433D01*
X3196850Y760984D01*
Y850021D01*
X3197017Y852204D01*
X3200725Y854804D01*
X3242784D01*
X3246686Y855580D01*
X3249993Y857790D01*
X3252204Y861098D01*
X3257103Y860146D01*
X3257532Y859898D01*
X3265747Y857697D01*
X3274253D01*
X3282468Y859898D01*
X3282897Y860146D01*
X3287796Y861098D01*
X3290007Y857790D01*
X3293315Y855580D01*
X3297216Y854804D01*
X3342784D01*
X3346686Y855580D01*
X3349993Y857790D01*
X3352204Y861098D01*
X3352204Y861098D01*
X3354117Y865717D01*
X3354117Y865718D01*
X3354893Y869619D01*
X3354117Y873521D01*
X3353010Y875178D01*
X3352981Y875264D01*
X3349399Y881467D01*
X3347893Y887090D01*
Y892910D01*
X3349399Y898533D01*
X3352310Y903574D01*
X3356426Y907690D01*
X3361467Y910601D01*
X3367090Y912107D01*
X3372910D01*
X3378533Y910601D01*
X3383574Y907690D01*
X3387690Y903574D01*
X3390601Y898533D01*
X3392107Y892910D01*
Y887090D01*
X3390601Y881467D01*
X3387019Y875264D01*
X3386990Y875178D01*
X3385883Y873521D01*
X3385107Y869619D01*
X3385883Y865718D01*
X3387796Y861098D01*
X3387796Y861098D01*
X3390007Y857790D01*
X3393315Y855580D01*
X3397216Y854804D01*
X3442784D01*
X3446686Y855580D01*
X3449993Y857790D01*
X3452204Y861098D01*
X3457103Y860146D01*
X3457532Y859898D01*
X3465747Y857697D01*
X3474253D01*
X3482468Y859898D01*
X3482897Y860146D01*
X3487796Y861098D01*
X3490007Y857790D01*
X3493315Y855580D01*
X3497216Y854804D01*
X3542756D01*
Y802559D01*
X3589903D01*
Y757913D01*
X3565669D01*
Y694606D01*
X3644724D01*
Y757913D01*
X3620491D01*
Y799610D01*
X3623440Y802559D01*
X3657244D01*
Y838332D01*
X3674193Y855280D01*
X3676146Y858204D01*
X3682468Y859898D01*
X3682897Y860146D01*
X3687796Y861098D01*
X3690007Y857790D01*
X3693315Y855580D01*
X3697216Y854804D01*
X3733470D01*
X3733593Y854794D01*
X3738307Y853189D01*
X3738307D01*
Y728110D01*
X3803583D01*
Y854409D01*
X3808419Y854804D01*
X3842784D01*
X3846686Y855580D01*
X3849993Y857790D01*
X3852204Y861098D01*
X3852204Y861098D01*
X3854117Y865717D01*
X3854117Y865718D01*
X3854893Y869619D01*
X3854117Y873521D01*
X3853010Y875178D01*
X3852981Y875264D01*
X3849399Y881467D01*
X3847893Y887090D01*
Y892910D01*
X3849399Y898533D01*
X3852310Y903574D01*
X3856426Y907690D01*
X3861467Y910601D01*
X3867090Y912107D01*
X3872910D01*
X3878533Y910601D01*
X3883574Y907690D01*
X3887690Y903574D01*
X3890601Y898533D01*
X3892107Y892910D01*
Y887090D01*
X3890601Y881467D01*
X3887019Y875264D01*
X3886990Y875178D01*
X3885883Y873521D01*
X3885107Y869619D01*
X3885883Y865718D01*
X3887796Y861098D01*
X3887796Y861098D01*
X3888925Y859409D01*
X3886785Y854487D01*
X3886710Y854409D01*
X3856417D01*
Y728110D01*
X3900064D01*
X4061941Y566234D01*
X4061429Y560748D01*
X4057501Y558480D01*
X4050142Y551121D01*
X4044938Y542108D01*
X4042244Y532054D01*
Y521647D01*
X4044938Y511593D01*
X4050142Y502580D01*
X4057501Y495221D01*
X4066515Y490017D01*
X4076568Y487323D01*
X4086976D01*
X4097029Y490017D01*
X4106042Y495221D01*
X4113402Y502580D01*
X4118605Y511593D01*
X4121299Y521647D01*
Y532054D01*
X4118605Y542108D01*
X4113402Y551121D01*
X4106042Y558480D01*
X4097029Y563684D01*
X4093719Y564571D01*
Y571378D01*
X4092555Y577231D01*
X4089240Y582192D01*
X3921693Y749739D01*
Y849804D01*
X3921693Y854409D01*
X3926530Y854804D01*
X4873471D01*
X4878307Y854409D01*
X4878307Y849804D01*
Y749739D01*
X4830957Y702389D01*
X4827642Y697428D01*
X4826478Y691575D01*
Y563663D01*
X4817501Y558480D01*
X4810142Y551121D01*
X4804938Y542108D01*
X4802244Y532054D01*
Y521647D01*
X4804938Y511593D01*
X4810142Y502580D01*
X4817501Y495221D01*
X4826515Y490017D01*
X4836568Y487323D01*
X4846976D01*
X4857029Y490017D01*
X4866042Y495221D01*
X4873402Y502580D01*
X4878605Y511593D01*
X4881299Y521647D01*
Y532054D01*
X4878605Y542108D01*
X4873402Y551121D01*
X4866042Y558480D01*
X4857066Y563663D01*
Y685240D01*
X4899936Y728110D01*
X4943583D01*
Y849804D01*
X4943583Y854409D01*
X4948419Y854804D01*
X4991581D01*
X4992780Y854706D01*
X4996417Y850446D01*
Y728110D01*
X5061693D01*
Y853059D01*
X5061693Y853059D01*
X5061693Y853059D01*
X5066349Y854789D01*
X5066529Y854804D01*
X5097784D01*
X5101685Y855580D01*
X5104993Y857790D01*
X5107203Y861098D01*
X5107204Y861098D01*
X5109117Y865717D01*
X5109117Y865718D01*
X5109893Y869619D01*
X5109117Y873521D01*
X5108010Y875178D01*
X5107981Y875264D01*
X5104399Y881467D01*
X5102893Y887090D01*
Y892910D01*
X5104399Y898533D01*
X5107310Y903574D01*
X5111426Y907690D01*
X5116467Y910601D01*
X5122090Y912107D01*
X5127910D01*
X5133533Y910601D01*
X5138574Y907690D01*
X5142690Y903574D01*
X5145601Y898533D01*
X5147107Y892910D01*
Y887090D01*
X5145601Y881467D01*
X5142019Y875264D01*
X5141990Y875178D01*
X5140883Y873521D01*
X5140107Y869619D01*
X5140883Y865718D01*
X5142796Y861098D01*
X5142797Y861098D01*
X5145007Y857790D01*
X5148315Y855580D01*
X5152216Y854804D01*
X5188212D01*
X5192087Y852087D01*
Y760984D01*
X5192087Y760433D01*
X5190756Y755984D01*
X5179567D01*
Y694646D01*
X5270276D01*
Y694606D01*
X5349331D01*
Y757913D01*
X5270276D01*
Y755984D01*
X5253181D01*
X5251850Y760433D01*
X5251850Y760984D01*
Y850021D01*
X5252017Y852204D01*
X5255725Y854804D01*
X5297784D01*
X5301685Y855580D01*
X5304993Y857790D01*
X5307203Y861098D01*
X5312103Y860146D01*
X5312532Y859898D01*
X5320747Y857697D01*
X5329253D01*
X5337468Y859898D01*
X5337897Y860146D01*
X5342797Y861098D01*
X5345007Y857790D01*
X5348315Y855580D01*
X5352216Y854804D01*
X5397784D01*
X5401685Y855580D01*
X5404993Y857790D01*
X5407203Y861098D01*
X5407204Y861098D01*
X5409117Y865717D01*
X5409117Y865718D01*
X5409893Y869619D01*
X5409117Y873521D01*
X5408010Y875178D01*
X5407981Y875264D01*
X5404399Y881467D01*
X5402893Y887090D01*
Y892910D01*
X5404399Y898533D01*
X5407310Y903574D01*
X5411426Y907690D01*
X5416467Y910601D01*
X5422090Y912107D01*
X5427910D01*
X5433533Y910601D01*
X5438574Y907690D01*
X5442690Y903574D01*
X5445601Y898533D01*
X5447107Y892910D01*
Y887090D01*
X5445601Y881467D01*
X5442019Y875264D01*
X5441990Y875178D01*
X5440883Y873521D01*
X5440107Y869619D01*
X5440883Y865718D01*
X5442796Y861098D01*
X5442797Y861098D01*
X5445007Y857790D01*
X5448315Y855580D01*
X5452216Y854804D01*
X5497784D01*
X5501685Y855580D01*
X5504993Y857790D01*
X5507203Y861098D01*
X5512103Y860146D01*
X5512532Y859898D01*
X5520747Y857697D01*
X5529253D01*
X5537468Y859898D01*
X5537897Y860146D01*
X5542797Y861098D01*
X5545007Y857790D01*
X5548315Y855580D01*
X5552216Y854804D01*
X5597756D01*
Y802559D01*
X5644903D01*
Y757913D01*
X5620669D01*
Y694606D01*
X5699724D01*
Y757913D01*
X5675491D01*
Y799610D01*
X5678440Y802559D01*
X5712244D01*
Y838332D01*
X5729193Y855280D01*
X5731146Y858204D01*
X5737468Y859898D01*
X5737897Y860146D01*
X5742797Y861098D01*
X5745007Y857790D01*
X5748315Y855580D01*
X5752216Y854804D01*
X5788471D01*
X5788593Y854794D01*
X5793307Y853189D01*
X5793307D01*
Y728110D01*
X5858583D01*
Y854409D01*
X5863419Y854804D01*
X5897784D01*
X5901685Y855580D01*
X5904993Y857790D01*
X5907203Y861098D01*
X5907204Y861098D01*
X5909117Y865717D01*
X5909117Y865718D01*
X5909893Y869619D01*
X5909117Y873521D01*
X5908010Y875178D01*
X5907981Y875264D01*
X5904399Y881467D01*
X5902893Y887090D01*
Y892910D01*
X5904399Y898533D01*
X5907310Y903574D01*
X5911426Y907690D01*
X5916467Y910601D01*
X5922090Y912107D01*
X5927910D01*
X5933533Y910601D01*
X5938574Y907690D01*
X5942690Y903574D01*
X5945601Y898533D01*
X5947107Y892910D01*
Y887090D01*
X5945601Y881467D01*
X5942019Y875264D01*
X5941990Y875178D01*
X5940883Y873521D01*
X5940107Y869619D01*
X5940883Y865718D01*
X5942796Y861098D01*
X5942797Y861098D01*
X5943925Y859409D01*
X5941785Y854487D01*
X5941710Y854409D01*
X5911417D01*
Y728110D01*
X5955064D01*
X6116941Y566234D01*
X6116429Y560748D01*
X6112501Y558480D01*
X6105142Y551121D01*
X6099938Y542108D01*
X6097244Y532054D01*
Y521647D01*
X6099938Y511593D01*
X6105142Y502580D01*
X6112501Y495221D01*
X6121515Y490017D01*
X6131568Y487323D01*
X6141976D01*
X6152029Y490017D01*
X6161042Y495221D01*
X6168402Y502580D01*
X6173605Y511593D01*
X6176299Y521647D01*
Y532054D01*
X6173605Y542108D01*
X6168402Y551121D01*
X6161042Y558480D01*
X6152029Y563684D01*
X6148719Y564571D01*
Y571378D01*
X6147555Y577231D01*
X6144239Y582192D01*
X5976693Y749739D01*
Y849804D01*
X5976693Y854409D01*
X5981529Y854804D01*
X6928471D01*
X6933307Y854409D01*
X6933307Y849804D01*
Y749739D01*
X6885957Y702389D01*
X6882642Y697428D01*
X6881478Y691575D01*
Y563663D01*
X6872501Y558480D01*
X6865142Y551121D01*
X6859938Y542108D01*
X6857244Y532054D01*
Y521647D01*
X6859938Y511593D01*
X6865142Y502580D01*
X6872501Y495221D01*
X6881515Y490017D01*
X6891568Y487323D01*
X6901976D01*
X6912029Y490017D01*
X6921042Y495221D01*
X6928402Y502580D01*
X6933605Y511593D01*
X6936299Y521647D01*
Y532054D01*
X6933605Y542108D01*
X6928402Y551121D01*
X6921042Y558480D01*
X6912066Y563663D01*
Y685240D01*
X6954936Y728110D01*
X6998583D01*
Y849804D01*
X6998583Y854409D01*
X7003419Y854804D01*
X7046581D01*
X7047780Y854706D01*
X7051417Y850446D01*
Y728110D01*
X7116693D01*
Y853059D01*
X7116693Y853059D01*
X7116693Y853059D01*
X7121349Y854789D01*
X7121529Y854804D01*
X7152784D01*
X7156685Y855580D01*
X7159993Y857790D01*
X7162203Y861098D01*
X7162204Y861098D01*
X7164117Y865717D01*
X7164117Y865718D01*
X7164893Y869619D01*
X7164117Y873521D01*
X7163010Y875178D01*
X7162981Y875264D01*
X7159399Y881467D01*
X7157893Y887090D01*
Y892910D01*
X7159399Y898533D01*
X7162310Y903574D01*
X7166426Y907690D01*
X7171467Y910601D01*
X7177090Y912107D01*
X7182910D01*
X7188533Y910601D01*
X7193574Y907690D01*
X7197690Y903574D01*
X7200601Y898533D01*
X7202107Y892910D01*
Y887090D01*
X7200601Y881467D01*
X7197019Y875264D01*
X7196990Y875178D01*
X7195883Y873521D01*
X7195107Y869619D01*
X7195883Y865718D01*
X7197796Y861098D01*
X7197797Y861098D01*
X7200007Y857790D01*
X7203315Y855580D01*
X7207216Y854804D01*
X7243212D01*
X7247087Y852087D01*
Y760984D01*
X7247087Y760433D01*
X7245756Y755984D01*
X7234567D01*
Y694646D01*
X7325276D01*
Y694606D01*
X7404331D01*
Y757913D01*
X7325276D01*
Y755984D01*
X7308181D01*
X7306850Y760433D01*
X7306850Y760984D01*
Y850021D01*
X7307017Y852204D01*
X7310725Y854804D01*
X7352784D01*
X7356685Y855580D01*
X7359993Y857790D01*
X7362203Y861098D01*
X7367103Y860146D01*
X7367532Y859898D01*
X7375747Y857697D01*
X7384253D01*
X7392468Y859898D01*
X7392897Y860146D01*
X7397797Y861098D01*
X7400007Y857790D01*
X7403315Y855580D01*
X7407216Y854804D01*
X7452784D01*
X7456685Y855580D01*
X7459993Y857790D01*
X7462203Y861098D01*
X7462204Y861098D01*
X7464117Y865717D01*
X7464117Y865718D01*
X7464893Y869619D01*
X7464117Y873521D01*
X7463010Y875178D01*
X7462981Y875264D01*
X7459399Y881467D01*
X7457893Y887090D01*
Y892910D01*
X7459399Y898533D01*
X7462310Y903574D01*
X7466426Y907690D01*
X7471467Y910601D01*
X7477090Y912107D01*
X7482910D01*
X7488533Y910601D01*
X7493574Y907690D01*
X7497690Y903574D01*
X7500601Y898533D01*
X7502107Y892910D01*
Y887090D01*
X7500601Y881467D01*
X7497019Y875264D01*
X7496990Y875178D01*
X7495883Y873521D01*
X7495107Y869619D01*
X7495883Y865718D01*
X7497796Y861098D01*
X7497797Y861098D01*
X7500007Y857790D01*
X7503315Y855580D01*
X7507216Y854804D01*
X7552784D01*
X7556685Y855580D01*
X7559993Y857790D01*
X7562203Y861098D01*
X7567103Y860146D01*
X7567532Y859898D01*
X7575747Y857697D01*
X7584253D01*
X7592468Y859898D01*
X7592897Y860146D01*
X7597797Y861098D01*
X7600007Y857790D01*
X7603315Y855580D01*
X7607216Y854804D01*
X7652756D01*
Y802559D01*
X7699903D01*
Y757913D01*
X7675669D01*
Y694606D01*
X7754724D01*
Y757913D01*
X7730491D01*
Y799610D01*
X7733440Y802559D01*
X7767244D01*
Y838332D01*
X7784193Y855280D01*
X7786146Y858204D01*
X7792468Y859898D01*
X7792897Y860146D01*
X7797797Y861098D01*
X7800007Y857790D01*
X7803315Y855580D01*
X7807216Y854804D01*
X7843471D01*
X7843593Y854794D01*
X7848307Y853189D01*
X7848307D01*
Y728110D01*
X7913583D01*
Y854409D01*
X7918419Y854804D01*
X7952784D01*
X7956685Y855580D01*
X7959993Y857790D01*
X7962203Y861098D01*
X7962204Y861098D01*
X7964117Y865717D01*
X7964117Y865718D01*
X7964893Y869619D01*
X7964117Y873521D01*
X7963010Y875178D01*
X7962981Y875264D01*
X7959399Y881467D01*
X7957893Y887090D01*
Y892910D01*
X7959399Y898533D01*
X7962310Y903574D01*
X7966426Y907690D01*
X7971467Y910601D01*
X7977090Y912107D01*
X7982910D01*
X7988533Y910601D01*
X7993574Y907690D01*
X7997790Y903474D01*
X7998790Y902806D01*
X7999673Y901990D01*
X8000428Y901711D01*
X8001098Y901264D01*
X8002278Y901029D01*
X8003405Y900613D01*
X8004210Y900645D01*
X8005000Y900487D01*
X8006179Y900722D01*
X8007381Y900769D01*
X8012381Y901970D01*
X8013112Y902307D01*
X8013902Y902464D01*
X8014902Y903132D01*
X8015993Y903636D01*
X8016540Y904227D01*
X8017210Y904674D01*
X8017877Y905674D01*
X8018694Y906557D01*
X8018972Y907313D01*
X8019420Y907982D01*
X8019654Y909162D01*
X8020070Y910289D01*
X8020039Y911094D01*
X8020196Y911884D01*
Y1167528D01*
X8019977Y1168627D01*
X8019951Y1169747D01*
X8019593Y1170559D01*
X8019420Y1171430D01*
X8018797Y1172362D01*
X8018345Y1173387D01*
X8017703Y1174000D01*
X8017210Y1174738D01*
X8016278Y1175360D01*
X8015467Y1176134D01*
X8013980Y1177079D01*
X8012415Y1177685D01*
X8010893Y1178387D01*
X8007381Y1179231D01*
X8006179Y1179278D01*
X8005000Y1179513D01*
X8004210Y1179355D01*
X8003405Y1179387D01*
X8002277Y1178971D01*
X8001098Y1178736D01*
X8000429Y1178289D01*
X7999673Y1178010D01*
X7998790Y1177194D01*
X7997790Y1176526D01*
X7993574Y1172310D01*
X7988533Y1169399D01*
X7982910Y1167893D01*
X7977090D01*
X7971467Y1169399D01*
X7966426Y1172310D01*
X7962310Y1176426D01*
X7960190Y1180098D01*
X7959310Y1181101D01*
X7958569Y1182210D01*
X7958010Y1182583D01*
X7957567Y1183089D01*
X7956370Y1183679D01*
X7955262Y1184420D01*
X7954602Y1184551D01*
X7953999Y1184849D01*
X7952668Y1184936D01*
X7951360Y1185196D01*
X7908640D01*
X7907332Y1184936D01*
X7906001Y1184849D01*
X7905398Y1184551D01*
X7904738Y1184420D01*
X7903630Y1183679D01*
X7902433Y1183089D01*
X7901990Y1182583D01*
X7901431Y1182210D01*
X7900690Y1181101D01*
X7899810Y1180098D01*
X7897690Y1176426D01*
X7893574Y1172310D01*
X7888533Y1169399D01*
X7882910Y1167893D01*
X7877090D01*
X7871467Y1169399D01*
X7866426Y1172310D01*
X7862310Y1176426D01*
X7860190Y1180098D01*
X7859310Y1181101D01*
X7858569Y1182210D01*
X7858010Y1182583D01*
X7857567Y1183089D01*
X7856370Y1183679D01*
X7855262Y1184420D01*
X7854602Y1184551D01*
X7853999Y1184849D01*
X7852668Y1184936D01*
X7851360Y1185196D01*
X7808640D01*
X7807332Y1184936D01*
X7806001Y1184849D01*
X7805398Y1184551D01*
X7804738Y1184420D01*
X7803630Y1183679D01*
X7802433Y1183089D01*
X7801990Y1182583D01*
X7801431Y1182210D01*
X7800690Y1181101D01*
X7799810Y1180098D01*
X7797690Y1176426D01*
X7793574Y1172310D01*
X7788533Y1169399D01*
X7782910Y1167893D01*
X7777090D01*
X7771467Y1169399D01*
X7766426Y1172310D01*
X7762310Y1176426D01*
X7760190Y1180098D01*
X7759310Y1181101D01*
X7758569Y1182210D01*
X7758010Y1182583D01*
X7757567Y1183089D01*
X7756370Y1183679D01*
X7755262Y1184420D01*
X7754602Y1184551D01*
X7753999Y1184849D01*
X7752668Y1184936D01*
X7751360Y1185196D01*
X7708640D01*
X7707332Y1184936D01*
X7706001Y1184849D01*
X7705398Y1184551D01*
X7704738Y1184420D01*
X7703630Y1183679D01*
X7702433Y1183089D01*
X7701990Y1182583D01*
X7701431Y1182210D01*
X7700690Y1181101D01*
X7699810Y1180098D01*
X7697690Y1176426D01*
X7693574Y1172310D01*
X7688533Y1169399D01*
X7682910Y1167893D01*
X7677090D01*
X7671467Y1169399D01*
X7666426Y1172310D01*
X7662310Y1176426D01*
X7660190Y1180098D01*
X7659310Y1181101D01*
X7658569Y1182210D01*
X7658010Y1182583D01*
X7657567Y1183089D01*
X7656370Y1183679D01*
X7655262Y1184420D01*
X7654602Y1184551D01*
X7653999Y1184849D01*
X7652668Y1184936D01*
X7651360Y1185196D01*
X7608640D01*
X7607332Y1184936D01*
X7606001Y1184849D01*
X7605398Y1184551D01*
X7604738Y1184420D01*
X7603630Y1183679D01*
X7602433Y1183089D01*
X7601990Y1182583D01*
X7601431Y1182210D01*
X7600690Y1181101D01*
X7599810Y1180098D01*
X7597690Y1176426D01*
X7593574Y1172310D01*
X7588533Y1169399D01*
X7582910Y1167893D01*
X7577090D01*
X7571467Y1169399D01*
X7566426Y1172310D01*
X7562310Y1176426D01*
X7560190Y1180098D01*
X7559310Y1181101D01*
X7558569Y1182210D01*
X7558010Y1182583D01*
X7557567Y1183089D01*
X7556370Y1183679D01*
X7555262Y1184420D01*
X7554602Y1184551D01*
X7553999Y1184849D01*
X7552668Y1184936D01*
X7551360Y1185196D01*
X7508640D01*
X7507332Y1184936D01*
X7506001Y1184849D01*
X7505398Y1184551D01*
X7504738Y1184420D01*
X7503630Y1183679D01*
X7502433Y1183089D01*
X7501990Y1182583D01*
X7501431Y1182210D01*
X7500690Y1181101D01*
X7499810Y1180098D01*
X7497690Y1176426D01*
X7493574Y1172310D01*
X7488533Y1169399D01*
X7482910Y1167893D01*
X7477090D01*
X7471467Y1169399D01*
X7466426Y1172310D01*
X7462310Y1176426D01*
X7460190Y1180098D01*
X7459310Y1181101D01*
X7458569Y1182210D01*
X7458010Y1182583D01*
X7457567Y1183089D01*
X7456370Y1183679D01*
X7455262Y1184420D01*
X7454602Y1184551D01*
X7453999Y1184849D01*
X7452668Y1184936D01*
X7451360Y1185196D01*
X7408640D01*
X7407332Y1184936D01*
X7406001Y1184849D01*
X7405398Y1184551D01*
X7404738Y1184420D01*
X7403630Y1183679D01*
X7402433Y1183089D01*
X7401990Y1182583D01*
X7401431Y1182210D01*
X7400690Y1181101D01*
X7399810Y1180098D01*
X7397690Y1176426D01*
X7393574Y1172310D01*
X7388533Y1169399D01*
X7382910Y1167893D01*
X7377090D01*
X7371467Y1169399D01*
X7366426Y1172310D01*
X7362310Y1176426D01*
X7360190Y1180098D01*
X7359310Y1181101D01*
X7358569Y1182210D01*
X7358010Y1182583D01*
X7357567Y1183089D01*
X7356370Y1183679D01*
X7355262Y1184420D01*
X7354602Y1184551D01*
X7353999Y1184849D01*
X7352668Y1184936D01*
X7351360Y1185196D01*
X7308640D01*
X7307332Y1184936D01*
X7306001Y1184849D01*
X7305398Y1184551D01*
X7304738Y1184420D01*
X7303630Y1183679D01*
X7302433Y1183089D01*
X7301990Y1182583D01*
X7301431Y1182210D01*
X7300690Y1181101D01*
X7299810Y1180098D01*
X7297690Y1176426D01*
X7293574Y1172310D01*
X7288533Y1169399D01*
X7282910Y1167893D01*
X7277090D01*
X7271467Y1169399D01*
X7266426Y1172310D01*
X7262310Y1176426D01*
X7260190Y1180098D01*
X7259310Y1181101D01*
X7258569Y1182210D01*
X7258010Y1182583D01*
X7257567Y1183089D01*
X7256370Y1183679D01*
X7255262Y1184420D01*
X7254602Y1184551D01*
X7253999Y1184849D01*
X7252668Y1184936D01*
X7251360Y1185196D01*
X7208640D01*
X7207332Y1184936D01*
X7206001Y1184849D01*
X7205398Y1184551D01*
X7204738Y1184420D01*
X7203630Y1183679D01*
X7202433Y1183089D01*
X7201990Y1182583D01*
X7201431Y1182210D01*
X7200690Y1181101D01*
X7199810Y1180098D01*
X7197690Y1176426D01*
X7193574Y1172310D01*
X7188533Y1169399D01*
X7182910Y1167893D01*
X7177090D01*
X7171467Y1169399D01*
X7166426Y1172310D01*
X7162310Y1176426D01*
X7160190Y1180098D01*
X7159310Y1181101D01*
X7158569Y1182210D01*
X7158010Y1182583D01*
X7157567Y1183089D01*
X7156370Y1183679D01*
X7155262Y1184420D01*
X7154602Y1184551D01*
X7153999Y1184849D01*
X7152668Y1184936D01*
X7151360Y1185196D01*
X7108640D01*
X7107332Y1184936D01*
X7106001Y1184849D01*
X7105398Y1184551D01*
X7104738Y1184420D01*
X7103630Y1183679D01*
X7102433Y1183089D01*
X7101990Y1182583D01*
X7101431Y1182210D01*
X7100690Y1181101D01*
X7099810Y1180098D01*
X7097690Y1176426D01*
X7093574Y1172310D01*
X7088533Y1169399D01*
X7082910Y1167893D01*
X7077090D01*
X7071467Y1169399D01*
X7066426Y1172310D01*
X7062310Y1176426D01*
X7060190Y1180098D01*
X7059310Y1181101D01*
X7058569Y1182210D01*
X7058010Y1182583D01*
X7057567Y1183089D01*
X7056370Y1183679D01*
X7055262Y1184420D01*
X7054602Y1184551D01*
X7053999Y1184849D01*
X7052668Y1184936D01*
X7051360Y1185196D01*
X6808072D01*
X6805185Y1190196D01*
X6807707Y1194563D01*
X6810098Y1203489D01*
Y1207161D01*
X6883961Y1281023D01*
X7273363D01*
X7283118Y1282963D01*
X7291387Y1288489D01*
X7365774Y1362875D01*
X7370480Y1361614D01*
X7383221D01*
X7395527Y1364912D01*
X7406560Y1371282D01*
X7415569Y1380290D01*
X7421939Y1391324D01*
X7425236Y1403630D01*
Y1416370D01*
X7421939Y1428676D01*
X7415569Y1439710D01*
X7406560Y1448718D01*
X7395527Y1455088D01*
X7383221Y1458386D01*
X7370480D01*
X7358174Y1455088D01*
X7347141Y1448718D01*
X7338132Y1439710D01*
X7331762Y1428676D01*
X7328465Y1416370D01*
Y1403630D01*
X7329726Y1398923D01*
X7262805Y1332003D01*
X6873402D01*
X6863648Y1330062D01*
X6855378Y1324537D01*
X6774050Y1243209D01*
X6770379D01*
X6761453Y1240817D01*
X6753449Y1236196D01*
X6746914Y1229661D01*
X6742293Y1221658D01*
X6739902Y1212731D01*
Y1203489D01*
X6742293Y1194563D01*
X6744815Y1190196D01*
X6741928Y1185196D01*
X6248072D01*
X6245185Y1190196D01*
X6247707Y1194563D01*
X6250098Y1203489D01*
Y1212731D01*
X6247707Y1221658D01*
X6243086Y1229661D01*
X6236551Y1236196D01*
X6228547Y1240817D01*
X6219621Y1243209D01*
X6210379D01*
X6201453Y1240817D01*
X6193449Y1236196D01*
X6190853Y1233600D01*
X6029298D01*
X5863975Y1398923D01*
X5865236Y1403630D01*
Y1416370D01*
X5861939Y1428676D01*
X5855569Y1439710D01*
X5846560Y1448718D01*
X5835527Y1455088D01*
X5823221Y1458386D01*
X5810480D01*
X5798174Y1455088D01*
X5787141Y1448718D01*
X5778132Y1439710D01*
X5771762Y1428676D01*
X5768465Y1416370D01*
Y1403630D01*
X5771762Y1391324D01*
X5778132Y1380290D01*
X5787141Y1371282D01*
X5798174Y1364912D01*
X5810480Y1361614D01*
X5823221D01*
X5827927Y1362875D01*
X6000606Y1190196D01*
X6000569Y1188973D01*
X5999423Y1185196D01*
X5953640D01*
X5952332Y1184936D01*
X5951001Y1184849D01*
X5950398Y1184551D01*
X5949738Y1184420D01*
X5948630Y1183679D01*
X5947433Y1183089D01*
X5946990Y1182583D01*
X5946431Y1182210D01*
X5945690Y1181101D01*
X5944810Y1180098D01*
X5942690Y1176426D01*
X5938574Y1172310D01*
X5933533Y1169399D01*
X5927910Y1167893D01*
X5922090D01*
X5916467Y1169399D01*
X5911426Y1172310D01*
X5907310Y1176426D01*
X5905190Y1180098D01*
X5904310Y1181101D01*
X5903569Y1182210D01*
X5903010Y1182583D01*
X5902567Y1183089D01*
X5901370Y1183679D01*
X5900262Y1184420D01*
X5899602Y1184551D01*
X5898999Y1184849D01*
X5897668Y1184936D01*
X5896360Y1185196D01*
X5853640D01*
X5852332Y1184936D01*
X5851001Y1184849D01*
X5850398Y1184551D01*
X5849738Y1184420D01*
X5848630Y1183679D01*
X5847433Y1183089D01*
X5846990Y1182583D01*
X5846431Y1182210D01*
X5845690Y1181101D01*
X5844810Y1180098D01*
X5842690Y1176426D01*
X5838574Y1172310D01*
X5833533Y1169399D01*
X5827910Y1167893D01*
X5822090D01*
X5816467Y1169399D01*
X5811426Y1172310D01*
X5807310Y1176426D01*
X5805190Y1180098D01*
X5804310Y1181101D01*
X5803569Y1182210D01*
X5803010Y1182583D01*
X5802567Y1183089D01*
X5801370Y1183679D01*
X5800262Y1184420D01*
X5799602Y1184551D01*
X5798999Y1184849D01*
X5797668Y1184936D01*
X5796360Y1185196D01*
X5753640D01*
X5752332Y1184936D01*
X5751001Y1184849D01*
X5750398Y1184551D01*
X5749738Y1184420D01*
X5748630Y1183679D01*
X5747433Y1183089D01*
X5746990Y1182583D01*
X5746431Y1182210D01*
X5745690Y1181101D01*
X5744810Y1180098D01*
X5742690Y1176426D01*
X5738574Y1172310D01*
X5733533Y1169399D01*
X5727910Y1167893D01*
X5722090D01*
X5716467Y1169399D01*
X5711426Y1172310D01*
X5707310Y1176426D01*
X5705190Y1180098D01*
X5704310Y1181101D01*
X5703569Y1182210D01*
X5703010Y1182583D01*
X5702567Y1183089D01*
X5701370Y1183679D01*
X5700262Y1184420D01*
X5699602Y1184551D01*
X5698999Y1184849D01*
X5697668Y1184936D01*
X5696360Y1185196D01*
X5653640D01*
X5652332Y1184936D01*
X5651001Y1184849D01*
X5650398Y1184551D01*
X5649738Y1184420D01*
X5648630Y1183679D01*
X5647433Y1183089D01*
X5646990Y1182583D01*
X5646431Y1182210D01*
X5645690Y1181101D01*
X5644810Y1180098D01*
X5642690Y1176426D01*
X5638574Y1172310D01*
X5633533Y1169399D01*
X5627910Y1167893D01*
X5622090D01*
X5616467Y1169399D01*
X5611426Y1172310D01*
X5607310Y1176426D01*
X5605190Y1180098D01*
X5604310Y1181101D01*
X5603569Y1182210D01*
X5603010Y1182583D01*
X5602567Y1183089D01*
X5601370Y1183679D01*
X5600262Y1184420D01*
X5599602Y1184551D01*
X5598999Y1184849D01*
X5597668Y1184936D01*
X5596360Y1185196D01*
X5553640D01*
X5552332Y1184936D01*
X5551001Y1184849D01*
X5550398Y1184551D01*
X5549738Y1184420D01*
X5548630Y1183679D01*
X5547433Y1183089D01*
X5546990Y1182583D01*
X5546431Y1182210D01*
X5545690Y1181101D01*
X5544810Y1180098D01*
X5542690Y1176426D01*
X5538574Y1172310D01*
X5533533Y1169399D01*
X5527910Y1167893D01*
X5522090D01*
X5516467Y1169399D01*
X5511426Y1172310D01*
X5507310Y1176426D01*
X5505190Y1180098D01*
X5504310Y1181101D01*
X5503569Y1182210D01*
X5503010Y1182583D01*
X5502567Y1183089D01*
X5501370Y1183679D01*
X5500262Y1184420D01*
X5499602Y1184551D01*
X5498999Y1184849D01*
X5497668Y1184936D01*
X5496360Y1185196D01*
X5453640D01*
X5452332Y1184936D01*
X5451001Y1184849D01*
X5450398Y1184551D01*
X5449738Y1184420D01*
X5448630Y1183679D01*
X5447433Y1183089D01*
X5446990Y1182583D01*
X5446431Y1182210D01*
X5445690Y1181101D01*
X5444810Y1180098D01*
X5442690Y1176426D01*
X5438574Y1172310D01*
X5433533Y1169399D01*
X5427910Y1167893D01*
X5422090D01*
X5416467Y1169399D01*
X5411426Y1172310D01*
X5407310Y1176426D01*
X5405190Y1180098D01*
X5404310Y1181101D01*
X5403569Y1182210D01*
X5403010Y1182583D01*
X5402567Y1183089D01*
X5401370Y1183679D01*
X5400262Y1184420D01*
X5399602Y1184551D01*
X5398999Y1184849D01*
X5397668Y1184936D01*
X5396360Y1185196D01*
X5353640D01*
X5352332Y1184936D01*
X5351001Y1184849D01*
X5350398Y1184551D01*
X5349738Y1184420D01*
X5348630Y1183679D01*
X5347433Y1183089D01*
X5346990Y1182583D01*
X5346431Y1182210D01*
X5345690Y1181101D01*
X5344810Y1180098D01*
X5342690Y1176426D01*
X5338574Y1172310D01*
X5333533Y1169399D01*
X5327910Y1167893D01*
X5322090D01*
X5316467Y1169399D01*
X5311426Y1172310D01*
X5307310Y1176426D01*
X5305190Y1180098D01*
X5304310Y1181101D01*
X5303569Y1182210D01*
X5303010Y1182583D01*
X5302567Y1183089D01*
X5301370Y1183679D01*
X5300262Y1184420D01*
X5299602Y1184551D01*
X5298999Y1184849D01*
X5297668Y1184936D01*
X5296360Y1185196D01*
X5253640D01*
X5252332Y1184936D01*
X5251001Y1184849D01*
X5250398Y1184551D01*
X5249738Y1184420D01*
X5248630Y1183679D01*
X5247433Y1183089D01*
X5246990Y1182583D01*
X5246431Y1182210D01*
X5245690Y1181101D01*
X5244810Y1180098D01*
X5242690Y1176426D01*
X5238574Y1172310D01*
X5233533Y1169399D01*
X5227910Y1167893D01*
X5222090D01*
X5216467Y1169399D01*
X5211426Y1172310D01*
X5207310Y1176426D01*
X5205190Y1180098D01*
X5204310Y1181101D01*
X5203569Y1182210D01*
X5203010Y1182583D01*
X5202567Y1183089D01*
X5201370Y1183679D01*
X5200262Y1184420D01*
X5199602Y1184551D01*
X5198999Y1184849D01*
X5197668Y1184936D01*
X5196360Y1185196D01*
X5153640D01*
X5152332Y1184936D01*
X5151001Y1184849D01*
X5150398Y1184551D01*
X5149738Y1184420D01*
X5148630Y1183679D01*
X5147433Y1183089D01*
X5146990Y1182583D01*
X5146431Y1182210D01*
X5145690Y1181101D01*
X5144810Y1180098D01*
X5142690Y1176426D01*
X5138574Y1172310D01*
X5133533Y1169399D01*
X5127910Y1167893D01*
X5122090D01*
X5116467Y1169399D01*
X5111426Y1172310D01*
X5107310Y1176426D01*
X5105190Y1180098D01*
X5104310Y1181101D01*
X5103569Y1182210D01*
X5103010Y1182583D01*
X5102567Y1183089D01*
X5101370Y1183679D01*
X5100262Y1184420D01*
X5099602Y1184551D01*
X5098999Y1184849D01*
X5097668Y1184936D01*
X5096360Y1185196D01*
X5053640D01*
X5052332Y1184936D01*
X5051001Y1184849D01*
X5050398Y1184551D01*
X5049738Y1184420D01*
X5048630Y1183679D01*
X5047433Y1183089D01*
X5046990Y1182583D01*
X5046431Y1182210D01*
X5045690Y1181101D01*
X5044810Y1180098D01*
X5042690Y1176426D01*
X5038574Y1172310D01*
X5033533Y1169399D01*
X5027910Y1167893D01*
X5022090D01*
X5016467Y1169399D01*
X5011426Y1172310D01*
X5007310Y1176426D01*
X5005190Y1180098D01*
X5004310Y1181101D01*
X5003569Y1182210D01*
X5003010Y1182583D01*
X5002567Y1183089D01*
X5001370Y1183679D01*
X5000262Y1184420D01*
X4999602Y1184551D01*
X4998999Y1184849D01*
X4997668Y1184936D01*
X4996360Y1185196D01*
X4753072D01*
X4750185Y1190196D01*
X4752707Y1194563D01*
X4755098Y1203489D01*
Y1207161D01*
X4828961Y1281023D01*
X5218363D01*
X5228118Y1282963D01*
X5236387Y1288489D01*
X5310774Y1362875D01*
X5315480Y1361614D01*
X5328221D01*
X5340527Y1364912D01*
X5351560Y1371282D01*
X5360569Y1380290D01*
X5366939Y1391324D01*
X5370236Y1403630D01*
Y1416370D01*
X5366939Y1428676D01*
X5360569Y1439710D01*
X5351560Y1448718D01*
X5340527Y1455088D01*
X5328221Y1458386D01*
X5315480D01*
X5303174Y1455088D01*
X5292141Y1448718D01*
X5283132Y1439710D01*
X5276762Y1428676D01*
X5273465Y1416370D01*
Y1403630D01*
X5274726Y1398923D01*
X5207805Y1332003D01*
X4818402D01*
X4808648Y1330062D01*
X4800378Y1324537D01*
X4719050Y1243209D01*
X4715379D01*
X4706453Y1240817D01*
X4698449Y1236196D01*
X4691914Y1229661D01*
X4687293Y1221658D01*
X4684902Y1212731D01*
Y1203489D01*
X4687293Y1194563D01*
X4689815Y1190196D01*
X4686928Y1185196D01*
X4193072D01*
X4190185Y1190196D01*
X4192707Y1194563D01*
X4195098Y1203489D01*
Y1212731D01*
X4192707Y1221658D01*
X4188086Y1229661D01*
X4181551Y1236196D01*
X4173547Y1240817D01*
X4164621Y1243209D01*
X4155379D01*
X4146453Y1240817D01*
X4138449Y1236196D01*
X4135853Y1233600D01*
X3974298D01*
X3808975Y1398923D01*
X3810236Y1403630D01*
Y1416370D01*
X3806939Y1428676D01*
X3800569Y1439710D01*
X3791560Y1448718D01*
X3780527Y1455088D01*
X3768220Y1458386D01*
X3755480D01*
X3743174Y1455088D01*
X3732141Y1448718D01*
X3723132Y1439710D01*
X3716762Y1428676D01*
X3713465Y1416370D01*
Y1403630D01*
X3716762Y1391324D01*
X3723132Y1380290D01*
X3732141Y1371282D01*
X3743174Y1364912D01*
X3755480Y1361614D01*
X3768220D01*
X3772927Y1362875D01*
X3945606Y1190196D01*
X3945568Y1188973D01*
X3944423Y1185196D01*
X3898640D01*
X3897332Y1184936D01*
X3896001Y1184849D01*
X3895398Y1184551D01*
X3894738Y1184420D01*
X3893630Y1183679D01*
X3892433Y1183089D01*
X3891990Y1182583D01*
X3891430Y1182210D01*
X3890690Y1181101D01*
X3889810Y1180098D01*
X3887690Y1176426D01*
X3883574Y1172310D01*
X3878533Y1169399D01*
X3872910Y1167893D01*
X3867090D01*
X3861467Y1169399D01*
X3856426Y1172310D01*
X3852310Y1176426D01*
X3850190Y1180098D01*
X3849310Y1181101D01*
X3848570Y1182210D01*
X3848010Y1182583D01*
X3847567Y1183089D01*
X3846370Y1183679D01*
X3845262Y1184420D01*
X3844602Y1184551D01*
X3843999Y1184849D01*
X3842668Y1184936D01*
X3841360Y1185196D01*
X3798640D01*
X3797332Y1184936D01*
X3796001Y1184849D01*
X3795398Y1184551D01*
X3794738Y1184420D01*
X3793630Y1183679D01*
X3792433Y1183089D01*
X3791990Y1182583D01*
X3791430Y1182210D01*
X3790690Y1181101D01*
X3789810Y1180098D01*
X3787690Y1176426D01*
X3783574Y1172310D01*
X3778533Y1169399D01*
X3772910Y1167893D01*
X3767090D01*
X3761467Y1169399D01*
X3756426Y1172310D01*
X3752310Y1176426D01*
X3750190Y1180098D01*
X3749310Y1181101D01*
X3748570Y1182210D01*
X3748010Y1182583D01*
X3747567Y1183089D01*
X3746370Y1183679D01*
X3745262Y1184420D01*
X3744602Y1184551D01*
X3743999Y1184849D01*
X3742668Y1184936D01*
X3741360Y1185196D01*
X3698640D01*
X3697332Y1184936D01*
X3696001Y1184849D01*
X3695398Y1184551D01*
X3694738Y1184420D01*
X3693630Y1183679D01*
X3692433Y1183089D01*
X3691990Y1182583D01*
X3691430Y1182210D01*
X3690690Y1181101D01*
X3689810Y1180098D01*
X3687690Y1176426D01*
X3683574Y1172310D01*
X3678533Y1169399D01*
X3672910Y1167893D01*
X3667090D01*
X3661467Y1169399D01*
X3656426Y1172310D01*
X3652310Y1176426D01*
X3650190Y1180098D01*
X3649310Y1181101D01*
X3648570Y1182210D01*
X3648010Y1182583D01*
X3647567Y1183089D01*
X3646370Y1183679D01*
X3645262Y1184420D01*
X3644602Y1184551D01*
X3643999Y1184849D01*
X3642668Y1184936D01*
X3641360Y1185196D01*
X3598640D01*
X3597332Y1184936D01*
X3596001Y1184849D01*
X3595398Y1184551D01*
X3594738Y1184420D01*
X3593630Y1183679D01*
X3592433Y1183089D01*
X3591990Y1182583D01*
X3591430Y1182210D01*
X3590690Y1181101D01*
X3589810Y1180098D01*
X3587690Y1176426D01*
X3583574Y1172310D01*
X3578533Y1169399D01*
X3572910Y1167893D01*
X3567090D01*
X3561467Y1169399D01*
X3556426Y1172310D01*
X3552310Y1176426D01*
X3550190Y1180098D01*
X3549310Y1181101D01*
X3548570Y1182210D01*
X3548010Y1182583D01*
X3547567Y1183089D01*
X3546370Y1183679D01*
X3545262Y1184420D01*
X3544602Y1184551D01*
X3543999Y1184849D01*
X3542668Y1184936D01*
X3541360Y1185196D01*
X3498640D01*
X3497332Y1184936D01*
X3496001Y1184849D01*
X3495398Y1184551D01*
X3494738Y1184420D01*
X3493630Y1183679D01*
X3492433Y1183089D01*
X3491990Y1182583D01*
X3491430Y1182210D01*
X3490690Y1181101D01*
X3489810Y1180098D01*
X3487690Y1176426D01*
X3483574Y1172310D01*
X3478533Y1169399D01*
X3472910Y1167893D01*
X3467090D01*
X3461467Y1169399D01*
X3456426Y1172310D01*
X3452310Y1176426D01*
X3450190Y1180098D01*
X3449310Y1181101D01*
X3448570Y1182210D01*
X3448010Y1182583D01*
X3447567Y1183089D01*
X3446370Y1183679D01*
X3445262Y1184420D01*
X3444602Y1184551D01*
X3443999Y1184849D01*
X3442668Y1184936D01*
X3441360Y1185196D01*
X3398640D01*
X3397332Y1184936D01*
X3396001Y1184849D01*
X3395398Y1184551D01*
X3394738Y1184420D01*
X3393630Y1183679D01*
X3392433Y1183089D01*
X3391990Y1182583D01*
X3391430Y1182210D01*
X3390690Y1181101D01*
X3389810Y1180098D01*
X3387690Y1176426D01*
X3383574Y1172310D01*
X3378533Y1169399D01*
X3372910Y1167893D01*
X3367090D01*
X3361467Y1169399D01*
X3356426Y1172310D01*
X3352310Y1176426D01*
X3350190Y1180098D01*
X3349310Y1181101D01*
X3348570Y1182210D01*
X3348010Y1182583D01*
X3347567Y1183089D01*
X3346370Y1183679D01*
X3345262Y1184420D01*
X3344602Y1184551D01*
X3343999Y1184849D01*
X3342668Y1184936D01*
X3341360Y1185196D01*
X3298640D01*
X3297332Y1184936D01*
X3296001Y1184849D01*
X3295398Y1184551D01*
X3294738Y1184420D01*
X3293630Y1183679D01*
X3292433Y1183089D01*
X3291990Y1182583D01*
X3291430Y1182210D01*
X3290690Y1181101D01*
X3289810Y1180098D01*
X3287690Y1176426D01*
X3283574Y1172310D01*
X3278533Y1169399D01*
X3272910Y1167893D01*
X3267090D01*
X3261467Y1169399D01*
X3256426Y1172310D01*
X3252310Y1176426D01*
X3250190Y1180098D01*
X3249310Y1181101D01*
X3248570Y1182210D01*
X3248010Y1182583D01*
X3247567Y1183089D01*
X3246370Y1183679D01*
X3245262Y1184420D01*
X3244602Y1184551D01*
X3243999Y1184849D01*
X3242668Y1184936D01*
X3241360Y1185196D01*
X3198640D01*
X3197332Y1184936D01*
X3196001Y1184849D01*
X3195398Y1184551D01*
X3194738Y1184420D01*
X3193630Y1183679D01*
X3192433Y1183089D01*
X3191990Y1182583D01*
X3191430Y1182210D01*
X3190690Y1181101D01*
X3189810Y1180098D01*
X3187690Y1176426D01*
X3183574Y1172310D01*
X3178533Y1169399D01*
X3172910Y1167893D01*
X3167090D01*
X3161467Y1169399D01*
X3156426Y1172310D01*
X3152310Y1176426D01*
X3150190Y1180098D01*
X3149310Y1181101D01*
X3148570Y1182210D01*
X3148010Y1182583D01*
X3147567Y1183089D01*
X3146370Y1183679D01*
X3145262Y1184420D01*
X3144602Y1184551D01*
X3143999Y1184849D01*
X3142668Y1184936D01*
X3141360Y1185196D01*
X3098640D01*
X3097332Y1184936D01*
X3096001Y1184849D01*
X3095398Y1184551D01*
X3094738Y1184420D01*
X3093630Y1183679D01*
X3092433Y1183089D01*
X3091990Y1182583D01*
X3091430Y1182210D01*
X3090690Y1181101D01*
X3089810Y1180098D01*
X3087690Y1176426D01*
X3083574Y1172310D01*
X3078533Y1169399D01*
X3072910Y1167893D01*
X3067090D01*
X3061467Y1169399D01*
X3056426Y1172310D01*
X3052310Y1176426D01*
X3050190Y1180098D01*
X3049310Y1181101D01*
X3048570Y1182210D01*
X3048010Y1182583D01*
X3047567Y1183089D01*
X3046370Y1183679D01*
X3045262Y1184420D01*
X3044602Y1184551D01*
X3043999Y1184849D01*
X3042668Y1184936D01*
X3041360Y1185196D01*
X2998640D01*
X2997332Y1184936D01*
X2996001Y1184849D01*
X2995398Y1184551D01*
X2994738Y1184420D01*
X2993630Y1183679D01*
X2992433Y1183089D01*
X2991990Y1182583D01*
X2991430Y1182210D01*
X2990690Y1181101D01*
X2989810Y1180098D01*
X2987690Y1176426D01*
X2983574Y1172310D01*
X2978533Y1169399D01*
X2972910Y1167893D01*
X2967090D01*
X2961467Y1169399D01*
X2956426Y1172310D01*
X2952310Y1176426D01*
X2950190Y1180098D01*
X2949310Y1181101D01*
X2948570Y1182210D01*
X2948010Y1182583D01*
X2947567Y1183089D01*
X2946370Y1183679D01*
X2945262Y1184420D01*
X2944602Y1184551D01*
X2943999Y1184849D01*
X2942668Y1184936D01*
X2941360Y1185196D01*
X2698072D01*
X2695185Y1190196D01*
X2697706Y1194563D01*
X2700098Y1203489D01*
Y1207161D01*
X2773961Y1281023D01*
X3163363D01*
X3173118Y1282963D01*
X3181387Y1288489D01*
X3255774Y1362875D01*
X3260480Y1361614D01*
X3273220D01*
X3285527Y1364912D01*
X3296560Y1371282D01*
X3305569Y1380290D01*
X3311939Y1391324D01*
X3315236Y1403630D01*
Y1416370D01*
X3311939Y1428676D01*
X3305569Y1439710D01*
X3296560Y1448718D01*
X3285527Y1455088D01*
X3273220Y1458386D01*
X3260480D01*
X3248174Y1455088D01*
X3237141Y1448718D01*
X3228132Y1439710D01*
X3221762Y1428676D01*
X3218465Y1416370D01*
Y1403630D01*
X3219726Y1398923D01*
X3152805Y1332003D01*
X2763402D01*
X2753648Y1330062D01*
X2745378Y1324537D01*
X2664050Y1243209D01*
X2660379D01*
X2651452Y1240817D01*
X2643449Y1236196D01*
X2636914Y1229661D01*
X2632294Y1221658D01*
X2629902Y1212731D01*
Y1203489D01*
X2632294Y1194563D01*
X2634815Y1190196D01*
X2631928Y1185196D01*
X2138072D01*
X2135185Y1190196D01*
X2137706Y1194563D01*
X2140098Y1203489D01*
Y1212731D01*
X2137706Y1221658D01*
X2133086Y1229661D01*
X2126551Y1236196D01*
X2118548Y1240817D01*
X2109621Y1243209D01*
X2100379D01*
X2091452Y1240817D01*
X2083449Y1236196D01*
X2080853Y1233600D01*
X1919298D01*
X1753975Y1398923D01*
X1755236Y1403630D01*
Y1416370D01*
X1751939Y1428676D01*
X1745569Y1439710D01*
X1736560Y1448718D01*
X1725527Y1455088D01*
X1713220Y1458386D01*
X1700480D01*
X1688174Y1455088D01*
X1677141Y1448718D01*
X1668132Y1439710D01*
X1661762Y1428676D01*
X1658465Y1416370D01*
Y1403630D01*
X1661762Y1391324D01*
X1668132Y1380290D01*
X1677141Y1371282D01*
X1688174Y1364912D01*
X1700480Y1361614D01*
X1713220D01*
X1717927Y1362875D01*
X1890607Y1190196D01*
X1890569Y1188973D01*
X1889423Y1185196D01*
X1843640D01*
X1842332Y1184936D01*
X1841001Y1184849D01*
X1840398Y1184551D01*
X1839738Y1184420D01*
X1838630Y1183679D01*
X1837433Y1183089D01*
X1836990Y1182583D01*
X1836430Y1182210D01*
X1835690Y1181101D01*
X1834810Y1180098D01*
X1832690Y1176426D01*
X1828574Y1172310D01*
X1823533Y1169399D01*
X1817910Y1167893D01*
X1812090D01*
X1806467Y1169399D01*
X1801426Y1172310D01*
X1797310Y1176426D01*
X1795190Y1180098D01*
X1794310Y1181101D01*
X1793570Y1182210D01*
X1793010Y1182583D01*
X1792567Y1183089D01*
X1791370Y1183679D01*
X1790262Y1184420D01*
X1789602Y1184551D01*
X1788999Y1184849D01*
X1787668Y1184936D01*
X1786360Y1185196D01*
X1743640D01*
X1742332Y1184936D01*
X1741001Y1184849D01*
X1740398Y1184551D01*
X1739738Y1184420D01*
X1738630Y1183679D01*
X1737433Y1183089D01*
X1736990Y1182583D01*
X1736430Y1182210D01*
X1735690Y1181101D01*
X1734810Y1180098D01*
X1732690Y1176426D01*
X1728574Y1172310D01*
X1723533Y1169399D01*
X1717910Y1167893D01*
X1712090D01*
X1706467Y1169399D01*
X1701426Y1172310D01*
X1697310Y1176426D01*
X1695190Y1180098D01*
X1694310Y1181101D01*
X1693570Y1182210D01*
X1693010Y1182583D01*
X1692567Y1183089D01*
X1691370Y1183679D01*
X1690262Y1184420D01*
X1689602Y1184551D01*
X1688999Y1184849D01*
X1687668Y1184936D01*
X1686360Y1185196D01*
X1643640D01*
X1642332Y1184936D01*
X1641001Y1184849D01*
X1640398Y1184551D01*
X1639738Y1184420D01*
X1638630Y1183679D01*
X1637433Y1183089D01*
X1636990Y1182583D01*
X1636430Y1182210D01*
X1635690Y1181101D01*
X1634810Y1180098D01*
X1632690Y1176426D01*
X1628574Y1172310D01*
X1623533Y1169399D01*
X1617910Y1167893D01*
X1612090D01*
X1606467Y1169399D01*
X1601426Y1172310D01*
X1597310Y1176426D01*
X1595190Y1180098D01*
X1594310Y1181101D01*
X1593570Y1182210D01*
X1593010Y1182583D01*
X1592567Y1183089D01*
X1591370Y1183679D01*
X1590262Y1184420D01*
X1589602Y1184551D01*
X1588999Y1184849D01*
X1587668Y1184936D01*
X1586360Y1185196D01*
X1543640D01*
X1542332Y1184936D01*
X1541001Y1184849D01*
X1540398Y1184551D01*
X1539738Y1184420D01*
X1538630Y1183679D01*
X1537433Y1183089D01*
X1536990Y1182583D01*
X1536430Y1182210D01*
X1535690Y1181101D01*
X1534810Y1180098D01*
X1532690Y1176426D01*
X1528574Y1172310D01*
X1523533Y1169399D01*
X1517910Y1167893D01*
X1512090D01*
X1506467Y1169399D01*
X1501426Y1172310D01*
X1497310Y1176426D01*
X1495190Y1180098D01*
X1494310Y1181101D01*
X1493570Y1182210D01*
X1493010Y1182583D01*
X1492567Y1183089D01*
X1491370Y1183679D01*
X1490262Y1184420D01*
X1489602Y1184551D01*
X1488999Y1184849D01*
X1487668Y1184936D01*
X1486360Y1185196D01*
X1443640D01*
X1442332Y1184936D01*
X1441001Y1184849D01*
X1440398Y1184551D01*
X1439738Y1184420D01*
X1438630Y1183679D01*
X1437433Y1183089D01*
X1436990Y1182583D01*
X1436430Y1182210D01*
X1435690Y1181101D01*
X1434810Y1180098D01*
X1432690Y1176426D01*
X1428574Y1172310D01*
X1423533Y1169399D01*
X1417910Y1167893D01*
X1412090D01*
X1406467Y1169399D01*
X1401426Y1172310D01*
X1397310Y1176426D01*
X1395190Y1180098D01*
X1394310Y1181101D01*
X1393570Y1182210D01*
X1393010Y1182583D01*
X1392567Y1183089D01*
X1391370Y1183679D01*
X1390262Y1184420D01*
X1389602Y1184551D01*
X1388999Y1184849D01*
X1387668Y1184936D01*
X1386360Y1185196D01*
X1343640D01*
X1342332Y1184936D01*
X1341001Y1184849D01*
X1340398Y1184551D01*
X1339738Y1184420D01*
X1338630Y1183679D01*
X1337433Y1183089D01*
X1336990Y1182583D01*
X1336430Y1182210D01*
X1335690Y1181101D01*
X1334810Y1180098D01*
X1332690Y1176426D01*
X1328574Y1172310D01*
X1323533Y1169399D01*
X1317910Y1167893D01*
X1312090D01*
X1306467Y1169399D01*
X1301426Y1172310D01*
X1297310Y1176426D01*
X1295190Y1180098D01*
X1294310Y1181101D01*
X1293570Y1182210D01*
X1293010Y1182583D01*
X1292567Y1183089D01*
X1291370Y1183679D01*
X1290262Y1184420D01*
X1289602Y1184551D01*
X1288999Y1184849D01*
X1287668Y1184936D01*
X1286360Y1185196D01*
X1243640D01*
X1242332Y1184936D01*
X1241001Y1184849D01*
X1240398Y1184551D01*
X1239738Y1184420D01*
X1238630Y1183679D01*
X1237433Y1183089D01*
X1236990Y1182583D01*
X1236430Y1182210D01*
X1235690Y1181101D01*
X1234810Y1180098D01*
X1232690Y1176426D01*
X1228574Y1172310D01*
X1223533Y1169399D01*
X1217910Y1167893D01*
X1212090D01*
X1206467Y1169399D01*
X1201426Y1172310D01*
X1197310Y1176426D01*
X1195190Y1180098D01*
X1194310Y1181101D01*
X1193570Y1182210D01*
X1193010Y1182583D01*
X1192567Y1183089D01*
X1191370Y1183679D01*
X1190262Y1184420D01*
X1189602Y1184551D01*
X1188999Y1184849D01*
X1187668Y1184936D01*
X1186360Y1185196D01*
X1143640D01*
X1142332Y1184936D01*
X1141001Y1184849D01*
X1140398Y1184551D01*
X1139738Y1184420D01*
X1138630Y1183679D01*
X1137433Y1183089D01*
X1136990Y1182583D01*
X1136430Y1182210D01*
X1135690Y1181101D01*
X1134810Y1180098D01*
X1132690Y1176426D01*
X1128574Y1172310D01*
X1123533Y1169399D01*
X1117910Y1167893D01*
X1112090D01*
X1106467Y1169399D01*
X1101426Y1172310D01*
X1097310Y1176426D01*
X1095190Y1180098D01*
X1094310Y1181101D01*
X1093570Y1182210D01*
X1093010Y1182583D01*
X1092567Y1183089D01*
X1091370Y1183679D01*
X1090262Y1184420D01*
X1089602Y1184551D01*
X1088999Y1184849D01*
X1087668Y1184936D01*
X1086360Y1185196D01*
X1043640D01*
X1042332Y1184936D01*
X1041001Y1184849D01*
X1040398Y1184551D01*
X1039738Y1184420D01*
X1038630Y1183679D01*
X1037433Y1183089D01*
X1036990Y1182583D01*
X1036430Y1182210D01*
X1035690Y1181101D01*
X1034810Y1180098D01*
X1032690Y1176426D01*
X1028574Y1172310D01*
X1023533Y1169399D01*
X1017910Y1167893D01*
X1012090D01*
X1006467Y1169399D01*
X1001426Y1172310D01*
X997310Y1176426D01*
X995190Y1180098D01*
X994310Y1181101D01*
X993569Y1182210D01*
X993010Y1182583D01*
X992567Y1183089D01*
X991370Y1183679D01*
X990262Y1184420D01*
X989602Y1184551D01*
X988999Y1184849D01*
X987668Y1184936D01*
X986360Y1185196D01*
X943640D01*
X942332Y1184936D01*
X941001Y1184849D01*
X940398Y1184551D01*
X939738Y1184420D01*
X938630Y1183679D01*
X937433Y1183089D01*
X936990Y1182583D01*
X936431Y1182210D01*
X935690Y1181101D01*
X934810Y1180098D01*
X932690Y1176426D01*
X928574Y1172310D01*
X923533Y1169399D01*
X917910Y1167893D01*
X912090D01*
X906467Y1169399D01*
X901426Y1172310D01*
X897310Y1176426D01*
X895190Y1180098D01*
X894310Y1181101D01*
X893569Y1182210D01*
X893010Y1182583D01*
X892567Y1183089D01*
X891370Y1183679D01*
X890262Y1184420D01*
X889602Y1184551D01*
X888999Y1184849D01*
X887668Y1184936D01*
X886360Y1185196D01*
X643072D01*
X640185Y1190196D01*
X642707Y1194563D01*
X645098Y1203489D01*
Y1207161D01*
X718961Y1281023D01*
X1108363D01*
X1118118Y1282963D01*
X1126387Y1288489D01*
X1200774Y1362875D01*
X1205480Y1361614D01*
X1218220D01*
X1230527Y1364912D01*
X1241560Y1371282D01*
X1250569Y1380290D01*
X1256939Y1391324D01*
X1260236Y1403630D01*
Y1416370D01*
X1256939Y1428676D01*
X1250569Y1439710D01*
X1241560Y1448718D01*
X1230527Y1455088D01*
X1218220Y1458386D01*
X1205480D01*
X1193174Y1455088D01*
X1182141Y1448718D01*
X1173132Y1439710D01*
X1166762Y1428676D01*
X1163465Y1416370D01*
Y1403630D01*
X1164726Y1398923D01*
X1097805Y1332003D01*
X708402D01*
X698648Y1330062D01*
X690378Y1324537D01*
X609050Y1243209D01*
X605379D01*
X596452Y1240817D01*
X588449Y1236196D01*
X581914Y1229661D01*
X577293Y1221658D01*
X574902Y1212731D01*
Y1203489D01*
X577293Y1194563D01*
X579815Y1190196D01*
X576928Y1185196D01*
X10000D01*
Y1615000D01*
X8540000D01*
Y10000D01*
D02*
G37*
G36*
X7954151Y1170166D02*
X7960166Y1164151D01*
X7967532Y1159898D01*
X7975747Y1157697D01*
X7984253D01*
X7992468Y1159898D01*
X7999834Y1164151D01*
X8005000Y1169317D01*
X8008512Y1168473D01*
X8010000Y1167528D01*
Y911884D01*
X8005000Y910683D01*
X7999834Y915849D01*
X7992468Y920102D01*
X7984253Y922303D01*
X7975747D01*
X7967532Y920102D01*
X7960166Y915849D01*
X7954151Y909835D01*
X7949898Y902468D01*
X7947697Y894253D01*
Y885747D01*
X7949898Y877532D01*
X7954151Y870165D01*
X7954697Y869619D01*
X7952784Y865000D01*
X7907216D01*
X7905303Y869619D01*
X7905849Y870165D01*
X7910102Y877532D01*
X7912303Y885747D01*
Y894253D01*
X7910102Y902468D01*
X7905849Y909835D01*
X7899834Y915849D01*
X7892468Y920102D01*
X7884253Y922303D01*
X7875747D01*
X7867532Y920102D01*
X7860166Y915849D01*
X7854151Y909835D01*
X7849898Y902468D01*
X7847697Y894253D01*
Y885747D01*
X7849898Y877532D01*
X7854151Y870165D01*
X7854697Y869619D01*
X7852784Y865000D01*
X7807216D01*
X7805303Y869619D01*
X7805849Y870165D01*
X7810102Y877532D01*
X7812303Y885747D01*
Y894253D01*
X7810102Y902468D01*
X7805849Y909835D01*
X7799834Y915849D01*
X7792468Y920102D01*
X7784253Y922303D01*
X7775747D01*
X7767532Y920102D01*
X7760166Y915849D01*
X7754151Y909835D01*
X7749898Y902468D01*
X7747697Y894253D01*
Y885747D01*
X7749898Y877532D01*
X7754151Y870165D01*
X7754986Y869331D01*
X7750655Y865000D01*
X7695294D01*
Y890000D01*
X7694130Y895853D01*
X7690814Y900814D01*
X7685853Y904130D01*
X7680000Y905294D01*
X7674147Y904130D01*
X7669186Y900814D01*
X7665870Y895853D01*
X7664706Y890000D01*
Y865000D01*
X7607216D01*
X7605303Y869619D01*
X7605849Y870165D01*
X7610102Y877532D01*
X7612303Y885747D01*
Y894253D01*
X7610102Y902468D01*
X7605849Y909835D01*
X7599834Y915849D01*
X7592468Y920102D01*
X7584253Y922303D01*
X7575747D01*
X7567532Y920102D01*
X7560166Y915849D01*
X7554151Y909835D01*
X7549898Y902468D01*
X7547697Y894253D01*
Y885747D01*
X7549898Y877532D01*
X7554151Y870165D01*
X7554697Y869619D01*
X7552784Y865000D01*
X7507216D01*
X7505303Y869619D01*
X7505849Y870165D01*
X7510102Y877532D01*
X7512303Y885747D01*
Y894253D01*
X7510102Y902468D01*
X7505849Y909835D01*
X7499834Y915849D01*
X7492468Y920102D01*
X7484253Y922303D01*
X7475747D01*
X7467532Y920102D01*
X7460166Y915849D01*
X7454151Y909835D01*
X7449898Y902468D01*
X7447697Y894253D01*
Y885747D01*
X7449898Y877532D01*
X7454151Y870165D01*
X7454697Y869619D01*
X7452784Y865000D01*
X7407216D01*
X7405303Y869619D01*
X7405849Y870165D01*
X7410102Y877532D01*
X7412303Y885747D01*
Y894253D01*
X7410102Y902468D01*
X7405849Y909835D01*
X7399834Y915849D01*
X7392468Y920102D01*
X7384253Y922303D01*
X7375747D01*
X7367532Y920102D01*
X7360166Y915849D01*
X7354151Y909835D01*
X7349898Y902468D01*
X7347697Y894253D01*
Y885747D01*
X7349898Y877532D01*
X7354151Y870165D01*
X7354697Y869619D01*
X7352784Y865000D01*
X7307216D01*
X7305303Y869619D01*
X7305849Y870165D01*
X7310102Y877532D01*
X7312303Y885747D01*
Y894253D01*
X7310102Y902468D01*
X7305849Y909835D01*
X7299834Y915849D01*
X7292468Y920102D01*
X7284253Y922303D01*
X7275747D01*
X7267532Y920102D01*
X7260166Y915849D01*
X7254151Y909835D01*
X7249898Y902468D01*
X7247697Y894253D01*
Y885747D01*
X7249898Y877532D01*
X7254151Y870165D01*
X7254697Y869619D01*
X7252784Y865000D01*
X7207216D01*
X7205303Y869619D01*
X7205849Y870165D01*
X7210102Y877532D01*
X7212303Y885747D01*
Y894253D01*
X7210102Y902468D01*
X7205849Y909835D01*
X7199834Y915849D01*
X7192468Y920102D01*
X7184253Y922303D01*
X7175747D01*
X7167532Y920102D01*
X7160166Y915849D01*
X7154151Y909835D01*
X7149898Y902468D01*
X7147697Y894253D01*
Y885747D01*
X7149898Y877532D01*
X7154151Y870165D01*
X7154697Y869619D01*
X7152784Y865000D01*
X7112303D01*
Y922303D01*
X7047697D01*
Y865000D01*
X5952216D01*
X5950303Y869619D01*
X5950849Y870165D01*
X5955102Y877532D01*
X5957303Y885747D01*
Y894253D01*
X5955102Y902468D01*
X5950849Y909835D01*
X5944834Y915849D01*
X5937468Y920102D01*
X5929253Y922303D01*
X5920747D01*
X5912532Y920102D01*
X5905166Y915849D01*
X5899151Y909835D01*
X5894898Y902468D01*
X5892697Y894253D01*
Y885747D01*
X5894898Y877532D01*
X5899151Y870165D01*
X5899697Y869619D01*
X5897784Y865000D01*
X5852216D01*
X5850303Y869619D01*
X5850849Y870165D01*
X5855102Y877532D01*
X5857303Y885747D01*
Y894253D01*
X5855102Y902468D01*
X5850849Y909835D01*
X5844834Y915849D01*
X5837468Y920102D01*
X5829253Y922303D01*
X5820747D01*
X5812532Y920102D01*
X5805166Y915849D01*
X5799151Y909835D01*
X5794898Y902468D01*
X5792697Y894253D01*
Y885747D01*
X5794898Y877532D01*
X5799151Y870165D01*
X5799697Y869619D01*
X5797784Y865000D01*
X5752216D01*
X5750303Y869619D01*
X5750849Y870165D01*
X5755102Y877532D01*
X5757303Y885747D01*
Y894253D01*
X5755102Y902468D01*
X5750849Y909835D01*
X5744834Y915849D01*
X5737468Y920102D01*
X5729253Y922303D01*
X5720747D01*
X5712532Y920102D01*
X5705166Y915849D01*
X5699151Y909835D01*
X5694898Y902468D01*
X5692697Y894253D01*
Y885747D01*
X5694898Y877532D01*
X5699151Y870165D01*
X5699986Y869331D01*
X5695655Y865000D01*
X5640294D01*
Y890000D01*
X5639130Y895853D01*
X5635814Y900814D01*
X5630853Y904130D01*
X5625000Y905294D01*
X5619147Y904130D01*
X5614186Y900814D01*
X5610870Y895853D01*
X5609706Y890000D01*
Y865000D01*
X5552216D01*
X5550303Y869619D01*
X5550849Y870165D01*
X5555102Y877532D01*
X5557303Y885747D01*
Y894253D01*
X5555102Y902468D01*
X5550849Y909835D01*
X5544834Y915849D01*
X5537468Y920102D01*
X5529253Y922303D01*
X5520747D01*
X5512532Y920102D01*
X5505166Y915849D01*
X5499151Y909835D01*
X5494898Y902468D01*
X5492697Y894253D01*
Y885747D01*
X5494898Y877532D01*
X5499151Y870165D01*
X5499697Y869619D01*
X5497784Y865000D01*
X5452216D01*
X5450303Y869619D01*
X5450849Y870165D01*
X5455102Y877532D01*
X5457303Y885747D01*
Y894253D01*
X5455102Y902468D01*
X5450849Y909835D01*
X5444834Y915849D01*
X5437468Y920102D01*
X5429253Y922303D01*
X5420747D01*
X5412532Y920102D01*
X5405166Y915849D01*
X5399151Y909835D01*
X5394898Y902468D01*
X5392697Y894253D01*
Y885747D01*
X5394898Y877532D01*
X5399151Y870165D01*
X5399697Y869619D01*
X5397784Y865000D01*
X5352216D01*
X5350303Y869619D01*
X5350849Y870165D01*
X5355102Y877532D01*
X5357303Y885747D01*
Y894253D01*
X5355102Y902468D01*
X5350849Y909835D01*
X5344834Y915849D01*
X5337468Y920102D01*
X5329253Y922303D01*
X5320747D01*
X5312532Y920102D01*
X5305166Y915849D01*
X5299151Y909835D01*
X5294898Y902468D01*
X5292697Y894253D01*
Y885747D01*
X5294898Y877532D01*
X5299151Y870165D01*
X5299697Y869619D01*
X5297784Y865000D01*
X5252216D01*
X5250303Y869619D01*
X5250849Y870165D01*
X5255102Y877532D01*
X5257303Y885747D01*
Y894253D01*
X5255102Y902468D01*
X5250849Y909835D01*
X5244834Y915849D01*
X5237468Y920102D01*
X5229253Y922303D01*
X5220747D01*
X5212532Y920102D01*
X5205166Y915849D01*
X5199151Y909835D01*
X5194898Y902468D01*
X5192697Y894253D01*
Y885747D01*
X5194898Y877532D01*
X5199151Y870165D01*
X5199697Y869619D01*
X5197784Y865000D01*
X5152216D01*
X5150303Y869619D01*
X5150849Y870165D01*
X5155102Y877532D01*
X5157303Y885747D01*
Y894253D01*
X5155102Y902468D01*
X5150849Y909835D01*
X5144834Y915849D01*
X5137468Y920102D01*
X5129253Y922303D01*
X5120747D01*
X5112532Y920102D01*
X5105166Y915849D01*
X5099151Y909835D01*
X5094898Y902468D01*
X5092697Y894253D01*
Y885747D01*
X5094898Y877532D01*
X5099151Y870165D01*
X5099697Y869619D01*
X5097784Y865000D01*
X5057303D01*
Y922303D01*
X4992697D01*
Y865000D01*
X3897216D01*
X3895303Y869619D01*
X3895849Y870165D01*
X3900102Y877532D01*
X3902303Y885747D01*
Y894253D01*
X3900102Y902468D01*
X3895849Y909835D01*
X3889834Y915849D01*
X3882468Y920102D01*
X3874253Y922303D01*
X3865747D01*
X3857532Y920102D01*
X3850166Y915849D01*
X3844151Y909835D01*
X3839898Y902468D01*
X3837697Y894253D01*
Y885747D01*
X3839898Y877532D01*
X3844151Y870165D01*
X3844697Y869619D01*
X3842784Y865000D01*
X3797216D01*
X3795303Y869619D01*
X3795849Y870165D01*
X3800102Y877532D01*
X3802303Y885747D01*
Y894253D01*
X3800102Y902468D01*
X3795849Y909835D01*
X3789834Y915849D01*
X3782468Y920102D01*
X3774253Y922303D01*
X3765747D01*
X3757532Y920102D01*
X3750166Y915849D01*
X3744151Y909835D01*
X3739898Y902468D01*
X3737697Y894253D01*
Y885747D01*
X3739898Y877532D01*
X3744151Y870165D01*
X3744697Y869619D01*
X3742784Y865000D01*
X3697216D01*
X3695303Y869619D01*
X3695849Y870165D01*
X3700102Y877532D01*
X3702303Y885747D01*
Y894253D01*
X3700102Y902468D01*
X3695849Y909835D01*
X3689834Y915849D01*
X3682468Y920102D01*
X3674253Y922303D01*
X3665747D01*
X3657532Y920102D01*
X3650166Y915849D01*
X3644151Y909835D01*
X3639898Y902468D01*
X3637697Y894253D01*
Y885747D01*
X3639898Y877532D01*
X3644151Y870165D01*
X3644986Y869331D01*
X3640655Y865000D01*
X3585294D01*
Y890000D01*
X3584130Y895853D01*
X3580814Y900814D01*
X3575853Y904130D01*
X3570000Y905294D01*
X3564147Y904130D01*
X3559186Y900814D01*
X3555870Y895853D01*
X3554706Y890000D01*
Y865000D01*
X3497216D01*
X3495303Y869619D01*
X3495849Y870165D01*
X3500102Y877532D01*
X3502303Y885747D01*
Y894253D01*
X3500102Y902468D01*
X3495849Y909835D01*
X3489834Y915849D01*
X3482468Y920102D01*
X3474253Y922303D01*
X3465747D01*
X3457532Y920102D01*
X3450166Y915849D01*
X3444151Y909835D01*
X3439898Y902468D01*
X3437697Y894253D01*
Y885747D01*
X3439898Y877532D01*
X3444151Y870165D01*
X3444697Y869619D01*
X3442784Y865000D01*
X3397216D01*
X3395303Y869619D01*
X3395849Y870165D01*
X3400102Y877532D01*
X3402303Y885747D01*
Y894253D01*
X3400102Y902468D01*
X3395849Y909835D01*
X3389834Y915849D01*
X3382468Y920102D01*
X3374253Y922303D01*
X3365747D01*
X3357532Y920102D01*
X3350166Y915849D01*
X3344151Y909835D01*
X3339898Y902468D01*
X3337697Y894253D01*
Y885747D01*
X3339898Y877532D01*
X3344151Y870165D01*
X3344697Y869619D01*
X3342784Y865000D01*
X3297216D01*
X3295303Y869619D01*
X3295849Y870165D01*
X3300102Y877532D01*
X3302303Y885747D01*
Y894253D01*
X3300102Y902468D01*
X3295849Y909835D01*
X3289834Y915849D01*
X3282468Y920102D01*
X3274253Y922303D01*
X3265747D01*
X3257532Y920102D01*
X3250166Y915849D01*
X3244151Y909835D01*
X3239898Y902468D01*
X3237697Y894253D01*
Y885747D01*
X3239898Y877532D01*
X3244151Y870165D01*
X3244697Y869619D01*
X3242784Y865000D01*
X3197216D01*
X3195303Y869619D01*
X3195849Y870165D01*
X3200102Y877532D01*
X3202303Y885747D01*
Y894253D01*
X3200102Y902468D01*
X3195849Y909835D01*
X3189834Y915849D01*
X3182468Y920102D01*
X3174253Y922303D01*
X3165747D01*
X3157532Y920102D01*
X3150166Y915849D01*
X3144151Y909835D01*
X3139898Y902468D01*
X3137697Y894253D01*
Y885747D01*
X3139898Y877532D01*
X3144151Y870165D01*
X3144697Y869619D01*
X3142784Y865000D01*
X3097216D01*
X3095303Y869619D01*
X3095849Y870165D01*
X3100102Y877532D01*
X3102303Y885747D01*
Y894253D01*
X3100102Y902468D01*
X3095849Y909835D01*
X3089834Y915849D01*
X3082468Y920102D01*
X3074253Y922303D01*
X3065747D01*
X3057532Y920102D01*
X3050166Y915849D01*
X3044151Y909835D01*
X3039898Y902468D01*
X3037697Y894253D01*
Y885747D01*
X3039898Y877532D01*
X3044151Y870165D01*
X3044697Y869619D01*
X3042784Y865000D01*
X3002303D01*
Y922303D01*
X2937697D01*
Y865000D01*
X1842216D01*
X1840303Y869619D01*
X1840849Y870165D01*
X1845102Y877532D01*
X1847303Y885747D01*
Y894253D01*
X1845102Y902468D01*
X1840849Y909835D01*
X1834834Y915849D01*
X1827468Y920102D01*
X1819253Y922303D01*
X1810747D01*
X1802532Y920102D01*
X1795166Y915849D01*
X1789151Y909835D01*
X1784898Y902468D01*
X1782697Y894253D01*
Y885747D01*
X1784898Y877532D01*
X1789151Y870165D01*
X1789697Y869619D01*
X1787784Y865000D01*
X1742216D01*
X1740303Y869619D01*
X1740849Y870165D01*
X1745102Y877532D01*
X1747303Y885747D01*
Y894253D01*
X1745102Y902468D01*
X1740849Y909835D01*
X1734834Y915849D01*
X1727468Y920102D01*
X1719253Y922303D01*
X1710747D01*
X1702532Y920102D01*
X1695166Y915849D01*
X1689151Y909835D01*
X1684898Y902468D01*
X1682697Y894253D01*
Y885747D01*
X1684898Y877532D01*
X1689151Y870165D01*
X1689697Y869619D01*
X1687784Y865000D01*
X1642216D01*
X1640303Y869619D01*
X1640849Y870165D01*
X1645102Y877532D01*
X1647303Y885747D01*
Y894253D01*
X1645102Y902468D01*
X1640849Y909835D01*
X1634834Y915849D01*
X1627468Y920102D01*
X1619253Y922303D01*
X1610747D01*
X1602532Y920102D01*
X1595166Y915849D01*
X1589151Y909835D01*
X1584898Y902468D01*
X1582697Y894253D01*
Y885747D01*
X1584898Y877532D01*
X1589151Y870165D01*
X1589986Y869331D01*
X1585655Y865000D01*
X1530294D01*
Y890000D01*
X1529130Y895853D01*
X1525814Y900814D01*
X1520853Y904130D01*
X1515000Y905294D01*
X1509147Y904130D01*
X1504186Y900814D01*
X1500870Y895853D01*
X1499706Y890000D01*
Y865000D01*
X1442216D01*
X1440303Y869619D01*
X1440849Y870165D01*
X1445102Y877532D01*
X1447303Y885747D01*
Y894253D01*
X1445102Y902468D01*
X1440849Y909835D01*
X1434834Y915849D01*
X1427468Y920102D01*
X1419253Y922303D01*
X1410747D01*
X1402532Y920102D01*
X1395166Y915849D01*
X1389151Y909835D01*
X1384898Y902468D01*
X1382697Y894253D01*
Y885747D01*
X1384898Y877532D01*
X1389151Y870165D01*
X1389697Y869619D01*
X1387784Y865000D01*
X1342216D01*
X1340303Y869619D01*
X1340849Y870165D01*
X1345102Y877532D01*
X1347303Y885747D01*
Y894253D01*
X1345102Y902468D01*
X1340849Y909835D01*
X1334834Y915849D01*
X1327468Y920102D01*
X1319253Y922303D01*
X1310747D01*
X1302532Y920102D01*
X1295166Y915849D01*
X1289151Y909835D01*
X1284898Y902468D01*
X1282697Y894253D01*
Y885747D01*
X1284898Y877532D01*
X1289151Y870165D01*
X1289697Y869619D01*
X1287784Y865000D01*
X1242216D01*
X1240303Y869619D01*
X1240849Y870165D01*
X1245102Y877532D01*
X1247303Y885747D01*
Y894253D01*
X1245102Y902468D01*
X1240849Y909835D01*
X1234834Y915849D01*
X1227468Y920102D01*
X1219253Y922303D01*
X1210747D01*
X1202532Y920102D01*
X1195166Y915849D01*
X1189151Y909835D01*
X1184898Y902468D01*
X1182697Y894253D01*
Y885747D01*
X1184898Y877532D01*
X1189151Y870165D01*
X1189697Y869619D01*
X1187784Y865000D01*
X1142216D01*
X1140303Y869619D01*
X1140849Y870165D01*
X1145102Y877532D01*
X1147303Y885747D01*
Y894253D01*
X1145102Y902468D01*
X1140849Y909835D01*
X1134834Y915849D01*
X1127468Y920102D01*
X1119253Y922303D01*
X1110747D01*
X1102532Y920102D01*
X1095166Y915849D01*
X1089151Y909835D01*
X1084898Y902468D01*
X1082697Y894253D01*
Y885747D01*
X1084898Y877532D01*
X1089151Y870165D01*
X1089697Y869619D01*
X1087784Y865000D01*
X1042216D01*
X1040303Y869619D01*
X1040849Y870165D01*
X1045102Y877532D01*
X1047303Y885747D01*
Y894253D01*
X1045102Y902468D01*
X1040849Y909835D01*
X1034834Y915849D01*
X1027468Y920102D01*
X1019253Y922303D01*
X1010747D01*
X1002532Y920102D01*
X995165Y915849D01*
X989151Y909835D01*
X984898Y902468D01*
X982697Y894253D01*
Y885747D01*
X984898Y877532D01*
X989151Y870165D01*
X989697Y869619D01*
X987784Y865000D01*
X947303D01*
Y922303D01*
X882697D01*
Y865000D01*
X10000D01*
Y1175000D01*
X597960D01*
X605379Y1173012D01*
X614621D01*
X622040Y1175000D01*
X886360D01*
X889151Y1170166D01*
X895165Y1164151D01*
X902532Y1159898D01*
X910747Y1157697D01*
X919253D01*
X927468Y1159898D01*
X934835Y1164151D01*
X940849Y1170166D01*
X943640Y1175000D01*
X986360D01*
X989151Y1170166D01*
X995165Y1164151D01*
X1002532Y1159898D01*
X1010747Y1157697D01*
X1019253D01*
X1027468Y1159898D01*
X1034834Y1164151D01*
X1040849Y1170166D01*
X1043640Y1175000D01*
X1086360D01*
X1089151Y1170166D01*
X1095166Y1164151D01*
X1102532Y1159898D01*
X1110747Y1157697D01*
X1119253D01*
X1127468Y1159898D01*
X1134834Y1164151D01*
X1140849Y1170166D01*
X1143640Y1175000D01*
X1186360D01*
X1189151Y1170166D01*
X1195166Y1164151D01*
X1202532Y1159898D01*
X1210747Y1157697D01*
X1219253D01*
X1227468Y1159898D01*
X1234834Y1164151D01*
X1240849Y1170166D01*
X1243640Y1175000D01*
X1286360D01*
X1289151Y1170166D01*
X1295166Y1164151D01*
X1302532Y1159898D01*
X1310747Y1157697D01*
X1319253D01*
X1327468Y1159898D01*
X1334834Y1164151D01*
X1340849Y1170166D01*
X1343640Y1175000D01*
X1386360D01*
X1389151Y1170166D01*
X1395166Y1164151D01*
X1402532Y1159898D01*
X1410747Y1157697D01*
X1419253D01*
X1427468Y1159898D01*
X1434834Y1164151D01*
X1440849Y1170166D01*
X1443640Y1175000D01*
X1486360D01*
X1489151Y1170166D01*
X1495166Y1164151D01*
X1502532Y1159898D01*
X1510747Y1157697D01*
X1519253D01*
X1527468Y1159898D01*
X1534834Y1164151D01*
X1540849Y1170166D01*
X1543640Y1175000D01*
X1586360D01*
X1589151Y1170166D01*
X1595166Y1164151D01*
X1602532Y1159898D01*
X1610747Y1157697D01*
X1619253D01*
X1627468Y1159898D01*
X1634834Y1164151D01*
X1640849Y1170166D01*
X1643640Y1175000D01*
X1686360D01*
X1689151Y1170166D01*
X1695166Y1164151D01*
X1702532Y1159898D01*
X1710747Y1157697D01*
X1719253D01*
X1727468Y1159898D01*
X1734834Y1164151D01*
X1740849Y1170166D01*
X1743640Y1175000D01*
X1786360D01*
X1789151Y1170166D01*
X1795166Y1164151D01*
X1802532Y1159898D01*
X1810747Y1157697D01*
X1819253D01*
X1827468Y1159898D01*
X1834834Y1164151D01*
X1840849Y1170166D01*
X1843640Y1175000D01*
X2092959D01*
X2100379Y1173012D01*
X2109621D01*
X2117041Y1175000D01*
X2652959D01*
X2660379Y1173012D01*
X2669621D01*
X2677041Y1175000D01*
X2941360D01*
X2944151Y1170166D01*
X2950166Y1164151D01*
X2957532Y1159898D01*
X2965747Y1157697D01*
X2974253D01*
X2982468Y1159898D01*
X2989834Y1164151D01*
X2995849Y1170166D01*
X2998640Y1175000D01*
X3041360D01*
X3044151Y1170166D01*
X3050166Y1164151D01*
X3057532Y1159898D01*
X3065747Y1157697D01*
X3074253D01*
X3082468Y1159898D01*
X3089834Y1164151D01*
X3095849Y1170166D01*
X3098640Y1175000D01*
X3141360D01*
X3144151Y1170166D01*
X3150166Y1164151D01*
X3157532Y1159898D01*
X3165747Y1157697D01*
X3174253D01*
X3182468Y1159898D01*
X3189834Y1164151D01*
X3195849Y1170166D01*
X3198640Y1175000D01*
X3241360D01*
X3244151Y1170166D01*
X3250166Y1164151D01*
X3257532Y1159898D01*
X3265747Y1157697D01*
X3274253D01*
X3282468Y1159898D01*
X3289834Y1164151D01*
X3295849Y1170166D01*
X3298640Y1175000D01*
X3341360D01*
X3344151Y1170166D01*
X3350166Y1164151D01*
X3357532Y1159898D01*
X3365747Y1157697D01*
X3374253D01*
X3382468Y1159898D01*
X3389834Y1164151D01*
X3395849Y1170166D01*
X3398640Y1175000D01*
X3441360D01*
X3444151Y1170166D01*
X3450166Y1164151D01*
X3457532Y1159898D01*
X3465747Y1157697D01*
X3474253D01*
X3482468Y1159898D01*
X3489834Y1164151D01*
X3495849Y1170166D01*
X3498640Y1175000D01*
X3541360D01*
X3544151Y1170166D01*
X3550166Y1164151D01*
X3557532Y1159898D01*
X3565747Y1157697D01*
X3574253D01*
X3582468Y1159898D01*
X3589834Y1164151D01*
X3595849Y1170166D01*
X3598640Y1175000D01*
X3641360D01*
X3644151Y1170166D01*
X3650166Y1164151D01*
X3657532Y1159898D01*
X3665747Y1157697D01*
X3674253D01*
X3682468Y1159898D01*
X3689834Y1164151D01*
X3695849Y1170166D01*
X3698640Y1175000D01*
X3741360D01*
X3744151Y1170166D01*
X3750166Y1164151D01*
X3757532Y1159898D01*
X3765747Y1157697D01*
X3774253D01*
X3782468Y1159898D01*
X3789834Y1164151D01*
X3795849Y1170166D01*
X3798640Y1175000D01*
X3841360D01*
X3844151Y1170166D01*
X3850166Y1164151D01*
X3857532Y1159898D01*
X3865747Y1157697D01*
X3874253D01*
X3882468Y1159898D01*
X3889834Y1164151D01*
X3895849Y1170166D01*
X3898640Y1175000D01*
X4147959D01*
X4155379Y1173012D01*
X4164621D01*
X4172041Y1175000D01*
X4707959D01*
X4715379Y1173012D01*
X4724621D01*
X4732041Y1175000D01*
X4996360D01*
X4999151Y1170166D01*
X5005166Y1164151D01*
X5012532Y1159898D01*
X5020747Y1157697D01*
X5029253D01*
X5037468Y1159898D01*
X5044834Y1164151D01*
X5050849Y1170166D01*
X5053640Y1175000D01*
X5096360D01*
X5099151Y1170166D01*
X5105166Y1164151D01*
X5112532Y1159898D01*
X5120747Y1157697D01*
X5129253D01*
X5137468Y1159898D01*
X5144834Y1164151D01*
X5150849Y1170166D01*
X5153640Y1175000D01*
X5196360D01*
X5199151Y1170166D01*
X5205166Y1164151D01*
X5212532Y1159898D01*
X5220747Y1157697D01*
X5229253D01*
X5237468Y1159898D01*
X5244834Y1164151D01*
X5250849Y1170166D01*
X5253640Y1175000D01*
X5296360D01*
X5299151Y1170166D01*
X5305166Y1164151D01*
X5312532Y1159898D01*
X5320747Y1157697D01*
X5329253D01*
X5337468Y1159898D01*
X5344834Y1164151D01*
X5350849Y1170166D01*
X5353640Y1175000D01*
X5396360D01*
X5399151Y1170166D01*
X5405166Y1164151D01*
X5412532Y1159898D01*
X5420747Y1157697D01*
X5429253D01*
X5437468Y1159898D01*
X5444834Y1164151D01*
X5450849Y1170166D01*
X5453640Y1175000D01*
X5496360D01*
X5499151Y1170166D01*
X5505166Y1164151D01*
X5512532Y1159898D01*
X5520747Y1157697D01*
X5529253D01*
X5537468Y1159898D01*
X5544834Y1164151D01*
X5550849Y1170166D01*
X5553640Y1175000D01*
X5596360D01*
X5599151Y1170166D01*
X5605166Y1164151D01*
X5612532Y1159898D01*
X5620747Y1157697D01*
X5629253D01*
X5637468Y1159898D01*
X5644834Y1164151D01*
X5650849Y1170166D01*
X5653640Y1175000D01*
X5696360D01*
X5699151Y1170166D01*
X5705166Y1164151D01*
X5712532Y1159898D01*
X5720747Y1157697D01*
X5729253D01*
X5737468Y1159898D01*
X5744834Y1164151D01*
X5750849Y1170166D01*
X5753640Y1175000D01*
X5796360D01*
X5799151Y1170166D01*
X5805166Y1164151D01*
X5812532Y1159898D01*
X5820747Y1157697D01*
X5829253D01*
X5837468Y1159898D01*
X5844834Y1164151D01*
X5850849Y1170166D01*
X5853640Y1175000D01*
X5896360D01*
X5899151Y1170166D01*
X5905166Y1164151D01*
X5912532Y1159898D01*
X5920747Y1157697D01*
X5929253D01*
X5937468Y1159898D01*
X5944834Y1164151D01*
X5950849Y1170166D01*
X5953640Y1175000D01*
X6202959D01*
X6210379Y1173012D01*
X6219621D01*
X6227041Y1175000D01*
X6762959D01*
X6770379Y1173012D01*
X6779621D01*
X6787041Y1175000D01*
X7051360D01*
X7054151Y1170166D01*
X7060166Y1164151D01*
X7067532Y1159898D01*
X7075747Y1157697D01*
X7084253D01*
X7092468Y1159898D01*
X7099834Y1164151D01*
X7105849Y1170166D01*
X7108640Y1175000D01*
X7151360D01*
X7154151Y1170166D01*
X7160166Y1164151D01*
X7167532Y1159898D01*
X7175747Y1157697D01*
X7184253D01*
X7192468Y1159898D01*
X7199834Y1164151D01*
X7205849Y1170166D01*
X7208640Y1175000D01*
X7251360D01*
X7254151Y1170166D01*
X7260166Y1164151D01*
X7267532Y1159898D01*
X7275747Y1157697D01*
X7284253D01*
X7292468Y1159898D01*
X7299834Y1164151D01*
X7305849Y1170166D01*
X7308640Y1175000D01*
X7351360D01*
X7354151Y1170166D01*
X7360166Y1164151D01*
X7367532Y1159898D01*
X7375747Y1157697D01*
X7384253D01*
X7392468Y1159898D01*
X7399834Y1164151D01*
X7405849Y1170166D01*
X7408640Y1175000D01*
X7451360D01*
X7454151Y1170166D01*
X7460166Y1164151D01*
X7467532Y1159898D01*
X7475747Y1157697D01*
X7484253D01*
X7492468Y1159898D01*
X7499834Y1164151D01*
X7505849Y1170166D01*
X7508640Y1175000D01*
X7551360D01*
X7554151Y1170166D01*
X7560166Y1164151D01*
X7567532Y1159898D01*
X7575747Y1157697D01*
X7584253D01*
X7592468Y1159898D01*
X7599834Y1164151D01*
X7605849Y1170166D01*
X7608640Y1175000D01*
X7651360D01*
X7654151Y1170166D01*
X7660166Y1164151D01*
X7667532Y1159898D01*
X7675747Y1157697D01*
X7684253D01*
X7692468Y1159898D01*
X7699834Y1164151D01*
X7705849Y1170166D01*
X7708640Y1175000D01*
X7751360D01*
X7754151Y1170166D01*
X7760166Y1164151D01*
X7767532Y1159898D01*
X7775747Y1157697D01*
X7784253D01*
X7792468Y1159898D01*
X7799834Y1164151D01*
X7805849Y1170166D01*
X7808640Y1175000D01*
X7851360D01*
X7854151Y1170166D01*
X7860166Y1164151D01*
X7867532Y1159898D01*
X7875747Y1157697D01*
X7884253D01*
X7892468Y1159898D01*
X7899834Y1164151D01*
X7905849Y1170166D01*
X7908640Y1175000D01*
X7951360D01*
X7954151Y1170166D01*
D02*
G37*
%LPC*%
G36*
X8438864Y1600000D02*
X8421136D01*
X8403748Y1596541D01*
X8387369Y1589757D01*
X8372628Y1579908D01*
X8360092Y1567372D01*
X8350243Y1552631D01*
X8343459Y1536252D01*
X8340000Y1518864D01*
Y1501136D01*
X8343459Y1483748D01*
X8350243Y1467369D01*
X8360092Y1452628D01*
X8372628Y1440092D01*
X8387369Y1430243D01*
X8403748Y1423459D01*
X8421136Y1420000D01*
X8438864D01*
X8456252Y1423459D01*
X8472631Y1430243D01*
X8487372Y1440092D01*
X8499908Y1452628D01*
X8509757Y1467369D01*
X8516541Y1483748D01*
X8520000Y1501136D01*
Y1518864D01*
X8516541Y1536252D01*
X8509757Y1552631D01*
X8499908Y1567372D01*
X8487372Y1579908D01*
X8472631Y1589757D01*
X8456252Y1596541D01*
X8438864Y1600000D01*
D02*
G37*
G36*
X133864D02*
X116136D01*
X98748Y1596541D01*
X82369Y1589757D01*
X67628Y1579908D01*
X55092Y1567372D01*
X45243Y1552631D01*
X38459Y1536252D01*
X35000Y1518864D01*
Y1501136D01*
X38459Y1483748D01*
X45243Y1467369D01*
X55092Y1452628D01*
X67628Y1440092D01*
X82369Y1430243D01*
X98748Y1423459D01*
X116136Y1420000D01*
X133864D01*
X151252Y1423459D01*
X167631Y1430243D01*
X182372Y1440092D01*
X194908Y1452628D01*
X204757Y1467369D01*
X211541Y1483748D01*
X215000Y1501136D01*
Y1518864D01*
X211541Y1536252D01*
X204757Y1552631D01*
X194908Y1567372D01*
X182372Y1579908D01*
X167631Y1589757D01*
X151252Y1596541D01*
X133864Y1600000D01*
D02*
G37*
G36*
X7878221Y1458386D02*
X7865480D01*
X7853174Y1455088D01*
X7842141Y1448718D01*
X7833132Y1439710D01*
X7826762Y1428676D01*
X7823465Y1416370D01*
Y1403630D01*
X7826762Y1391324D01*
X7833132Y1380290D01*
X7842141Y1371282D01*
X7853174Y1364912D01*
X7865480Y1361614D01*
X7878221D01*
X7882927Y1362875D01*
X8055716Y1190086D01*
X8063986Y1184561D01*
X8073740Y1182620D01*
X8245853D01*
X8248449Y1180025D01*
X8256452Y1175404D01*
X8265379Y1173012D01*
X8274621D01*
X8283548Y1175404D01*
X8291551Y1180025D01*
X8298086Y1186559D01*
X8302707Y1194563D01*
X8305098Y1203489D01*
Y1212731D01*
X8302707Y1221658D01*
X8298086Y1229661D01*
X8291551Y1236196D01*
X8283548Y1240817D01*
X8274621Y1243209D01*
X8265379D01*
X8256452Y1240817D01*
X8248449Y1236196D01*
X8245853Y1233600D01*
X8084298D01*
X7918975Y1398923D01*
X7920236Y1403630D01*
Y1416370D01*
X7916939Y1428676D01*
X7910569Y1439710D01*
X7901560Y1448718D01*
X7890527Y1455088D01*
X7878221Y1458386D01*
D02*
G37*
G36*
X8305098Y1046358D02*
X8234902D01*
Y976162D01*
X8305098D01*
Y1046358D01*
D02*
G37*
G36*
X190948Y787992D02*
X179052D01*
X167384Y785671D01*
X156393Y781119D01*
X146501Y774509D01*
X138089Y766097D01*
X131480Y756206D01*
X126927Y745215D01*
X124606Y733547D01*
Y721650D01*
X126927Y709982D01*
X131480Y698991D01*
X138089Y689100D01*
X146501Y680688D01*
X156393Y674078D01*
X167384Y669526D01*
X179052Y667205D01*
X190948D01*
X202616Y669526D01*
X213607Y674078D01*
X223499Y680688D01*
X231911Y689100D01*
X238520Y698991D01*
X243073Y709982D01*
X245394Y721650D01*
Y733547D01*
X243073Y745215D01*
X238520Y756206D01*
X231911Y766097D01*
X223499Y774509D01*
X213607Y781119D01*
X202616Y785671D01*
X190948Y787992D01*
D02*
G37*
G36*
X8031693Y854409D02*
X7966417D01*
Y728110D01*
X8010064D01*
X8171941Y566234D01*
X8171429Y560748D01*
X8167501Y558480D01*
X8160142Y551121D01*
X8154938Y542108D01*
X8152244Y532054D01*
Y521647D01*
X8154938Y511593D01*
X8160142Y502580D01*
X8167501Y495221D01*
X8176515Y490017D01*
X8186568Y487323D01*
X8196976D01*
X8207029Y490017D01*
X8216042Y495221D01*
X8223402Y502580D01*
X8228605Y511593D01*
X8231299Y521647D01*
Y532054D01*
X8228605Y542108D01*
X8223402Y551121D01*
X8216042Y558480D01*
X8207029Y563684D01*
X8203719Y564571D01*
Y571378D01*
X8202555Y577231D01*
X8199239Y582192D01*
X8031693Y749739D01*
Y854409D01*
D02*
G37*
G36*
X8098550Y566378D02*
X8088143D01*
X8078089Y563684D01*
X8069076Y558480D01*
X8061717Y551121D01*
X8056534Y542144D01*
X7800866D01*
X7795013Y540980D01*
X7790052Y537665D01*
X7709472Y457085D01*
X7704089Y460193D01*
X7690056Y463953D01*
X7675527D01*
X7661494Y460193D01*
X7648912Y452928D01*
X7638639Y442655D01*
X7631375Y430073D01*
X7627614Y416040D01*
Y401512D01*
X7631375Y387478D01*
X7638639Y374896D01*
X7648912Y364623D01*
X7661494Y357359D01*
X7675527Y353599D01*
X7690056D01*
X7704089Y357359D01*
X7716671Y364623D01*
X7726944Y374896D01*
X7734208Y387478D01*
X7737969Y401512D01*
Y416040D01*
X7734208Y430073D01*
X7731101Y435456D01*
X7807201Y511557D01*
X8056534D01*
X8061717Y502580D01*
X8069076Y495221D01*
X8078089Y490017D01*
X8088143Y487323D01*
X8098550D01*
X8108604Y490017D01*
X8117617Y495221D01*
X8124976Y502580D01*
X8130180Y511593D01*
X8132874Y521647D01*
Y532054D01*
X8130180Y542108D01*
X8124976Y551121D01*
X8117617Y558480D01*
X8108604Y563684D01*
X8098550Y566378D01*
D02*
G37*
G36*
X6043550D02*
X6033143D01*
X6023089Y563684D01*
X6014076Y558480D01*
X6006717Y551121D01*
X6001534Y542144D01*
X5745866D01*
X5740013Y540980D01*
X5735052Y537665D01*
X5654472Y457085D01*
X5649089Y460193D01*
X5635056Y463953D01*
X5620527D01*
X5606494Y460193D01*
X5593912Y452928D01*
X5583639Y442655D01*
X5576375Y430073D01*
X5572614Y416040D01*
Y401512D01*
X5576375Y387478D01*
X5583639Y374896D01*
X5593912Y364623D01*
X5606494Y357359D01*
X5620527Y353599D01*
X5635056D01*
X5649089Y357359D01*
X5661671Y364623D01*
X5671944Y374896D01*
X5679208Y387478D01*
X5682969Y401512D01*
Y416040D01*
X5679208Y430073D01*
X5676101Y435456D01*
X5752201Y511557D01*
X6001534D01*
X6006717Y502580D01*
X6014076Y495221D01*
X6023089Y490017D01*
X6033143Y487323D01*
X6043550D01*
X6053604Y490017D01*
X6062617Y495221D01*
X6069976Y502580D01*
X6075180Y511593D01*
X6077874Y521647D01*
Y532054D01*
X6075180Y542108D01*
X6069976Y551121D01*
X6062617Y558480D01*
X6053604Y563684D01*
X6043550Y566378D01*
D02*
G37*
G36*
X3988550D02*
X3978143D01*
X3968089Y563684D01*
X3959076Y558480D01*
X3951717Y551121D01*
X3946534Y542144D01*
X3690866D01*
X3685013Y540980D01*
X3680052Y537665D01*
X3599472Y457085D01*
X3594089Y460193D01*
X3580056Y463953D01*
X3565527D01*
X3551494Y460193D01*
X3538912Y452928D01*
X3528639Y442655D01*
X3521375Y430073D01*
X3517614Y416040D01*
Y401512D01*
X3521375Y387478D01*
X3528639Y374896D01*
X3538912Y364623D01*
X3551494Y357359D01*
X3565527Y353599D01*
X3580056D01*
X3594089Y357359D01*
X3606671Y364623D01*
X3616944Y374896D01*
X3624208Y387478D01*
X3627969Y401512D01*
Y416040D01*
X3624208Y430073D01*
X3621101Y435456D01*
X3697201Y511557D01*
X3946534D01*
X3951717Y502580D01*
X3959076Y495221D01*
X3968089Y490017D01*
X3978143Y487323D01*
X3988550D01*
X3998604Y490017D01*
X4007617Y495221D01*
X4014976Y502580D01*
X4020180Y511593D01*
X4022874Y521647D01*
Y532054D01*
X4020180Y542108D01*
X4014976Y551121D01*
X4007617Y558480D01*
X3998604Y563684D01*
X3988550Y566378D01*
D02*
G37*
G36*
X1933550D02*
X1923143D01*
X1913089Y563684D01*
X1904076Y558480D01*
X1896717Y551121D01*
X1891534Y542144D01*
X1635866D01*
X1630013Y540980D01*
X1625052Y537665D01*
X1544472Y457085D01*
X1539089Y460193D01*
X1525056Y463953D01*
X1510527D01*
X1496494Y460193D01*
X1483912Y452928D01*
X1473639Y442655D01*
X1466375Y430073D01*
X1462614Y416040D01*
Y401512D01*
X1466375Y387478D01*
X1473639Y374896D01*
X1483912Y364623D01*
X1496494Y357359D01*
X1510527Y353599D01*
X1525056D01*
X1539089Y357359D01*
X1551671Y364623D01*
X1561944Y374896D01*
X1569208Y387478D01*
X1572969Y401512D01*
Y416040D01*
X1569208Y430073D01*
X1566101Y435456D01*
X1642201Y511557D01*
X1891534D01*
X1896717Y502580D01*
X1904076Y495221D01*
X1913089Y490017D01*
X1923143Y487323D01*
X1933550D01*
X1943604Y490017D01*
X1952617Y495221D01*
X1959976Y502580D01*
X1965180Y511593D01*
X1967874Y521647D01*
Y532054D01*
X1965180Y542108D01*
X1959976Y551121D01*
X1952617Y558480D01*
X1943604Y563684D01*
X1933550Y566378D01*
D02*
G37*
G36*
X7485331Y586000D02*
X7470803D01*
X7456770Y582240D01*
X7444188Y574976D01*
X7433914Y564702D01*
X7426650Y552121D01*
X7422890Y538087D01*
Y523559D01*
X7426650Y509525D01*
X7429758Y504143D01*
X7395909Y470294D01*
X6876532D01*
X6835191Y511635D01*
X6837874Y521647D01*
Y532054D01*
X6835180Y542108D01*
X6829976Y551121D01*
X6822617Y558480D01*
X6813604Y563684D01*
X6803550Y566378D01*
X6793143D01*
X6783089Y563684D01*
X6774076Y558480D01*
X6766717Y551121D01*
X6761513Y542108D01*
X6758819Y532054D01*
Y521647D01*
X6761513Y511593D01*
X6766717Y502580D01*
X6774076Y495221D01*
X6783089Y490017D01*
X6793143Y487323D01*
X6803550D01*
X6813562Y490006D01*
X6859383Y444185D01*
X6864344Y440870D01*
X6870197Y439706D01*
X7402244D01*
X7408097Y440870D01*
X7413059Y444186D01*
X7451387Y482514D01*
X7456770Y479406D01*
X7470803Y475646D01*
X7485331D01*
X7499365Y479406D01*
X7511947Y486670D01*
X7522220Y496943D01*
X7529484Y509525D01*
X7533244Y523559D01*
Y538087D01*
X7529484Y552121D01*
X7522220Y564702D01*
X7511947Y574976D01*
X7499365Y582240D01*
X7485331Y586000D01*
D02*
G37*
G36*
X5430331D02*
X5415803D01*
X5401770Y582240D01*
X5389188Y574976D01*
X5378914Y564702D01*
X5371650Y552121D01*
X5367890Y538087D01*
Y523559D01*
X5371650Y509525D01*
X5374758Y504143D01*
X5340909Y470294D01*
X4821532D01*
X4780191Y511635D01*
X4782874Y521647D01*
Y532054D01*
X4780180Y542108D01*
X4774976Y551121D01*
X4767617Y558480D01*
X4758604Y563684D01*
X4748550Y566378D01*
X4738143D01*
X4728089Y563684D01*
X4719076Y558480D01*
X4711717Y551121D01*
X4706513Y542108D01*
X4703819Y532054D01*
Y521647D01*
X4706513Y511593D01*
X4711717Y502580D01*
X4719076Y495221D01*
X4728089Y490017D01*
X4738143Y487323D01*
X4748550D01*
X4758562Y490006D01*
X4804383Y444185D01*
X4809344Y440870D01*
X4815197Y439706D01*
X5347244D01*
X5353097Y440870D01*
X5358059Y444186D01*
X5396387Y482514D01*
X5401770Y479406D01*
X5415803Y475646D01*
X5430331D01*
X5444365Y479406D01*
X5456947Y486670D01*
X5467220Y496943D01*
X5474484Y509525D01*
X5478244Y523559D01*
Y538087D01*
X5474484Y552121D01*
X5467220Y564702D01*
X5456947Y574976D01*
X5444365Y582240D01*
X5430331Y586000D01*
D02*
G37*
G36*
X3375331D02*
X3360803D01*
X3346769Y582240D01*
X3334188Y574976D01*
X3323914Y564702D01*
X3316650Y552121D01*
X3312890Y538087D01*
Y523559D01*
X3316650Y509525D01*
X3319758Y504143D01*
X3285909Y470294D01*
X2766532D01*
X2725191Y511635D01*
X2727874Y521647D01*
Y532054D01*
X2725180Y542108D01*
X2719976Y551121D01*
X2712617Y558480D01*
X2703604Y563684D01*
X2693550Y566378D01*
X2683143D01*
X2673089Y563684D01*
X2664076Y558480D01*
X2656717Y551121D01*
X2651513Y542108D01*
X2648819Y532054D01*
Y521647D01*
X2651513Y511593D01*
X2656717Y502580D01*
X2664076Y495221D01*
X2673089Y490017D01*
X2683143Y487323D01*
X2693550D01*
X2703562Y490006D01*
X2749383Y444185D01*
X2754344Y440870D01*
X2760197Y439706D01*
X3292244D01*
X3298097Y440870D01*
X3303059Y444186D01*
X3341387Y482514D01*
X3346769Y479406D01*
X3360803Y475646D01*
X3375331D01*
X3389365Y479406D01*
X3401947Y486670D01*
X3412220Y496943D01*
X3419484Y509525D01*
X3423244Y523559D01*
Y538087D01*
X3419484Y552121D01*
X3412220Y564702D01*
X3401947Y574976D01*
X3389365Y582240D01*
X3375331Y586000D01*
D02*
G37*
G36*
X1320331D02*
X1305803D01*
X1291770Y582240D01*
X1279188Y574976D01*
X1268914Y564702D01*
X1261650Y552121D01*
X1257890Y538087D01*
Y523559D01*
X1261650Y509525D01*
X1264758Y504143D01*
X1230909Y470294D01*
X711532D01*
X670191Y511635D01*
X672874Y521647D01*
Y532054D01*
X670180Y542108D01*
X664976Y551121D01*
X657617Y558480D01*
X648604Y563684D01*
X638550Y566378D01*
X628143D01*
X618089Y563684D01*
X609076Y558480D01*
X601717Y551121D01*
X596513Y542108D01*
X593819Y532054D01*
Y521647D01*
X596513Y511593D01*
X601717Y502580D01*
X609076Y495221D01*
X618089Y490017D01*
X628143Y487323D01*
X638550D01*
X648562Y490006D01*
X694383Y444185D01*
X699344Y440870D01*
X705197Y439706D01*
X1237244D01*
X1243097Y440870D01*
X1248059Y444186D01*
X1286387Y482514D01*
X1291770Y479406D01*
X1305803Y475646D01*
X1320331D01*
X1334365Y479406D01*
X1346947Y486670D01*
X1357220Y496943D01*
X1364484Y509525D01*
X1368244Y523559D01*
Y538087D01*
X1364484Y552121D01*
X1357220Y564702D01*
X1346947Y574976D01*
X1334365Y582240D01*
X1320331Y586000D01*
D02*
G37*
G36*
X7545226Y440429D02*
X7536892D01*
X7528841Y438272D01*
X7521623Y434105D01*
X7515730Y428212D01*
X7511563Y420994D01*
X7509406Y412943D01*
Y404608D01*
X7511563Y396558D01*
X7515730Y389340D01*
X7521623Y383447D01*
X7528841Y379279D01*
X7536892Y377122D01*
X7545226D01*
X7553277Y379279D01*
X7560495Y383447D01*
X7566388Y389340D01*
X7570556Y396558D01*
X7572713Y404608D01*
Y412943D01*
X7570556Y420994D01*
X7566388Y428212D01*
X7560495Y434105D01*
X7553277Y438272D01*
X7545226Y440429D01*
D02*
G37*
G36*
X5490226D02*
X5481892D01*
X5473841Y438272D01*
X5466623Y434105D01*
X5460730Y428212D01*
X5456563Y420994D01*
X5454406Y412943D01*
Y404608D01*
X5456563Y396558D01*
X5460730Y389340D01*
X5466623Y383447D01*
X5473841Y379279D01*
X5481892Y377122D01*
X5490226D01*
X5498277Y379279D01*
X5505495Y383447D01*
X5511388Y389340D01*
X5515556Y396558D01*
X5517713Y404608D01*
Y412943D01*
X5515556Y420994D01*
X5511388Y428212D01*
X5505495Y434105D01*
X5498277Y438272D01*
X5490226Y440429D01*
D02*
G37*
G36*
X3435227D02*
X3426892D01*
X3418841Y438272D01*
X3411624Y434105D01*
X3405730Y428212D01*
X3401563Y420994D01*
X3399406Y412943D01*
Y404608D01*
X3401563Y396558D01*
X3405730Y389340D01*
X3411624Y383447D01*
X3418841Y379279D01*
X3426892Y377122D01*
X3435227D01*
X3443277Y379279D01*
X3450495Y383447D01*
X3456388Y389340D01*
X3460555Y396558D01*
X3462713Y404608D01*
Y412943D01*
X3460555Y420994D01*
X3456388Y428212D01*
X3450495Y434105D01*
X3443277Y438272D01*
X3435227Y440429D01*
D02*
G37*
G36*
X1380226D02*
X1371892D01*
X1363841Y438272D01*
X1356623Y434105D01*
X1350730Y428212D01*
X1346563Y420994D01*
X1344406Y412943D01*
Y404608D01*
X1346563Y396558D01*
X1350730Y389340D01*
X1356623Y383447D01*
X1363841Y379279D01*
X1371892Y377122D01*
X1380226D01*
X1388277Y379279D01*
X1395495Y383447D01*
X1401388Y389340D01*
X1405555Y396558D01*
X1407713Y404608D01*
Y412943D01*
X1405555Y420994D01*
X1401388Y428212D01*
X1395495Y434105D01*
X1388277Y438272D01*
X1380226Y440429D01*
D02*
G37*
G36*
X7545226Y243579D02*
X7536892D01*
X7528841Y241422D01*
X7521623Y237255D01*
X7515730Y231361D01*
X7511563Y224143D01*
X7509406Y216093D01*
Y207758D01*
X7511563Y199708D01*
X7515730Y192490D01*
X7521623Y186596D01*
X7528841Y182429D01*
X7536892Y180272D01*
X7545226D01*
X7553277Y182429D01*
X7560495Y186596D01*
X7566388Y192490D01*
X7570556Y199708D01*
X7572713Y207758D01*
Y216093D01*
X7570556Y224143D01*
X7566388Y231361D01*
X7560495Y237255D01*
X7553277Y241422D01*
X7545226Y243579D01*
D02*
G37*
G36*
X5490226D02*
X5481892D01*
X5473841Y241422D01*
X5466623Y237255D01*
X5460730Y231361D01*
X5456563Y224143D01*
X5454406Y216093D01*
Y207758D01*
X5456563Y199708D01*
X5460730Y192490D01*
X5466623Y186596D01*
X5473841Y182429D01*
X5481892Y180272D01*
X5490226D01*
X5498277Y182429D01*
X5505495Y186596D01*
X5511388Y192490D01*
X5515556Y199708D01*
X5517713Y207758D01*
Y216093D01*
X5515556Y224143D01*
X5511388Y231361D01*
X5505495Y237255D01*
X5498277Y241422D01*
X5490226Y243579D01*
D02*
G37*
G36*
X3435227D02*
X3426892D01*
X3418841Y241422D01*
X3411624Y237255D01*
X3405730Y231361D01*
X3401563Y224143D01*
X3399406Y216093D01*
Y207758D01*
X3401563Y199708D01*
X3405730Y192490D01*
X3411624Y186596D01*
X3418841Y182429D01*
X3426892Y180272D01*
X3435227D01*
X3443277Y182429D01*
X3450495Y186596D01*
X3456388Y192490D01*
X3460555Y199708D01*
X3462713Y207758D01*
Y216093D01*
X3460555Y224143D01*
X3456388Y231361D01*
X3450495Y237255D01*
X3443277Y241422D01*
X3435227Y243579D01*
D02*
G37*
G36*
X1380226D02*
X1371892D01*
X1363841Y241422D01*
X1356623Y237255D01*
X1350730Y231361D01*
X1346563Y224143D01*
X1344406Y216093D01*
Y207758D01*
X1346563Y199708D01*
X1350730Y192490D01*
X1356623Y186596D01*
X1363841Y182429D01*
X1371892Y180272D01*
X1380226D01*
X1388277Y182429D01*
X1395495Y186596D01*
X1401388Y192490D01*
X1405555Y199708D01*
X1407713Y207758D01*
Y216093D01*
X1405555Y224143D01*
X1401388Y231361D01*
X1395495Y237255D01*
X1388277Y241422D01*
X1380226Y243579D01*
D02*
G37*
G36*
X133864Y215000D02*
X116136D01*
X98748Y211541D01*
X82369Y204757D01*
X67628Y194908D01*
X55092Y182372D01*
X45243Y167631D01*
X38459Y151252D01*
X35000Y133864D01*
Y116136D01*
X38459Y98748D01*
X45243Y82369D01*
X55092Y67628D01*
X67628Y55092D01*
X82369Y45243D01*
X98748Y38459D01*
X116136Y35000D01*
X133864D01*
X151252Y38459D01*
X167631Y45243D01*
X182372Y55092D01*
X194908Y67628D01*
X204757Y82369D01*
X211541Y98748D01*
X215000Y116136D01*
Y133864D01*
X211541Y151252D01*
X204757Y167631D01*
X194908Y182372D01*
X182372Y194908D01*
X167631Y204757D01*
X151252Y211541D01*
X133864Y215000D01*
D02*
G37*
G36*
X6810098Y1046358D02*
X6739902D01*
Y976162D01*
X6810098D01*
Y1046358D01*
D02*
G37*
G36*
X6250098D02*
X6179902D01*
Y976162D01*
X6250098D01*
Y1046358D01*
D02*
G37*
G36*
X4755098D02*
X4684902D01*
Y976162D01*
X4755098D01*
Y1046358D01*
D02*
G37*
G36*
X4195098D02*
X4124902D01*
Y976162D01*
X4195098D01*
Y1046358D01*
D02*
G37*
G36*
X2700098D02*
X2629902D01*
Y976162D01*
X2700098D01*
Y1046358D01*
D02*
G37*
G36*
X2140098D02*
X2069902D01*
Y976162D01*
X2140098D01*
Y1046358D01*
D02*
G37*
G36*
X645098D02*
X574902D01*
Y976162D01*
X645098D01*
Y1046358D01*
D02*
G37*
G36*
X190948Y1075394D02*
X179052D01*
X167384Y1073073D01*
X156393Y1068520D01*
X146501Y1061911D01*
X138089Y1053499D01*
X131480Y1043607D01*
X126927Y1032616D01*
X124606Y1020948D01*
Y1009052D01*
X126927Y997384D01*
X131480Y986393D01*
X138089Y976501D01*
X146501Y968089D01*
X156393Y961480D01*
X167384Y956927D01*
X179052Y954606D01*
X190948D01*
X202616Y956927D01*
X213607Y961480D01*
X223499Y968089D01*
X231911Y976501D01*
X238520Y986393D01*
X243073Y997384D01*
X245394Y1009052D01*
Y1020948D01*
X243073Y1032616D01*
X238520Y1043607D01*
X231911Y1053499D01*
X223499Y1061911D01*
X213607Y1068520D01*
X202616Y1073073D01*
X190948Y1075394D01*
D02*
G37*
%LPD*%
D13*
X7080000Y800315D02*
Y890000D01*
Y800315D02*
X7089055Y791260D01*
X7280000Y809291D02*
Y890000D01*
X7276968Y806260D02*
X7280000Y809291D01*
X7880000Y792205D02*
Y890000D01*
Y792205D02*
X7880945Y791260D01*
X6965945Y760748D02*
Y791260D01*
X6896772Y526851D02*
Y691575D01*
X6965945Y760748D01*
X8188425Y530197D02*
X8191772Y526851D01*
X8188425Y530197D02*
Y571378D01*
X7999055Y760748D02*
Y791260D01*
Y760748D02*
X8188425Y571378D01*
X7680000Y831732D02*
Y890000D01*
Y831732D02*
X7680472Y831260D01*
X7773378Y883378D02*
X7780000Y890000D01*
X7773378Y866095D02*
Y883378D01*
X7739528Y830276D02*
Y831260D01*
Y832244D01*
X7773378Y866095D01*
X7715197Y805945D02*
X7739528Y830276D01*
X7715197Y726260D02*
Y805945D01*
X7280945Y726260D02*
X7364803D01*
X7280000Y725315D02*
X7280945Y726260D01*
X6870197Y455000D02*
X7402244D01*
X7478067Y530823D01*
X6798346Y526851D02*
X6870197Y455000D01*
X7800866Y526851D02*
X8093346D01*
X7682792Y408776D02*
X7800866Y526851D01*
X5025000Y800315D02*
Y890000D01*
Y800315D02*
X5034055Y791260D01*
X5225000Y809291D02*
Y890000D01*
X5221968Y806260D02*
X5225000Y809291D01*
X5825000Y792205D02*
Y890000D01*
Y792205D02*
X5825945Y791260D01*
X4910945Y760748D02*
Y791260D01*
X4841772Y526851D02*
Y691575D01*
X4910945Y760748D01*
X6133425Y530197D02*
X6136772Y526851D01*
X6133425Y530197D02*
Y571378D01*
X5944055Y760748D02*
Y791260D01*
Y760748D02*
X6133425Y571378D01*
X5625000Y831732D02*
Y890000D01*
Y831732D02*
X5625472Y831260D01*
X5718378Y883378D02*
X5725000Y890000D01*
X5718378Y866095D02*
Y883378D01*
X5684528Y830276D02*
Y831260D01*
Y832244D01*
X5718378Y866095D01*
X5660197Y805945D02*
X5684528Y830276D01*
X5660197Y726260D02*
Y805945D01*
X5225945Y726260D02*
X5309803D01*
X5225000Y725315D02*
X5225945Y726260D01*
X4815197Y455000D02*
X5347244D01*
X5423067Y530823D01*
X4743346Y526851D02*
X4815197Y455000D01*
X5745866Y526851D02*
X6038346D01*
X5627792Y408776D02*
X5745866Y526851D01*
X2970000Y800315D02*
Y890000D01*
Y800315D02*
X2979055Y791260D01*
X3170000Y809291D02*
Y890000D01*
X3166968Y806260D02*
X3170000Y809291D01*
X3770000Y792205D02*
Y890000D01*
Y792205D02*
X3770945Y791260D01*
X2855945Y760748D02*
Y791260D01*
X2786772Y526851D02*
Y691575D01*
X2855945Y760748D01*
X4078425Y530197D02*
X4081772Y526851D01*
X4078425Y530197D02*
Y571378D01*
X3889055Y760748D02*
Y791260D01*
Y760748D02*
X4078425Y571378D01*
X3570000Y831732D02*
Y890000D01*
Y831732D02*
X3570472Y831260D01*
X3663378Y883378D02*
X3670000Y890000D01*
X3663378Y866095D02*
Y883378D01*
X3629528Y830276D02*
Y831260D01*
Y832244D01*
X3663378Y866095D01*
X3605197Y805945D02*
X3629528Y830276D01*
X3605197Y726260D02*
Y805945D01*
X3170945Y726260D02*
X3254803D01*
X3170000Y725315D02*
X3170945Y726260D01*
X2760197Y455000D02*
X3292244D01*
X3368067Y530823D01*
X2688347Y526851D02*
X2760197Y455000D01*
X3690866Y526851D02*
X3983347D01*
X3572791Y408776D02*
X3690866Y526851D01*
X705197Y455000D02*
X1237244D01*
X633346Y526851D02*
X705197Y455000D01*
X1237244D02*
X1313067Y530823D01*
X1635866Y526851D02*
X1928347D01*
X1517792Y408776D02*
X1635866Y526851D01*
X731772Y691575D02*
X800945Y760748D01*
X731772Y526851D02*
Y691575D01*
X800945Y760748D02*
Y791260D01*
X1608378Y866095D02*
Y883378D01*
X1574528Y831260D02*
Y832244D01*
X1608378Y866095D01*
Y883378D02*
X1615000Y890000D01*
X915000Y800315D02*
Y890000D01*
Y800315D02*
X924055Y791260D01*
X1115000Y809291D02*
Y890000D01*
X1111968Y806260D02*
X1115000Y809291D01*
X1715000Y792205D02*
Y890000D01*
Y792205D02*
X1715945Y791260D01*
X1834055Y760748D02*
Y791260D01*
Y760748D02*
X2023425Y571378D01*
Y530197D02*
Y571378D01*
Y530197D02*
X2026772Y526851D01*
X1515000Y831732D02*
Y890000D01*
Y831732D02*
X1515472Y831260D01*
X1574528Y830276D02*
Y831260D01*
X1550197Y805945D02*
X1574528Y830276D01*
X1550197Y726260D02*
Y805945D01*
X1115000Y725315D02*
X1115945Y726260D01*
X1199803D01*
D14*
X6965945Y791260D02*
D03*
X7084055D02*
D03*
X7880945D02*
D03*
X7999055D02*
D03*
X4910945D02*
D03*
X5029055D02*
D03*
X5825945D02*
D03*
X5944055D02*
D03*
X2855945D02*
D03*
X2974055D02*
D03*
X3770945D02*
D03*
X3889055D02*
D03*
X800945D02*
D03*
X919055D02*
D03*
X1715945D02*
D03*
X1834055D02*
D03*
D15*
X7173032Y806260D02*
D03*
X7276968D02*
D03*
X5118032D02*
D03*
X5221968D02*
D03*
X3063032D02*
D03*
X3166968D02*
D03*
X1008032D02*
D03*
X1111968D02*
D03*
D16*
X7715197Y726260D02*
D03*
X7364803D02*
D03*
X5660197D02*
D03*
X5309803D02*
D03*
X3605197D02*
D03*
X3254803D02*
D03*
X1550197D02*
D03*
X1199803D02*
D03*
D17*
X7680472Y831260D02*
D03*
X7739528D02*
D03*
X5625472D02*
D03*
X5684528D02*
D03*
X3570472D02*
D03*
X3629528D02*
D03*
X1515472D02*
D03*
X1574528D02*
D03*
D18*
X7280000Y725315D02*
D03*
Y607205D02*
D03*
X5225000Y725315D02*
D03*
Y607205D02*
D03*
X3170000Y725315D02*
D03*
Y607205D02*
D03*
X1115000Y725315D02*
D03*
Y607205D02*
D03*
D39*
X6873402Y1306513D02*
X7273363D01*
X7376850Y1410000D01*
X6775000Y1208110D02*
X6873402Y1306513D01*
X8073740Y1208110D02*
X8270000D01*
X7871850Y1410000D02*
X8073740Y1208110D01*
X4818402Y1306513D02*
X5218363D01*
X5321850Y1410000D01*
X4720000Y1208110D02*
X4818402Y1306513D01*
X6018740Y1208110D02*
X6215000D01*
X5816850Y1410000D02*
X6018740Y1208110D01*
X2763402Y1306513D02*
X3163363D01*
X3266850Y1410000D01*
X2665000Y1208110D02*
X2763402Y1306513D01*
X3963740Y1208110D02*
X4160000D01*
X3761850Y1410000D02*
X3963740Y1208110D01*
X708402Y1306513D02*
X1108363D01*
X610000Y1208110D02*
X708402Y1306513D01*
X1706850Y1410000D02*
X1908740Y1208110D01*
X2105000D01*
X1108363Y1306513D02*
X1211850Y1410000D01*
D40*
X8430000Y1510000D02*
D03*
X125000D02*
D03*
Y125000D02*
D03*
D41*
X7541059Y408776D02*
D03*
Y211925D02*
D03*
X5486059Y408776D02*
D03*
Y211925D02*
D03*
X3431059Y408776D02*
D03*
Y211925D02*
D03*
X1376059Y408776D02*
D03*
Y211925D02*
D03*
D42*
X7718225D02*
D03*
X7478067Y530823D02*
D03*
X7682792Y408776D02*
D03*
X5663225Y211925D02*
D03*
X5423067Y530823D02*
D03*
X5627792Y408776D02*
D03*
X3608224Y211925D02*
D03*
X3368067Y530823D02*
D03*
X3572791Y408776D02*
D03*
X1553225Y211925D02*
D03*
X1313067Y530823D02*
D03*
X1517792Y408776D02*
D03*
D43*
X7352083Y211925D02*
D03*
X5297083D02*
D03*
X3242083D02*
D03*
X1187083D02*
D03*
D44*
X185000Y930354D02*
D03*
D45*
Y812244D02*
D03*
D46*
Y1015000D02*
D03*
Y727598D02*
D03*
D47*
X6995197Y526851D02*
D03*
X6896772D02*
D03*
X6798346D02*
D03*
X8290197D02*
D03*
X8191772D02*
D03*
X8093346D02*
D03*
X4940197D02*
D03*
X4841772D02*
D03*
X4743346D02*
D03*
X6235197D02*
D03*
X6136772D02*
D03*
X6038346D02*
D03*
X2885197D02*
D03*
X2786772D02*
D03*
X2688347D02*
D03*
X4180197D02*
D03*
X4081772D02*
D03*
X3983347D02*
D03*
X830197D02*
D03*
X731772D02*
D03*
X633346D02*
D03*
X2125197D02*
D03*
X2026772D02*
D03*
X1928347D02*
D03*
D48*
X7070000Y251260D02*
D03*
X6723543D02*
D03*
X8365000D02*
D03*
X8018543D02*
D03*
X5015000D02*
D03*
X4668543D02*
D03*
X6310000D02*
D03*
X5963543D02*
D03*
X2960000D02*
D03*
X2613543D02*
D03*
X4255000D02*
D03*
X3908543D02*
D03*
X905000D02*
D03*
X558543D02*
D03*
X2200000D02*
D03*
X1853543D02*
D03*
D49*
X7080000Y890000D02*
D03*
X5025000D02*
D03*
X2970000D02*
D03*
X915000D02*
D03*
D50*
X7180000D02*
D03*
X7280000D02*
D03*
X7380000D02*
D03*
X7480000D02*
D03*
X7580000D02*
D03*
X7680000D02*
D03*
X7780000D02*
D03*
X7880000D02*
D03*
X7980000D02*
D03*
Y1190000D02*
D03*
X7880000D02*
D03*
X7780000D02*
D03*
X7680000D02*
D03*
X7580000D02*
D03*
X7480000D02*
D03*
X7380000D02*
D03*
X7280000D02*
D03*
X7180000D02*
D03*
X7080000D02*
D03*
X5125000Y890000D02*
D03*
X5225000D02*
D03*
X5325000D02*
D03*
X5425000D02*
D03*
X5525000D02*
D03*
X5625000D02*
D03*
X5725000D02*
D03*
X5825000D02*
D03*
X5925000D02*
D03*
Y1190000D02*
D03*
X5825000D02*
D03*
X5725000D02*
D03*
X5625000D02*
D03*
X5525000D02*
D03*
X5425000D02*
D03*
X5325000D02*
D03*
X5225000D02*
D03*
X5125000D02*
D03*
X5025000D02*
D03*
X3070000Y890000D02*
D03*
X3170000D02*
D03*
X3270000D02*
D03*
X3370000D02*
D03*
X3470000D02*
D03*
X3570000D02*
D03*
X3670000D02*
D03*
X3770000D02*
D03*
X3870000D02*
D03*
Y1190000D02*
D03*
X3770000D02*
D03*
X3670000D02*
D03*
X3570000D02*
D03*
X3470000D02*
D03*
X3370000D02*
D03*
X3270000D02*
D03*
X3170000D02*
D03*
X3070000D02*
D03*
X2970000D02*
D03*
X1015000Y890000D02*
D03*
X1115000D02*
D03*
X1215000D02*
D03*
X1315000D02*
D03*
X1415000D02*
D03*
X1515000D02*
D03*
X1615000D02*
D03*
X1715000D02*
D03*
X1815000D02*
D03*
Y1190000D02*
D03*
X1715000D02*
D03*
X1615000D02*
D03*
X1515000D02*
D03*
X1415000D02*
D03*
X1315000D02*
D03*
X1215000D02*
D03*
X1115000D02*
D03*
X1015000D02*
D03*
X915000D02*
D03*
D51*
X6775000Y1011260D02*
D03*
X8270000D02*
D03*
X4720000D02*
D03*
X6215000D02*
D03*
X2665000D02*
D03*
X4160000D02*
D03*
X610000D02*
D03*
X2105000D02*
D03*
D52*
X6775000Y1208110D02*
D03*
X8270000D02*
D03*
X4720000D02*
D03*
X6215000D02*
D03*
X2665000D02*
D03*
X4160000D02*
D03*
X610000D02*
D03*
X2105000D02*
D03*
D53*
X7180000Y1410000D02*
D03*
X7376850D02*
D03*
X7675000D02*
D03*
X7871850D02*
D03*
X5125000D02*
D03*
X5321850D02*
D03*
X5620000D02*
D03*
X5816850D02*
D03*
X3070000D02*
D03*
X3266850D02*
D03*
X3565000D02*
D03*
X3761850D02*
D03*
X1015000D02*
D03*
X1211850D02*
D03*
X1510000D02*
D03*
X1706850D02*
D03*
D54*
X1040000Y605000D02*
D03*
M02*
