%FSTAX25Y25*%
%MOIN*%
%SFA1B1*%

%IPPOS*%
%ADD13C,0.010000*%
%LNamp_8ch-1*%
%LPD*%
G54D13*
X0574Y0064499D02*
Y0068998D01*
X05725Y0067498*
X0571001Y0068998*
Y0064499*
X0568751Y0067498D02*
X0567252D01*
X0566502Y0066748*
Y0064499*
X0568751*
X0569501Y0065249*
X0568751Y0065999*
X0566502*
X0564253Y0068248D02*
Y0067498D01*
X0565002*
X0563503*
X0564253*
Y0065249*
X0563503Y0064499*
X0561254Y0068998D02*
Y0064499D01*
Y0066748*
X0560504Y0067498*
X0559004*
X0558255Y0066748*
Y0064499*
X0554506D02*
X0556005D01*
X0556755Y0065249*
Y0066748*
X0556005Y0067498*
X0554506*
X0553756Y0066748*
Y0065999*
X0556755*
X0552257Y0067498D02*
Y0065249D01*
X0551507Y0064499*
X0550757Y0065249*
X0550007Y0064499*
X0549258Y0065249*
Y0067498*
X054026Y0068998D02*
X0543259D01*
Y0064499*
X054026*
X0543259Y0066748D02*
X054176D01*
X0538761Y0067498D02*
Y0064499D01*
Y0065999*
X0538011Y0066748*
X0537261Y0067498*
X0536512*
X0534262Y0064499D02*
X0532763D01*
X0533513*
Y0067498*
X0534262*
X0527515D02*
X0529764D01*
X0530514Y0066748*
Y0065249*
X0529764Y0064499*
X0527515*
X0526015D02*
Y0068998D01*
Y0065999D02*
X0523766Y0067498D01*
X0526015Y0065999D02*
X0523766Y0064499D01*
X0521516D02*
X0519267D01*
X0518517Y0065249*
X0519267Y0065999*
X0520767*
X0521516Y0066748*
X0520767Y0067498*
X0518517*
X0516268Y0064499D02*
X0514769D01*
X0514019Y0065249*
Y0066748*
X0514769Y0067498*
X0516268*
X0517018Y0066748*
Y0065249*
X0516268Y0064499*
X0512519D02*
Y0067498D01*
X051027*
X050952Y0066748*
Y0064499*
X0507271Y0063749D02*
X0506521Y0064499D01*
Y0065249*
X0507271*
Y0064499*
X0506521*
X0507271Y0063749*
X0508021Y0063*
X0496025Y0068998D02*
X0499024D01*
Y0064499*
X0496025*
X0499024Y0066748D02*
X0497524D01*
X0494525Y0064499D02*
Y0067498D01*
X0493775*
X0493026Y0066748*
Y0064499*
Y0066748*
X0492276Y0067498*
X0491526Y0066748*
Y0064499*
X0490027D02*
Y0067498D01*
X0489277*
X0488527Y0066748*
Y0064499*
Y0066748*
X0487777Y0067498*
X0487028Y0066748*
Y0064499*
X0484778Y0067498D02*
X0483279D01*
X0482529Y0066748*
Y0064499*
X0484778*
X0485528Y0065249*
X0484778Y0065999*
X0482529*
X0473532Y0068248D02*
X0474282Y0068998D01*
X0475781*
X0476531Y0068248*
Y0065249*
X0475781Y0064499*
X0474282*
X0473532Y0065249*
Y0066748*
X0475031*
X0472032Y0067498D02*
Y0064499D01*
Y0065999*
X0471283Y0066748*
X0470533Y0067498*
X0469783*
X0467534Y0064499D02*
X0466034D01*
X0466784*
Y0067498*
X0467534*
X0463035Y0064499D02*
Y0068248D01*
Y0066748*
X0463785*
X0462286*
X0463035*
Y0068248*
X0462286Y0068998*
X0459287Y0064499D02*
Y0068248D01*
Y0066748*
X0460036*
X0458537*
X0459287*
Y0068248*
X0458537Y0068998*
X0456288Y0064499D02*
X0454788D01*
X0455538*
Y0067498*
X0456288*
X0451789Y0068248D02*
Y0067498D01*
X0452539*
X0451039*
X0451789*
Y0065249*
X0451039Y0064499*
X044879Y0068998D02*
Y0064499D01*
Y0066748*
X044804Y0067498*
X0446541*
X0445791Y0066748*
Y0064499*
X0443542Y0063749D02*
X0442792Y0064499D01*
Y0065249*
X0443542*
Y0064499*
X0442792*
X0443542Y0063749*
X0444291Y0063*
X0432295Y0068998D02*
X0433795D01*
X0433045*
Y0065249*
X0433795Y0064499*
X0434545*
X0435294Y0065249*
X0430046Y0067498D02*
X0428546D01*
X0427797Y0066748*
Y0064499*
X0430046*
X0430796Y0065249*
X0430046Y0065999*
X0427797*
X0426297Y0064499D02*
X0424798D01*
X0425547*
Y0067498*
X0426297*
X0422548D02*
Y0064499D01*
Y0065999*
X0421799Y0066748*
X0421049Y0067498*
X0420299*
X04173Y0064499D02*
X0415801D01*
X0415051Y0065249*
Y0066748*
X0415801Y0067498*
X04173*
X041805Y0066748*
Y0065249*
X04173Y0064499*
X0409053Y0068998D02*
Y0064499D01*
Y0066748*
X0406054*
Y0068998*
Y0064499*
X0404554Y0067498D02*
Y0065249D01*
X0403804Y0064499*
X0401555*
Y0067498*
X0399306D02*
X0397806D01*
X0397057Y0066748*
Y0064499*
X0399306*
X0400056Y0065249*
X0399306Y0065999*
X0397057*
X0395557Y0067498D02*
Y0065249D01*
X0394807Y0064499*
X0392558*
Y0063749*
X0393308Y0063*
X0394058*
X0392558Y0064499D02*
Y0067498D01*
X0391059Y0064499D02*
X0389559D01*
X0390309*
Y0068998*
X0391059*
X038731Y0064499D02*
X038581D01*
X038656*
Y0067498*
X038731*
X0383561Y0064499D02*
Y0067498D01*
X0381312*
X0380562Y0066748*
Y0064499*
X0378313D02*
X0376813D01*
X0376063Y0065249*
Y0066748*
X0376813Y0067498*
X0378313*
X0379062Y0066748*
Y0065249*
X0378313Y0064499*
X0374564D02*
X0372315D01*
X0371565Y0065249*
X0372315Y0065999*
X0373814*
X0374564Y0066748*
X0373814Y0067498*
X0371565*
X0369316Y0063749D02*
X0368566Y0064499D01*
Y0065249*
X0369316*
Y0064499*
X0368566*
X0369316Y0063749*
X0370065Y0063*
X0361068Y0064499D02*
Y0067498D01*
X0359569Y0068998*
X0358069Y0067498*
Y0064499*
Y0066748*
X0361068*
X035657Y0064499D02*
Y0067498D01*
X035432*
X0353571Y0066748*
Y0064499*
X0352071D02*
X0350572D01*
X0351321*
Y0067498*
X0352071*
X0345323Y0063D02*
Y0067498D01*
X0347573*
X0348322Y0066748*
Y0065249*
X0347573Y0064499*
X0345323*
X0339325Y0068998D02*
X0337826D01*
X0338575*
Y0064499*
X0339325*
X0337826*
X0335576D02*
X0333327D01*
X0332577Y0065249*
X0333327Y0065999*
X0334827*
X0335576Y0066748*
X0334827Y0067498*
X0332577*
X0331078Y0064499D02*
X0329578D01*
X0330328*
Y0068998*
X0331078*
X0326579Y0067498D02*
X032508D01*
X032433Y0066748*
Y0064499*
X0326579*
X0327329Y0065249*
X0326579Y0065999*
X032433*
X0322831Y0064499D02*
Y0067498D01*
X0322081*
X0321331Y0066748*
Y0064499*
Y0066748*
X0320581Y0067498*
X0319832Y0066748*
Y0064499*
X0317582Y0063749D02*
X0316832Y0064499D01*
Y0065249*
X0317582*
Y0064499*
X0316832*
X0317582Y0063749*
X0318332Y0063*
X0306336Y0068998D02*
X0307835D01*
X0307086*
Y0065249*
X0307835Y0064499*
X0308585*
X0309335Y0065249*
X0304836Y0067498D02*
Y0065249D01*
X0304087Y0064499*
X0301837*
Y0067498*
X0300338Y0064499D02*
X0298089D01*
X0297339Y0065249*
X0298089Y0065999*
X0299588*
X0300338Y0066748*
X0299588Y0067498*
X0297339*
X0295089Y0068248D02*
Y0067498D01*
X0295839*
X029434*
X0295089*
Y0065249*
X029434Y0064499*
X029209D02*
X0290591D01*
X0291341*
Y0067498*
X029209*
X0288342Y0064499D02*
Y0067498D01*
X0286092*
X0285343Y0066748*
Y0064499*
X0279345Y0068998D02*
Y0064499D01*
X0277845Y0065999*
X0276346Y0064499*
Y0068998*
X0274096Y0067498D02*
X0272597D01*
X0271847Y0066748*
Y0064499*
X0274096*
X0274846Y0065249*
X0274096Y0065999*
X0271847*
X0270347Y0064499D02*
Y0067498D01*
X0268098*
X0267348Y0066748*
Y0064499*
X0264349Y0063D02*
X02636D01*
X026285Y0063749*
Y0067498*
X0265099*
X0265849Y0066748*
Y0065249*
X0265099Y0064499*
X026285*
M02*