%FSTAX25Y25*%
%MOIN*%
%SFA1B1*%

%IPPOS*%
%ADD39C,0.030000*%
%ADD40C,0.160000*%
%ADD41C,0.021654*%
%ADD42C,0.090354*%
%ADD43R,0.090354X0.090354*%
%ADD44R,0.046063X0.046063*%
%ADD45C,0.046063*%
%ADD46C,0.100787*%
%ADD47C,0.059055*%
%ADD48C,0.167716*%
%ADD49R,0.044606X0.044606*%
%ADD50C,0.044606*%
%ADD51R,0.050197X0.050197*%
%ADD52C,0.050197*%
%ADD53C,0.076772*%
%ADD54C,0.050000*%
%LNamp_8ch-1*%
%LPD*%
G36*
X0854Y0001D02*
X0001D01*
Y01615*
X0854*
Y0001*
G37*
%LNamp_8ch-2*%
%LPC*%
G36*
X0843886Y016D02*
X0842113D01*
X0840374Y0159654*
X0838736Y0158975*
X0837262Y015799*
X0836009Y0156737*
X0835024Y0155263*
X0834345Y0153625*
X0834Y0151886*
Y0150113*
X0834345Y0148374*
X0835024Y0146736*
X0836009Y0145262*
X0837262Y0144009*
X0838736Y0143024*
X0840374Y0142345*
X0842113Y0142*
X0843886*
X0845625Y0142345*
X0847263Y0143024*
X0848737Y0144009*
X084999Y0145262*
X0850975Y0146736*
X0851654Y0148374*
X0852Y0150113*
Y0151886*
X0851654Y0153625*
X0850975Y0155263*
X084999Y0156737*
X0848737Y015799*
X0847263Y0158975*
X0845625Y0159654*
X0843886Y016*
G37*
G36*
X0013386D02*
X0011613D01*
X0009874Y0159654*
X0008236Y0158975*
X0006762Y015799*
X0005509Y0156737*
X0004524Y0155263*
X0003845Y0153625*
X00035Y0151886*
Y0150113*
X0003845Y0148374*
X0004524Y0146736*
X0005509Y0145262*
X0006762Y0144009*
X0008236Y0143024*
X0009874Y0142345*
X0011613Y0142*
X0013386*
X0015125Y0142345*
X0016763Y0143024*
X0018237Y0144009*
X001949Y0145262*
X0020475Y0146736*
X0021154Y0148374*
X00215Y0150113*
Y0151886*
X0021154Y0153625*
X0020475Y0155263*
X001949Y0156737*
X0018237Y015799*
X0016763Y0158975*
X0015125Y0159654*
X0013386Y016*
G37*
G36*
X0787822Y0145838D02*
X0786548D01*
X0785317Y0145508*
X0784214Y0144871*
X0783313Y0143971*
X0782676Y0142867*
X0782346Y0141637*
Y0140363*
X0782676Y0139132*
X0783313Y0138029*
X0784214Y0137128*
X0785317Y0136491*
X0786548Y0136161*
X0787822*
X0789052Y0136491*
X0790156Y0137128*
X0791056Y0138029*
X0791693Y0139132*
X0792023Y0140363*
Y0141637*
X0791693Y0142867*
X0791056Y0143971*
X0790156Y0144871*
X0789052Y0145508*
X0787822Y0145838*
G37*
G36*
X0738322D02*
X0737048D01*
X0735817Y0145508*
X0734714Y0144871*
X0733813Y0143971*
X0733176Y0142867*
X0732846Y0141637*
Y0140363*
X0733176Y0139132*
X0733813Y0138029*
X0734714Y0137128*
X0735817Y0136491*
X0737048Y0136161*
X0738322*
X0739552Y0136491*
X0740656Y0137128*
X0741556Y0138029*
X0742193Y0139132*
X0742523Y0140363*
Y0141637*
X0742193Y0142867*
X0741556Y0143971*
X0740656Y0144871*
X0739552Y0145508*
X0738322Y0145838*
G37*
G36*
X0582322D02*
X0581048D01*
X0579817Y0145508*
X0578714Y0144871*
X0577813Y0143971*
X0577176Y0142867*
X0576846Y0141637*
Y0140363*
X0577176Y0139132*
X0577813Y0138029*
X0578714Y0137128*
X0579817Y0136491*
X0581048Y0136161*
X0582322*
X0583552Y0136491*
X0584656Y0137128*
X0585556Y0138029*
X0586193Y0139132*
X0586523Y0140363*
Y0141637*
X0586193Y0142867*
X0585556Y0143971*
X0584656Y0144871*
X0583552Y0145508*
X0582322Y0145838*
G37*
G36*
X0532822D02*
X0531548D01*
X0530317Y0145508*
X0529214Y0144871*
X0528313Y0143971*
X0527676Y0142867*
X0527346Y0141637*
Y0140363*
X0527676Y0139132*
X0528313Y0138029*
X0529214Y0137128*
X0530317Y0136491*
X0531548Y0136161*
X0532822*
X0534052Y0136491*
X0535156Y0137128*
X0536056Y0138029*
X0536693Y0139132*
X0537023Y0140363*
Y0141637*
X0536693Y0142867*
X0536056Y0143971*
X0535156Y0144871*
X0534052Y0145508*
X0532822Y0145838*
G37*
G36*
X0376822D02*
X0375548D01*
X0374317Y0145508*
X0373214Y0144871*
X0372313Y0143971*
X0371676Y0142867*
X0371346Y0141637*
Y0140363*
X0371676Y0139132*
X0372313Y0138029*
X0373214Y0137128*
X0374317Y0136491*
X0375548Y0136161*
X0376822*
X0378052Y0136491*
X0379156Y0137128*
X0380056Y0138029*
X0380693Y0139132*
X0381023Y0140363*
Y0141637*
X0380693Y0142867*
X0380056Y0143971*
X0379156Y0144871*
X0378052Y0145508*
X0376822Y0145838*
G37*
G36*
X0327322D02*
X0326048D01*
X0324817Y0145508*
X0323714Y0144871*
X0322813Y0143971*
X0322176Y0142867*
X0321846Y0141637*
Y0140363*
X0322176Y0139132*
X0322813Y0138029*
X0323714Y0137128*
X0324817Y0136491*
X0326048Y0136161*
X0327322*
X0328552Y0136491*
X0329656Y0137128*
X0330556Y0138029*
X0331193Y0139132*
X0331523Y0140363*
Y0141637*
X0331193Y0142867*
X0330556Y0143971*
X0329656Y0144871*
X0328552Y0145508*
X0327322Y0145838*
G37*
G36*
X0171322D02*
X0170048D01*
X0168817Y0145508*
X0167714Y0144871*
X0166813Y0143971*
X0166176Y0142867*
X0165846Y0141637*
Y0140363*
X0166176Y0139132*
X0166813Y0138029*
X0167714Y0137128*
X0168817Y0136491*
X0170048Y0136161*
X0171322*
X0172552Y0136491*
X0173656Y0137128*
X0174556Y0138029*
X0175193Y0139132*
X0175523Y0140363*
Y0141637*
X0175193Y0142867*
X0174556Y0143971*
X0173656Y0144871*
X0172552Y0145508*
X0171322Y0145838*
G37*
G36*
X0121822D02*
X0120548D01*
X0119317Y0145508*
X0118214Y0144871*
X0117313Y0143971*
X0116676Y0142867*
X0116346Y0141637*
Y0140363*
X0116676Y0139132*
X0117313Y0138029*
X0118214Y0137128*
X0119317Y0136491*
X0120548Y0136161*
X0121822*
X0123052Y0136491*
X0124156Y0137128*
X0125056Y0138029*
X0125693Y0139132*
X0126023Y0140363*
Y0141637*
X0125693Y0142867*
X0125056Y0143971*
X0124156Y0144871*
X0123052Y0145508*
X0121822Y0145838*
G37*
G36*
X0827462Y012432D02*
X0826537D01*
X0825645Y0124081*
X0824844Y0123619*
X0824191Y0122966*
X0823729Y0122165*
X082349Y0121273*
Y0120348*
X0823729Y0119456*
X0824191Y0118655*
X0824844Y0118002*
X0825645Y011754*
X0826537Y0117301*
X0827462*
X0828354Y011754*
X0829155Y0118002*
X0829808Y0118655*
X083027Y0119456*
X0830509Y0120348*
Y0121273*
X083027Y0122165*
X0829808Y0122966*
X0829155Y0123619*
X0828354Y0124081*
X0827462Y012432*
G37*
G36*
X0677962D02*
X0677037D01*
X0676145Y0124081*
X0675344Y0123619*
X0674691Y0122966*
X0674229Y0122165*
X067399Y0121273*
Y0120348*
X0674229Y0119456*
X0674691Y0118655*
X0675344Y0118002*
X0676145Y011754*
X0677037Y0117301*
X0677962*
X0678854Y011754*
X0679655Y0118002*
X0680308Y0118655*
X068077Y0119456*
X0681009Y0120348*
Y0121273*
X068077Y0122165*
X0680308Y0122966*
X0679655Y0123619*
X0678854Y0124081*
X0677962Y012432*
G37*
G36*
X0621962D02*
X0621037D01*
X0620145Y0124081*
X0619344Y0123619*
X0618691Y0122966*
X0618229Y0122165*
X061799Y0121273*
Y0120348*
X0618229Y0119456*
X0618691Y0118655*
X0619344Y0118002*
X0620145Y011754*
X0621037Y0117301*
X0621962*
X0622854Y011754*
X0623655Y0118002*
X0624308Y0118655*
X062477Y0119456*
X0625009Y0120348*
Y0121273*
X062477Y0122165*
X0624308Y0122966*
X0623655Y0123619*
X0622854Y0124081*
X0621962Y012432*
G37*
G36*
X0472462D02*
X0471537D01*
X0470645Y0124081*
X0469844Y0123619*
X0469191Y0122966*
X0468729Y0122165*
X046849Y0121273*
Y0120348*
X0468729Y0119456*
X0469191Y0118655*
X0469844Y0118002*
X0470645Y011754*
X0471537Y0117301*
X0472462*
X0473354Y011754*
X0474155Y0118002*
X0474808Y0118655*
X047527Y0119456*
X0475509Y0120348*
Y0121273*
X047527Y0122165*
X0474808Y0122966*
X0474155Y0123619*
X0473354Y0124081*
X0472462Y012432*
G37*
G36*
X0416462D02*
X0415537D01*
X0414645Y0124081*
X0413844Y0123619*
X0413191Y0122966*
X0412729Y0122165*
X041249Y0121273*
Y0120348*
X0412729Y0119456*
X0413191Y0118655*
X0413844Y0118002*
X0414645Y011754*
X0415537Y0117301*
X0416462*
X0417354Y011754*
X0418155Y0118002*
X0418808Y0118655*
X041927Y0119456*
X0419509Y0120348*
Y0121273*
X041927Y0122165*
X0418808Y0122966*
X0418155Y0123619*
X0417354Y0124081*
X0416462Y012432*
G37*
G36*
X0266962D02*
X0266037D01*
X0265145Y0124081*
X0264344Y0123619*
X0263691Y0122966*
X0263229Y0122165*
X026299Y0121273*
Y0120348*
X0263229Y0119456*
X0263691Y0118655*
X0264344Y0118002*
X0265145Y011754*
X0266037Y0117301*
X0266962*
X0267854Y011754*
X0268655Y0118002*
X0269308Y0118655*
X026977Y0119456*
X0270009Y0120348*
Y0121273*
X026977Y0122165*
X0269308Y0122966*
X0268655Y0123619*
X0267854Y0124081*
X0266962Y012432*
G37*
G36*
X0210962D02*
X0210037D01*
X0209145Y0124081*
X0208344Y0123619*
X0207691Y0122966*
X0207229Y0122165*
X020699Y0121273*
Y0120348*
X0207229Y0119456*
X0207691Y0118655*
X0208344Y0118002*
X0209145Y011754*
X0210037Y0117301*
X0210962*
X0211854Y011754*
X0212655Y0118002*
X0213308Y0118655*
X021377Y0119456*
X0214009Y0120348*
Y0121273*
X021377Y0122165*
X0213308Y0122966*
X0212655Y0123619*
X0211854Y0124081*
X0210962Y012432*
G37*
G36*
X0061462D02*
X0060537D01*
X0059645Y0124081*
X0058844Y0123619*
X0058191Y0122966*
X0057729Y0122165*
X005749Y0121273*
Y0120348*
X0057729Y0119456*
X0058191Y0118655*
X0058844Y0118002*
X0059645Y011754*
X0060537Y0117301*
X0061462*
X0062354Y011754*
X0063155Y0118002*
X0063808Y0118655*
X006427Y0119456*
X0064509Y0120348*
Y0121273*
X006427Y0122165*
X0063808Y0122966*
X0063155Y0123619*
X0062354Y0124081*
X0061462Y012432*
G37*
G36*
X0830509Y0104635D02*
X082349D01*
Y0103675*
X0770126*
X076915Y010348*
X0768323Y0102928*
X0757625Y009223*
X0757574*
X0756753Y009201*
X0756016Y0091584*
X0755415Y0090983*
X0754989Y0090246*
X0754769Y0089425*
Y0088574*
X0754989Y0087753*
X0755415Y0087016*
X0756016Y0086415*
X0756753Y0085989*
X0757574Y0085769*
X0758425*
X0759246Y0085989*
X0759983Y0086415*
X0760584Y0087016*
X076101Y0087753*
X076123Y0088574*
Y0088625*
X0771181Y0098577*
X082349*
Y0097616*
X0830509*
Y0104635*
G37*
G36*
X0625009D02*
X061799D01*
Y0103675*
X0564626*
X056365Y010348*
X0562823Y0102928*
X0552125Y009223*
X0552074*
X0551253Y009201*
X0550516Y0091584*
X0549915Y0090983*
X0549489Y0090246*
X0549269Y0089425*
Y0088574*
X0549489Y0087753*
X0549915Y0087016*
X0550516Y0086415*
X0551253Y0085989*
X0552074Y0085769*
X0552925*
X0553746Y0085989*
X0554483Y0086415*
X0555084Y0087016*
X055551Y0087753*
X055573Y0088574*
Y0088625*
X0565681Y0098577*
X061799*
Y0097616*
X0625009*
Y0104635*
G37*
G36*
X0419509D02*
X041249D01*
Y0103675*
X0359126*
X035815Y010348*
X0357323Y0102928*
X0346625Y009223*
X0346574*
X0345753Y009201*
X0345016Y0091584*
X0344415Y0090983*
X0343989Y0090246*
X0343769Y0089425*
Y0088574*
X0343989Y0087753*
X0344415Y0087016*
X0345016Y0086415*
X0345753Y0085989*
X0346574Y0085769*
X0347425*
X0348246Y0085989*
X0348983Y0086415*
X0349584Y0087016*
X035001Y0087753*
X035023Y0088574*
Y0088625*
X0360181Y0098577*
X041249*
Y0097616*
X0419509*
Y0104635*
G37*
G36*
X0214009D02*
X020699D01*
Y0103675*
X0153626*
X015265Y010348*
X0151823Y0102928*
X0141125Y009223*
X0141074*
X0140253Y009201*
X0139516Y0091584*
X0138915Y0090983*
X0138489Y0090246*
X0138269Y0089425*
Y0088574*
X0138489Y0087753*
X0138915Y0087016*
X0139516Y0086415*
X0140253Y0085989*
X0141074Y0085769*
X0141925*
X0142746Y0085989*
X0143483Y0086415*
X0144084Y0087016*
X014451Y0087753*
X014473Y0088574*
Y0088625*
X0154681Y0098577*
X020699*
Y0097616*
X0214009*
Y0104635*
G37*
G36*
X0019094Y0107539D02*
X0017905D01*
X0016738Y0107307*
X0015639Y0106852*
X001465Y0106191*
X0013808Y0105349*
X0013148Y010436*
X0012692Y0103261*
X001246Y0102094*
Y0100905*
X0012692Y0099738*
X0013148Y0098639*
X0013808Y009765*
X001465Y0096808*
X001486Y0096668*
X0015196Y0096338*
X0015196*
Y0089732*
X0021803*
Y0096338*
X0021803*
X0022143Y0096671*
X0022349Y0096808*
X0023191Y009765*
X0023852Y0098639*
X0024307Y0099738*
X0024539Y0100905*
Y0102094*
X0024307Y0103261*
X0023852Y010436*
X0023191Y0105349*
X0022349Y0106191*
X002136Y0106852*
X0020261Y0107307*
X0019094Y0107539*
G37*
G36*
X0788425Y009223D02*
X0787574D01*
X0786753Y009201*
X0786016Y0091584*
X0785415Y0090983*
X0784989Y0090246*
X0784769Y0089425*
Y0088574*
X0784989Y0087753*
X0785415Y0087016*
X0786016Y0086415*
X0786753Y0085989*
X0787574Y0085769*
X0788425*
X0789246Y0085989*
X0789983Y0086415*
X0790584Y0087016*
X079101Y0087753*
X079123Y0088574*
Y0089425*
X079101Y0090246*
X0790584Y0090983*
X0789983Y0091584*
X0789246Y009201*
X0788425Y009223*
G37*
G36*
X0778425D02*
X0777574D01*
X0776753Y009201*
X0776016Y0091584*
X0775415Y0090983*
X0774989Y0090246*
X0774769Y0089425*
Y0088574*
X0774989Y0087753*
X0775415Y0087016*
X0776016Y0086415*
X0776753Y0085989*
X0777574Y0085769*
X0778425*
X0779246Y0085989*
X0779983Y0086415*
X0780584Y0087016*
X078101Y0087753*
X078123Y0088574*
Y0089425*
X078101Y0090246*
X0780584Y0090983*
X0779983Y0091584*
X0779246Y009201*
X0778425Y009223*
G37*
G36*
X0768425D02*
X0767574D01*
X0766753Y009201*
X0766016Y0091584*
X0765415Y0090983*
X0764989Y0090246*
X0764769Y0089425*
Y0088574*
X0764989Y0087753*
X0765415Y0087016*
X0766016Y0086415*
X0766753Y0085989*
X0767574Y0085769*
X0768425*
X0769246Y0085989*
X0769983Y0086415*
X0770584Y0087016*
X077101Y0087753*
X077123Y0088574*
Y0089425*
X077101Y0090246*
X0770584Y0090983*
X0769983Y0091584*
X0769246Y009201*
X0768425Y009223*
G37*
G36*
X0681009Y0104635D02*
X067399D01*
Y0097616*
X0681009*
Y0098577*
X0724818*
X0734769Y0088625*
Y0088574*
X0734989Y0087753*
X0735415Y0087016*
X0736016Y0086415*
X0736753Y0085989*
X0737574Y0085769*
X0738425*
X0739246Y0085989*
X0739983Y0086415*
X0740584Y0087016*
X074101Y0087753*
X074123Y0088574*
Y0089425*
X074101Y0090246*
X0740584Y0090983*
X0739983Y0091584*
X0739246Y009201*
X0738425Y009223*
X0738374*
X0727676Y0102928*
X0726849Y010348*
X0725874Y0103675*
X0681009*
Y0104635*
G37*
G36*
X0728425Y009223D02*
X0727574D01*
X0726753Y009201*
X0726016Y0091584*
X0725415Y0090983*
X0724989Y0090246*
X0724769Y0089425*
Y0088574*
X0724989Y0087753*
X0725415Y0087016*
X0726016Y0086415*
X0726753Y0085989*
X0727574Y0085769*
X0728425*
X0729246Y0085989*
X0729983Y0086415*
X0730584Y0087016*
X073101Y0087753*
X073123Y0088574*
Y0089425*
X073101Y0090246*
X0730584Y0090983*
X0729983Y0091584*
X0729246Y009201*
X0728425Y009223*
G37*
G36*
X071123D02*
X0704769D01*
Y0085769*
X071123*
Y009223*
G37*
G36*
X0582925D02*
X0582074D01*
X0581253Y009201*
X0580516Y0091584*
X0579915Y0090983*
X0579489Y0090246*
X0579269Y0089425*
Y0088574*
X0579489Y0087753*
X0579915Y0087016*
X0580516Y0086415*
X0581253Y0085989*
X0582074Y0085769*
X0582925*
X0583746Y0085989*
X0584483Y0086415*
X0585084Y0087016*
X058551Y0087753*
X058573Y0088574*
Y0089425*
X058551Y0090246*
X0585084Y0090983*
X0584483Y0091584*
X0583746Y009201*
X0582925Y009223*
G37*
G36*
X0572925D02*
X0572074D01*
X0571253Y009201*
X0570516Y0091584*
X0569915Y0090983*
X0569489Y0090246*
X0569269Y0089425*
Y0088574*
X0569489Y0087753*
X0569915Y0087016*
X0570516Y0086415*
X0571253Y0085989*
X0572074Y0085769*
X0572925*
X0573746Y0085989*
X0574483Y0086415*
X0575084Y0087016*
X057551Y0087753*
X057573Y0088574*
Y0089425*
X057551Y0090246*
X0575084Y0090983*
X0574483Y0091584*
X0573746Y009201*
X0572925Y009223*
G37*
G36*
X0562925D02*
X0562074D01*
X0561253Y009201*
X0560516Y0091584*
X0559915Y0090983*
X0559489Y0090246*
X0559269Y0089425*
Y0088574*
X0559489Y0087753*
X0559915Y0087016*
X0560516Y0086415*
X0561253Y0085989*
X0562074Y0085769*
X0562925*
X0563746Y0085989*
X0564483Y0086415*
X0565084Y0087016*
X056551Y0087753*
X056573Y0088574*
Y0089425*
X056551Y0090246*
X0565084Y0090983*
X0564483Y0091584*
X0563746Y009201*
X0562925Y009223*
G37*
G36*
X0475509Y0104635D02*
X046849D01*
Y0097616*
X0475509*
Y0098577*
X0519318*
X0529269Y0088625*
Y0088574*
X0529489Y0087753*
X0529915Y0087016*
X0530516Y0086415*
X0531253Y0085989*
X0532074Y0085769*
X0532925*
X0533746Y0085989*
X0534483Y0086415*
X0535084Y0087016*
X053551Y0087753*
X053573Y0088574*
Y0089425*
X053551Y0090246*
X0535084Y0090983*
X0534483Y0091584*
X0533746Y009201*
X0532925Y009223*
X0532874*
X0522176Y0102928*
X0521349Y010348*
X0520374Y0103675*
X0475509*
Y0104635*
G37*
G36*
X0522925Y009223D02*
X0522074D01*
X0521253Y009201*
X0520516Y0091584*
X0519915Y0090983*
X0519489Y0090246*
X0519269Y0089425*
Y0088574*
X0519489Y0087753*
X0519915Y0087016*
X0520516Y0086415*
X0521253Y0085989*
X0522074Y0085769*
X0522925*
X0523746Y0085989*
X0524483Y0086415*
X0525084Y0087016*
X052551Y0087753*
X052573Y0088574*
Y0089425*
X052551Y0090246*
X0525084Y0090983*
X0524483Y0091584*
X0523746Y009201*
X0522925Y009223*
G37*
G36*
X050573D02*
X0499269D01*
Y0085769*
X050573*
Y009223*
G37*
G36*
X0377425D02*
X0376574D01*
X0375753Y009201*
X0375016Y0091584*
X0374415Y0090983*
X0373989Y0090246*
X0373769Y0089425*
Y0088574*
X0373989Y0087753*
X0374415Y0087016*
X0375016Y0086415*
X0375753Y0085989*
X0376574Y0085769*
X0377425*
X0378246Y0085989*
X0378983Y0086415*
X0379584Y0087016*
X038001Y0087753*
X038023Y0088574*
Y0089425*
X038001Y0090246*
X0379584Y0090983*
X0378983Y0091584*
X0378246Y009201*
X0377425Y009223*
G37*
G36*
X0367425D02*
X0366574D01*
X0365753Y009201*
X0365016Y0091584*
X0364415Y0090983*
X0363989Y0090246*
X0363769Y0089425*
Y0088574*
X0363989Y0087753*
X0364415Y0087016*
X0365016Y0086415*
X0365753Y0085989*
X0366574Y0085769*
X0367425*
X0368246Y0085989*
X0368983Y0086415*
X0369584Y0087016*
X037001Y0087753*
X037023Y0088574*
Y0089425*
X037001Y0090246*
X0369584Y0090983*
X0368983Y0091584*
X0368246Y009201*
X0367425Y009223*
G37*
G36*
X0357425D02*
X0356574D01*
X0355753Y009201*
X0355016Y0091584*
X0354415Y0090983*
X0353989Y0090246*
X0353769Y0089425*
Y0088574*
X0353989Y0087753*
X0354415Y0087016*
X0355016Y0086415*
X0355753Y0085989*
X0356574Y0085769*
X0357425*
X0358246Y0085989*
X0358983Y0086415*
X0359584Y0087016*
X036001Y0087753*
X036023Y0088574*
Y0089425*
X036001Y0090246*
X0359584Y0090983*
X0358983Y0091584*
X0358246Y009201*
X0357425Y009223*
G37*
G36*
X0270009Y0104635D02*
X026299D01*
Y0097616*
X0270009*
Y0098577*
X0313818*
X0323769Y0088625*
Y0088574*
X0323989Y0087753*
X0324415Y0087016*
X0325016Y0086415*
X0325753Y0085989*
X0326574Y0085769*
X0327425*
X0328246Y0085989*
X0328983Y0086415*
X0329584Y0087016*
X033001Y0087753*
X033023Y0088574*
Y0089425*
X033001Y0090246*
X0329584Y0090983*
X0328983Y0091584*
X0328246Y009201*
X0327425Y009223*
X0327374*
X0316676Y0102928*
X0315849Y010348*
X0314874Y0103675*
X0270009*
Y0104635*
G37*
G36*
X0317425Y009223D02*
X0316574D01*
X0315753Y009201*
X0315016Y0091584*
X0314415Y0090983*
X0313989Y0090246*
X0313769Y0089425*
Y0088574*
X0313989Y0087753*
X0314415Y0087016*
X0315016Y0086415*
X0315753Y0085989*
X0316574Y0085769*
X0317425*
X0318246Y0085989*
X0318983Y0086415*
X0319584Y0087016*
X032001Y0087753*
X032023Y0088574*
Y0089425*
X032001Y0090246*
X0319584Y0090983*
X0318983Y0091584*
X0318246Y009201*
X0317425Y009223*
G37*
G36*
X030023D02*
X0293769D01*
Y0085769*
X030023*
Y009223*
G37*
G36*
X0171925D02*
X0171074D01*
X0170253Y009201*
X0169516Y0091584*
X0168915Y0090983*
X0168489Y0090246*
X0168269Y0089425*
Y0088574*
X0168489Y0087753*
X0168915Y0087016*
X0169516Y0086415*
X0170253Y0085989*
X0171074Y0085769*
X0171925*
X0172746Y0085989*
X0173483Y0086415*
X0174084Y0087016*
X017451Y0087753*
X017473Y0088574*
Y0089425*
X017451Y0090246*
X0174084Y0090983*
X0173483Y0091584*
X0172746Y009201*
X0171925Y009223*
G37*
G36*
X0161925D02*
X0161074D01*
X0160253Y009201*
X0159516Y0091584*
X0158915Y0090983*
X0158489Y0090246*
X0158269Y0089425*
Y0088574*
X0158489Y0087753*
X0158915Y0087016*
X0159516Y0086415*
X0160253Y0085989*
X0161074Y0085769*
X0161925*
X0162746Y0085989*
X0163483Y0086415*
X0164084Y0087016*
X016451Y0087753*
X016473Y0088574*
Y0089425*
X016451Y0090246*
X0164084Y0090983*
X0163483Y0091584*
X0162746Y009201*
X0161925Y009223*
G37*
G36*
X0151925D02*
X0151074D01*
X0150253Y009201*
X0149516Y0091584*
X0148915Y0090983*
X0148489Y0090246*
X0148269Y0089425*
Y0088574*
X0148489Y0087753*
X0148915Y0087016*
X0149516Y0086415*
X0150253Y0085989*
X0151074Y0085769*
X0151925*
X0152746Y0085989*
X0153483Y0086415*
X0154084Y0087016*
X015451Y0087753*
X015473Y0088574*
Y0089425*
X015451Y0090246*
X0154084Y0090983*
X0153483Y0091584*
X0152746Y009201*
X0151925Y009223*
G37*
G36*
X0064509Y0104635D02*
X005749D01*
Y0097616*
X0064509*
Y0098577*
X0108318*
X0118269Y0088625*
Y0088574*
X0118489Y0087753*
X0118915Y0087016*
X0119516Y0086415*
X0120253Y0085989*
X0121074Y0085769*
X0121925*
X0122746Y0085989*
X0123483Y0086415*
X0124084Y0087016*
X012451Y0087753*
X012473Y0088574*
Y0089425*
X012451Y0090246*
X0124084Y0090983*
X0123483Y0091584*
X0122746Y009201*
X0121925Y009223*
X0121874*
X0111176Y0102928*
X0110349Y010348*
X0109374Y0103675*
X0064509*
Y0104635*
G37*
G36*
X0111925Y009223D02*
X0111074D01*
X0110253Y009201*
X0109516Y0091584*
X0108915Y0090983*
X0108489Y0090246*
X0108269Y0089425*
Y0088574*
X0108489Y0087753*
X0108915Y0087016*
X0109516Y0086415*
X0110253Y0085989*
X0111074Y0085769*
X0111925*
X0112746Y0085989*
X0113483Y0086415*
X0114084Y0087016*
X011451Y0087753*
X011473Y0088574*
Y0089425*
X011451Y0090246*
X0114084Y0090983*
X0113483Y0091584*
X0112746Y009201*
X0111925Y009223*
G37*
G36*
X009473D02*
X0088269D01*
Y0085769*
X009473*
Y009223*
G37*
G36*
X0019094Y0078799D02*
X0017905D01*
X0016738Y0078567*
X0015639Y0078111*
X001465Y007745*
X0013808Y0076609*
X0013148Y007562*
X0012692Y0074521*
X001246Y0073354*
Y0072165*
X0012692Y0070998*
X0013148Y0069899*
X0013808Y006891*
X001465Y0068068*
X0015639Y0067407*
X0016738Y0066952*
X0017905Y006672*
X0019094*
X0020261Y0066952*
X002136Y0067407*
X0022349Y0068068*
X0023191Y006891*
X0023852Y0069899*
X0024307Y0070998*
X0024539Y0072165*
Y0073354*
X0024307Y0074521*
X0023852Y007562*
X0023191Y0076609*
X0022349Y007745*
X002136Y0078111*
X0020261Y0078567*
X0019094Y0078799*
G37*
G36*
X0819697Y0056637D02*
X0818656D01*
X0817651Y0056368*
X081675Y0055848*
X0816014Y0055112*
X0815493Y005421*
X0815224Y0053205*
Y0052164*
X0815493Y0051159*
X0816014Y0050258*
X081675Y0049522*
X0817651Y0049001*
X0818656Y0048732*
X0819697*
X0820702Y0049001*
X0821604Y0049522*
X082234Y0050258*
X082286Y0051159*
X0823129Y0052164*
Y0053205*
X082286Y005421*
X082234Y0055112*
X0821604Y0055848*
X0820702Y0056368*
X0819697Y0056637*
G37*
G36*
X0809855D02*
X0808814D01*
X0807808Y0056368*
X0806907Y0055848*
X0806171Y0055112*
X0805651Y005421*
X0805381Y0053205*
Y0052164*
X0805651Y0051159*
X0806171Y0050258*
X0806907Y0049522*
X0807808Y0049001*
X0808814Y0048732*
X0809855*
X081086Y0049001*
X0811761Y0049522*
X0812497Y0050258*
X0813018Y0051159*
X0813287Y0052164*
Y0053205*
X0813018Y005421*
X0812497Y0055112*
X0811761Y0055848*
X081086Y0056368*
X0809855Y0056637*
G37*
G36*
X0690197D02*
X0689156D01*
X0688151Y0056368*
X068725Y0055848*
X0686514Y0055112*
X0685993Y005421*
X0685724Y0053205*
Y0052164*
X0685993Y0051159*
X0686514Y0050258*
X068725Y0049522*
X0688151Y0049001*
X0689156Y0048732*
X0690197*
X0691202Y0049001*
X0692104Y0049522*
X069284Y0050258*
X069336Y0051159*
X0693629Y0052164*
Y0053205*
X069336Y005421*
X069284Y0055112*
X0692104Y0055848*
X0691202Y0056368*
X0690197Y0056637*
G37*
G36*
X0680355D02*
X0679314D01*
X0678308Y0056368*
X0677407Y0055848*
X0676671Y0055112*
X0676151Y005421*
X0675881Y0053205*
Y0052164*
X0676151Y0051159*
X0676671Y0050258*
X0677407Y0049522*
X0678308Y0049001*
X0679314Y0048732*
X0680355*
X068136Y0049001*
X0682261Y0049522*
X0682997Y0050258*
X0683518Y0051159*
X0683787Y0052164*
Y0053205*
X0683518Y005421*
X0682997Y0055112*
X0682261Y0055848*
X068136Y0056368*
X0680355Y0056637*
G37*
G36*
X0614197D02*
X0613156D01*
X0612151Y0056368*
X061125Y0055848*
X0610514Y0055112*
X0609993Y005421*
X0609724Y0053205*
Y0052164*
X0609993Y0051159*
X0610514Y0050258*
X061125Y0049522*
X0612151Y0049001*
X0613156Y0048732*
X0614197*
X0615202Y0049001*
X0616104Y0049522*
X061684Y0050258*
X061736Y0051159*
X0617629Y0052164*
Y0053205*
X061736Y005421*
X061684Y0055112*
X0616104Y0055848*
X0615202Y0056368*
X0614197Y0056637*
G37*
G36*
X0604355D02*
X0603314D01*
X0602308Y0056368*
X0601407Y0055848*
X0600671Y0055112*
X0600151Y005421*
X0599881Y0053205*
Y0052164*
X0600151Y0051159*
X0600671Y0050258*
X0601407Y0049522*
X0602308Y0049001*
X0603314Y0048732*
X0604355*
X060536Y0049001*
X0606261Y0049522*
X0606997Y0050258*
X0607518Y0051159*
X0607787Y0052164*
Y0053205*
X0607518Y005421*
X0606997Y0055112*
X0606261Y0055848*
X060536Y0056368*
X0604355Y0056637*
G37*
G36*
X0484697D02*
X0483656D01*
X0482651Y0056368*
X048175Y0055848*
X0481014Y0055112*
X0480493Y005421*
X0480224Y0053205*
Y0052164*
X0480493Y0051159*
X0481014Y0050258*
X048175Y0049522*
X0482651Y0049001*
X0483656Y0048732*
X0484697*
X0485702Y0049001*
X0486604Y0049522*
X048734Y0050258*
X048786Y0051159*
X0488129Y0052164*
Y0053205*
X048786Y005421*
X048734Y0055112*
X0486604Y0055848*
X0485702Y0056368*
X0484697Y0056637*
G37*
G36*
X0474855D02*
X0473814D01*
X0472808Y0056368*
X0471907Y0055848*
X0471171Y0055112*
X0470651Y005421*
X0470381Y0053205*
Y0052164*
X0470651Y0051159*
X0471171Y0050258*
X0471907Y0049522*
X0472808Y0049001*
X0473814Y0048732*
X0474855*
X047586Y0049001*
X0476761Y0049522*
X0477497Y0050258*
X0478018Y0051159*
X0478287Y0052164*
Y0053205*
X0478018Y005421*
X0477497Y0055112*
X0476761Y0055848*
X047586Y0056368*
X0474855Y0056637*
G37*
G36*
X0408697D02*
X0407656D01*
X0406651Y0056368*
X040575Y0055848*
X0405014Y0055112*
X0404493Y005421*
X0404224Y0053205*
Y0052164*
X0404493Y0051159*
X0405014Y0050258*
X040575Y0049522*
X0406651Y0049001*
X0407656Y0048732*
X0408697*
X0409702Y0049001*
X0410604Y0049522*
X041134Y0050258*
X041186Y0051159*
X0412129Y0052164*
Y0053205*
X041186Y005421*
X041134Y0055112*
X0410604Y0055848*
X0409702Y0056368*
X0408697Y0056637*
G37*
G36*
X0398855D02*
X0397814D01*
X0396808Y0056368*
X0395907Y0055848*
X0395171Y0055112*
X0394651Y005421*
X0394381Y0053205*
Y0052164*
X0394651Y0051159*
X0395171Y0050258*
X0395907Y0049522*
X0396808Y0049001*
X0397814Y0048732*
X0398855*
X039986Y0049001*
X0400761Y0049522*
X0401497Y0050258*
X0402018Y0051159*
X0402287Y0052164*
Y0053205*
X0402018Y005421*
X0401497Y0055112*
X0400761Y0055848*
X039986Y0056368*
X0398855Y0056637*
G37*
G36*
X0279197D02*
X0278156D01*
X0277151Y0056368*
X027625Y0055848*
X0275514Y0055112*
X0274993Y005421*
X0274724Y0053205*
Y0052164*
X0274993Y0051159*
X0275514Y0050258*
X027625Y0049522*
X0277151Y0049001*
X0278156Y0048732*
X0279197*
X0280202Y0049001*
X0281104Y0049522*
X028184Y0050258*
X028236Y0051159*
X0282629Y0052164*
Y0053205*
X028236Y005421*
X028184Y0055112*
X0281104Y0055848*
X0280202Y0056368*
X0279197Y0056637*
G37*
G36*
X0269355D02*
X0268314D01*
X0267308Y0056368*
X0266407Y0055848*
X0265671Y0055112*
X0265151Y005421*
X0264881Y0053205*
Y0052164*
X0265151Y0051159*
X0265671Y0050258*
X0266407Y0049522*
X0267308Y0049001*
X0268314Y0048732*
X0269355*
X027036Y0049001*
X0271261Y0049522*
X0271997Y0050258*
X0272518Y0051159*
X0272787Y0052164*
Y0053205*
X0272518Y005421*
X0271997Y0055112*
X0271261Y0055848*
X027036Y0056368*
X0269355Y0056637*
G37*
G36*
X0203197D02*
X0202156D01*
X0201151Y0056368*
X020025Y0055848*
X0199514Y0055112*
X0198993Y005421*
X0198724Y0053205*
Y0052164*
X0198993Y0051159*
X0199514Y0050258*
X020025Y0049522*
X0201151Y0049001*
X0202156Y0048732*
X0203197*
X0204202Y0049001*
X0205104Y0049522*
X020584Y0050258*
X020636Y0051159*
X0206629Y0052164*
Y0053205*
X020636Y005421*
X020584Y0055112*
X0205104Y0055848*
X0204202Y0056368*
X0203197Y0056637*
G37*
G36*
X0193355D02*
X0192314D01*
X0191308Y0056368*
X0190407Y0055848*
X0189671Y0055112*
X0189151Y005421*
X0188881Y0053205*
Y0052164*
X0189151Y0051159*
X0189671Y0050258*
X0190407Y0049522*
X0191308Y0049001*
X0192314Y0048732*
X0193355*
X019436Y0049001*
X0195261Y0049522*
X0195997Y0050258*
X0196518Y0051159*
X0196787Y0052164*
Y0053205*
X0196518Y005421*
X0195997Y0055112*
X0195261Y0055848*
X019436Y0056368*
X0193355Y0056637*
G37*
G36*
X0073697D02*
X0072656D01*
X0071651Y0056368*
X007075Y0055848*
X0070014Y0055112*
X0069493Y005421*
X0069224Y0053205*
Y0052164*
X0069493Y0051159*
X0070014Y0050258*
X007075Y0049522*
X0071651Y0049001*
X0072656Y0048732*
X0073697*
X0074702Y0049001*
X0075604Y0049522*
X007634Y0050258*
X007686Y0051159*
X0077129Y0052164*
Y0053205*
X007686Y005421*
X007634Y0055112*
X0075604Y0055848*
X0074702Y0056368*
X0073697Y0056637*
G37*
G36*
X0063855D02*
X0062814D01*
X0061808Y0056368*
X0060907Y0055848*
X0060171Y0055112*
X0059651Y005421*
X0059381Y0053205*
Y0052164*
X0059651Y0051159*
X0060171Y0050258*
X0060907Y0049522*
X0061808Y0049001*
X0062814Y0048732*
X0063855*
X006486Y0049001*
X0065761Y0049522*
X0066497Y0050258*
X0067018Y0051159*
X0067287Y0052164*
Y0053205*
X0067018Y005421*
X0066497Y0055112*
X0065761Y0055848*
X006486Y0056368*
X0063855Y0056637*
G37*
G36*
X0748533Y00586D02*
X074708D01*
X0745677Y0058224*
X0744418Y0057497*
X0743391Y005647*
X0742665Y0055212*
X0742289Y0053808*
Y0052355*
X0742665Y0050952*
X0743391Y0049694*
X0744418Y0048667*
X0745677Y004794*
X074708Y0047564*
X0748533*
X0749936Y004794*
X0751194Y0048667*
X0752222Y0049694*
X0752948Y0050952*
X0753324Y0052355*
Y0053808*
X0752948Y0055212*
X0752222Y005647*
X0751194Y0057497*
X0749936Y0058224*
X0748533Y00586*
G37*
G36*
X0543033D02*
X054158D01*
X0540177Y0058224*
X0538918Y0057497*
X0537891Y005647*
X0537165Y0055212*
X0536789Y0053808*
Y0052355*
X0537165Y0050952*
X0537891Y0049694*
X0538918Y0048667*
X0540177Y004794*
X054158Y0047564*
X0543033*
X0544436Y004794*
X0545694Y0048667*
X0546722Y0049694*
X0547448Y0050952*
X0547824Y0052355*
Y0053808*
X0547448Y0055212*
X0546722Y005647*
X0545694Y0057497*
X0544436Y0058224*
X0543033Y00586*
G37*
G36*
X0337533D02*
X033608D01*
X0334676Y0058224*
X0333418Y0057497*
X0332391Y005647*
X0331665Y0055212*
X0331289Y0053808*
Y0052355*
X0331665Y0050952*
X0332391Y0049694*
X0333418Y0048667*
X0334676Y004794*
X033608Y0047564*
X0337533*
X0338936Y004794*
X0340194Y0048667*
X0341222Y0049694*
X0341948Y0050952*
X0342324Y0052355*
Y0053808*
X0341948Y0055212*
X0341222Y005647*
X0340194Y0057497*
X0338936Y0058224*
X0337533Y00586*
G37*
G36*
X0132033D02*
X013058D01*
X0129177Y0058224*
X0127918Y0057497*
X0126891Y005647*
X0126165Y0055212*
X0125789Y0053808*
Y0052355*
X0126165Y0050952*
X0126891Y0049694*
X0127918Y0048667*
X0129177Y004794*
X013058Y0047564*
X0132033*
X0133436Y004794*
X0134694Y0048667*
X0135722Y0049694*
X0136448Y0050952*
X0136824Y0052355*
Y0053808*
X0136448Y0055212*
X0135722Y005647*
X0134694Y0057497*
X0133436Y0058224*
X0132033Y00586*
G37*
G36*
X0754522Y0044042D02*
X0753689D01*
X0752884Y0043827*
X0752162Y004341*
X0751573Y0042821*
X0751156Y0042099*
X075094Y0041294*
Y004046*
X0751156Y0039655*
X0751573Y0038934*
X0752162Y0038344*
X0752884Y0037927*
X0753689Y0037712*
X0754522*
X0755327Y0037927*
X0756049Y0038344*
X0756638Y0038934*
X0757055Y0039655*
X0757271Y004046*
Y0041294*
X0757055Y0042099*
X0756638Y0042821*
X0756049Y004341*
X0755327Y0043827*
X0754522Y0044042*
G37*
G36*
X0549022D02*
X0548189D01*
X0547384Y0043827*
X0546662Y004341*
X0546073Y0042821*
X0545656Y0042099*
X054544Y0041294*
Y004046*
X0545656Y0039655*
X0546073Y0038934*
X0546662Y0038344*
X0547384Y0037927*
X0548189Y0037712*
X0549022*
X0549827Y0037927*
X0550549Y0038344*
X0551138Y0038934*
X0551555Y0039655*
X0551771Y004046*
Y0041294*
X0551555Y0042099*
X0551138Y0042821*
X0550549Y004341*
X0549827Y0043827*
X0549022Y0044042*
G37*
G36*
X0343522D02*
X0342689D01*
X0341884Y0043827*
X0341162Y004341*
X0340573Y0042821*
X0340156Y0042099*
X033994Y0041294*
Y004046*
X0340156Y0039655*
X0340573Y0038934*
X0341162Y0038344*
X0341884Y0037927*
X0342689Y0037712*
X0343522*
X0344327Y0037927*
X0345049Y0038344*
X0345638Y0038934*
X0346055Y0039655*
X0346271Y004046*
Y0041294*
X0346055Y0042099*
X0345638Y0042821*
X0345049Y004341*
X0344327Y0043827*
X0343522Y0044042*
G37*
G36*
X0138022D02*
X0137189D01*
X0136384Y0043827*
X0135662Y004341*
X0135073Y0042821*
X0134656Y0042099*
X013444Y0041294*
Y004046*
X0134656Y0039655*
X0135073Y0038934*
X0135662Y0038344*
X0136384Y0037927*
X0137189Y0037712*
X0138022*
X0138827Y0037927*
X0139549Y0038344*
X0140138Y0038934*
X0140555Y0039655*
X0140771Y004046*
Y0041294*
X0140555Y0042099*
X0140138Y0042821*
X0139549Y004341*
X0138827Y0043827*
X0138022Y0044042*
G37*
G36*
X0769005Y0046395D02*
X0767552D01*
X0766149Y0046019*
X0764891Y0045292*
X0763863Y0044265*
X0763137Y0043007*
X0762761Y0041604*
Y0040151*
X0763137Y0038747*
X0763863Y0037489*
X0764891Y0036462*
X0766149Y0035735*
X0767552Y0035359*
X0769005*
X0770408Y0035735*
X0771667Y0036462*
X0772694Y0037489*
X077342Y0038747*
X0773796Y0040151*
Y0041604*
X077342Y0043007*
X0772694Y0044265*
X0771667Y0045292*
X0770408Y0046019*
X0769005Y0046395*
G37*
G36*
X0563505D02*
X0562052D01*
X0560649Y0046019*
X0559391Y0045292*
X0558363Y0044265*
X0557637Y0043007*
X0557261Y0041604*
Y0040151*
X0557637Y0038747*
X0558363Y0037489*
X0559391Y0036462*
X0560649Y0035735*
X0562052Y0035359*
X0563505*
X0564908Y0035735*
X0566167Y0036462*
X0567194Y0037489*
X056792Y0038747*
X0568296Y0040151*
Y0041604*
X056792Y0043007*
X0567194Y0044265*
X0566167Y0045292*
X0564908Y0046019*
X0563505Y0046395*
G37*
G36*
X0358005D02*
X0356552D01*
X0355149Y0046019*
X0353891Y0045292*
X0352863Y0044265*
X0352137Y0043007*
X0351761Y0041604*
Y0040151*
X0352137Y0038747*
X0352863Y0037489*
X0353891Y0036462*
X0355149Y0035735*
X0356552Y0035359*
X0358005*
X0359408Y0035735*
X0360667Y0036462*
X0361694Y0037489*
X036242Y0038747*
X0362796Y0040151*
Y0041604*
X036242Y0043007*
X0361694Y0044265*
X0360667Y0045292*
X0359408Y0046019*
X0358005Y0046395*
G37*
G36*
X0152505D02*
X0151052D01*
X0149649Y0046019*
X0148391Y0045292*
X0147363Y0044265*
X0146637Y0043007*
X0146261Y0041604*
Y0040151*
X0146637Y0038747*
X0147363Y0037489*
X0148391Y0036462*
X0149649Y0035735*
X0151052Y0035359*
X0152505*
X0153908Y0035735*
X0155167Y0036462*
X0156194Y0037489*
X015692Y0038747*
X0157296Y0040151*
Y0041604*
X015692Y0043007*
X0156194Y0044265*
X0155167Y0045292*
X0153908Y0046019*
X0152505Y0046395*
G37*
G36*
X0754522Y0024357D02*
X0753689D01*
X0752884Y0024142*
X0752162Y0023725*
X0751573Y0023136*
X0751156Y0022414*
X075094Y0021609*
Y0020775*
X0751156Y001997*
X0751573Y0019249*
X0752162Y0018659*
X0752884Y0018242*
X0753689Y0018027*
X0754522*
X0755327Y0018242*
X0756049Y0018659*
X0756638Y0019249*
X0757055Y001997*
X0757271Y0020775*
Y0021609*
X0757055Y0022414*
X0756638Y0023136*
X0756049Y0023725*
X0755327Y0024142*
X0754522Y0024357*
G37*
G36*
X0549022D02*
X0548189D01*
X0547384Y0024142*
X0546662Y0023725*
X0546073Y0023136*
X0545656Y0022414*
X054544Y0021609*
Y0020775*
X0545656Y001997*
X0546073Y0019249*
X0546662Y0018659*
X0547384Y0018242*
X0548189Y0018027*
X0549022*
X0549827Y0018242*
X0550549Y0018659*
X0551138Y0019249*
X0551555Y001997*
X0551771Y0020775*
Y0021609*
X0551555Y0022414*
X0551138Y0023136*
X0550549Y0023725*
X0549827Y0024142*
X0549022Y0024357*
G37*
G36*
X0343522D02*
X0342689D01*
X0341884Y0024142*
X0341162Y0023725*
X0340573Y0023136*
X0340156Y0022414*
X033994Y0021609*
Y0020775*
X0340156Y001997*
X0340573Y0019249*
X0341162Y0018659*
X0341884Y0018242*
X0342689Y0018027*
X0343522*
X0344327Y0018242*
X0345049Y0018659*
X0345638Y0019249*
X0346055Y001997*
X0346271Y0020775*
Y0021609*
X0346055Y0022414*
X0345638Y0023136*
X0345049Y0023725*
X0344327Y0024142*
X0343522Y0024357*
G37*
G36*
X0138022D02*
X0137189D01*
X0136384Y0024142*
X0135662Y0023725*
X0135073Y0023136*
X0134656Y0022414*
X013444Y0021609*
Y0020775*
X0134656Y001997*
X0135073Y0019249*
X0135662Y0018659*
X0136384Y0018242*
X0137189Y0018027*
X0138022*
X0138827Y0018242*
X0139549Y0018659*
X0140138Y0019249*
X0140555Y001997*
X0140771Y0020775*
Y0021609*
X0140555Y0022414*
X0140138Y0023136*
X0139549Y0023725*
X0138827Y0024142*
X0138022Y0024357*
G37*
G36*
X0013386Y00215D02*
X0011613D01*
X0009874Y0021154*
X0008236Y0020475*
X0006762Y001949*
X0005509Y0018237*
X0004524Y0016763*
X0003845Y0015125*
X00035Y0013386*
Y0011613*
X0003845Y0009874*
X0004524Y0008236*
X0005509Y0006762*
X0006762Y0005509*
X0008236Y0004524*
X0009874Y0003845*
X0011613Y00035*
X0013386*
X0015125Y0003845*
X0016763Y0004524*
X0018237Y0005509*
X001949Y0006762*
X0020475Y0008236*
X0021154Y0009874*
X00215Y0011613*
Y0013386*
X0021154Y0015125*
X0020475Y0016763*
X001949Y0018237*
X0018237Y001949*
X0016763Y0020475*
X0015125Y0021154*
X0013386Y00215*
G37*
%LNamp_8ch-3*%
%LPD*%
G54D39*
X0725874Y0101126D02*
X0738Y0089D01*
X06775Y0101126D02*
X0725874D01*
X0770126D02*
X0827D01*
X0758Y0089D02*
X0770126Y0101126D01*
X0520374D02*
X05325Y0089D01*
X0472Y0101126D02*
X0520374D01*
X0564626D02*
X06215D01*
X05525Y0089D02*
X0564626Y0101126D01*
X0314874D02*
X0327Y0089D01*
X02665Y0101126D02*
X0314874D01*
X0359126D02*
X0416D01*
X0347Y0089D02*
X0359126Y0101126D01*
X0109374D02*
X01215Y0089D01*
X0061Y0101126D02*
X0109374D01*
X01415Y0089D02*
X0153626Y0101126D01*
X02105*
G54D40*
X0843Y0151D03*
X00125D03*
Y00125D03*
G54D41*
X0754105Y0040877D03*
Y0021192D03*
X0548605Y0040877D03*
Y0021192D03*
X0343105Y0040877D03*
Y0021192D03*
X0137605Y0040877D03*
Y0021192D03*
G54D42*
X0771822Y0021192D03*
X0747806Y0053082D03*
X0768279Y0040877D03*
X0566322Y0021192D03*
X0542306Y0053082D03*
X0562779Y0040877D03*
X0360822Y0021192D03*
X0336806Y0053082D03*
X0357279Y0040877D03*
X0155322Y0021192D03*
X0131306Y0053082D03*
X0151779Y0040877D03*
G54D43*
X0735208Y0021192D03*
X0529708D03*
X0324208D03*
X0118708D03*
G54D44*
X00185Y0093035D03*
G54D45*
X00185Y0081224D03*
G54D46*
X00185Y01015D03*
Y0072759D03*
G54D47*
X0699519Y0052685D03*
X0689677D03*
X0679834D03*
X0829019D03*
X0819177D03*
X0809334D03*
X0494019D03*
X0484177D03*
X0474334D03*
X0623519D03*
X0613677D03*
X0603834D03*
X0288519D03*
X0278677D03*
X0268834D03*
X0418019D03*
X0408177D03*
X0398334D03*
X0083019D03*
X0073177D03*
X0063334D03*
X0212519D03*
X0202677D03*
X0192834D03*
G54D48*
X0707Y0025126D03*
X0672354D03*
X08365D03*
X0801854D03*
X05015D03*
X0466854D03*
X0631D03*
X0596354D03*
X0296D03*
X0261354D03*
X04255D03*
X0390854D03*
X00905D03*
X0055854D03*
X022D03*
X0185354D03*
G54D49*
X0708Y0089D03*
X05025D03*
X0297D03*
X00915D03*
G54D50*
X0718Y0089D03*
X0728D03*
X0738D03*
X0748D03*
X0758D03*
X0768D03*
X0778D03*
X0788D03*
X0798D03*
Y0119D03*
X0788D03*
X0778D03*
X0768D03*
X0758D03*
X0748D03*
X0738D03*
X0728D03*
X0718D03*
X0708D03*
X05125Y0089D03*
X05225D03*
X05325D03*
X05425D03*
X05525D03*
X05625D03*
X05725D03*
X05825D03*
X05925D03*
Y0119D03*
X05825D03*
X05725D03*
X05625D03*
X05525D03*
X05425D03*
X05325D03*
X05225D03*
X05125D03*
X05025D03*
X0307Y0089D03*
X0317D03*
X0327D03*
X0337D03*
X0347D03*
X0357D03*
X0367D03*
X0377D03*
X0387D03*
Y0119D03*
X0377D03*
X0367D03*
X0357D03*
X0347D03*
X0337D03*
X0327D03*
X0317D03*
X0307D03*
X0297D03*
X01015Y0089D03*
X01115D03*
X01215D03*
X01315D03*
X01415D03*
X01515D03*
X01615D03*
X01715D03*
X01815D03*
Y0119D03*
X01715D03*
X01615D03*
X01515D03*
X01415D03*
X01315D03*
X01215D03*
X01115D03*
X01015D03*
X00915D03*
G54D51*
X06775Y0101126D03*
X0827D03*
X0472D03*
X06215D03*
X02665D03*
X0416D03*
X0061D03*
X02105D03*
G54D52*
X06775Y0120811D03*
X0827D03*
X0472D03*
X06215D03*
X02665D03*
X0416D03*
X0061D03*
X02105D03*
G54D53*
X0718Y0141D03*
X0737685D03*
X07675D03*
X0787185D03*
X05125D03*
X0532185D03*
X0562D03*
X0581685D03*
X0307D03*
X0326685D03*
X03565D03*
X0376185D03*
X01015D03*
X0121185D03*
X0151D03*
X0170685D03*
G54D54*
X0104Y00605D03*
M02*