%FSTAX25Y25*%
%MOIN*%
%SFA1B1*%

%IPPOS*%
%ADD13C,0.010000*%
%ADD14R,0.045276X0.106299*%
%ADD15R,0.039764X0.071653*%
%ADD16R,0.059055X0.043307*%
%ADD17R,0.035433X0.037402*%
%ADD18R,0.070866X0.041339*%
%ADD39C,0.030000*%
%ADD40C,0.160000*%
%ADD41C,0.021654*%
%ADD42C,0.090354*%
%ADD43R,0.090354X0.090354*%
%ADD44R,0.046063X0.046063*%
%ADD45C,0.046063*%
%ADD46C,0.100787*%
%ADD47C,0.059055*%
%ADD48C,0.167716*%
%ADD49R,0.044606X0.044606*%
%ADD50C,0.044606*%
%ADD51R,0.050197X0.050197*%
%ADD52C,0.050197*%
%ADD53C,0.076772*%
%ADD54C,0.050000*%
%LNamp_8ch-1*%
%LPD*%
G36*
X0854Y0001D02*
X0001D01*
Y008548*
X0076347*
X007683Y008544*
Y008498*
Y0074973*
X0072095Y0070238*
X0071764Y0069742*
X0071647Y0069157*
Y0056366*
X007075Y0055848*
X0070014Y0055112*
X0069493Y005421*
X0069224Y0053205*
Y0052164*
X0069493Y0051159*
X0070014Y0050258*
X007075Y0049522*
X0071651Y0049001*
X0072656Y0048732*
X0073697*
X0074702Y0049001*
X0075604Y0049522*
X007634Y0050258*
X007686Y0051159*
X0077129Y0052164*
Y0053205*
X007686Y005421*
X007634Y0055112*
X0075604Y0055848*
X0074706Y0056366*
Y0068524*
X0078993Y0072811*
X0083358*
Y008498*
Y008544*
X0083841Y008548*
X0088158*
X0088278Y008547*
X0088641Y0085044*
Y0072811*
X0095169*
Y0085305*
X0095634Y0085478*
X0095652Y008548*
X0098778*
X0099168Y0085558*
X0099499Y0085779*
X009972Y0086109*
X009972*
X0099911Y0086571*
Y0086571*
X0099989Y0086961*
X0099911Y0087352*
X0099801Y0087517*
X0099798Y0087526*
X0099439Y0088146*
X0099289Y0088709*
Y0089291*
X0099439Y0089853*
X0099731Y0090357*
X0100142Y0090769*
X0100646Y009106*
X0101209Y009121*
X0101791*
X0102353Y009106*
X0102857Y0090769*
X0103269Y0090357*
X010356Y0089853*
X010371Y0089291*
Y0088709*
X010356Y0088146*
X0103201Y0087526*
X0103199Y0087517*
X0103088Y0087352*
X010301Y0086961*
X0103088Y0086571*
X0103279Y0086109*
X01035Y0085779*
X0103831Y0085558*
X0104221Y008548*
X0107821*
X0108208Y0085208*
Y0076098*
X0108208Y0076043*
X0108075Y0075598*
X0106956*
Y0069464*
X0116027*
Y006946*
X0123933*
Y0075791*
X0116027*
Y0075598*
X0114318*
X0114185Y0076043*
X0114185Y0076098*
Y0085002*
X0114201Y008522*
X0114572Y008548*
X0118778*
X0119168Y0085558*
X0119499Y0085779*
X011972Y0086109*
X012021Y0086014*
X0120253Y0085989*
X0121074Y0085769*
X0121925*
X0122746Y0085989*
X0122789Y0086014*
X0123279Y0086109*
X01235Y0085779*
X0123831Y0085558*
X0124221Y008548*
X0128778*
X0129168Y0085558*
X0129499Y0085779*
X012972Y0086109*
X0129911Y0086571*
Y0086571*
X0129989Y0086961*
X0129911Y0087352*
X0129801Y0087517*
X0129798Y0087526*
X0129439Y0088146*
X0129289Y0088709*
Y0089291*
X0129439Y0089853*
X0129731Y0090357*
X0130142Y0090769*
X0130646Y009106*
X0131209Y009121*
X0131791*
X0132353Y009106*
X0132857Y0090769*
X0133269Y0090357*
X013356Y0089853*
X013371Y0089291*
Y0088709*
X013356Y0088146*
X0133201Y0087526*
X0133199Y0087517*
X0133088Y0087352*
X013301Y0086961*
X0133088Y0086571*
X0133279Y0086109*
X01335Y0085779*
X0133831Y0085558*
X0134221Y008548*
X0138778*
X0139168Y0085558*
X0139499Y0085779*
X013972Y0086109*
X014021Y0086014*
X0140253Y0085989*
X0141074Y0085769*
X0141925*
X0142746Y0085989*
X0142789Y0086014*
X0143279Y0086109*
X01435Y0085779*
X0143831Y0085558*
X0144221Y008548*
X0148775*
Y0080255*
X015349*
Y0075791*
X0151066*
Y006946*
X0158972*
Y0075791*
X0156549*
Y0079961*
X0156844Y0080255*
X0160224*
Y0083833*
X0161919Y0085528*
X0162114Y008582*
X0162746Y0085989*
X0162789Y0086014*
X0163279Y0086109*
X01635Y0085779*
X0163831Y0085558*
X0164221Y008548*
X0167847*
X0167859Y0085479*
X016833Y0085318*
Y0072811*
X0174858*
Y008544*
X0175341Y008548*
X0178778*
X0179168Y0085558*
X0179499Y0085779*
X017972Y0086109*
X0179911Y0086571*
Y0086571*
X0179989Y0086961*
X0179911Y0087352*
X0179801Y0087517*
X0179798Y0087526*
X0179439Y0088146*
X0179289Y0088709*
Y0089291*
X0179439Y0089853*
X0179731Y0090357*
X0180142Y0090769*
X0180646Y009106*
X0181209Y009121*
X0181791*
X0182353Y009106*
X0182857Y0090769*
X0183269Y0090357*
X018356Y0089853*
X018371Y0089291*
Y0088709*
X018356Y0088146*
X0183201Y0087526*
X0183199Y0087517*
X0183088Y0087352*
X018301Y0086961*
X0183088Y0086571*
X0183279Y0086109*
X0183392Y008594*
X0183178Y0085448*
X0183171Y008544*
X0180141*
Y0072811*
X0184506*
X0200694Y0056623*
X0200642Y0056074*
X020025Y0055848*
X0199514Y0055112*
X0198993Y005421*
X0198724Y0053205*
Y0052164*
X0198993Y0051159*
X0199514Y0050258*
X020025Y0049522*
X0201151Y0049001*
X0202156Y0048732*
X0203197*
X0204202Y0049001*
X0205104Y0049522*
X020584Y0050258*
X020636Y0051159*
X0206629Y0052164*
Y0053205*
X020636Y005421*
X020584Y0055112*
X0205104Y0055848*
X0204202Y0056368*
X0203871Y0056457*
Y0057137*
X0203755Y0057723*
X0203423Y0058219*
X0186669Y0074973*
Y008498*
Y008544*
X0187153Y008548*
X0281847*
X028233Y008544*
Y008498*
Y0074973*
X0277595Y0070238*
X0277264Y0069742*
X0277147Y0069157*
Y0056366*
X027625Y0055848*
X0275514Y0055112*
X0274993Y005421*
X0274724Y0053205*
Y0052164*
X0274993Y0051159*
X0275514Y0050258*
X027625Y0049522*
X0277151Y0049001*
X0278156Y0048732*
X0279197*
X0280202Y0049001*
X0281104Y0049522*
X028184Y0050258*
X028236Y0051159*
X0282629Y0052164*
Y0053205*
X028236Y005421*
X028184Y0055112*
X0281104Y0055848*
X0280206Y0056366*
Y0068524*
X0284493Y0072811*
X0288858*
Y008498*
Y008544*
X0289341Y008548*
X0293658*
X0293778Y008547*
X0294141Y0085044*
Y0072811*
X0300669*
Y0085305*
X0301134Y0085478*
X0301153Y008548*
X0304278*
X0304668Y0085558*
X0304999Y0085779*
X030522Y0086109*
X0305411Y0086571*
Y0086571*
X0305489Y0086961*
X0305411Y0087352*
X0305301Y0087517*
X0305298Y0087526*
X0304939Y0088146*
X0304789Y0088709*
Y0089291*
X0304939Y0089853*
X0305231Y0090357*
X0305642Y0090769*
X0306146Y009106*
X0306709Y009121*
X0307291*
X0307853Y009106*
X0308357Y0090769*
X0308769Y0090357*
X030906Y0089853*
X030921Y0089291*
Y0088709*
X030906Y0088146*
X0308701Y0087526*
X0308699Y0087517*
X0308588Y0087352*
X030851Y0086961*
X0308588Y0086571*
X0308779Y0086109*
X0309Y0085779*
X0309331Y0085558*
X0309721Y008548*
X0313321*
X0313708Y0085208*
Y0076098*
X0313708Y0076043*
X0313575Y0075598*
X0312456*
Y0069464*
X0321527*
Y006946*
X0329433*
Y0075791*
X0321527*
Y0075598*
X0319818*
X0319685Y0076043*
X0319685Y0076098*
Y0085002*
X0319701Y008522*
X0320072Y008548*
X0324278*
X0324668Y0085558*
X0324999Y0085779*
X032522Y0086109*
X032571Y0086014*
X0325753Y0085989*
X0326574Y0085769*
X0327425*
X0328246Y0085989*
X0328289Y0086014*
X0328779Y0086109*
X0329Y0085779*
X0329331Y0085558*
X0329721Y008548*
X0334278*
X0334668Y0085558*
X0334999Y0085779*
X033522Y0086109*
X0335411Y0086571*
Y0086571*
X0335489Y0086961*
X0335411Y0087352*
X0335301Y0087517*
X0335298Y0087526*
X0334939Y0088146*
X0334789Y0088709*
Y0089291*
X0334939Y0089853*
X0335231Y0090357*
X0335642Y0090769*
X0336146Y009106*
X0336709Y009121*
X0337291*
X0337853Y009106*
X0338357Y0090769*
X0338769Y0090357*
X033906Y0089853*
X033921Y0089291*
Y0088709*
X033906Y0088146*
X0338701Y0087526*
X0338699Y0087517*
X0338588Y0087352*
X033851Y0086961*
X0338588Y0086571*
X0338779Y0086109*
X0339Y0085779*
X0339331Y0085558*
X0339721Y008548*
X0344278*
X0344668Y0085558*
X0344999Y0085779*
X034522Y0086109*
X034571Y0086014*
X0345753Y0085989*
X0346574Y0085769*
X0347425*
X0348246Y0085989*
X0348289Y0086014*
X0348779Y0086109*
X0349Y0085779*
X0349331Y0085558*
X0349721Y008548*
X0354275*
Y0080255*
X035899*
Y0075791*
X0356566*
Y006946*
X0364472*
Y0075791*
X0362049*
Y0079961*
X0362344Y0080255*
X0365724*
Y0083833*
X0367419Y0085528*
X0367614Y008582*
X0368246Y0085989*
X0368289Y0086014*
X0368779Y0086109*
X0369Y0085779*
X0369331Y0085558*
X0369721Y008548*
X0373347*
X0373359Y0085479*
X037383Y0085318*
Y0072811*
X0380358*
Y008544*
X0380841Y008548*
X0384278*
X0384668Y0085558*
X0384999Y0085779*
X038522Y0086109*
X0385411Y0086571*
Y0086571*
X0385489Y0086961*
X0385411Y0087352*
X0385301Y0087517*
X0385298Y0087526*
X0384939Y0088146*
X0384789Y0088709*
Y0089291*
X0384939Y0089853*
X0385231Y0090357*
X0385642Y0090769*
X0386146Y009106*
X0386709Y009121*
X0387291*
X0387853Y009106*
X0388357Y0090769*
X0388769Y0090357*
X038906Y0089853*
X038921Y0089291*
Y0088709*
X038906Y0088146*
X0388701Y0087526*
X0388699Y0087517*
X0388588Y0087352*
X038851Y0086961*
X0388588Y0086571*
X0388779Y0086109*
X0388892Y008594*
X0388678Y0085448*
X0388671Y008544*
X0385641*
Y0072811*
X0390006*
X0406194Y0056623*
X0406142Y0056074*
X040575Y0055848*
X0405014Y0055112*
X0404493Y005421*
X0404224Y0053205*
Y0052164*
X0404493Y0051159*
X0405014Y0050258*
X040575Y0049522*
X0406651Y0049001*
X0407656Y0048732*
X0408697*
X0409702Y0049001*
X0410604Y0049522*
X041134Y0050258*
X041186Y0051159*
X0412129Y0052164*
Y0053205*
X041186Y005421*
X041134Y0055112*
X0410604Y0055848*
X0409702Y0056368*
X0409371Y0056457*
Y0057137*
X0409255Y0057723*
X0408924Y0058219*
X0392169Y0074973*
Y008498*
Y008544*
X0392653Y008548*
X0487347*
X048783Y008544*
Y008498*
Y0074973*
X0483095Y0070238*
X0482764Y0069742*
X0482647Y0069157*
Y0056366*
X048175Y0055848*
X0481014Y0055112*
X0480493Y005421*
X0480224Y0053205*
Y0052164*
X0480493Y0051159*
X0481014Y0050258*
X048175Y0049522*
X0482651Y0049001*
X0483656Y0048732*
X0484697*
X0485702Y0049001*
X0486604Y0049522*
X048734Y0050258*
X048786Y0051159*
X0488129Y0052164*
Y0053205*
X048786Y005421*
X048734Y0055112*
X0486604Y0055848*
X0485706Y0056366*
Y0068524*
X0489993Y0072811*
X0494358*
Y008498*
Y008544*
X0494841Y008548*
X0499158*
X0499278Y008547*
X0499641Y0085044*
Y0072811*
X0506169*
Y0085305*
X0506634Y0085478*
X0506652Y008548*
X0509778*
X0510168Y0085558*
X0510499Y0085779*
X051072Y0086109*
X051072*
X0510911Y0086571*
Y0086571*
X0510989Y0086961*
X0510911Y0087352*
X0510801Y0087517*
X0510798Y0087526*
X0510439Y0088146*
X0510289Y0088709*
Y0089291*
X0510439Y0089853*
X0510731Y0090357*
X0511142Y0090769*
X0511646Y009106*
X0512209Y009121*
X0512791*
X0513353Y009106*
X0513857Y0090769*
X0514269Y0090357*
X051456Y0089853*
X051471Y0089291*
Y0088709*
X051456Y0088146*
X0514201Y0087526*
X0514199Y0087517*
X0514088Y0087352*
X051401Y0086961*
X0514088Y0086571*
X0514279Y0086109*
X0514279*
X05145Y0085779*
X0514831Y0085558*
X0515221Y008548*
X0518821*
X0519208Y0085208*
Y0076098*
Y0076043*
X0519075Y0075598*
X0517956*
Y0069464*
X0527027*
Y006946*
X0534933*
Y0075791*
X0527027*
Y0075598*
X0525318*
X0525185Y0076043*
Y0076098*
Y0085002*
X0525201Y008522*
X0525572Y008548*
X0529778*
X0530168Y0085558*
X0530499Y0085779*
X053072Y0086109*
X053121Y0086014*
X0531253Y0085989*
X0532074Y0085769*
X0532925*
X0533746Y0085989*
X0533789Y0086014*
X0534279Y0086109*
X05345Y0085779*
X0534831Y0085558*
X0535221Y008548*
X0539778*
X0540168Y0085558*
X0540499Y0085779*
X054072Y0086109*
X054072*
X0540911Y0086571*
Y0086571*
X0540989Y0086961*
X0540911Y0087352*
X0540801Y0087517*
X0540798Y0087526*
X0540439Y0088146*
X0540289Y0088709*
Y0089291*
X0540439Y0089853*
X0540731Y0090357*
X0541142Y0090769*
X0541646Y009106*
X0542209Y009121*
X0542791*
X0543353Y009106*
X0543857Y0090769*
X0544269Y0090357*
X054456Y0089853*
X054471Y0089291*
Y0088709*
X054456Y0088146*
X0544201Y0087526*
X0544199Y0087517*
X0544088Y0087352*
X054401Y0086961*
X0544088Y0086571*
X0544279Y0086109*
X0544279*
X05445Y0085779*
X0544831Y0085558*
X0545221Y008548*
X0549778*
X0550168Y0085558*
X0550499Y0085779*
X055072Y0086109*
X055121Y0086014*
X0551253Y0085989*
X0552074Y0085769*
X0552925*
X0553746Y0085989*
X0553789Y0086014*
X0554279Y0086109*
X05545Y0085779*
X0554831Y0085558*
X0555221Y008548*
X0559775*
Y0080255*
X056449*
Y0075791*
X0562066*
Y006946*
X0569972*
Y0075791*
X0567549*
Y0079961*
X0567844Y0080255*
X0571224*
Y0083833*
X0572919Y0085528*
X0573114Y008582*
X0573746Y0085989*
X0573789Y0086014*
X0574279Y0086109*
X05745Y0085779*
X0574831Y0085558*
X0575221Y008548*
X0578847*
X0578859Y0085479*
X057933Y0085318*
Y0072811*
X0585858*
Y008544*
X0586341Y008548*
X0589778*
X0590168Y0085558*
X0590499Y0085779*
X059072Y0086109*
X059072*
X0590911Y0086571*
Y0086571*
X0590989Y0086961*
X0590911Y0087352*
X0590801Y0087517*
X0590798Y0087526*
X0590439Y0088146*
X0590289Y0088709*
Y0089291*
X0590439Y0089853*
X0590731Y0090357*
X0591142Y0090769*
X0591646Y009106*
X0592209Y009121*
X0592791*
X0593353Y009106*
X0593857Y0090769*
X0594269Y0090357*
X059456Y0089853*
X059471Y0089291*
Y0088709*
X059456Y0088146*
X0594201Y0087526*
X0594199Y0087517*
X0594088Y0087352*
X059401Y0086961*
X0594088Y0086571*
X0594279Y0086109*
X0594279*
X0594392Y008594*
X0594178Y0085448*
X0594171Y008544*
X0591141*
Y0072811*
X0595506*
X0611694Y0056623*
X0611642Y0056074*
X061125Y0055848*
X0610514Y0055112*
X0609993Y005421*
X0609724Y0053205*
Y0052164*
X0609993Y0051159*
X0610514Y0050258*
X061125Y0049522*
X0612151Y0049001*
X0613156Y0048732*
X0614197*
X0615202Y0049001*
X0616104Y0049522*
X061684Y0050258*
X061736Y0051159*
X0617629Y0052164*
Y0053205*
X061736Y005421*
X061684Y0055112*
X0616104Y0055848*
X0615202Y0056368*
X0614871Y0056457*
Y0057137*
X0614755Y0057723*
X0614423Y0058219*
X0597669Y0074973*
Y008498*
Y008544*
X0598152Y008548*
X0692847*
X069333Y008544*
Y008498*
Y0074973*
X0688595Y0070238*
X0688264Y0069742*
X0688147Y0069157*
Y0056366*
X068725Y0055848*
X0686514Y0055112*
X0685993Y005421*
X0685724Y0053205*
Y0052164*
X0685993Y0051159*
X0686514Y0050258*
X068725Y0049522*
X0688151Y0049001*
X0689156Y0048732*
X0690197*
X0691202Y0049001*
X0692104Y0049522*
X069284Y0050258*
X069336Y0051159*
X0693629Y0052164*
Y0053205*
X069336Y005421*
X069284Y0055112*
X0692104Y0055848*
X0691206Y0056366*
Y0068524*
X0695493Y0072811*
X0699858*
Y008498*
Y008544*
X0700341Y008548*
X0704658*
X0704778Y008547*
X0705141Y0085044*
Y0072811*
X0711669*
Y0085305*
X0712134Y0085478*
X0712152Y008548*
X0715278*
X0715668Y0085558*
X0715999Y0085779*
X071622Y0086109*
X071622*
X0716411Y0086571*
Y0086571*
X0716489Y0086961*
X0716411Y0087352*
X0716301Y0087517*
X0716298Y0087526*
X0715939Y0088146*
X0715789Y0088709*
Y0089291*
X0715939Y0089853*
X0716231Y0090357*
X0716642Y0090769*
X0717146Y009106*
X0717709Y009121*
X0718291*
X0718853Y009106*
X0719357Y0090769*
X0719769Y0090357*
X072006Y0089853*
X072021Y0089291*
Y0088709*
X072006Y0088146*
X0719701Y0087526*
X0719699Y0087517*
X0719588Y0087352*
X071951Y0086961*
X0719588Y0086571*
X0719779Y0086109*
X0719779*
X072Y0085779*
X0720331Y0085558*
X0720721Y008548*
X0724321*
X0724708Y0085208*
Y0076098*
Y0076043*
X0724575Y0075598*
X0723456*
Y0069464*
X0732527*
Y006946*
X0740433*
Y0075791*
X0732527*
Y0075598*
X0730818*
X0730685Y0076043*
Y0076098*
Y0085002*
X0730701Y008522*
X0731072Y008548*
X0735278*
X0735668Y0085558*
X0735999Y0085779*
X073622Y0086109*
X073671Y0086014*
X0736753Y0085989*
X0737574Y0085769*
X0738425*
X0739246Y0085989*
X0739289Y0086014*
X0739779Y0086109*
X074Y0085779*
X0740331Y0085558*
X0740721Y008548*
X0745278*
X0745668Y0085558*
X0745999Y0085779*
X074622Y0086109*
X074622*
X0746411Y0086571*
Y0086571*
X0746489Y0086961*
X0746411Y0087352*
X0746301Y0087517*
X0746298Y0087526*
X0745939Y0088146*
X0745789Y0088709*
Y0089291*
X0745939Y0089853*
X0746231Y0090357*
X0746642Y0090769*
X0747146Y009106*
X0747709Y009121*
X0748291*
X0748853Y009106*
X0749357Y0090769*
X0749769Y0090357*
X075006Y0089853*
X075021Y0089291*
Y0088709*
X075006Y0088146*
X0749701Y0087526*
X0749699Y0087517*
X0749588Y0087352*
X074951Y0086961*
X0749588Y0086571*
X0749779Y0086109*
X0749779*
X075Y0085779*
X0750331Y0085558*
X0750721Y008548*
X0755278*
X0755668Y0085558*
X0755999Y0085779*
X075622Y0086109*
X075671Y0086014*
X0756753Y0085989*
X0757574Y0085769*
X0758425*
X0759246Y0085989*
X0759289Y0086014*
X0759779Y0086109*
X076Y0085779*
X0760331Y0085558*
X0760721Y008548*
X0765275*
Y0080255*
X076999*
Y0075791*
X0767566*
Y006946*
X0775472*
Y0075791*
X0773049*
Y0079961*
X0773344Y0080255*
X0776724*
Y0083833*
X0778419Y0085528*
X0778614Y008582*
X0779246Y0085989*
X0779289Y0086014*
X0779779Y0086109*
X078Y0085779*
X0780331Y0085558*
X0780721Y008548*
X0784347*
X0784359Y0085479*
X078483Y0085318*
Y0072811*
X0791358*
Y008544*
X0791841Y008548*
X0795278*
X0795668Y0085558*
X0795999Y0085779*
X079622Y0086109*
X079622*
X0796411Y0086571*
Y0086571*
X0796489Y0086961*
X0796411Y0087352*
X0796301Y0087517*
X0796298Y0087526*
X0795939Y0088146*
X0795789Y0088709*
Y0089291*
X0795939Y0089853*
X0796231Y0090357*
X0796642Y0090769*
X0797146Y009106*
X0797709Y009121*
X0798291*
X0798853Y009106*
X0799357Y0090769*
X0799779Y0090347*
X0799879Y009028*
X0799967Y0090199*
X0800042Y0090171*
X0800109Y0090126*
X0800227Y0090102*
X080034Y0090061*
X0800421Y0090064*
X08005Y0090048*
X0800617Y0090072*
X0800738Y0090076*
X0801238Y0090197*
X0801311Y009023*
X080139Y0090246*
X080149Y0090313*
X0801599Y0090363*
X0801654Y0090422*
X0801721Y0090467*
X0801787Y0090567*
X0801869Y0090655*
X0801897Y0090731*
X0801942Y0090798*
X0801965Y0090916*
X0802007Y0091028*
X0802003Y0091109*
X0802019Y0091188*
Y0116752*
X0801997Y0116862*
X0801995Y0116974*
X0801959Y0117055*
X0801942Y0117143*
X0801879Y0117236*
X0801834Y0117338*
X080177Y01174*
X0801721Y0117473*
X0801627Y0117536*
X0801546Y0117613*
X0801398Y0117707*
X0801241Y0117768*
X0801089Y0117838*
X0800738Y0117923*
X0800617Y0117927*
X08005Y0117951*
X0800421Y0117935*
X080034Y0117938*
X0800227Y0117897*
X0800109Y0117873*
X0800042Y0117828*
X0799967Y0117801*
X0799879Y0117719*
X0799779Y0117652*
X0799357Y0117231*
X0798853Y0116939*
X0798291Y0116789*
X0797709*
X0797146Y0116939*
X0796642Y0117231*
X0796231Y0117642*
X0796019Y0118009*
X0795931Y011811*
X0795856Y0118221*
X0795801Y0118258*
X0795756Y0118308*
X0795637Y0118367*
X0795526Y0118442*
X079546Y0118455*
X0795399Y0118484*
X0795266Y0118493*
X0795136Y0118519*
X0790864*
X0790733Y0118493*
X07906Y0118484*
X0790539Y0118455*
X0790473Y0118442*
X0790363Y0118367*
X0790243Y0118308*
X0790199Y0118258*
X0790143Y0118221*
X0790069Y011811*
X0789981Y0118009*
X0789769Y0117642*
X0789357Y0117231*
X0788853Y0116939*
X0788291Y0116789*
X0787709*
X0787146Y0116939*
X0786642Y0117231*
X0786231Y0117642*
X0786019Y0118009*
X0785931Y011811*
X0785856Y0118221*
X0785801Y0118258*
X0785756Y0118308*
X0785637Y0118367*
X0785526Y0118442*
X078546Y0118455*
X0785399Y0118484*
X0785266Y0118493*
X0785136Y0118519*
X0780864*
X0780733Y0118493*
X07806Y0118484*
X0780539Y0118455*
X0780473Y0118442*
X0780363Y0118367*
X0780243Y0118308*
X0780199Y0118258*
X0780143Y0118221*
X0780069Y011811*
X0779981Y0118009*
X0779769Y0117642*
X0779357Y0117231*
X0778853Y0116939*
X0778291Y0116789*
X0777709*
X0777146Y0116939*
X0776642Y0117231*
X0776231Y0117642*
X0776019Y0118009*
X0775931Y011811*
X0775856Y0118221*
X0775801Y0118258*
X0775756Y0118308*
X0775637Y0118367*
X0775526Y0118442*
X077546Y0118455*
X0775399Y0118484*
X0775266Y0118493*
X0775136Y0118519*
X0770864*
X0770733Y0118493*
X07706Y0118484*
X0770539Y0118455*
X0770473Y0118442*
X0770363Y0118367*
X0770243Y0118308*
X0770199Y0118258*
X0770143Y0118221*
X0770069Y011811*
X0769981Y0118009*
X0769769Y0117642*
X0769357Y0117231*
X0768853Y0116939*
X0768291Y0116789*
X0767709*
X0767146Y0116939*
X0766642Y0117231*
X0766231Y0117642*
X0766019Y0118009*
X0765931Y011811*
X0765856Y0118221*
X0765801Y0118258*
X0765756Y0118308*
X0765637Y0118367*
X0765526Y0118442*
X076546Y0118455*
X0765399Y0118484*
X0765266Y0118493*
X0765136Y0118519*
X0760864*
X0760733Y0118493*
X07606Y0118484*
X0760539Y0118455*
X0760473Y0118442*
X0760363Y0118367*
X0760243Y0118308*
X0760199Y0118258*
X0760143Y0118221*
X0760069Y011811*
X0759981Y0118009*
X0759769Y0117642*
X0759357Y0117231*
X0758853Y0116939*
X0758291Y0116789*
X0757709*
X0757146Y0116939*
X0756642Y0117231*
X0756231Y0117642*
X0756019Y0118009*
X0755931Y011811*
X0755856Y0118221*
X0755801Y0118258*
X0755756Y0118308*
X0755637Y0118367*
X0755526Y0118442*
X075546Y0118455*
X0755399Y0118484*
X0755266Y0118493*
X0755136Y0118519*
X0750864*
X0750733Y0118493*
X07506Y0118484*
X0750539Y0118455*
X0750473Y0118442*
X0750363Y0118367*
X0750243Y0118308*
X0750199Y0118258*
X0750143Y0118221*
X0750069Y011811*
X0749981Y0118009*
X0749769Y0117642*
X0749357Y0117231*
X0748853Y0116939*
X0748291Y0116789*
X0747709*
X0747146Y0116939*
X0746642Y0117231*
X0746231Y0117642*
X0746019Y0118009*
X0745931Y011811*
X0745856Y0118221*
X0745801Y0118258*
X0745756Y0118308*
X0745637Y0118367*
X0745526Y0118442*
X074546Y0118455*
X0745399Y0118484*
X0745266Y0118493*
X0745136Y0118519*
X0740864*
X0740733Y0118493*
X07406Y0118484*
X0740539Y0118455*
X0740473Y0118442*
X0740363Y0118367*
X0740243Y0118308*
X0740199Y0118258*
X0740143Y0118221*
X0740069Y011811*
X0739981Y0118009*
X0739769Y0117642*
X0739357Y0117231*
X0738853Y0116939*
X0738291Y0116789*
X0737709*
X0737146Y0116939*
X0736642Y0117231*
X0736231Y0117642*
X0736019Y0118009*
X0735931Y011811*
X0735856Y0118221*
X0735801Y0118258*
X0735756Y0118308*
X0735637Y0118367*
X0735526Y0118442*
X073546Y0118455*
X0735399Y0118484*
X0735266Y0118493*
X0735136Y0118519*
X0730864*
X0730733Y0118493*
X07306Y0118484*
X0730539Y0118455*
X0730473Y0118442*
X0730363Y0118367*
X0730243Y0118308*
X0730199Y0118258*
X0730143Y0118221*
X0730069Y011811*
X0729981Y0118009*
X0729769Y0117642*
X0729357Y0117231*
X0728853Y0116939*
X0728291Y0116789*
X0727709*
X0727146Y0116939*
X0726642Y0117231*
X0726231Y0117642*
X0726019Y0118009*
X0725931Y011811*
X0725856Y0118221*
X0725801Y0118258*
X0725756Y0118308*
X0725637Y0118367*
X0725526Y0118442*
X072546Y0118455*
X0725399Y0118484*
X0725266Y0118493*
X0725136Y0118519*
X0720864*
X0720733Y0118493*
X07206Y0118484*
X0720539Y0118455*
X0720473Y0118442*
X0720363Y0118367*
X0720243Y0118308*
X0720199Y0118258*
X0720143Y0118221*
X0720069Y011811*
X0719981Y0118009*
X0719769Y0117642*
X0719357Y0117231*
X0718853Y0116939*
X0718291Y0116789*
X0717709*
X0717146Y0116939*
X0716642Y0117231*
X0716231Y0117642*
X0716019Y0118009*
X0715931Y011811*
X0715856Y0118221*
X0715801Y0118258*
X0715756Y0118308*
X0715637Y0118367*
X0715526Y0118442*
X071546Y0118455*
X0715399Y0118484*
X0715266Y0118493*
X0715136Y0118519*
X0710864*
X0710733Y0118493*
X07106Y0118484*
X0710539Y0118455*
X0710473Y0118442*
X0710363Y0118367*
X0710243Y0118308*
X0710199Y0118258*
X0710143Y0118221*
X0710069Y011811*
X0709981Y0118009*
X0709769Y0117642*
X0709357Y0117231*
X0708853Y0116939*
X0708291Y0116789*
X0707709*
X0707146Y0116939*
X0706642Y0117231*
X0706231Y0117642*
X0706019Y0118009*
X0705931Y011811*
X0705856Y0118221*
X0705801Y0118258*
X0705756Y0118308*
X0705637Y0118367*
X0705526Y0118442*
X070546Y0118455*
X0705399Y0118484*
X0705266Y0118493*
X0705136Y0118519*
X0680807*
X0680518Y0119019*
X068077Y0119456*
X0681009Y0120348*
Y0120716*
X0688396Y0128102*
X0727336*
X0728311Y0128296*
X0729138Y0128848*
X0736577Y0136287*
X0737048Y0136161*
X0738322*
X0739552Y0136491*
X0740656Y0137128*
X0741556Y0138029*
X0742193Y0139132*
X0742523Y0140363*
Y0141637*
X0742193Y0142867*
X0741556Y0143971*
X0740656Y0144871*
X0739552Y0145508*
X0738322Y0145838*
X0737048*
X0735817Y0145508*
X0734714Y0144871*
X0733813Y0143971*
X0733176Y0142867*
X0732846Y0141637*
Y0140363*
X0732972Y0139892*
X072628Y01332*
X068734*
X0686364Y0133006*
X0685537Y0132453*
X0677405Y012432*
X0677037*
X0676145Y0124081*
X0675344Y0123619*
X0674691Y0122966*
X0674229Y0122165*
X067399Y0121273*
Y0120348*
X0674229Y0119456*
X0674481Y0119019*
X0674192Y0118519*
X0624807*
X0624518Y0119019*
X062477Y0119456*
X0625009Y0120348*
Y0121273*
X062477Y0122165*
X0624308Y0122966*
X0623655Y0123619*
X0622854Y0124081*
X0621962Y012432*
X0621037*
X0620145Y0124081*
X0619344Y0123619*
X0619085Y012336*
X0602929*
X0586397Y0139892*
X0586523Y0140363*
Y0141637*
X0586193Y0142867*
X0585556Y0143971*
X0584656Y0144871*
X0583552Y0145508*
X0582322Y0145838*
X0581048*
X0579817Y0145508*
X0578714Y0144871*
X0577813Y0143971*
X0577176Y0142867*
X0576846Y0141637*
Y0140363*
X0577176Y0139132*
X0577813Y0138029*
X0578714Y0137128*
X0579817Y0136491*
X0581048Y0136161*
X0582322*
X0582792Y0136287*
X060006Y0119019*
X0600056Y0118897*
X0599942Y0118519*
X0595364*
X0595233Y0118493*
X05951Y0118484*
X0595039Y0118455*
X0594973Y0118442*
X0594863Y0118367*
X0594743Y0118308*
X0594699Y0118258*
X0594643Y0118221*
X0594569Y011811*
X0594481Y0118009*
X0594269Y0117642*
X0593857Y0117231*
X0593353Y0116939*
X0592791Y0116789*
X0592209*
X0591646Y0116939*
X0591142Y0117231*
X0590731Y0117642*
X0590519Y0118009*
X0590431Y011811*
X0590356Y0118221*
X0590301Y0118258*
X0590256Y0118308*
X0590137Y0118367*
X0590026Y0118442*
X058996Y0118455*
X0589899Y0118484*
X0589766Y0118493*
X0589636Y0118519*
X0585364*
X0585233Y0118493*
X05851Y0118484*
X0585039Y0118455*
X0584973Y0118442*
X0584863Y0118367*
X0584743Y0118308*
X0584699Y0118258*
X0584643Y0118221*
X0584569Y011811*
X0584481Y0118009*
X0584269Y0117642*
X0583857Y0117231*
X0583353Y0116939*
X0582791Y0116789*
X0582209*
X0581646Y0116939*
X0581142Y0117231*
X0580731Y0117642*
X0580519Y0118009*
X0580431Y011811*
X0580356Y0118221*
X0580301Y0118258*
X0580256Y0118308*
X0580137Y0118367*
X0580026Y0118442*
X057996Y0118455*
X0579899Y0118484*
X0579766Y0118493*
X0579636Y0118519*
X0575364*
X0575233Y0118493*
X05751Y0118484*
X0575039Y0118455*
X0574973Y0118442*
X0574863Y0118367*
X0574743Y0118308*
X0574699Y0118258*
X0574643Y0118221*
X0574569Y011811*
X0574481Y0118009*
X0574269Y0117642*
X0573857Y0117231*
X0573353Y0116939*
X0572791Y0116789*
X0572209*
X0571646Y0116939*
X0571142Y0117231*
X0570731Y0117642*
X0570519Y0118009*
X0570431Y011811*
X0570356Y0118221*
X0570301Y0118258*
X0570256Y0118308*
X0570137Y0118367*
X0570026Y0118442*
X056996Y0118455*
X0569899Y0118484*
X0569766Y0118493*
X0569636Y0118519*
X0565364*
X0565233Y0118493*
X05651Y0118484*
X0565039Y0118455*
X0564973Y0118442*
X0564863Y0118367*
X0564743Y0118308*
X0564699Y0118258*
X0564643Y0118221*
X0564569Y011811*
X0564481Y0118009*
X0564269Y0117642*
X0563857Y0117231*
X0563353Y0116939*
X0562791Y0116789*
X0562209*
X0561646Y0116939*
X0561142Y0117231*
X0560731Y0117642*
X0560519Y0118009*
X0560431Y011811*
X0560356Y0118221*
X0560301Y0118258*
X0560256Y0118308*
X0560137Y0118367*
X0560026Y0118442*
X055996Y0118455*
X0559899Y0118484*
X0559766Y0118493*
X0559636Y0118519*
X0555364*
X0555233Y0118493*
X05551Y0118484*
X0555039Y0118455*
X0554973Y0118442*
X0554863Y0118367*
X0554743Y0118308*
X0554699Y0118258*
X0554643Y0118221*
X0554569Y011811*
X0554481Y0118009*
X0554269Y0117642*
X0553857Y0117231*
X0553353Y0116939*
X0552791Y0116789*
X0552209*
X0551646Y0116939*
X0551142Y0117231*
X0550731Y0117642*
X0550519Y0118009*
X0550431Y011811*
X0550356Y0118221*
X0550301Y0118258*
X0550256Y0118308*
X0550137Y0118367*
X0550026Y0118442*
X054996Y0118455*
X0549899Y0118484*
X0549766Y0118493*
X0549636Y0118519*
X0545364*
X0545233Y0118493*
X05451Y0118484*
X0545039Y0118455*
X0544973Y0118442*
X0544863Y0118367*
X0544743Y0118308*
X0544699Y0118258*
X0544643Y0118221*
X0544569Y011811*
X0544481Y0118009*
X0544269Y0117642*
X0543857Y0117231*
X0543353Y0116939*
X0542791Y0116789*
X0542209*
X0541646Y0116939*
X0541142Y0117231*
X0540731Y0117642*
X0540519Y0118009*
X0540431Y011811*
X0540356Y0118221*
X0540301Y0118258*
X0540256Y0118308*
X0540137Y0118367*
X0540026Y0118442*
X053996Y0118455*
X0539899Y0118484*
X0539766Y0118493*
X0539636Y0118519*
X0535364*
X0535233Y0118493*
X05351Y0118484*
X0535039Y0118455*
X0534973Y0118442*
X0534863Y0118367*
X0534743Y0118308*
X0534699Y0118258*
X0534643Y0118221*
X0534569Y011811*
X0534481Y0118009*
X0534269Y0117642*
X0533857Y0117231*
X0533353Y0116939*
X0532791Y0116789*
X0532209*
X0531646Y0116939*
X0531142Y0117231*
X0530731Y0117642*
X0530519Y0118009*
X0530431Y011811*
X0530356Y0118221*
X0530301Y0118258*
X0530256Y0118308*
X0530137Y0118367*
X0530026Y0118442*
X052996Y0118455*
X0529899Y0118484*
X0529766Y0118493*
X0529636Y0118519*
X0525364*
X0525233Y0118493*
X05251Y0118484*
X0525039Y0118455*
X0524973Y0118442*
X0524863Y0118367*
X0524743Y0118308*
X0524699Y0118258*
X0524643Y0118221*
X0524569Y011811*
X0524481Y0118009*
X0524269Y0117642*
X0523857Y0117231*
X0523353Y0116939*
X0522791Y0116789*
X0522209*
X0521646Y0116939*
X0521142Y0117231*
X0520731Y0117642*
X0520519Y0118009*
X0520431Y011811*
X0520356Y0118221*
X0520301Y0118258*
X0520256Y0118308*
X0520137Y0118367*
X0520026Y0118442*
X051996Y0118455*
X0519899Y0118484*
X0519766Y0118493*
X0519636Y0118519*
X0515364*
X0515233Y0118493*
X05151Y0118484*
X0515039Y0118455*
X0514973Y0118442*
X0514863Y0118367*
X0514743Y0118308*
X0514699Y0118258*
X0514643Y0118221*
X0514569Y011811*
X0514481Y0118009*
X0514269Y0117642*
X0513857Y0117231*
X0513353Y0116939*
X0512791Y0116789*
X0512209*
X0511646Y0116939*
X0511142Y0117231*
X0510731Y0117642*
X0510519Y0118009*
X0510431Y011811*
X0510356Y0118221*
X0510301Y0118258*
X0510256Y0118308*
X0510137Y0118367*
X0510026Y0118442*
X050996Y0118455*
X0509899Y0118484*
X0509766Y0118493*
X0509636Y0118519*
X0505364*
X0505233Y0118493*
X05051Y0118484*
X0505039Y0118455*
X0504973Y0118442*
X0504863Y0118367*
X0504743Y0118308*
X0504699Y0118258*
X0504643Y0118221*
X0504569Y011811*
X0504481Y0118009*
X0504269Y0117642*
X0503857Y0117231*
X0503353Y0116939*
X0502791Y0116789*
X0502209*
X0501646Y0116939*
X0501142Y0117231*
X0500731Y0117642*
X0500519Y0118009*
X0500431Y011811*
X0500356Y0118221*
X0500301Y0118258*
X0500256Y0118308*
X0500137Y0118367*
X0500026Y0118442*
X049996Y0118455*
X0499899Y0118484*
X0499766Y0118493*
X0499636Y0118519*
X0475307*
X0475018Y0119019*
X047527Y0119456*
X0475509Y0120348*
Y0120716*
X0482896Y0128102*
X0521836*
X0522811Y0128296*
X0523638Y0128848*
X0531077Y0136287*
X0531548Y0136161*
X0532822*
X0534052Y0136491*
X0535156Y0137128*
X0536056Y0138029*
X0536693Y0139132*
X0537023Y0140363*
Y0141637*
X0536693Y0142867*
X0536056Y0143971*
X0535156Y0144871*
X0534052Y0145508*
X0532822Y0145838*
X0531548*
X0530317Y0145508*
X0529214Y0144871*
X0528313Y0143971*
X0527676Y0142867*
X0527346Y0141637*
Y0140363*
X0527472Y0139892*
X052078Y01332*
X048184*
X0480864Y0133006*
X0480037Y0132453*
X0471905Y012432*
X0471537*
X0470645Y0124081*
X0469844Y0123619*
X0469191Y0122966*
X0468729Y0122165*
X046849Y0121273*
Y0120348*
X0468729Y0119456*
X0468981Y0119019*
X0468692Y0118519*
X0419307*
X0419018Y0119019*
X041927Y0119456*
X0419509Y0120348*
Y0121273*
X041927Y0122165*
X0418808Y0122966*
X0418155Y0123619*
X0417354Y0124081*
X0416462Y012432*
X0415537*
X0414645Y0124081*
X0413844Y0123619*
X0413585Y012336*
X0397429*
X0380897Y0139892*
X0381023Y0140363*
Y0141637*
X0380693Y0142867*
X0380056Y0143971*
X0379156Y0144871*
X0378052Y0145508*
X0376822Y0145838*
X0375548*
X0374317Y0145508*
X0373214Y0144871*
X0372313Y0143971*
X0371676Y0142867*
X0371346Y0141637*
Y0140363*
X0371676Y0139132*
X0372313Y0138029*
X0373214Y0137128*
X0374317Y0136491*
X0375548Y0136161*
X0376822*
X0377292Y0136287*
X039456Y0119019*
X0394556Y0118897*
X0394442Y0118519*
X0389864*
X0389733Y0118493*
X03896Y0118484*
X0389539Y0118455*
X0389473Y0118442*
X0389363Y0118367*
X0389243Y0118308*
X0389199Y0118258*
X0389143Y0118221*
X0389069Y011811*
X0388981Y0118009*
X0388769Y0117642*
X0388357Y0117231*
X0387853Y0116939*
X0387291Y0116789*
X0386709*
X0386146Y0116939*
X0385642Y0117231*
X0385231Y0117642*
X0385019Y0118009*
X0384931Y011811*
X0384857Y0118221*
X0384801Y0118258*
X0384756Y0118308*
X0384637Y0118367*
X0384526Y0118442*
X038446Y0118455*
X0384399Y0118484*
X0384266Y0118493*
X0384136Y0118519*
X0379864*
X0379733Y0118493*
X03796Y0118484*
X0379539Y0118455*
X0379473Y0118442*
X0379363Y0118367*
X0379243Y0118308*
X0379199Y0118258*
X0379143Y0118221*
X0379069Y011811*
X0378981Y0118009*
X0378769Y0117642*
X0378357Y0117231*
X0377853Y0116939*
X0377291Y0116789*
X0376709*
X0376146Y0116939*
X0375642Y0117231*
X0375231Y0117642*
X0375019Y0118009*
X0374931Y011811*
X0374857Y0118221*
X0374801Y0118258*
X0374756Y0118308*
X0374637Y0118367*
X0374526Y0118442*
X037446Y0118455*
X0374399Y0118484*
X0374266Y0118493*
X0374136Y0118519*
X0369864*
X0369733Y0118493*
X03696Y0118484*
X0369539Y0118455*
X0369473Y0118442*
X0369363Y0118367*
X0369243Y0118308*
X0369199Y0118258*
X0369143Y0118221*
X0369069Y011811*
X0368981Y0118009*
X0368769Y0117642*
X0368357Y0117231*
X0367853Y0116939*
X0367291Y0116789*
X0366709*
X0366146Y0116939*
X0365642Y0117231*
X0365231Y0117642*
X0365019Y0118009*
X0364931Y011811*
X0364857Y0118221*
X0364801Y0118258*
X0364756Y0118308*
X0364637Y0118367*
X0364526Y0118442*
X036446Y0118455*
X0364399Y0118484*
X0364266Y0118493*
X0364136Y0118519*
X0359864*
X0359733Y0118493*
X03596Y0118484*
X0359539Y0118455*
X0359473Y0118442*
X0359363Y0118367*
X0359243Y0118308*
X0359199Y0118258*
X0359143Y0118221*
X0359069Y011811*
X0358981Y0118009*
X0358769Y0117642*
X0358357Y0117231*
X0357853Y0116939*
X0357291Y0116789*
X0356709*
X0356146Y0116939*
X0355642Y0117231*
X0355231Y0117642*
X0355019Y0118009*
X0354931Y011811*
X0354857Y0118221*
X0354801Y0118258*
X0354756Y0118308*
X0354637Y0118367*
X0354526Y0118442*
X035446Y0118455*
X0354399Y0118484*
X0354266Y0118493*
X0354136Y0118519*
X0349864*
X0349733Y0118493*
X03496Y0118484*
X0349539Y0118455*
X0349473Y0118442*
X0349363Y0118367*
X0349243Y0118308*
X0349199Y0118258*
X0349143Y0118221*
X0349069Y011811*
X0348981Y0118009*
X0348769Y0117642*
X0348357Y0117231*
X0347853Y0116939*
X0347291Y0116789*
X0346709*
X0346146Y0116939*
X0345642Y0117231*
X0345231Y0117642*
X0345019Y0118009*
X0344931Y011811*
X0344857Y0118221*
X0344801Y0118258*
X0344756Y0118308*
X0344637Y0118367*
X0344526Y0118442*
X034446Y0118455*
X0344399Y0118484*
X0344266Y0118493*
X0344136Y0118519*
X0339864*
X0339733Y0118493*
X03396Y0118484*
X0339539Y0118455*
X0339473Y0118442*
X0339363Y0118367*
X0339243Y0118308*
X0339199Y0118258*
X0339143Y0118221*
X0339069Y011811*
X0338981Y0118009*
X0338769Y0117642*
X0338357Y0117231*
X0337853Y0116939*
X0337291Y0116789*
X0336709*
X0336146Y0116939*
X0335642Y0117231*
X0335231Y0117642*
X0335019Y0118009*
X0334931Y011811*
X0334857Y0118221*
X0334801Y0118258*
X0334756Y0118308*
X0334637Y0118367*
X0334526Y0118442*
X033446Y0118455*
X0334399Y0118484*
X0334266Y0118493*
X0334136Y0118519*
X0329864*
X0329733Y0118493*
X03296Y0118484*
X0329539Y0118455*
X0329473Y0118442*
X0329363Y0118367*
X0329243Y0118308*
X0329199Y0118258*
X0329143Y0118221*
X0329069Y011811*
X0328981Y0118009*
X0328769Y0117642*
X0328357Y0117231*
X0327853Y0116939*
X0327291Y0116789*
X0326709*
X0326146Y0116939*
X0325642Y0117231*
X0325231Y0117642*
X0325019Y0118009*
X0324931Y011811*
X0324857Y0118221*
X0324801Y0118258*
X0324756Y0118308*
X0324637Y0118367*
X0324526Y0118442*
X032446Y0118455*
X0324399Y0118484*
X0324266Y0118493*
X0324136Y0118519*
X0319864*
X0319733Y0118493*
X03196Y0118484*
X0319539Y0118455*
X0319473Y0118442*
X0319363Y0118367*
X0319243Y0118308*
X0319199Y0118258*
X0319143Y0118221*
X0319069Y011811*
X0318981Y0118009*
X0318769Y0117642*
X0318357Y0117231*
X0317853Y0116939*
X0317291Y0116789*
X0316709*
X0316146Y0116939*
X0315642Y0117231*
X0315231Y0117642*
X0315019Y0118009*
X0314931Y011811*
X0314857Y0118221*
X0314801Y0118258*
X0314756Y0118308*
X0314637Y0118367*
X0314526Y0118442*
X031446Y0118455*
X0314399Y0118484*
X0314266Y0118493*
X0314136Y0118519*
X0309864*
X0309733Y0118493*
X03096Y0118484*
X0309539Y0118455*
X0309473Y0118442*
X0309363Y0118367*
X0309243Y0118308*
X0309199Y0118258*
X0309143Y0118221*
X0309069Y011811*
X0308981Y0118009*
X0308769Y0117642*
X0308357Y0117231*
X0307853Y0116939*
X0307291Y0116789*
X0306709*
X0306146Y0116939*
X0305642Y0117231*
X0305231Y0117642*
X0305019Y0118009*
X0304931Y011811*
X0304857Y0118221*
X0304801Y0118258*
X0304756Y0118308*
X0304637Y0118367*
X0304526Y0118442*
X030446Y0118455*
X0304399Y0118484*
X0304266Y0118493*
X0304136Y0118519*
X0299864*
X0299733Y0118493*
X02996Y0118484*
X0299539Y0118455*
X0299473Y0118442*
X0299363Y0118367*
X0299243Y0118308*
X0299199Y0118258*
X0299143Y0118221*
X0299069Y011811*
X0298981Y0118009*
X0298769Y0117642*
X0298357Y0117231*
X0297853Y0116939*
X0297291Y0116789*
X0296709*
X0296146Y0116939*
X0295642Y0117231*
X0295231Y0117642*
X0295019Y0118009*
X0294931Y011811*
X0294857Y0118221*
X0294801Y0118258*
X0294756Y0118308*
X0294637Y0118367*
X0294526Y0118442*
X029446Y0118455*
X0294399Y0118484*
X0294266Y0118493*
X0294136Y0118519*
X0269807*
X0269518Y0119019*
X026977Y0119456*
X0270009Y0120348*
Y0120716*
X0277396Y0128102*
X0316336*
X0317311Y0128296*
X0318138Y0128848*
X0325577Y0136287*
X0326048Y0136161*
X0327322*
X0328552Y0136491*
X0329656Y0137128*
X0330556Y0138029*
X0331193Y0139132*
X0331523Y0140363*
Y0141637*
X0331193Y0142867*
X0330556Y0143971*
X0329656Y0144871*
X0328552Y0145508*
X0327322Y0145838*
X0326048*
X0324817Y0145508*
X0323714Y0144871*
X0322813Y0143971*
X0322176Y0142867*
X0321846Y0141637*
Y0140363*
X0321972Y0139892*
X031528Y01332*
X027634*
X0275364Y0133006*
X0274537Y0132453*
X0266405Y012432*
X0266037*
X0265145Y0124081*
X0264344Y0123619*
X0263691Y0122966*
X0263229Y0122165*
X026299Y0121273*
Y0120348*
X0263229Y0119456*
X0263481Y0119019*
X0263192Y0118519*
X0213807*
X0213518Y0119019*
X021377Y0119456*
X0214009Y0120348*
Y0121273*
X021377Y0122165*
X0213308Y0122966*
X0212655Y0123619*
X0211854Y0124081*
X0210962Y012432*
X0210037*
X0209145Y0124081*
X0208344Y0123619*
X0208085Y012336*
X0191929*
X0175397Y0139892*
X0175523Y0140363*
Y0141637*
X0175193Y0142867*
X0174556Y0143971*
X0173656Y0144871*
X0172552Y0145508*
X0171322Y0145838*
X0170048*
X0168817Y0145508*
X0167714Y0144871*
X0166813Y0143971*
X0166176Y0142867*
X0165846Y0141637*
Y0140363*
X0166176Y0139132*
X0166813Y0138029*
X0167714Y0137128*
X0168817Y0136491*
X0170048Y0136161*
X0171322*
X0171792Y0136287*
X018906Y0119019*
X0189056Y0118897*
X0188942Y0118519*
X0184364*
X0184233Y0118493*
X01841Y0118484*
X0184039Y0118455*
X0183973Y0118442*
X0183863Y0118367*
X0183743Y0118308*
X0183699Y0118258*
X0183643Y0118221*
X0183569Y011811*
X0183481Y0118009*
X0183269Y0117642*
X0182857Y0117231*
X0182353Y0116939*
X0181791Y0116789*
X0181209*
X0180646Y0116939*
X0180142Y0117231*
X0179731Y0117642*
X0179519Y0118009*
X0179431Y011811*
X0179357Y0118221*
X0179301Y0118258*
X0179256Y0118308*
X0179137Y0118367*
X0179026Y0118442*
X017896Y0118455*
X0178899Y0118484*
X0178766Y0118493*
X0178636Y0118519*
X0174364*
X0174233Y0118493*
X01741Y0118484*
X0174039Y0118455*
X0173973Y0118442*
X0173863Y0118367*
X0173743Y0118308*
X0173699Y0118258*
X0173643Y0118221*
X0173569Y011811*
X0173481Y0118009*
X0173269Y0117642*
X0172857Y0117231*
X0172353Y0116939*
X0171791Y0116789*
X0171209*
X0170646Y0116939*
X0170142Y0117231*
X0169731Y0117642*
X0169519Y0118009*
X0169431Y011811*
X0169357Y0118221*
X0169301Y0118258*
X0169256Y0118308*
X0169137Y0118367*
X0169026Y0118442*
X016896Y0118455*
X0168899Y0118484*
X0168766Y0118493*
X0168636Y0118519*
X0164364*
X0164233Y0118493*
X01641Y0118484*
X0164039Y0118455*
X0163973Y0118442*
X0163863Y0118367*
X0163743Y0118308*
X0163699Y0118258*
X0163643Y0118221*
X0163569Y011811*
X0163481Y0118009*
X0163269Y0117642*
X0162857Y0117231*
X0162353Y0116939*
X0161791Y0116789*
X0161209*
X0160646Y0116939*
X0160142Y0117231*
X0159731Y0117642*
X0159519Y0118009*
X0159431Y011811*
X0159357Y0118221*
X0159301Y0118258*
X0159256Y0118308*
X0159137Y0118367*
X0159026Y0118442*
X015896Y0118455*
X0158899Y0118484*
X0158766Y0118493*
X0158636Y0118519*
X0154364*
X0154233Y0118493*
X01541Y0118484*
X0154039Y0118455*
X0153973Y0118442*
X0153863Y0118367*
X0153743Y0118308*
X0153699Y0118258*
X0153643Y0118221*
X0153569Y011811*
X0153481Y0118009*
X0153269Y0117642*
X0152857Y0117231*
X0152353Y0116939*
X0151791Y0116789*
X0151209*
X0150646Y0116939*
X0150142Y0117231*
X0149731Y0117642*
X0149519Y0118009*
X0149431Y011811*
X0149357Y0118221*
X0149301Y0118258*
X0149256Y0118308*
X0149137Y0118367*
X0149026Y0118442*
X014896Y0118455*
X0148899Y0118484*
X0148766Y0118493*
X0148636Y0118519*
X0144364*
X0144233Y0118493*
X01441Y0118484*
X0144039Y0118455*
X0143973Y0118442*
X0143863Y0118367*
X0143743Y0118308*
X0143699Y0118258*
X0143643Y0118221*
X0143569Y011811*
X0143481Y0118009*
X0143269Y0117642*
X0142857Y0117231*
X0142353Y0116939*
X0141791Y0116789*
X0141209*
X0140646Y0116939*
X0140142Y0117231*
X0139731Y0117642*
X0139519Y0118009*
X0139431Y011811*
X0139357Y0118221*
X0139301Y0118258*
X0139256Y0118308*
X0139137Y0118367*
X0139026Y0118442*
X013896Y0118455*
X0138899Y0118484*
X0138766Y0118493*
X0138636Y0118519*
X0134364*
X0134233Y0118493*
X01341Y0118484*
X0134039Y0118455*
X0133973Y0118442*
X0133863Y0118367*
X0133743Y0118308*
X0133699Y0118258*
X0133643Y0118221*
X0133569Y011811*
X0133481Y0118009*
X0133269Y0117642*
X0132857Y0117231*
X0132353Y0116939*
X0131791Y0116789*
X0131209*
X0130646Y0116939*
X0130142Y0117231*
X0129731Y0117642*
X0129519Y0118009*
X0129431Y011811*
X0129357Y0118221*
X0129301Y0118258*
X0129256Y0118308*
X0129137Y0118367*
X0129026Y0118442*
X012896Y0118455*
X0128899Y0118484*
X0128766Y0118493*
X0128636Y0118519*
X0124364*
X0124233Y0118493*
X01241Y0118484*
X0124039Y0118455*
X0123973Y0118442*
X0123863Y0118367*
X0123743Y0118308*
X0123699Y0118258*
X0123643Y0118221*
X0123569Y011811*
X0123481Y0118009*
X0123269Y0117642*
X0122857Y0117231*
X0122353Y0116939*
X0121791Y0116789*
X0121209*
X0120646Y0116939*
X0120142Y0117231*
X0119731Y0117642*
X0119519Y0118009*
X0119431Y011811*
X0119357Y0118221*
X0119301Y0118258*
X0119256Y0118308*
X0119137Y0118367*
X0119026Y0118442*
X011896Y0118455*
X0118899Y0118484*
X0118766Y0118493*
X0118636Y0118519*
X0114364*
X0114233Y0118493*
X01141Y0118484*
X0114039Y0118455*
X0113973Y0118442*
X0113863Y0118367*
X0113743Y0118308*
X0113699Y0118258*
X0113643Y0118221*
X0113569Y011811*
X0113481Y0118009*
X0113269Y0117642*
X0112857Y0117231*
X0112353Y0116939*
X0111791Y0116789*
X0111209*
X0110646Y0116939*
X0110142Y0117231*
X0109731Y0117642*
X0109519Y0118009*
X0109431Y011811*
X0109357Y0118221*
X0109301Y0118258*
X0109256Y0118308*
X0109137Y0118367*
X0109026Y0118442*
X010896Y0118455*
X0108899Y0118484*
X0108766Y0118493*
X0108636Y0118519*
X0104364*
X0104233Y0118493*
X01041Y0118484*
X0104039Y0118455*
X0103973Y0118442*
X0103863Y0118367*
X0103743Y0118308*
X0103699Y0118258*
X0103643Y0118221*
X0103569Y011811*
X0103481Y0118009*
X0103269Y0117642*
X0102857Y0117231*
X0102353Y0116939*
X0101791Y0116789*
X0101209*
X0100646Y0116939*
X0100142Y0117231*
X0099731Y0117642*
X0099519Y0118009*
X0099431Y011811*
X0099356Y0118221*
X0099301Y0118258*
X0099256Y0118308*
X0099137Y0118367*
X0099026Y0118442*
X009896Y0118455*
X0098899Y0118484*
X0098766Y0118493*
X0098636Y0118519*
X0094364*
X0094233Y0118493*
X00941Y0118484*
X0094039Y0118455*
X0093973Y0118442*
X0093863Y0118367*
X0093743Y0118308*
X0093699Y0118258*
X0093643Y0118221*
X0093569Y011811*
X0093481Y0118009*
X0093269Y0117642*
X0092857Y0117231*
X0092353Y0116939*
X0091791Y0116789*
X0091209*
X0090646Y0116939*
X0090142Y0117231*
X0089731Y0117642*
X0089519Y0118009*
X0089431Y011811*
X0089356Y0118221*
X0089301Y0118258*
X0089256Y0118308*
X0089137Y0118367*
X0089026Y0118442*
X008896Y0118455*
X0088899Y0118484*
X0088766Y0118493*
X0088636Y0118519*
X0064307*
X0064018Y0119019*
X006427Y0119456*
X0064509Y0120348*
Y0120716*
X0071896Y0128102*
X0110836*
X0111811Y0128296*
X0112638Y0128848*
X0120077Y0136287*
X0120548Y0136161*
X0121822*
X0123052Y0136491*
X0124156Y0137128*
X0125056Y0138029*
X0125693Y0139132*
X0126023Y0140363*
Y0141637*
X0125693Y0142867*
X0125056Y0143971*
X0124156Y0144871*
X0123052Y0145508*
X0121822Y0145838*
X0120548*
X0119317Y0145508*
X0118214Y0144871*
X0117313Y0143971*
X0116676Y0142867*
X0116346Y0141637*
Y0140363*
X0116472Y0139892*
X010978Y01332*
X007084*
X0069864Y0133006*
X0069037Y0132453*
X0060905Y012432*
X0060537*
X0059645Y0124081*
X0058844Y0123619*
X0058191Y0122966*
X0057729Y0122165*
X005749Y0121273*
Y0120348*
X0057729Y0119456*
X0057981Y0119019*
X0057692Y0118519*
X0001*
Y01615*
X0854*
Y0001*
G37*
G36*
X0795415Y0117016D02*
X0796016Y0116415D01*
X0796753Y0115989*
X0797574Y0115769*
X0798425*
X0799246Y0115989*
X0799983Y0116415*
X08005Y0116931*
X0800851Y0116847*
X0801Y0116752*
Y0091188*
X08005Y0091068*
X0799983Y0091584*
X0799246Y009201*
X0798425Y009223*
X0797574*
X0796753Y009201*
X0796016Y0091584*
X0795415Y0090983*
X0794989Y0090246*
X0794769Y0089425*
Y0088574*
X0794989Y0087753*
X0795415Y0087016*
X0795469Y0086961*
X0795278Y00865*
X0790721*
X079053Y0086961*
X0790584Y0087016*
X079101Y0087753*
X079123Y0088574*
Y0089425*
X079101Y0090246*
X0790584Y0090983*
X0789983Y0091584*
X0789246Y009201*
X0788425Y009223*
X0787574*
X0786753Y009201*
X0786016Y0091584*
X0785415Y0090983*
X0784989Y0090246*
X0784769Y0089425*
Y0088574*
X0784989Y0087753*
X0785415Y0087016*
X0785469Y0086961*
X0785278Y00865*
X0780721*
X078053Y0086961*
X0780584Y0087016*
X078101Y0087753*
X078123Y0088574*
Y0089425*
X078101Y0090246*
X0780584Y0090983*
X0779983Y0091584*
X0779246Y009201*
X0778425Y009223*
X0777574*
X0776753Y009201*
X0776016Y0091584*
X0775415Y0090983*
X0774989Y0090246*
X0774769Y0089425*
Y0088574*
X0774989Y0087753*
X0775415Y0087016*
X0775498Y0086933*
X0775065Y00865*
X0769529*
Y0089*
X0769413Y0089585*
X0769081Y0090081*
X0768585Y0090413*
X0768Y0090529*
X0767414Y0090413*
X0766918Y0090081*
X0766587Y0089585*
X076647Y0089*
Y00865*
X0760721*
X076053Y0086961*
X0760584Y0087016*
X076101Y0087753*
X076123Y0088574*
Y0089425*
X076101Y0090246*
X0760584Y0090983*
X0759983Y0091584*
X0759246Y009201*
X0758425Y009223*
X0757574*
X0756753Y009201*
X0756016Y0091584*
X0755415Y0090983*
X0754989Y0090246*
X0754769Y0089425*
Y0088574*
X0754989Y0087753*
X0755415Y0087016*
X0755469Y0086961*
X0755278Y00865*
X0750721*
X075053Y0086961*
X0750584Y0087016*
X075101Y0087753*
X075123Y0088574*
Y0089425*
X075101Y0090246*
X0750584Y0090983*
X0749983Y0091584*
X0749246Y009201*
X0748425Y009223*
X0747574*
X0746753Y009201*
X0746016Y0091584*
X0745415Y0090983*
X0744989Y0090246*
X0744769Y0089425*
Y0088574*
X0744989Y0087753*
X0745415Y0087016*
X0745469Y0086961*
X0745278Y00865*
X0740721*
X074053Y0086961*
X0740584Y0087016*
X074101Y0087753*
X074123Y0088574*
Y0089425*
X074101Y0090246*
X0740584Y0090983*
X0739983Y0091584*
X0739246Y009201*
X0738425Y009223*
X0737574*
X0736753Y009201*
X0736016Y0091584*
X0735415Y0090983*
X0734989Y0090246*
X0734769Y0089425*
Y0088574*
X0734989Y0087753*
X0735415Y0087016*
X0735469Y0086961*
X0735278Y00865*
X0730721*
X073053Y0086961*
X0730584Y0087016*
X073101Y0087753*
X073123Y0088574*
Y0089425*
X073101Y0090246*
X0730584Y0090983*
X0729983Y0091584*
X0729246Y009201*
X0728425Y009223*
X0727574*
X0726753Y009201*
X0726016Y0091584*
X0725415Y0090983*
X0724989Y0090246*
X0724769Y0089425*
Y0088574*
X0724989Y0087753*
X0725415Y0087016*
X0725469Y0086961*
X0725278Y00865*
X0720721*
X072053Y0086961*
X0720584Y0087016*
X072101Y0087753*
X072123Y0088574*
Y0089425*
X072101Y0090246*
X0720584Y0090983*
X0719983Y0091584*
X0719246Y009201*
X0718425Y009223*
X0717574*
X0716753Y009201*
X0716016Y0091584*
X0715415Y0090983*
X0714989Y0090246*
X0714769Y0089425*
Y0088574*
X0714989Y0087753*
X0715415Y0087016*
X0715469Y0086961*
X0715278Y00865*
X071123*
Y009223*
X0704769*
Y00865*
X0595221*
X059503Y0086961*
X0595084Y0087016*
X059551Y0087753*
X059573Y0088574*
Y0089425*
X059551Y0090246*
X0595084Y0090983*
X0594483Y0091584*
X0593746Y009201*
X0592925Y009223*
X0592074*
X0591253Y009201*
X0590516Y0091584*
X0589915Y0090983*
X0589489Y0090246*
X0589269Y0089425*
Y0088574*
X0589489Y0087753*
X0589915Y0087016*
X0589969Y0086961*
X0589778Y00865*
X0585221*
X058503Y0086961*
X0585084Y0087016*
X058551Y0087753*
X058573Y0088574*
Y0089425*
X058551Y0090246*
X0585084Y0090983*
X0584483Y0091584*
X0583746Y009201*
X0582925Y009223*
X0582074*
X0581253Y009201*
X0580516Y0091584*
X0579915Y0090983*
X0579489Y0090246*
X0579269Y0089425*
Y0088574*
X0579489Y0087753*
X0579915Y0087016*
X0579969Y0086961*
X0579778Y00865*
X0575221*
X057503Y0086961*
X0575084Y0087016*
X057551Y0087753*
X057573Y0088574*
Y0089425*
X057551Y0090246*
X0575084Y0090983*
X0574483Y0091584*
X0573746Y009201*
X0572925Y009223*
X0572074*
X0571253Y009201*
X0570516Y0091584*
X0569915Y0090983*
X0569489Y0090246*
X0569269Y0089425*
Y0088574*
X0569489Y0087753*
X0569915Y0087016*
X0569998Y0086933*
X0569565Y00865*
X0564029*
Y0089*
X0563913Y0089585*
X0563581Y0090081*
X0563085Y0090413*
X05625Y0090529*
X0561914Y0090413*
X0561418Y0090081*
X0561087Y0089585*
X056097Y0089*
Y00865*
X0555221*
X055503Y0086961*
X0555084Y0087016*
X055551Y0087753*
X055573Y0088574*
Y0089425*
X055551Y0090246*
X0555084Y0090983*
X0554483Y0091584*
X0553746Y009201*
X0552925Y009223*
X0552074*
X0551253Y009201*
X0550516Y0091584*
X0549915Y0090983*
X0549489Y0090246*
X0549269Y0089425*
Y0088574*
X0549489Y0087753*
X0549915Y0087016*
X0549969Y0086961*
X0549778Y00865*
X0545221*
X054503Y0086961*
X0545084Y0087016*
X054551Y0087753*
X054573Y0088574*
Y0089425*
X054551Y0090246*
X0545084Y0090983*
X0544483Y0091584*
X0543746Y009201*
X0542925Y009223*
X0542074*
X0541253Y009201*
X0540516Y0091584*
X0539915Y0090983*
X0539489Y0090246*
X0539269Y0089425*
Y0088574*
X0539489Y0087753*
X0539915Y0087016*
X0539969Y0086961*
X0539778Y00865*
X0535221*
X053503Y0086961*
X0535084Y0087016*
X053551Y0087753*
X053573Y0088574*
Y0089425*
X053551Y0090246*
X0535084Y0090983*
X0534483Y0091584*
X0533746Y009201*
X0532925Y009223*
X0532074*
X0531253Y009201*
X0530516Y0091584*
X0529915Y0090983*
X0529489Y0090246*
X0529269Y0089425*
Y0088574*
X0529489Y0087753*
X0529915Y0087016*
X0529969Y0086961*
X0529778Y00865*
X0525221*
X052503Y0086961*
X0525084Y0087016*
X052551Y0087753*
X052573Y0088574*
Y0089425*
X052551Y0090246*
X0525084Y0090983*
X0524483Y0091584*
X0523746Y009201*
X0522925Y009223*
X0522074*
X0521253Y009201*
X0520516Y0091584*
X0519915Y0090983*
X0519489Y0090246*
X0519269Y0089425*
Y0088574*
X0519489Y0087753*
X0519915Y0087016*
X0519969Y0086961*
X0519778Y00865*
X0515221*
X051503Y0086961*
X0515084Y0087016*
X051551Y0087753*
X051573Y0088574*
Y0089425*
X051551Y0090246*
X0515084Y0090983*
X0514483Y0091584*
X0513746Y009201*
X0512925Y009223*
X0512074*
X0511253Y009201*
X0510516Y0091584*
X0509915Y0090983*
X0509489Y0090246*
X0509269Y0089425*
Y0088574*
X0509489Y0087753*
X0509915Y0087016*
X0509969Y0086961*
X0509778Y00865*
X050573*
Y009223*
X0499269*
Y00865*
X0389721*
X038953Y0086961*
X0389584Y0087016*
X039001Y0087753*
X039023Y0088574*
Y0089425*
X039001Y0090246*
X0389584Y0090983*
X0388983Y0091584*
X0388246Y009201*
X0387425Y009223*
X0386574*
X0385753Y009201*
X0385016Y0091584*
X0384415Y0090983*
X0383989Y0090246*
X0383769Y0089425*
Y0088574*
X0383989Y0087753*
X0384415Y0087016*
X0384469Y0086961*
X0384278Y00865*
X0379721*
X037953Y0086961*
X0379584Y0087016*
X038001Y0087753*
X038023Y0088574*
Y0089425*
X038001Y0090246*
X0379584Y0090983*
X0378983Y0091584*
X0378246Y009201*
X0377425Y009223*
X0376574*
X0375753Y009201*
X0375016Y0091584*
X0374415Y0090983*
X0373989Y0090246*
X0373769Y0089425*
Y0088574*
X0373989Y0087753*
X0374415Y0087016*
X0374469Y0086961*
X0374278Y00865*
X0369721*
X036953Y0086961*
X0369584Y0087016*
X037001Y0087753*
X037023Y0088574*
Y0089425*
X037001Y0090246*
X0369584Y0090983*
X0368983Y0091584*
X0368246Y009201*
X0367425Y009223*
X0366574*
X0365753Y009201*
X0365016Y0091584*
X0364415Y0090983*
X0363989Y0090246*
X0363769Y0089425*
Y0088574*
X0363989Y0087753*
X0364415Y0087016*
X0364498Y0086933*
X0364065Y00865*
X0358529*
Y0089*
X0358413Y0089585*
X0358081Y0090081*
X0357585Y0090413*
X0357Y0090529*
X0356414Y0090413*
X0355918Y0090081*
X0355587Y0089585*
X035547Y0089*
Y00865*
X0349721*
X034953Y0086961*
X0349584Y0087016*
X035001Y0087753*
X035023Y0088574*
Y0089425*
X035001Y0090246*
X0349584Y0090983*
X0348983Y0091584*
X0348246Y009201*
X0347425Y009223*
X0346574*
X0345753Y009201*
X0345016Y0091584*
X0344415Y0090983*
X0343989Y0090246*
X0343769Y0089425*
Y0088574*
X0343989Y0087753*
X0344415Y0087016*
X0344469Y0086961*
X0344278Y00865*
X0339721*
X033953Y0086961*
X0339584Y0087016*
X034001Y0087753*
X034023Y0088574*
Y0089425*
X034001Y0090246*
X0339584Y0090983*
X0338983Y0091584*
X0338246Y009201*
X0337425Y009223*
X0336574*
X0335753Y009201*
X0335016Y0091584*
X0334415Y0090983*
X0333989Y0090246*
X0333769Y0089425*
Y0088574*
X0333989Y0087753*
X0334415Y0087016*
X0334469Y0086961*
X0334278Y00865*
X0329721*
X032953Y0086961*
X0329584Y0087016*
X033001Y0087753*
X033023Y0088574*
Y0089425*
X033001Y0090246*
X0329584Y0090983*
X0328983Y0091584*
X0328246Y009201*
X0327425Y009223*
X0326574*
X0325753Y009201*
X0325016Y0091584*
X0324415Y0090983*
X0323989Y0090246*
X0323769Y0089425*
Y0088574*
X0323989Y0087753*
X0324415Y0087016*
X0324469Y0086961*
X0324278Y00865*
X0319721*
X031953Y0086961*
X0319584Y0087016*
X032001Y0087753*
X032023Y0088574*
Y0089425*
X032001Y0090246*
X0319584Y0090983*
X0318983Y0091584*
X0318246Y009201*
X0317425Y009223*
X0316574*
X0315753Y009201*
X0315016Y0091584*
X0314415Y0090983*
X0313989Y0090246*
X0313769Y0089425*
Y0088574*
X0313989Y0087753*
X0314415Y0087016*
X0314469Y0086961*
X0314278Y00865*
X0309721*
X030953Y0086961*
X0309584Y0087016*
X031001Y0087753*
X031023Y0088574*
Y0089425*
X031001Y0090246*
X0309584Y0090983*
X0308983Y0091584*
X0308246Y009201*
X0307425Y009223*
X0306574*
X0305753Y009201*
X0305016Y0091584*
X0304415Y0090983*
X0303989Y0090246*
X0303769Y0089425*
Y0088574*
X0303989Y0087753*
X0304415Y0087016*
X0304469Y0086961*
X0304278Y00865*
X030023*
Y009223*
X0293769*
Y00865*
X0184221*
X018403Y0086961*
X0184084Y0087016*
X018451Y0087753*
X018473Y0088574*
Y0089425*
X018451Y0090246*
X0184084Y0090983*
X0183483Y0091584*
X0182746Y009201*
X0181925Y009223*
X0181074*
X0180253Y009201*
X0179516Y0091584*
X0178915Y0090983*
X0178489Y0090246*
X0178269Y0089425*
Y0088574*
X0178489Y0087753*
X0178915Y0087016*
X0178969Y0086961*
X0178778Y00865*
X0174221*
X017403Y0086961*
X0174084Y0087016*
X017451Y0087753*
X017473Y0088574*
Y0089425*
X017451Y0090246*
X0174084Y0090983*
X0173483Y0091584*
X0172746Y009201*
X0171925Y009223*
X0171074*
X0170253Y009201*
X0169516Y0091584*
X0168915Y0090983*
X0168489Y0090246*
X0168269Y0089425*
Y0088574*
X0168489Y0087753*
X0168915Y0087016*
X0168969Y0086961*
X0168778Y00865*
X0164221*
X016403Y0086961*
X0164084Y0087016*
X016451Y0087753*
X016473Y0088574*
Y0089425*
X016451Y0090246*
X0164084Y0090983*
X0163483Y0091584*
X0162746Y009201*
X0161925Y009223*
X0161074*
X0160253Y009201*
X0159516Y0091584*
X0158915Y0090983*
X0158489Y0090246*
X0158269Y0089425*
Y0088574*
X0158489Y0087753*
X0158915Y0087016*
X0158998Y0086933*
X0158565Y00865*
X0153029*
Y0089*
X0152913Y0089585*
X0152581Y0090081*
X0152085Y0090413*
X01515Y0090529*
X0150914Y0090413*
X0150418Y0090081*
X0150087Y0089585*
X014997Y0089*
Y00865*
X0144221*
X014403Y0086961*
X0144084Y0087016*
X014451Y0087753*
X014473Y0088574*
Y0089425*
X014451Y0090246*
X0144084Y0090983*
X0143483Y0091584*
X0142746Y009201*
X0141925Y009223*
X0141074*
X0140253Y009201*
X0139516Y0091584*
X0138915Y0090983*
X0138489Y0090246*
X0138269Y0089425*
Y0088574*
X0138489Y0087753*
X0138915Y0087016*
X0138969Y0086961*
X0138778Y00865*
X0134221*
X013403Y0086961*
X0134084Y0087016*
X013451Y0087753*
X013473Y0088574*
Y0089425*
X013451Y0090246*
X0134084Y0090983*
X0133483Y0091584*
X0132746Y009201*
X0131925Y009223*
X0131074*
X0130253Y009201*
X0129516Y0091584*
X0128915Y0090983*
X0128489Y0090246*
X0128269Y0089425*
Y0088574*
X0128489Y0087753*
X0128915Y0087016*
X0128969Y0086961*
X0128778Y00865*
X0124221*
X012403Y0086961*
X0124084Y0087016*
X012451Y0087753*
X012473Y0088574*
Y0089425*
X012451Y0090246*
X0124084Y0090983*
X0123483Y0091584*
X0122746Y009201*
X0121925Y009223*
X0121074*
X0120253Y009201*
X0119516Y0091584*
X0118915Y0090983*
X0118489Y0090246*
X0118269Y0089425*
Y0088574*
X0118489Y0087753*
X0118915Y0087016*
X0118969Y0086961*
X0118778Y00865*
X0114221*
X011403Y0086961*
X0114084Y0087016*
X011451Y0087753*
X011473Y0088574*
Y0089425*
X011451Y0090246*
X0114084Y0090983*
X0113483Y0091584*
X0112746Y009201*
X0111925Y009223*
X0111074*
X0110253Y009201*
X0109516Y0091584*
X0108915Y0090983*
X0108489Y0090246*
X0108269Y0089425*
Y0088574*
X0108489Y0087753*
X0108915Y0087016*
X0108969Y0086961*
X0108778Y00865*
X0104221*
X010403Y0086961*
X0104084Y0087016*
X010451Y0087753*
X010473Y0088574*
Y0089425*
X010451Y0090246*
X0104084Y0090983*
X0103483Y0091584*
X0102746Y009201*
X0101925Y009223*
X0101074*
X0100253Y009201*
X0099516Y0091584*
X0098915Y0090983*
X0098489Y0090246*
X0098269Y0089425*
Y0088574*
X0098489Y0087753*
X0098915Y0087016*
X0098969Y0086961*
X0098778Y00865*
X009473*
Y009223*
X0088269*
Y00865*
X0001*
Y01175*
X0059796*
X0060537Y0117301*
X0061462*
X0062204Y01175*
X0088636*
X0088915Y0117016*
X0089516Y0116415*
X0090253Y0115989*
X0091074Y0115769*
X0091925*
X0092746Y0115989*
X0093483Y0116415*
X0094084Y0117016*
X0094364Y01175*
X0098636*
X0098915Y0117016*
X0099516Y0116415*
X0100253Y0115989*
X0101074Y0115769*
X0101925*
X0102746Y0115989*
X0103483Y0116415*
X0104084Y0117016*
X0104364Y01175*
X0108636*
X0108915Y0117016*
X0109516Y0116415*
X0110253Y0115989*
X0111074Y0115769*
X0111925*
X0112746Y0115989*
X0113483Y0116415*
X0114084Y0117016*
X0114364Y01175*
X0118636*
X0118915Y0117016*
X0119516Y0116415*
X0120253Y0115989*
X0121074Y0115769*
X0121925*
X0122746Y0115989*
X0123483Y0116415*
X0124084Y0117016*
X0124364Y01175*
X0128636*
X0128915Y0117016*
X0129516Y0116415*
X0130253Y0115989*
X0131074Y0115769*
X0131925*
X0132746Y0115989*
X0133483Y0116415*
X0134084Y0117016*
X0134364Y01175*
X0138636*
X0138915Y0117016*
X0139516Y0116415*
X0140253Y0115989*
X0141074Y0115769*
X0141925*
X0142746Y0115989*
X0143483Y0116415*
X0144084Y0117016*
X0144364Y01175*
X0148636*
X0148915Y0117016*
X0149516Y0116415*
X0150253Y0115989*
X0151074Y0115769*
X0151925*
X0152746Y0115989*
X0153483Y0116415*
X0154084Y0117016*
X0154364Y01175*
X0158636*
X0158915Y0117016*
X0159516Y0116415*
X0160253Y0115989*
X0161074Y0115769*
X0161925*
X0162746Y0115989*
X0163483Y0116415*
X0164084Y0117016*
X0164364Y01175*
X0168636*
X0168915Y0117016*
X0169516Y0116415*
X0170253Y0115989*
X0171074Y0115769*
X0171925*
X0172746Y0115989*
X0173483Y0116415*
X0174084Y0117016*
X0174364Y01175*
X0178636*
X0178915Y0117016*
X0179516Y0116415*
X0180253Y0115989*
X0181074Y0115769*
X0181925*
X0182746Y0115989*
X0183483Y0116415*
X0184084Y0117016*
X0184364Y01175*
X0209295*
X0210037Y0117301*
X0210962*
X0211704Y01175*
X0265295*
X0266037Y0117301*
X0266962*
X0267704Y01175*
X0294136*
X0294415Y0117016*
X0295016Y0116415*
X0295753Y0115989*
X0296574Y0115769*
X0297425*
X0298246Y0115989*
X0298983Y0116415*
X0299584Y0117016*
X0299864Y01175*
X0304136*
X0304415Y0117016*
X0305016Y0116415*
X0305753Y0115989*
X0306574Y0115769*
X0307425*
X0308246Y0115989*
X0308983Y0116415*
X0309584Y0117016*
X0309864Y01175*
X0314136*
X0314415Y0117016*
X0315016Y0116415*
X0315753Y0115989*
X0316574Y0115769*
X0317425*
X0318246Y0115989*
X0318983Y0116415*
X0319584Y0117016*
X0319864Y01175*
X0324136*
X0324415Y0117016*
X0325016Y0116415*
X0325753Y0115989*
X0326574Y0115769*
X0327425*
X0328246Y0115989*
X0328983Y0116415*
X0329584Y0117016*
X0329864Y01175*
X0334136*
X0334415Y0117016*
X0335016Y0116415*
X0335753Y0115989*
X0336574Y0115769*
X0337425*
X0338246Y0115989*
X0338983Y0116415*
X0339584Y0117016*
X0339864Y01175*
X0344136*
X0344415Y0117016*
X0345016Y0116415*
X0345753Y0115989*
X0346574Y0115769*
X0347425*
X0348246Y0115989*
X0348983Y0116415*
X0349584Y0117016*
X0349864Y01175*
X0354136*
X0354415Y0117016*
X0355016Y0116415*
X0355753Y0115989*
X0356574Y0115769*
X0357425*
X0358246Y0115989*
X0358983Y0116415*
X0359584Y0117016*
X0359864Y01175*
X0364136*
X0364415Y0117016*
X0365016Y0116415*
X0365753Y0115989*
X0366574Y0115769*
X0367425*
X0368246Y0115989*
X0368983Y0116415*
X0369584Y0117016*
X0369864Y01175*
X0374136*
X0374415Y0117016*
X0375016Y0116415*
X0375753Y0115989*
X0376574Y0115769*
X0377425*
X0378246Y0115989*
X0378983Y0116415*
X0379584Y0117016*
X0379864Y01175*
X0384136*
X0384415Y0117016*
X0385016Y0116415*
X0385753Y0115989*
X0386574Y0115769*
X0387425*
X0388246Y0115989*
X0388983Y0116415*
X0389584Y0117016*
X0389864Y01175*
X0414795*
X0415537Y0117301*
X0416462*
X0417204Y01175*
X0470795*
X0471537Y0117301*
X0472462*
X0473204Y01175*
X0499636*
X0499915Y0117016*
X0500516Y0116415*
X0501253Y0115989*
X0502074Y0115769*
X0502925*
X0503746Y0115989*
X0504483Y0116415*
X0505084Y0117016*
X0505364Y01175*
X0509636*
X0509915Y0117016*
X0510516Y0116415*
X0511253Y0115989*
X0512074Y0115769*
X0512925*
X0513746Y0115989*
X0514483Y0116415*
X0515084Y0117016*
X0515364Y01175*
X0519636*
X0519915Y0117016*
X0520516Y0116415*
X0521253Y0115989*
X0522074Y0115769*
X0522925*
X0523746Y0115989*
X0524483Y0116415*
X0525084Y0117016*
X0525364Y01175*
X0529636*
X0529915Y0117016*
X0530516Y0116415*
X0531253Y0115989*
X0532074Y0115769*
X0532925*
X0533746Y0115989*
X0534483Y0116415*
X0535084Y0117016*
X0535364Y01175*
X0539636*
X0539915Y0117016*
X0540516Y0116415*
X0541253Y0115989*
X0542074Y0115769*
X0542925*
X0543746Y0115989*
X0544483Y0116415*
X0545084Y0117016*
X0545364Y01175*
X0549636*
X0549915Y0117016*
X0550516Y0116415*
X0551253Y0115989*
X0552074Y0115769*
X0552925*
X0553746Y0115989*
X0554483Y0116415*
X0555084Y0117016*
X0555364Y01175*
X0559636*
X0559915Y0117016*
X0560516Y0116415*
X0561253Y0115989*
X0562074Y0115769*
X0562925*
X0563746Y0115989*
X0564483Y0116415*
X0565084Y0117016*
X0565364Y01175*
X0569636*
X0569915Y0117016*
X0570516Y0116415*
X0571253Y0115989*
X0572074Y0115769*
X0572925*
X0573746Y0115989*
X0574483Y0116415*
X0575084Y0117016*
X0575364Y01175*
X0579636*
X0579915Y0117016*
X0580516Y0116415*
X0581253Y0115989*
X0582074Y0115769*
X0582925*
X0583746Y0115989*
X0584483Y0116415*
X0585084Y0117016*
X0585364Y01175*
X0589636*
X0589915Y0117016*
X0590516Y0116415*
X0591253Y0115989*
X0592074Y0115769*
X0592925*
X0593746Y0115989*
X0594483Y0116415*
X0595084Y0117016*
X0595364Y01175*
X0620295*
X0621037Y0117301*
X0621962*
X0622704Y01175*
X0676295*
X0677037Y0117301*
X0677962*
X0678704Y01175*
X0705136*
X0705415Y0117016*
X0706016Y0116415*
X0706753Y0115989*
X0707574Y0115769*
X0708425*
X0709246Y0115989*
X0709983Y0116415*
X0710584Y0117016*
X0710864Y01175*
X0715136*
X0715415Y0117016*
X0716016Y0116415*
X0716753Y0115989*
X0717574Y0115769*
X0718425*
X0719246Y0115989*
X0719983Y0116415*
X0720584Y0117016*
X0720864Y01175*
X0725136*
X0725415Y0117016*
X0726016Y0116415*
X0726753Y0115989*
X0727574Y0115769*
X0728425*
X0729246Y0115989*
X0729983Y0116415*
X0730584Y0117016*
X0730864Y01175*
X0735136*
X0735415Y0117016*
X0736016Y0116415*
X0736753Y0115989*
X0737574Y0115769*
X0738425*
X0739246Y0115989*
X0739983Y0116415*
X0740584Y0117016*
X0740864Y01175*
X0745136*
X0745415Y0117016*
X0746016Y0116415*
X0746753Y0115989*
X0747574Y0115769*
X0748425*
X0749246Y0115989*
X0749983Y0116415*
X0750584Y0117016*
X0750864Y01175*
X0755136*
X0755415Y0117016*
X0756016Y0116415*
X0756753Y0115989*
X0757574Y0115769*
X0758425*
X0759246Y0115989*
X0759983Y0116415*
X0760584Y0117016*
X0760864Y01175*
X0765136*
X0765415Y0117016*
X0766016Y0116415*
X0766753Y0115989*
X0767574Y0115769*
X0768425*
X0769246Y0115989*
X0769983Y0116415*
X0770584Y0117016*
X0770864Y01175*
X0775136*
X0775415Y0117016*
X0776016Y0116415*
X0776753Y0115989*
X0777574Y0115769*
X0778425*
X0779246Y0115989*
X0779983Y0116415*
X0780584Y0117016*
X0780864Y01175*
X0785136*
X0785415Y0117016*
X0786016Y0116415*
X0786753Y0115989*
X0787574Y0115769*
X0788425*
X0789246Y0115989*
X0789983Y0116415*
X0790584Y0117016*
X0790864Y01175*
X0795136*
X0795415Y0117016*
G37*
%LNamp_8ch-2*%
%LPC*%
G36*
X0843886Y016D02*
X0842113D01*
X0840374Y0159654*
X0838736Y0158975*
X0837262Y015799*
X0836009Y0156737*
X0835024Y0155263*
X0834345Y0153625*
X0834Y0151886*
Y0150113*
X0834345Y0148374*
X0835024Y0146736*
X0836009Y0145262*
X0837262Y0144009*
X0838736Y0143024*
X0840374Y0142345*
X0842113Y0142*
X0843886*
X0845625Y0142345*
X0847263Y0143024*
X0848737Y0144009*
X084999Y0145262*
X0850975Y0146736*
X0851654Y0148374*
X0852Y0150113*
Y0151886*
X0851654Y0153625*
X0850975Y0155263*
X084999Y0156737*
X0848737Y015799*
X0847263Y0158975*
X0845625Y0159654*
X0843886Y016*
G37*
G36*
X0013386D02*
X0011613D01*
X0009874Y0159654*
X0008236Y0158975*
X0006762Y015799*
X0005509Y0156737*
X0004524Y0155263*
X0003845Y0153625*
X00035Y0151886*
Y0150113*
X0003845Y0148374*
X0004524Y0146736*
X0005509Y0145262*
X0006762Y0144009*
X0008236Y0143024*
X0009874Y0142345*
X0011613Y0142*
X0013386*
X0015125Y0142345*
X0016763Y0143024*
X0018237Y0144009*
X001949Y0145262*
X0020475Y0146736*
X0021154Y0148374*
X00215Y0150113*
Y0151886*
X0021154Y0153625*
X0020475Y0155263*
X001949Y0156737*
X0018237Y015799*
X0016763Y0158975*
X0015125Y0159654*
X0013386Y016*
G37*
G36*
X0787822Y0145838D02*
X0786548D01*
X0785317Y0145508*
X0784214Y0144871*
X0783313Y0143971*
X0782676Y0142867*
X0782346Y0141637*
Y0140363*
X0782676Y0139132*
X0783313Y0138029*
X0784214Y0137128*
X0785317Y0136491*
X0786548Y0136161*
X0787822*
X0788292Y0136287*
X0805571Y0119008*
X0806398Y0118456*
X0807374Y0118262*
X0824585*
X0824844Y0118002*
X0825645Y011754*
X0826537Y0117301*
X0827462*
X0828354Y011754*
X0829155Y0118002*
X0829808Y0118655*
X083027Y0119456*
X0830509Y0120348*
Y0121273*
X083027Y0122165*
X0829808Y0122966*
X0829155Y0123619*
X0828354Y0124081*
X0827462Y012432*
X0826537*
X0825645Y0124081*
X0824844Y0123619*
X0824585Y012336*
X0808429*
X0791897Y0139892*
X0792023Y0140363*
Y0141637*
X0791693Y0142867*
X0791056Y0143971*
X0790156Y0144871*
X0789052Y0145508*
X0787822Y0145838*
G37*
G36*
X0830509Y0104635D02*
X082349D01*
Y0097616*
X0830509*
Y0104635*
G37*
G36*
X0019094Y0078799D02*
X0017905D01*
X0016738Y0078567*
X0015639Y0078111*
X001465Y007745*
X0013808Y0076609*
X0013148Y007562*
X0012692Y0074521*
X001246Y0073354*
Y0072165*
X0012692Y0070998*
X0013148Y0069899*
X0013808Y006891*
X001465Y0068068*
X0015639Y0067407*
X0016738Y0066952*
X0017905Y006672*
X0019094*
X0020261Y0066952*
X002136Y0067407*
X0022349Y0068068*
X0023191Y006891*
X0023852Y0069899*
X0024307Y0070998*
X0024539Y0072165*
Y0073354*
X0024307Y0074521*
X0023852Y007562*
X0023191Y0076609*
X0022349Y007745*
X002136Y0078111*
X0020261Y0078567*
X0019094Y0078799*
G37*
G36*
X0803169Y008544D02*
X0796641D01*
Y0072811*
X0801006*
X0817194Y0056623*
X0817142Y0056074*
X081675Y0055848*
X0816014Y0055112*
X0815493Y005421*
X0815224Y0053205*
Y0052164*
X0815493Y0051159*
X0816014Y0050258*
X081675Y0049522*
X0817651Y0049001*
X0818656Y0048732*
X0819697*
X0820702Y0049001*
X0821604Y0049522*
X082234Y0050258*
X082286Y0051159*
X0823129Y0052164*
Y0053205*
X082286Y005421*
X082234Y0055112*
X0821604Y0055848*
X0820702Y0056368*
X0820371Y0056457*
Y0057137*
X0820255Y0057723*
X0819923Y0058219*
X0803169Y0074973*
Y008544*
G37*
G36*
X0809855Y0056637D02*
X0808814D01*
X0807808Y0056368*
X0806907Y0055848*
X0806171Y0055112*
X0805653Y0054214*
X0780086*
X0779501Y0054098*
X0779005Y0053766*
X0770947Y0045708*
X0770408Y0046019*
X0769005Y0046395*
X0767552*
X0766149Y0046019*
X0764891Y0045292*
X0763863Y0044265*
X0763137Y0043007*
X0762761Y0041604*
Y0040151*
X0763137Y0038747*
X0763863Y0037489*
X0764891Y0036462*
X0766149Y0035735*
X0767552Y0035359*
X0769005*
X0770408Y0035735*
X0771667Y0036462*
X0772694Y0037489*
X077342Y0038747*
X0773796Y0040151*
Y0041604*
X077342Y0043007*
X077311Y0043545*
X078072Y0051155*
X0805653*
X0806171Y0050258*
X0806907Y0049522*
X0807808Y0049001*
X0808814Y0048732*
X0809855*
X081086Y0049001*
X0811761Y0049522*
X0812497Y0050258*
X0813018Y0051159*
X0813287Y0052164*
Y0053205*
X0813018Y005421*
X0812497Y0055112*
X0811761Y0055848*
X081086Y0056368*
X0809855Y0056637*
G37*
G36*
X0604355D02*
X0603314D01*
X0602308Y0056368*
X0601407Y0055848*
X0600671Y0055112*
X0600153Y0054214*
X0574586*
X0574001Y0054098*
X0573505Y0053766*
X0565447Y0045708*
X0564908Y0046019*
X0563505Y0046395*
X0562052*
X0560649Y0046019*
X0559391Y0045292*
X0558363Y0044265*
X0557637Y0043007*
X0557261Y0041604*
Y0040151*
X0557637Y0038747*
X0558363Y0037489*
X0559391Y0036462*
X0560649Y0035735*
X0562052Y0035359*
X0563505*
X0564908Y0035735*
X0566167Y0036462*
X0567194Y0037489*
X056792Y0038747*
X0568296Y0040151*
Y0041604*
X056792Y0043007*
X056761Y0043545*
X057522Y0051155*
X0600153*
X0600671Y0050258*
X0601407Y0049522*
X0602308Y0049001*
X0603314Y0048732*
X0604355*
X060536Y0049001*
X0606261Y0049522*
X0606997Y0050258*
X0607518Y0051159*
X0607787Y0052164*
Y0053205*
X0607518Y005421*
X0606997Y0055112*
X0606261Y0055848*
X060536Y0056368*
X0604355Y0056637*
G37*
G36*
X0398855D02*
X0397814D01*
X0396808Y0056368*
X0395907Y0055848*
X0395171Y0055112*
X0394653Y0054214*
X0369086*
X0368501Y0054098*
X0368005Y0053766*
X0359947Y0045708*
X0359408Y0046019*
X0358005Y0046395*
X0356552*
X0355149Y0046019*
X0353891Y0045292*
X0352863Y0044265*
X0352137Y0043007*
X0351761Y0041604*
Y0040151*
X0352137Y0038747*
X0352863Y0037489*
X0353891Y0036462*
X0355149Y0035735*
X0356552Y0035359*
X0358005*
X0359408Y0035735*
X0360667Y0036462*
X0361694Y0037489*
X036242Y0038747*
X0362796Y0040151*
Y0041604*
X036242Y0043007*
X036211Y0043545*
X036972Y0051155*
X0394653*
X0395171Y0050258*
X0395907Y0049522*
X0396808Y0049001*
X0397814Y0048732*
X0398855*
X039986Y0049001*
X0400761Y0049522*
X0401497Y0050258*
X0402018Y0051159*
X0402287Y0052164*
Y0053205*
X0402018Y005421*
X0401497Y0055112*
X0400761Y0055848*
X039986Y0056368*
X0398855Y0056637*
G37*
G36*
X0193355D02*
X0192314D01*
X0191308Y0056368*
X0190407Y0055848*
X0189671Y0055112*
X0189153Y0054214*
X0163586*
X0163001Y0054098*
X0162505Y0053766*
X0154447Y0045708*
X0153908Y0046019*
X0152505Y0046395*
X0151052*
X0149649Y0046019*
X0148391Y0045292*
X0147363Y0044265*
X0146637Y0043007*
X0146261Y0041604*
Y0040151*
X0146637Y0038747*
X0147363Y0037489*
X0148391Y0036462*
X0149649Y0035735*
X0151052Y0035359*
X0152505*
X0153908Y0035735*
X0155167Y0036462*
X0156194Y0037489*
X015692Y0038747*
X0157296Y0040151*
Y0041604*
X015692Y0043007*
X015661Y0043545*
X016422Y0051155*
X0189153*
X0189671Y0050258*
X0190407Y0049522*
X0191308Y0049001*
X0192314Y0048732*
X0193355*
X019436Y0049001*
X0195261Y0049522*
X0195997Y0050258*
X0196518Y0051159*
X0196787Y0052164*
Y0053205*
X0196518Y005421*
X0195997Y0055112*
X0195261Y0055848*
X019436Y0056368*
X0193355Y0056637*
G37*
G36*
X0748533Y00586D02*
X074708D01*
X0745677Y0058224*
X0744418Y0057497*
X0743391Y005647*
X0742665Y0055212*
X0742289Y0053808*
Y0052355*
X0742665Y0050952*
X0742975Y0050414*
X073959Y0047029*
X0687653*
X0683519Y0051163*
X0683787Y0052164*
Y0053205*
X0683518Y005421*
X0682997Y0055112*
X0682261Y0055848*
X068136Y0056368*
X0680355Y0056637*
X0679314*
X0678308Y0056368*
X0677407Y0055848*
X0676671Y0055112*
X0676151Y005421*
X0675881Y0053205*
Y0052164*
X0676151Y0051159*
X0676671Y0050258*
X0677407Y0049522*
X0678308Y0049001*
X0679314Y0048732*
X0680355*
X0681356Y0049*
X0685938Y0044418*
X0686434Y0044087*
X0687019Y004397*
X0740224*
X0740809Y0044087*
X0741305Y0044418*
X0745138Y0048251*
X0745677Y004794*
X074708Y0047564*
X0748533*
X0749936Y004794*
X0751194Y0048667*
X0752222Y0049694*
X0752948Y0050952*
X0753324Y0052355*
Y0053808*
X0752948Y0055212*
X0752222Y005647*
X0751194Y0057497*
X0749936Y0058224*
X0748533Y00586*
G37*
G36*
X0543033D02*
X054158D01*
X0540177Y0058224*
X0538918Y0057497*
X0537891Y005647*
X0537165Y0055212*
X0536789Y0053808*
Y0052355*
X0537165Y0050952*
X0537475Y0050414*
X053409Y0047029*
X0482153*
X0478019Y0051163*
X0478287Y0052164*
Y0053205*
X0478018Y005421*
X0477497Y0055112*
X0476761Y0055848*
X047586Y0056368*
X0474855Y0056637*
X0473814*
X0472808Y0056368*
X0471907Y0055848*
X0471171Y0055112*
X0470651Y005421*
X0470381Y0053205*
Y0052164*
X0470651Y0051159*
X0471171Y0050258*
X0471907Y0049522*
X0472808Y0049001*
X0473814Y0048732*
X0474855*
X0475856Y0049*
X0480438Y0044418*
X0480934Y0044087*
X0481519Y004397*
X0534724*
X0535309Y0044087*
X0535805Y0044418*
X0539638Y0048251*
X0540177Y004794*
X054158Y0047564*
X0543033*
X0544436Y004794*
X0545694Y0048667*
X0546722Y0049694*
X0547448Y0050952*
X0547824Y0052355*
Y0053808*
X0547448Y0055212*
X0546722Y005647*
X0545694Y0057497*
X0544436Y0058224*
X0543033Y00586*
G37*
G36*
X0337533D02*
X033608D01*
X0334676Y0058224*
X0333418Y0057497*
X0332391Y005647*
X0331665Y0055212*
X0331289Y0053808*
Y0052355*
X0331665Y0050952*
X0331975Y0050414*
X032859Y0047029*
X0276653*
X0272519Y0051163*
X0272787Y0052164*
Y0053205*
X0272518Y005421*
X0271997Y0055112*
X0271261Y0055848*
X027036Y0056368*
X0269355Y0056637*
X0268314*
X0267308Y0056368*
X0266407Y0055848*
X0265671Y0055112*
X0265151Y005421*
X0264881Y0053205*
Y0052164*
X0265151Y0051159*
X0265671Y0050258*
X0266407Y0049522*
X0267308Y0049001*
X0268314Y0048732*
X0269355*
X0270356Y0049*
X0274938Y0044418*
X0275434Y0044087*
X0276019Y004397*
X0329224*
X0329809Y0044087*
X0330305Y0044418*
X0334138Y0048251*
X0334676Y004794*
X033608Y0047564*
X0337533*
X0338936Y004794*
X0340194Y0048667*
X0341222Y0049694*
X0341948Y0050952*
X0342324Y0052355*
Y0053808*
X0341948Y0055212*
X0341222Y005647*
X0340194Y0057497*
X0338936Y0058224*
X0337533Y00586*
G37*
G36*
X0132033D02*
X013058D01*
X0129177Y0058224*
X0127918Y0057497*
X0126891Y005647*
X0126165Y0055212*
X0125789Y0053808*
Y0052355*
X0126165Y0050952*
X0126475Y0050414*
X012309Y0047029*
X0071153*
X0067019Y0051163*
X0067287Y0052164*
Y0053205*
X0067018Y005421*
X0066497Y0055112*
X0065761Y0055848*
X006486Y0056368*
X0063855Y0056637*
X0062814*
X0061808Y0056368*
X0060907Y0055848*
X0060171Y0055112*
X0059651Y005421*
X0059381Y0053205*
Y0052164*
X0059651Y0051159*
X0060171Y0050258*
X0060907Y0049522*
X0061808Y0049001*
X0062814Y0048732*
X0063855*
X0064856Y0049*
X0069438Y0044418*
X0069934Y0044087*
X0070519Y004397*
X0123724*
X0124309Y0044087*
X0124805Y0044418*
X0128638Y0048251*
X0129177Y004794*
X013058Y0047564*
X0132033*
X0133436Y004794*
X0134694Y0048667*
X0135722Y0049694*
X0136448Y0050952*
X0136824Y0052355*
Y0053808*
X0136448Y0055212*
X0135722Y005647*
X0134694Y0057497*
X0133436Y0058224*
X0132033Y00586*
G37*
G36*
X0754522Y0044042D02*
X0753689D01*
X0752884Y0043827*
X0752162Y004341*
X0751573Y0042821*
X0751156Y0042099*
X075094Y0041294*
Y004046*
X0751156Y0039655*
X0751573Y0038934*
X0752162Y0038344*
X0752884Y0037927*
X0753689Y0037712*
X0754522*
X0755327Y0037927*
X0756049Y0038344*
X0756638Y0038934*
X0757055Y0039655*
X0757271Y004046*
Y0041294*
X0757055Y0042099*
X0756638Y0042821*
X0756049Y004341*
X0755327Y0043827*
X0754522Y0044042*
G37*
G36*
X0549022D02*
X0548189D01*
X0547384Y0043827*
X0546662Y004341*
X0546073Y0042821*
X0545656Y0042099*
X054544Y0041294*
Y004046*
X0545656Y0039655*
X0546073Y0038934*
X0546662Y0038344*
X0547384Y0037927*
X0548189Y0037712*
X0549022*
X0549827Y0037927*
X0550549Y0038344*
X0551138Y0038934*
X0551555Y0039655*
X0551771Y004046*
Y0041294*
X0551555Y0042099*
X0551138Y0042821*
X0550549Y004341*
X0549827Y0043827*
X0549022Y0044042*
G37*
G36*
X0343522D02*
X0342689D01*
X0341884Y0043827*
X0341162Y004341*
X0340573Y0042821*
X0340156Y0042099*
X033994Y0041294*
Y004046*
X0340156Y0039655*
X0340573Y0038934*
X0341162Y0038344*
X0341884Y0037927*
X0342689Y0037712*
X0343522*
X0344327Y0037927*
X0345049Y0038344*
X0345638Y0038934*
X0346055Y0039655*
X0346271Y004046*
Y0041294*
X0346055Y0042099*
X0345638Y0042821*
X0345049Y004341*
X0344327Y0043827*
X0343522Y0044042*
G37*
G36*
X0138022D02*
X0137189D01*
X0136384Y0043827*
X0135662Y004341*
X0135073Y0042821*
X0134656Y0042099*
X013444Y0041294*
Y004046*
X0134656Y0039655*
X0135073Y0038934*
X0135662Y0038344*
X0136384Y0037927*
X0137189Y0037712*
X0138022*
X0138827Y0037927*
X0139549Y0038344*
X0140138Y0038934*
X0140555Y0039655*
X0140771Y004046*
Y0041294*
X0140555Y0042099*
X0140138Y0042821*
X0139549Y004341*
X0138827Y0043827*
X0138022Y0044042*
G37*
G36*
X0754522Y0024357D02*
X0753689D01*
X0752884Y0024142*
X0752162Y0023725*
X0751573Y0023136*
X0751156Y0022414*
X075094Y0021609*
Y0020775*
X0751156Y001997*
X0751573Y0019249*
X0752162Y0018659*
X0752884Y0018242*
X0753689Y0018027*
X0754522*
X0755327Y0018242*
X0756049Y0018659*
X0756638Y0019249*
X0757055Y001997*
X0757271Y0020775*
Y0021609*
X0757055Y0022414*
X0756638Y0023136*
X0756049Y0023725*
X0755327Y0024142*
X0754522Y0024357*
G37*
G36*
X0549022D02*
X0548189D01*
X0547384Y0024142*
X0546662Y0023725*
X0546073Y0023136*
X0545656Y0022414*
X054544Y0021609*
Y0020775*
X0545656Y001997*
X0546073Y0019249*
X0546662Y0018659*
X0547384Y0018242*
X0548189Y0018027*
X0549022*
X0549827Y0018242*
X0550549Y0018659*
X0551138Y0019249*
X0551555Y001997*
X0551771Y0020775*
Y0021609*
X0551555Y0022414*
X0551138Y0023136*
X0550549Y0023725*
X0549827Y0024142*
X0549022Y0024357*
G37*
G36*
X0343522D02*
X0342689D01*
X0341884Y0024142*
X0341162Y0023725*
X0340573Y0023136*
X0340156Y0022414*
X033994Y0021609*
Y0020775*
X0340156Y001997*
X0340573Y0019249*
X0341162Y0018659*
X0341884Y0018242*
X0342689Y0018027*
X0343522*
X0344327Y0018242*
X0345049Y0018659*
X0345638Y0019249*
X0346055Y001997*
X0346271Y0020775*
Y0021609*
X0346055Y0022414*
X0345638Y0023136*
X0345049Y0023725*
X0344327Y0024142*
X0343522Y0024357*
G37*
G36*
X0138022D02*
X0137189D01*
X0136384Y0024142*
X0135662Y0023725*
X0135073Y0023136*
X0134656Y0022414*
X013444Y0021609*
Y0020775*
X0134656Y001997*
X0135073Y0019249*
X0135662Y0018659*
X0136384Y0018242*
X0137189Y0018027*
X0138022*
X0138827Y0018242*
X0139549Y0018659*
X0140138Y0019249*
X0140555Y001997*
X0140771Y0020775*
Y0021609*
X0140555Y0022414*
X0140138Y0023136*
X0139549Y0023725*
X0138827Y0024142*
X0138022Y0024357*
G37*
G36*
X0013386Y00215D02*
X0011613D01*
X0009874Y0021154*
X0008236Y0020475*
X0006762Y001949*
X0005509Y0018237*
X0004524Y0016763*
X0003845Y0015125*
X00035Y0013386*
Y0011613*
X0003845Y0009874*
X0004524Y0008236*
X0005509Y0006762*
X0006762Y0005509*
X0008236Y0004524*
X0009874Y0003845*
X0011613Y00035*
X0013386*
X0015125Y0003845*
X0016763Y0004524*
X0018237Y0005509*
X001949Y0006762*
X0020475Y0008236*
X0021154Y0009874*
X00215Y0011613*
Y0013386*
X0021154Y0015125*
X0020475Y0016763*
X001949Y0018237*
X0018237Y001949*
X0016763Y0020475*
X0015125Y0021154*
X0013386Y00215*
G37*
G36*
X0681009Y0104635D02*
X067399D01*
Y0097616*
X0681009*
Y0104635*
G37*
G36*
X0625009D02*
X061799D01*
Y0097616*
X0625009*
Y0104635*
G37*
G36*
X0475509D02*
X046849D01*
Y0097616*
X0475509*
Y0104635*
G37*
G36*
X0419509D02*
X041249D01*
Y0097616*
X0419509*
Y0104635*
G37*
G36*
X0270009D02*
X026299D01*
Y0097616*
X0270009*
Y0104635*
G37*
G36*
X0214009D02*
X020699D01*
Y0097616*
X0214009*
Y0104635*
G37*
G36*
X0064509D02*
X005749D01*
Y0097616*
X0064509*
Y0104635*
G37*
G36*
X0019094Y0107539D02*
X0017905D01*
X0016738Y0107307*
X0015639Y0106852*
X001465Y0106191*
X0013808Y0105349*
X0013148Y010436*
X0012692Y0103261*
X001246Y0102094*
Y0100905*
X0012692Y0099738*
X0013148Y0098639*
X0013808Y009765*
X001465Y0096808*
X0015639Y0096148*
X0016738Y0095692*
X0017905Y009546*
X0019094*
X0020261Y0095692*
X002136Y0096148*
X0022349Y0096808*
X0023191Y009765*
X0023852Y0098639*
X0024307Y0099738*
X0024539Y0100905*
Y0102094*
X0024307Y0103261*
X0023852Y010436*
X0023191Y0105349*
X0022349Y0106191*
X002136Y0106852*
X0020261Y0107307*
X0019094Y0107539*
G37*
%LNamp_8ch-3*%
%LPD*%
G54D13*
X0708Y0080031D02*
Y0089D01*
Y0080031D02*
X0708905Y0079126D01*
X0728Y0080929D02*
Y0089D01*
X0727696Y0080626D02*
X0728Y0080929D01*
X0788Y007922D02*
Y0089D01*
Y007922D02*
X0788094Y0079126D01*
X0696594Y0076074D02*
Y0079126D01*
X0689677Y0052685D02*
Y0069157D01*
X0696594Y0076074*
X0818842Y0053019D02*
X0819177Y0052685D01*
X0818842Y0053019D02*
Y0057137D01*
X0799905Y0076074D02*
Y0079126D01*
Y0076074D02*
X0818842Y0057137D01*
X0768Y0083173D02*
Y0089D01*
Y0083173D02*
X0768047Y0083126D01*
X0777337Y0088337D02*
X0778Y0089D01*
X0777337Y0086609D02*
Y0088337D01*
X0773952Y0083027D02*
Y0083126D01*
Y0083224*
X0777337Y0086609*
X0771519Y0080594D02*
X0773952Y0083027D01*
X0771519Y0072626D02*
Y0080594D01*
X0728094Y0072626D02*
X073648D01*
X0728Y0072531D02*
X0728094Y0072626D01*
X0687019Y00455D02*
X0740224D01*
X0747806Y0053082*
X0679834Y0052685D02*
X0687019Y00455D01*
X0780086Y0052685D02*
X0809334D01*
X0768279Y0040877D02*
X0780086Y0052685D01*
X05025Y0080031D02*
Y0089D01*
Y0080031D02*
X0503405Y0079126D01*
X05225Y0080929D02*
Y0089D01*
X0522196Y0080626D02*
X05225Y0080929D01*
X05825Y007922D02*
Y0089D01*
Y007922D02*
X0582594Y0079126D01*
X0491094Y0076074D02*
Y0079126D01*
X0484177Y0052685D02*
Y0069157D01*
X0491094Y0076074*
X0613342Y0053019D02*
X0613677Y0052685D01*
X0613342Y0053019D02*
Y0057137D01*
X0594405Y0076074D02*
Y0079126D01*
Y0076074D02*
X0613342Y0057137D01*
X05625Y0083173D02*
Y0089D01*
Y0083173D02*
X0562547Y0083126D01*
X0571837Y0088337D02*
X05725Y0089D01*
X0571837Y0086609D02*
Y0088337D01*
X0568452Y0083027D02*
Y0083126D01*
Y0083224*
X0571837Y0086609*
X0566019Y0080594D02*
X0568452Y0083027D01*
X0566019Y0072626D02*
Y0080594D01*
X0522594Y0072626D02*
X053098D01*
X05225Y0072531D02*
X0522594Y0072626D01*
X0481519Y00455D02*
X0534724D01*
X0542306Y0053082*
X0474334Y0052685D02*
X0481519Y00455D01*
X0574586Y0052685D02*
X0603834D01*
X0562779Y0040877D02*
X0574586Y0052685D01*
X0297Y0080031D02*
Y0089D01*
Y0080031D02*
X0297905Y0079126D01*
X0317Y0080929D02*
Y0089D01*
X0316696Y0080626D02*
X0317Y0080929D01*
X0377Y007922D02*
Y0089D01*
Y007922D02*
X0377094Y0079126D01*
X0285594Y0076074D02*
Y0079126D01*
X0278677Y0052685D02*
Y0069157D01*
X0285594Y0076074*
X0407842Y0053019D02*
X0408177Y0052685D01*
X0407842Y0053019D02*
Y0057137D01*
X0388905Y0076074D02*
Y0079126D01*
Y0076074D02*
X0407842Y0057137D01*
X0357Y0083173D02*
Y0089D01*
Y0083173D02*
X0357047Y0083126D01*
X0366337Y0088337D02*
X0367Y0089D01*
X0366337Y0086609D02*
Y0088337D01*
X0362952Y0083027D02*
Y0083126D01*
Y0083224*
X0366337Y0086609*
X0360519Y0080594D02*
X0362952Y0083027D01*
X0360519Y0072626D02*
Y0080594D01*
X0317094Y0072626D02*
X032548D01*
X0317Y0072531D02*
X0317094Y0072626D01*
X0276019Y00455D02*
X0329224D01*
X0336806Y0053082*
X0268834Y0052685D02*
X0276019Y00455D01*
X0369086Y0052685D02*
X0398334D01*
X0357279Y0040877D02*
X0369086Y0052685D01*
X0070519Y00455D02*
X0123724D01*
X0063334Y0052685D02*
X0070519Y00455D01*
X0123724D02*
X0131306Y0053082D01*
X0163586Y0052685D02*
X0192834D01*
X0151779Y0040877D02*
X0163586Y0052685D01*
X0073177Y0069157D02*
X0080094Y0076074D01*
X0073177Y0052685D02*
Y0069157D01*
X0080094Y0076074D02*
Y0079126D01*
X0160837Y0086609D02*
Y0088337D01*
X0157452Y0083126D02*
Y0083224D01*
X0160837Y0086609*
Y0088337D02*
X01615Y0089D01*
X00915Y0080031D02*
Y0089D01*
Y0080031D02*
X0092405Y0079126D01*
X01115Y0080929D02*
Y0089D01*
X0111196Y0080626D02*
X01115Y0080929D01*
X01715Y007922D02*
Y0089D01*
Y007922D02*
X0171594Y0079126D01*
X0183405Y0076074D02*
Y0079126D01*
Y0076074D02*
X0202342Y0057137D01*
Y0053019D02*
Y0057137D01*
Y0053019D02*
X0202677Y0052685D01*
X01515Y0083173D02*
Y0089D01*
Y0083173D02*
X0151547Y0083126D01*
X0157452Y0083027D02*
Y0083126D01*
X0155019Y0080594D02*
X0157452Y0083027D01*
X0155019Y0072626D02*
Y0080594D01*
X01115Y0072531D02*
X0111594Y0072626D01*
X011998*
G54D14*
X0696594Y0079126D03*
X0708405D03*
X0788094D03*
X0799905D03*
X0491094D03*
X0502905D03*
X0582594D03*
X0594405D03*
X0285594D03*
X0297405D03*
X0377094D03*
X0388905D03*
X0080094D03*
X0091905D03*
X0171594D03*
X0183405D03*
G54D15*
X0717303Y0080626D03*
X0727696D03*
X0511803D03*
X0522196D03*
X0306303D03*
X0316696D03*
X0100803D03*
X0111196D03*
G54D16*
X0771519Y0072626D03*
X073648D03*
X0566019D03*
X053098D03*
X0360519D03*
X032548D03*
X0155019D03*
X011998D03*
G54D17*
X0768047Y0083126D03*
X0773952D03*
X0562547D03*
X0568452D03*
X0357047D03*
X0362952D03*
X0151547D03*
X0157452D03*
G54D18*
X0728Y0072531D03*
Y006072D03*
X05225Y0072531D03*
Y006072D03*
X0317Y0072531D03*
Y006072D03*
X01115Y0072531D03*
Y006072D03*
G54D39*
X068734Y0130651D02*
X0727336D01*
X0737685Y0141*
X06775Y0120811D02*
X068734Y0130651D01*
X0807374Y0120811D02*
X0827D01*
X0787185Y0141D02*
X0807374Y0120811D01*
X048184Y0130651D02*
X0521836D01*
X0532185Y0141*
X0472Y0120811D02*
X048184Y0130651D01*
X0601874Y0120811D02*
X06215D01*
X0581685Y0141D02*
X0601874Y0120811D01*
X027634Y0130651D02*
X0316336D01*
X0326685Y0141*
X02665Y0120811D02*
X027634Y0130651D01*
X0396374Y0120811D02*
X0416D01*
X0376185Y0141D02*
X0396374Y0120811D01*
X007084Y0130651D02*
X0110836D01*
X0061Y0120811D02*
X007084Y0130651D01*
X0170685Y0141D02*
X0190874Y0120811D01*
X02105*
X0110836Y0130651D02*
X0121185Y0141D01*
G54D40*
X0843Y0151D03*
X00125D03*
Y00125D03*
G54D41*
X0754105Y0040877D03*
Y0021192D03*
X0548605Y0040877D03*
Y0021192D03*
X0343105Y0040877D03*
Y0021192D03*
X0137605Y0040877D03*
Y0021192D03*
G54D42*
X0771822Y0021192D03*
X0747806Y0053082D03*
X0768279Y0040877D03*
X0566322Y0021192D03*
X0542306Y0053082D03*
X0562779Y0040877D03*
X0360822Y0021192D03*
X0336806Y0053082D03*
X0357279Y0040877D03*
X0155322Y0021192D03*
X0131306Y0053082D03*
X0151779Y0040877D03*
G54D43*
X0735208Y0021192D03*
X0529708D03*
X0324208D03*
X0118708D03*
G54D44*
X00185Y0093035D03*
G54D45*
X00185Y0081224D03*
G54D46*
X00185Y01015D03*
Y0072759D03*
G54D47*
X0699519Y0052685D03*
X0689677D03*
X0679834D03*
X0829019D03*
X0819177D03*
X0809334D03*
X0494019D03*
X0484177D03*
X0474334D03*
X0623519D03*
X0613677D03*
X0603834D03*
X0288519D03*
X0278677D03*
X0268834D03*
X0418019D03*
X0408177D03*
X0398334D03*
X0083019D03*
X0073177D03*
X0063334D03*
X0212519D03*
X0202677D03*
X0192834D03*
G54D48*
X0707Y0025126D03*
X0672354D03*
X08365D03*
X0801854D03*
X05015D03*
X0466854D03*
X0631D03*
X0596354D03*
X0296D03*
X0261354D03*
X04255D03*
X0390854D03*
X00905D03*
X0055854D03*
X022D03*
X0185354D03*
G54D49*
X0708Y0089D03*
X05025D03*
X0297D03*
X00915D03*
G54D50*
X0718Y0089D03*
X0728D03*
X0738D03*
X0748D03*
X0758D03*
X0768D03*
X0778D03*
X0788D03*
X0798D03*
Y0119D03*
X0788D03*
X0778D03*
X0768D03*
X0758D03*
X0748D03*
X0738D03*
X0728D03*
X0718D03*
X0708D03*
X05125Y0089D03*
X05225D03*
X05325D03*
X05425D03*
X05525D03*
X05625D03*
X05725D03*
X05825D03*
X05925D03*
Y0119D03*
X05825D03*
X05725D03*
X05625D03*
X05525D03*
X05425D03*
X05325D03*
X05225D03*
X05125D03*
X05025D03*
X0307Y0089D03*
X0317D03*
X0327D03*
X0337D03*
X0347D03*
X0357D03*
X0367D03*
X0377D03*
X0387D03*
Y0119D03*
X0377D03*
X0367D03*
X0357D03*
X0347D03*
X0337D03*
X0327D03*
X0317D03*
X0307D03*
X0297D03*
X01015Y0089D03*
X01115D03*
X01215D03*
X01315D03*
X01415D03*
X01515D03*
X01615D03*
X01715D03*
X01815D03*
Y0119D03*
X01715D03*
X01615D03*
X01515D03*
X01415D03*
X01315D03*
X01215D03*
X01115D03*
X01015D03*
X00915D03*
G54D51*
X06775Y0101126D03*
X0827D03*
X0472D03*
X06215D03*
X02665D03*
X0416D03*
X0061D03*
X02105D03*
G54D52*
X06775Y0120811D03*
X0827D03*
X0472D03*
X06215D03*
X02665D03*
X0416D03*
X0061D03*
X02105D03*
G54D53*
X0718Y0141D03*
X0737685D03*
X07675D03*
X0787185D03*
X05125D03*
X0532185D03*
X0562D03*
X0581685D03*
X0307D03*
X0326685D03*
X03565D03*
X0376185D03*
X01015D03*
X0121185D03*
X0151D03*
X0170685D03*
G54D54*
X0104Y00605D03*
M02*